<svg xmlns="http://www.w3.org/2000/svg" xmlns:xlink="http://www.w3.org/1999/xlink"><defs><symbol viewBox="0 0 24 24" fill="none" id="age"><path fill-rule="evenodd" clip-rule="evenodd" d="M21 12a8.97 8.97 0 01-2.448 6.17C16.92 15.908 14.438 15 12 15c-2.438 0-4.92.908-6.552 3.17A9 9 0 1121 12zM6.181 18.866A8.964 8.964 0 0012 21c2.219 0 4.25-.803 5.819-2.134C16.41 16.834 14.228 16 12 16c-2.228 0-4.411.834-5.819 2.866zM22 12c0 5.523-4.477 10-10 10S2 17.523 2 12 6.477 2 12 2s10 4.477 10 10zm-7-3a3 3 0 11-6 0 3 3 0 016 0zm1 0a4 4 0 11-8 0 4 4 0 018 0z" fill="#35A47C"/></symbol><symbol viewBox="0 0 8 8" id="arrow"><path d="M.233 2.241a.786.786 0 011.133 0L4 5.011l2.633-2.77a.786.786 0 011.133 0 .843.843 0 010 1.167L4.569 6.759A.784.784 0 014 7a.788.788 0 01-.569-.24L.235 3.407A.844.844 0 01.233 2.24z"/></symbol><symbol viewBox="0 0 8 12" id="arrowLeft"><path fill-rule="evenodd" clip-rule="evenodd" d="M3 6l4.5-4.5L6 0 0 6l6 6 1.5-1.5L3 6z"/></symbol><symbol viewBox="0 0 6 12" id="arrowLong"><path d="M2.71.563V9H1.549c-.516 0-.776.606-.41.96l1.934 1.875c.227.22.595.22.821 0L5.83 9.96c.363-.352.108-.96-.411-.96H4.258V.562c0-.31-.26-.562-.58-.562H3.29c-.32 0-.58.252-.58.563z"/></symbol><symbol viewBox="0 0 8 12" id="arrowRight"><path fill-rule="evenodd" clip-rule="evenodd" d="M5 6L.5 1.5 2 0l6 6-6 6-1.5-1.5L5 6z"/></symbol><symbol viewBox="0 0 32 32" fill="none" id="boy"><path d="M16.572 0c-2.107 0-4.021.692-5.438 1.82A4.11 4.11 0 007.525 5.9v1.713a3.106 3.106 0 002.812 3.092c1.447 1.555 3.702 2.556 6.235 2.556 4.365 0 7.903-2.969 7.903-6.63 0-3.662-3.538-6.63-7.903-6.63z" fill="#242526"/><path d="M27.278 30.912v.701a.386.386 0 01-.386.387H5.108a.386.386 0 01-.386-.387v-.701c0-2.299.688-4.437 1.869-6.22a11.316 11.316 0 014.26-3.817l.113-.057A11.251 11.251 0 0116 19.634a11.25 11.25 0 015.036 1.184l.113.057a11.286 11.286 0 014.26 3.817 11.221 11.221 0 011.87 6.22z" fill="#5F768D"/><path d="M19.575 20.212a3.575 3.575 0 01-7.15 0A11.254 11.254 0 0116 19.634c1.25 0 2.452.202 3.575.578z" fill="#FDCC9B"/><path d="M19.575 20.212a3.576 3.576 0 01-7.15 0c.252-.084.51-.16.77-.226.019.293.056.562.114.802A2.768 2.768 0 0016 22.894a2.75 2.75 0 001.936-.79c.374-.365.633-.82.755-1.316.064-.229.102-.499.118-.801.26.066.514.142.766.225z" fill="#EDB48A"/><path d="M17.838 16.284h-3.676v4.25h3.676v-4.25z" fill="#FDCC9B"/><path d="M17.838 16.284v2.853a5.5 5.5 0 01-3.676 0v-2.853h3.676zm6.795-4.961a1.512 1.512 0 11-3.024 0 1.512 1.512 0 013.024 0zm-14.243 0a1.511 1.511 0 11-3.023 0 1.511 1.511 0 013.023 0z" fill="#EDB48A"/><path d="M22 6v5.372C22 15.585 19.314 19 16 19c-3.313 0-6-3.415-6-7.628V6h12z" fill="#FDCC9B"/><path d="M13.364 12.77a.483.483 0 01-.483-.484v-.803a.483.483 0 11.966 0v.803a.483.483 0 01-.483.483zm5.272 0a.483.483 0 01-.483-.484v-.803a.483.483 0 11.966 0v.803a.483.483 0 01-.483.483z" fill="#864A2D"/><path d="M22.023 4H11.475C10.108 4 9 5.267 9 6.83V9h.742c1.373 0 2.486-1.273 2.486-2.843 0 0 4.47 4.817 10.772.37L22.023 4z" fill="#232526"/><path d="M17.767 28.134l-1.424-2.278a.386.386 0 00-.653-.004l-1.458 2.279-1.002-1.26a.386.386 0 00-.688.237l-.024 2.835a.386.386 0 00.386.39h6.163a.386.386 0 00.386-.383l.024-2.83a.386.386 0 00-.686-.247l-1.024 1.261z" fill="#FFEB99"/><path d="M3 22h11a2 2 0 012 2v8H3V22z" fill="#fff"/><path d="M29 22H18a2 2 0 00-2 2v8h13V22z" fill="#C7CBCF"/><ellipse cx="3" cy="28.5" rx="2" ry="2.5" fill="#FBCBA8"/><ellipse cx="29" cy="28.5" rx="2" ry="2.5" fill="#FBCBA8"/><path fill="#C7CBCF" d="M5 25h9v1H5zm0 3h9v1H5z"/></symbol><symbol viewBox="0 0 24 24" fill="none" id="calendar"><path fill-rule="evenodd" clip-rule="evenodd" d="M6 2.5a.5.5 0 011 0V4h10V2.5a.5.5 0 011 0V4h2a2 2 0 012 2v14a2 2 0 01-2 2H4a2 2 0 01-2-2V6a2 2 0 012-2h2V2.5zM21 6v2H3V6a1 1 0 011-1h2v.5a.5.5 0 001 0V5h10v.5a.5.5 0 001 0V5h2a1 1 0 011 1zM3 20V9h18v11a1 1 0 01-1 1H4a1 1 0 01-1-1zm13.113-8.838a.498.498 0 01.735 0 .58.58 0 010 .783L11.32 17.83a.518.518 0 01-.17.12.497.497 0 01-.582-.113l-2.416-2.573a.58.58 0 010-.782.498.498 0 01.735 0l2.054 2.186 5.172-5.507z" fill="#35A47C"/></symbol><symbol viewBox="0 0 24 24" fill="none" id="card"><path fill-rule="evenodd" clip-rule="evenodd" d="M19 4H2a1 1 0 00-1 1v11a1 1 0 001 1h17a1 1 0 001-1V5a1 1 0 00-1-1zM2 3a2 2 0 00-2 2v11a2 2 0 002 2h17a2 2 0 002-2V5a2 2 0 00-2-2H2z" fill="#35A47C"/><path d="M3 8a2 2 0 012-2h17a2 2 0 012 2v11a2 2 0 01-2 2H5a2 2 0 01-2-2V8z" fill="#fff"/><path fill-rule="evenodd" clip-rule="evenodd" d="M22 7H5a1 1 0 00-1 1v11a1 1 0 001 1h17a1 1 0 001-1V8a1 1 0 00-1-1zM5 6a2 2 0 00-2 2v11a2 2 0 002 2h17a2 2 0 002-2V8a2 2 0 00-2-2H5z" fill="#35A47C"/><path fill-rule="evenodd" clip-rule="evenodd" d="M23 10H4v2h19v-2zM3 9v4h21V9H3z" fill="#35A47C"/><path d="M6 16.5a.5.5 0 01.5-.5h7a.5.5 0 010 1h-7a.5.5 0 01-.5-.5z" fill="#35A47C"/></symbol><symbol viewBox="0 0 24 24" fill="none" id="cashboxTerminal"><path fill-rule="evenodd" clip-rule="evenodd" d="M12 3.206L4.882 8h14.236L12 3.206zm.28-1.018a.5.5 0 00-.56 0L2.967 8.085a.5.5 0 00.28.915h17.51a.5.5 0 00.278-.915L12.28 2.188zM5 18v1h14v-1H5zm-.4-1a.6.6 0 00-.6.6v1.8a.6.6 0 00.6.6h14.8a.6.6 0 00.6-.6v-1.8a.6.6 0 00-.6-.6H4.6z" fill="#35A47C"/><path fill-rule="evenodd" clip-rule="evenodd" d="M4 20v1h16v-1H4zm-.4-1a.6.6 0 00-.6.6v1.8a.6.6 0 00.6.6h16.8a.6.6 0 00.6-.6v-1.8a.6.6 0 00-.6-.6H3.6zM6 9v8h2V9H6zm-.4-1a.6.6 0 00-.6.6v8.8a.6.6 0 00.6.6h2.8a.6.6 0 00.6-.6V8.6a.6.6 0 00-.6-.6H5.6zM11 9v8h2V9h-2zm-.4-1a.6.6 0 00-.6.6v8.8a.6.6 0 00.6.6h2.8a.6.6 0 00.6-.6V8.6a.6.6 0 00-.6-.6h-2.8zM16 9v8h2V9h-2zm-.4-1a.6.6 0 00-.6.6v8.8a.6.6 0 00.6.6h2.8a.6.6 0 00.6-.6V8.6a.6.6 0 00-.6-.6h-2.8z" fill="#35A47C"/><path d="M13 6a1 1 0 11-2 0 1 1 0 012 0z" fill="#35A47C"/></symbol><symbol viewBox="0 0 56 56" fill="none" id="chat"><path d="M51.302 23.294L32.892 4.59c-.73-.722-1.823-.813-2.553-.09l-1.913 1.717c-.365.271-.365.904 0 1.265l1.093 1.084-21.965 32.35-1.002-.994a.886.886 0 00-1.276 0C4.456 40.734 4 41.819 4 42.903c0 1.084.18 2.122 1 2.935l5 4.958c1.64 1.626 4.481 1.595 6.122-.032a.816.816 0 00.273-.632v-.09c0-.181-.091-.452-.182-.543l-1.276-1.265 4.374-2.891 1.185 1.897c1.185 1.898 3.281 2.892 5.378 2.892 1.184 0 2.37-.362 3.463-.994 2.916-1.898 3.828-5.783 2.005-8.675l-1.367-2.169 17.681-11.656 1.276 1.265c.365.27.911.27 1.276 0l.911-.813c1.094-1.085 1.185-2.802.183-3.796zM28.334 47.602c-2.096 1.355-4.921.723-6.288-1.356L20.86 44.35l7.565-4.97 1.276 1.988c1.367 2.078.729 4.88-1.368 6.235z" fill="#8B7FC6"/><path d="M7.555 41.034l7.382 7.382 32.72-21.782L29.5 8.5 7.555 41.034z" fill="#B8AEE9"/></symbol><symbol viewBox="0 0 11 8" id="check"><path fill-rule="evenodd" clip-rule="evenodd" d="M11 1L4 8 0 4l1-1 3 3 6-6 1 1z"/></symbol><symbol viewBox="0 0 64 64" fill="none" id="chooseData"><path d="M8 32.306a7.429 7.429 0 013.19-6.101L23 18v44H11.429A3.429 3.429 0 018 58.571V32.306z" fill="#FFDAC6"/><path d="M13.979 35.975a7.429 7.429 0 013.308-6.18l6.977-4.652V52.57h-6.857a3.429 3.429 0 01-3.428-3.428V35.975z" fill="#FFC19E"/><rect x="17.143" y="2.286" width="34.286" height="59.429" rx="3.429" fill="#fff"/><path fill="#CCD2DC" d="M19 37h31v23H19z"/><path d="M30.686 26.41c0-.334.04-.654.12-.96H30v-1.306h1.427c.372-.478.909-.905 1.61-1.28H30v-1.306h5.46c.282-.294.423-.666.423-1.116 0-.386-.128-.683-.383-.89-.255-.214-.624-.32-1.108-.32-.398 0-.807.054-1.227.164-.415.11-.936.303-1.563.58l-.733-2.085c1.206-.594 2.447-.891 3.723-.891 1.158 0 2.064.306 2.718.917.659.605.988 1.464.988 2.577 0 .38-.045.736-.135 1.064H39v1.306h-1.523c-.244.294-.528.54-.853.735-.318.197-.653.378-1.004.545H39v1.306h-5.58c-.207.26-.311.58-.311.96 0 .433.14.77.422 1.012.282.243.707.364 1.276.364 1.068 0 2.21-.271 3.428-.813v2.231c-1 .53-2.193.796-3.58.796-1.275 0-2.255-.303-2.941-.908-.686-.611-1.028-1.505-1.028-2.681z" fill="#9A9FA7"/><path d="M19 59h2.385s1.886-20.11 8.346-30.938C35.464 18.451 50 7.438 50 7.438V4H19v55z" fill="#85C0FB" fill-opacity=".07"/><path d="M24 3h21l-.927 3.177A1.142 1.142 0 0142.976 7H26.024c-.508 0-.955-.335-1.097-.823L24 3z" fill="#585966"/><rect x="31" y="39" width="7" height="5" rx="1.143" fill="#fff"/><rect x="31" y="46" width="7" height="5" rx="1.143" fill="#fff"/><rect x="31" y="53" width="7" height="5" rx="1.143" fill="#fff"/><rect x="40" y="39" width="7" height="5" rx="1.143" fill="#fff"/><rect x="40" y="46" width="7" height="5" rx="1.143" fill="#fff"/><rect x="22" y="39" width="7" height="5" rx="1.143" fill="#fff"/><rect x="22" y="46" width="7" height="5" rx="1.143" fill="#fff"/><rect x="18" y="3" width="33" height="58" rx="2.429" stroke="#585966" stroke-width="2"/><rect x="23.954" y="36.571" width="9.143" height="23.305" rx="4.571" transform="rotate(45 23.954 36.571)" fill="#FFDAC6"/><path d="M22.36 41.076a2.156 2.156 0 013.049 0l.184.184a2.156 2.156 0 010 3.049l-.716.716a1.143 1.143 0 01-1.616 0l-1.617-1.617a1.143 1.143 0 010-1.616l.716-.716z" fill="#fff" fill-opacity=".8"/></symbol><symbol viewBox="0 0 64 64" fill="none" id="chooseItem"><path d="M8 32.306a7.429 7.429 0 013.19-6.101L23 18v44H11.429A3.429 3.429 0 018 58.571V32.306z" fill="#FFDAC6"/><path d="M13.979 35.975a7.429 7.429 0 013.308-6.18l6.977-4.652V52.57h-6.857a3.429 3.429 0 01-3.428-3.428V35.975z" fill="#FFC19E"/><rect x="17.143" y="2.286" width="34.286" height="59.429" rx="3.429" fill="#F2F5F8"/><path fill="#fff" d="M21 21h27v22H21zm0 24h27v17H21zm0-41h27v15H21z"/><path fill="#35A47C" d="M23 36h23v5H23zm0-24h23v5H23z"/><path fill="#C7CEDA" fill-opacity=".57" d="M23 24h14v4H23zm0 24h14v4H23zm16-24h7v4h-7zm0 24h7v4h-7z"/><path d="M19 59h2.385s1.886-20.11 8.346-30.938C35.464 18.451 50 7.438 50 7.438V4H19v55z" fill="#85C0FB" fill-opacity=".07"/><path d="M24 3h21l-.927 3.177A1.142 1.142 0 0142.976 7H26.024c-.508 0-.955-.335-1.097-.823L24 3z" fill="#585966"/><rect x="18" y="3" width="33" height="58" rx="2.429" stroke="#585966" stroke-width="2"/><rect x="23.954" y="36.571" width="9.143" height="23.305" rx="4.571" transform="rotate(45 23.954 36.571)" fill="#FFDAC6"/><path d="M22.36 41.076a2.156 2.156 0 013.049 0l.184.184a2.156 2.156 0 010 3.049l-.716.716a1.143 1.143 0 01-1.616 0l-1.617-1.617a1.143 1.143 0 010-1.616l.716-.716z" fill="#fff" fill-opacity=".8"/></symbol><symbol viewBox="0 0 11 11" id="clock"><path fill-rule="evenodd" clip-rule="evenodd" d="M10 5.5a4.5 4.5 0 11-9 0 4.5 4.5 0 019 0zm1 0a5.5 5.5 0 11-11 0 5.5 5.5 0 0111 0zM6 2H5v4h4V5H6V2z"/></symbol><symbol viewBox="0 0 24 24" fill="none" id="creditHistory"><path fill-rule="evenodd" clip-rule="evenodd" d="M19.488 9.69C20.94 11.405 22 13.778 22 16H1c0-2.332 1.169-4.83 2.731-6.562l2.033 2.033.707-.708L4.437 8.73A10.5 10.5 0 0111 6.012V9h1V6.012a10.5 10.5 0 016.805 2.946L17 10.763l.707.708 1.781-1.782zm.144-1.322c1.92 1.92 3.076 4.281 3.324 7.132.03.331.044 1.165.044 1.5H0c0-.335.015-1.169.044-1.5.261-3 1.405-5.212 3.324-7.132a11.5 11.5 0 0116.264 0z" fill="#35A47C"/><path fill-rule="evenodd" clip-rule="evenodd" d="M19 16c-.218-1.62-1.028-3.635-2.197-4.803a7.5 7.5 0 00-10.606 0C5.028 12.365 4 14.5 4 16h15zm.941-.5A8.5 8.5 0 005.49 10.49c-1.357 1.356-2.194 3.01-2.431 5.01a8.5 8.5 0 00-.059 1h17c0-.336-.02-.67-.059-1z" fill="#35A47C"/><path d="M14 15.5a2.5 2.5 0 11-5 0 2.5 2.5 0 015 0z" fill="#fff"/><path fill-rule="evenodd" clip-rule="evenodd" d="M11.5 14l-4.487-2 2.027 4.054A2.5 2.5 0 1011.5 14zm-1.397.426l-1.116-.714.64 1.131c.14-.158.3-.298.476-.417zM13 16.5a1.5 1.5 0 11-3 0 1.5 1.5 0 013 0z" fill="#35A47C"/></symbol><symbol viewBox="0 0 56 48" fill="none" id="diagram"><path d="M52 4v40c0 1.9-1.3 3.4-3 3.9-.3.1-.7.1-1 .1H8c-2.2 0-4-1.8-4-4V4c0-2.2 1.8-4 4-4h40c2.2 0 4 1.8 4 4z" fill="#FD983A"/><path d="M52 4c-2.2 0-4 1.8-4 4 0 .7.2 1.4.6 2L34 24.6c-.6-.4-1.3-.6-2-.6s-1.4.2-2 .6L23.4 18c.4-.6.6-1.3.6-2 0-2.2-1.8-4-4-4s-4 1.8-4 4c0 .7.2 1.4.6 2L6 28.6c-.6-.4-1.3-.6-2-.6-2.2 0-4 1.8-4 4s1.8 4 4 4 4-1.8 4-4c0-.7-.2-1.4-.6-2L18 19.4c.6.4 1.3.6 2 .6s1.4-.2 2-.6l6.5 6.5c-.4.6-.6 1.3-.6 2 0 2.2 1.8 4 4 4s4-1.8 4-4c0-.7-.2-1.4-.6-2L50 11.4c.6.4 1.3.6 2 .6 2.2 0 4-1.8 4-4s-1.8-4-4-4z" fill="#fff"/><path d="M4 36a4 4 0 100-8 4 4 0 000 8zm48-24a4 4 0 100-8 4 4 0 000 8zm-32 8a4 4 0 100-8 4 4 0 000 8zm12 12a4 4 0 100-8 4 4 0 000 8z" fill="#FFDBA6"/></symbol><symbol viewBox="0 0 24 24" fill="none" id="documents"><path fill-rule="evenodd" clip-rule="evenodd" d="M2 5h20a1 1 0 011 1v13a1 1 0 01-1 1H2a1 1 0 01-1-1V6a1 1 0 011-1zM0 6a2 2 0 012-2h20a2 2 0 012 2v13a2 2 0 01-2 2H2a2 2 0 01-2-2V6zm15.5 3a.5.5 0 000 1h5a.5.5 0 000-1h-5zm-.5 3.5a.5.5 0 01.5-.5h5a.5.5 0 010 1h-5a.5.5 0 01-.5-.5zm.5 2.5a.5.5 0 000 1h3a.5.5 0 000-1h-3zM8 12a2 2 0 100-4 2 2 0 000 4zm0 1a3 3 0 100-6 3 3 0 000 6zm3.731 3.93c.013.023.024.046.036.07H4.233c.012-.024.023-.047.036-.07.181-.351.455-.686.82-.978a4.23 4.23 0 011.312-.698A5.101 5.101 0 018 15a5.09 5.09 0 011.599.254 4.23 4.23 0 011.312.698c.365.292.639.627.82.977zm.888-.46c.09.172.164.35.222.53.105.326.159.662.159 1H3c0-.338.054-.674.159-1 .058-.18.132-.358.222-.53.25-.486.62-.927 1.083-1.298a5.225 5.225 0 011.623-.867A6.102 6.102 0 018 14c.657 0 1.307.104 1.913.305a5.225 5.225 0 011.623.867c.464.371.832.812 1.083 1.297z" fill="#35A47C"/></symbol><symbol viewBox="0 0 8 16" id="facebook"><path d="M2.324 16V8.844H0V6h2.324V3.76C2.324 1.324 3.767 0 5.873 0 6.882 0 7.748.078 8 .113v2.543H6.54c-1.146 0-1.367.563-1.367 1.385V6h2.585l-.355 2.844h-2.23V16"/></symbol><symbol viewBox="0 0 16 16" id="fire"><path fill-rule="evenodd" clip-rule="evenodd" d="M11.178 4.366l.009-.02h-.042l.033.02zm-1.905 2.22a5.188 5.188 0 001.905-2.22A5.874 5.874 0 0113.21 6.44c.493.855.752 1.817.753 2.795a5.606 5.606 0 01-.746 2.796 5.873 5.873 0 01-2.06 2.1 6.2 6.2 0 01-5.8.314 5.949 5.949 0 01-2.29-1.864A5.648 5.648 0 012 9.882a4.668 4.668 0 010-.657 5.578 5.578 0 01.678-2.669 5.821 5.821 0 011.888-2.06l.083-.07A5.068 5.068 0 006.12 2.95a4.86 4.86 0 00.731-1.92 5.161 5.161 0 011.892 1.82c.456.754.703 1.61.715 2.482-.008.424-.07.845-.186 1.254zM8 13a2 2 0 100-4 2 2 0 000 4z" fill="#DF3014"/></symbol><symbol viewBox="0 0 32 32" fill="none" id="girl"><g clip-path="url(#girl_clip0)"><path d="M4.844 18.927s1.383 2.863 1.042 5.288c-.342 2.425-2.263 3.567-3.082 2.049 0 0-4.03 5.736 13.316 5.736V16.308L4.844 18.927z" fill="#D65128"/><path d="M27.505 18.218s-1.733 3.572-1.391 5.997c.341 2.425 2.262 3.567 3.081 2.049 0 0 4.03 5.736-13.316 5.736V16.308l11.626 1.91z" fill="#D65128"/><path d="M18.396 24.215h-4.552v5.099h4.552v-5.1z" fill="#FDCC9B"/><path d="M13.844 24.816s1.915 1.219 4.552.937v-1.538h-4.552v.6z" fill="#FCBC85"/><path d="M7.28 18.843c1.226 0 2.22-1.135 2.22-2.535 0-1.4-.994-2.534-2.22-2.534-1.228 0-2.222 1.135-2.222 2.534 0 1.4.994 2.535 2.221 2.535zm17.68 0c1.228 0 2.222-1.135 2.222-2.535 0-1.4-.994-2.534-2.221-2.534s-2.222 1.135-2.222 2.534c0 1.4.995 2.535 2.222 2.535z" fill="#916A50"/><path d="M24.953 11.467c0-3.733-2.732-6.464-8.833-6.464-6.1 0-8.832 2.731-8.832 6.464 0 3.734-.637 13.568 8.832 13.568 9.47 0 8.832-9.834 8.832-13.568z" fill="#FDCC9B"/><path d="M11.818 16.749c.528 0 .956-.47.956-1.048 0-.578-.428-1.047-.956-1.047s-.956.47-.956 1.047c0 .579.428 1.048.956 1.048z" fill="#3B2519"/><path d="M11.401 15.525a.286.286 0 100-.572.286.286 0 000 .572z" fill="#fff"/><path d="M10.289 13.444c.452.173 1.178-.588 2.84.074.302.12.483-1.033-1.298-1.033-1.542 0-1.816.854-1.542.959z" fill="#D96E27"/><path d="M20.54 16.749c.528 0 .956-.47.956-1.048 0-.578-.428-1.047-.956-1.047s-.956.47-.956 1.047c0 .579.428 1.048.956 1.048z" fill="#3B2519"/><path d="M20.123 15.525a.286.286 0 100-.572.286.286 0 000 .572z" fill="#fff"/><path d="M21.951 13.444c-.452.173-1.178-.588-2.84.074-.303.12-.483-1.033 1.298-1.033 1.542 0 1.815.854 1.542.959z" fill="#D96E27"/><path d="M16.12 19.384c-.945 0-1.514-.705-1.514-.364 0 .342.274.99 1.514.99s1.514-.648 1.514-.99c0-.341-.57.364-1.514.364zm0 3.14c-.326 0-.523-.244-.523-.126s.094.343.523.343c.43 0 .524-.225.524-.343 0-.118-.197.126-.524.126z" fill="#FCBC85"/><path d="M16.12 21.654c-1.497 0-2.4-.61-2.4-.455 0 .154.434.763 2.4.763 1.967 0 2.4-.608 2.4-.763 0-.155-.902.455-2.4.455z" fill="#F7945E"/><path d="M16.12 26.264V32H6.15c0-2.322 4.735-5.736 9.97-5.736zm0 0V32h9.97c0-2.322-4.735-5.736-9.97-5.736z" fill="#F6A2B1"/><path d="M13.844 26.462l2.276 4.07c.136 0 2.276-4.07 2.276-4.07s-2.361-.86-4.552 0z" fill="#FDCC9B"/><path d="M13.844 25.795l1.322 1.383.954 3.354-1.365-2.049-1.537.831-1.331-2.395s1.15-1.046 1.957-1.124zm4.552 0l-1.322 1.383-.954 3.354 1.366-2.049 1.536.831 1.332-2.395s-1.15-1.046-1.958-1.124z" fill="#F38191"/><path d="M16.12 32v-1.468l-.75-1.127.75 2.595zm0 0v-1.468l.69-1.127L16.12 32z" fill="#F38191"/><path d="M22.74 2.635S17.27-1.496 10.589.587C4.235 2.567 4.1 10.967 4.306 15.702c.205 4.735 1.844 5.304 3.483 4.643 2.167-.873 0-3.596 0-3.596 1.024-1.047.614-2.975.614-2.975 1.605-.06 2.186-2.67 2.186-2.67 3.121 1.203 4.017-1.162 4.017-1.162 2.925 1.57 5.231-1.229 5.231-1.229s1.44 2.996 3.271 2.663c0 0-.481 2.88.66 3.278 0 0-1.223 3.688.38 4.815 1.6 1.127 4.196.006 4.127-5.695-.068-5.701-1.092-11.685-5.535-11.139z" fill="#D96E27"/></g></symbol><symbol viewBox="0 0 32 32" fill="none" id="hour1"><circle cx="16" cy="16" r="16" fill="#fff"/><circle cx="16" cy="16" r="12" fill="#35A47C"/><circle cx="16" cy="16" r="15" stroke="#324A5E" stroke-width="2"/><path d="M20.5 11.5L14 18l-2.93-3-1.57 1.5L14 21l8-8.07-1.5-1.43z" fill="#fff"/></symbol><symbol viewBox="0 0 24 24" fill="none" id="iboxTerminal"><path fill-rule="evenodd" clip-rule="evenodd" d="M7 3h10a1 1 0 011 1v8H6V4a1 1 0 011-1zM6 13h12v8H6v-8zm-1 8V4a2 2 0 012-2h10a2 2 0 012 2v17h.5a.5.5 0 010 1h-15a.5.5 0 010-1H5zM8 5h8v5H8V5zM7 4h10v7H7V4zm7 10.5a.5.5 0 01.5-.5h2a.5.5 0 010 1h-2a.5.5 0 01-.5-.5zM7.5 14a.5.5 0 000 1h4a.5.5 0 000-1h-4z" fill="#35A47C"/></symbol><symbol viewBox="0 0 32 32" fill="none" id="inTheSameDay"><path d="M30 7H2v20.613C2 28.387 2.713 29 3.614 29h24.772c.9 0 1.614-.613 1.614-1.387V7z" fill="#fff"/><path d="M30 12V6.824C30 5.806 29.286 5 28.384 5H3.616C2.714 5 2 5.806 2 6.824V12h28z" fill="#35A47C"/><path d="M8 9c-.556 0-1-.503-1-1.132V3.132C7 2.503 7.444 2 8 2s1 .503 1 1.132v4.736C9 8.497 8.556 9 8 9zm16 0c-.556 0-1-.503-1-1.132V3.132C23 2.503 23.444 2 24 2s1 .503 1 1.132v4.736C25 8.497 24.518 9 24 9z" fill="#324A5E"/><path d="M8 19H5v3h3v-3zm6 0h-3v3h3v-3zm7 0h-3v3h3v-3z" fill="#CED5E0"/><path d="M27 19h-3v3h3v-3z" fill="#F58674"/><path d="M8 24H5v3h3v-3zm6 0h-3v3h3v-3zm7 0h-3v3h3v-3zm-7-10h-3v3h3v-3zm7 0h-3v3h3v-3zm6 0h-3v3h3v-3z" fill="#CED5E0"/></symbol><symbol viewBox="0 0 56 56" fill="none" id="information"><path d="M48.571 4H7.43A3.439 3.439 0 004 7.429v30.857a3.439 3.439 0 003.429 3.428h13.714l-3.429 6.857H16a1.72 1.72 0 00-1.714 1.715c0 .428.171.857.514 1.2A1.69 1.69 0 0016 52h24a1.72 1.72 0 001.714-1.714 1.69 1.69 0 00-.514-1.2 1.693 1.693 0 00-1.2-.515h-1.714l-3.429-6.857h13.714A3.439 3.439 0 0052 38.286V7.429A3.439 3.439 0 0048.571 4z" fill="#BAC7D3"/><path d="M48.571 4H7.43C5.543 4 4 5.555 4 7.455v31.091C4 40.445 5.543 42 7.429 42H48.57c1.887 0 3.43-1.554 3.43-3.455V7.455C52 5.555 50.457 4 48.571 4z" fill="#CBD7E2"/><path d="M52 7.375V31H4V7.375C4 5.519 5.543 4 7.429 4H48.57C50.457 4 52 5.519 52 7.375z" fill="#E2EAF2"/><path d="M42 50c0 1.1-.788 2-1.75 2h-24.5c-.438 0-.875-.2-1.225-.6-.35-.4-.525-.9-.525-1.4 0-1.1.787-2 1.75-2h24.5c.438 0 .875.2 1.225.6.35.4.525.9.525 1.4z" fill="#9CABB9"/><path d="M28 34.992c6.627 0 12-5.369 12-11.992 0-6.623-5.373-11.992-12-11.992S16 16.377 16 23c0 6.623 5.373 11.992 12 11.992z" fill="#35A47C"/><path d="M27.038 29.379l-5.674-4.42 1.613-2.07 3.485 2.713 5.75-8.297 2.158 1.494-7.332 10.58z" fill="#fff"/></symbol><symbol viewBox="0 0 512 512" id="instagram"><path d="M255.9 170.6c-47 0-85.4 38.4-85.4 85.4 0 47 38.4 85.4 85.4 85.4 47 0 85.4-38.4 85.4-85.4 0-47-38.4-85.4-85.4-85.4zM512 256c0-35.4.3-70.4-1.7-105.7-2-41-11.3-77.3-41.3-107.3-30-30-66.3-39.3-107.3-41.3C326.3-.3 291.3 0 256 0c-35.4 0-70.4-.3-105.7 1.7C109.3 3.7 73 13 43 43 13 73 3.7 109.3 1.7 150.3-.3 185.7 0 220.7 0 256s-.3 70.4 1.7 105.7C3.7 402.7 13 439 43 469c30 30 66.3 39.3 107.3 41.3 35.4 2 70.4 1.7 105.7 1.7 35.4 0 70.4.3 105.7-1.7 41-2 77.4-11.3 107.3-41.3 30-30 39.3-66.3 41.3-107.3 2.1-35.3 1.7-70.3 1.7-105.7zM255.9 387.4c-72.7 0-131.4-58.7-131.4-131.4s58.7-131.4 131.4-131.4S387.3 183.3 387.3 256s-58.7 131.4-131.4 131.4zm136.8-237.5c-17 0-30.7-13.7-30.7-30.7s13.7-30.7 30.7-30.7 30.7 13.7 30.7 30.7-13.7 30.7-30.7 30.7z"/></symbol><symbol viewBox="0 0 32 32" fill="none" id="instantly"><circle cx="16" cy="16" r="16" fill="#fff"/><path d="M22.158 13.711a.417.417 0 00-.363-.211h-5.458l.915-6.992a.419.419 0 00-.768-.272l-6.638 11.63a.417.417 0 00.355.634h5.377l-.726 7.003a.419.419 0 00.772.256l6.529-11.628a.417.417 0 00.005-.42z" fill="#35A47C"/><circle cx="16" cy="16" r="15" stroke="#324A5E" stroke-width="2"/></symbol><symbol viewBox="0 0 12 12" id="link"><path fill-rule="evenodd" clip-rule="evenodd" d="M0 2a2 2 0 012-2h3v2H2v8h8V7h2v3a2 2 0 01-2 2H2a2 2 0 01-2-2V2z" fill="currentColor"/><path d="M12 0H6l6 6V0z" fill="currentColor"/><path fill-rule="evenodd" clip-rule="evenodd" d="M10.707 2.707l-5 5-1.414-1.414 5-5 1.414 1.414z" fill="currentColor"/></symbol><symbol viewBox="0 0 40.8 45.6" id="lutsk"><path class="cls-1" d="M40.66 26.82a3.67 3.67 0 010 .64 1.5 1.5 0 01-.12.51c-.19.28-.83.58-1.1.79a2.38 2.38 0 00-.48.4 2.47 2.47 0 00-.17.76 2.32 2.32 0 000 .68 1.67 1.67 0 00.21.4c.09.12.36.3.41.44a.82.82 0 010 .39.62.62 0 01-.17.28c-.11.06-.37 0-.49 0l-1 .1a3.26 3.26 0 00-.73.12 1.39 1.39 0 00-.47.41 3.56 3.56 0 00-.12.83c0 .25-.14.74-.2 1s-.24.69-.32.91-.21.49-.25.66 0 .3 0 .4 0 .39-.07.52 0 .34-.13.38-.26-.08-.34-.13a.78.78 0 01-.23-.2c-.06-.11 0-.38-.05-.49a.88.88 0 00-.28-.37 1.33 1.33 0 00-.44 0c-.14 0-.45.07-.57 0s-.18-.32-.22-.44 0-.34 0-.44a1.39 1.39 0 00-.32-.37 4.71 4.71 0 00-.59-.31c-.14-.08-.41-.33-.57-.3s-.13.12-.15.17a4.44 4.44 0 00-.06.46 1.1 1.1 0 01-.18.39 1.49 1.49 0 01-.57.22 6 6 0 01-.84 0h-1.07a3.49 3.49 0 00-.78 0 1.52 1.52 0 00-.58.38 3.48 3.48 0 00-.21.65c0 .09-.07.31-.16.35s-.32-.14-.44-.15a1 1 0 00-.52.05 1 1 0 00-.19.47v.63a1.51 1.51 0 01-.18.47.92.92 0 01-.31.24 1.24 1.24 0 01-.54 0 4.69 4.69 0 01-.64-.39 2.62 2.62 0 00-.5-.22 1.58 1.58 0 00-.73 0 .77.77 0 00-.33.39 1.12 1.12 0 00.19.51c.08.14.33.37.4.51a1.83 1.83 0 01.16.56 2.92 2.92 0 01-.12.56 5.32 5.32 0 00-.21.76 1.38 1.38 0 00.12.59c.08.12.36.23.46.34a1.18 1.18 0 01.24.39.53.53 0 010 .33.49.49 0 01-.27.12c-.07 0-.21-.09-.28-.09a1 1 0 00-.22.06l.29.91-1.06.27v1.06l-.89-.19-.13-1.31a1.52 1.52 0 00-.16-.4 1.6 1.6 0 00-.4-.17l-.58-.26a2.27 2.27 0 00-.35-.17 2 2 0 00-.53 0c-.17 0-.49.16-.65.19a3.34 3.34 0 00-.37 0 4 4 0 00-.48.28 1.51 1.51 0 01-.34.13 3.74 3.74 0 01-1.64-.16.7.7 0 01-.26-.29 1.91 1.91 0 010-.43v-.53l-1.24-.71-1-.36a1.79 1.79 0 01-.14-.36 4 4 0 01.13-.7 5.22 5.22 0 00.09-.86 1 1 0 00-.11-.41c-.05-.07-.25-.1-.3-.16s-.14-.59-.21-.77a1 1 0 00-.16-.34 2.57 2.57 0 00-.75-.23c-.22-.06-.66-.15-.87-.24a1.48 1.48 0 01-.4-.25 1.42 1.42 0 01-.24-.51v-.27c0-.06-.26-.27-.35-.36s-.23-.28-.34-.28-.39.24-.51.34-.29.33-.39.4-.23.35-.35.35-.18-.22-.25-.29c-.46-.47-1.49-1.3-2-1.73-.25-.22-.79-.64-1-.88a2.9 2.9 0 01-.4-.55c-.09-.21-.1-.68-.17-.89a4.74 4.74 0 00-.25-.51 2.07 2.07 0 00-.11-.5c0-.15-.26-.39-.33-.53a2.88 2.88 0 01-.21-.66 1.82 1.82 0 01.07-.74 1.7 1.7 0 01.47-.49 2.78 2.78 0 01.53-.19 7 7 0 011-.29c.21 0 .64.06.84 0s.31-.1.35-.2-.17-.56-.27-.72a4.39 4.39 0 00-.73-.69c-.21-.17-.69-.43-.89-.61a5.26 5.26 0 01-.81-.88 5.34 5.34 0 01-.32-.75 7.59 7.59 0 01-.27-.89c0-.26 0-.8-.08-1.06a5.07 5.07 0 00-.32-.59 7.84 7.84 0 01-.4-.89c-.1-.25-.1-.82-.18-1.13a7.62 7.62 0 00-.32-1.31 6.87 6.87 0 00-.83-1.16c-.2-.24-.69-.64-.89-.88a4.88 4.88 0 01-.61-.84 2 2 0 01-.15-.69 2.85 2.85 0 01.37-1c.13-.21.55-.49.7-.69a2 2 0 00.27-.49 2.31 2.31 0 000-.79c0-.2-.29-.56-.36-.75a3.65 3.65 0 01-.1-.42c0-.2-.06-.59-.09-.78s-.15-.36-.1-.47.33-.11.41-.19a1.2 1.2 0 00.28-.41 2.46 2.46 0 000-.69c0-.24-.13-.71-.15-.95a2.53 2.53 0 010-.75A1.5 1.5 0 011.7 6a2.81 2.81 0 01.65-.36 1.56 1.56 0 01.48-.1 1.52 1.52 0 01.59.21c.11.08.23.34.34.42a1.82 1.82 0 00.45.22c.12 0 .38 0 .5.1a3.35 3.35 0 01.72.47 2.17 2.17 0 01.4.49c0 .11 0 .38.09.46a.84.84 0 00.63 0c.2-.08.42-.49.58-.63a3.87 3.87 0 01.64-.48c.22-.11.73-.13.94-.25a3 3 0 00.61-.61c.07-.09.14-.34.24-.4s.74-.05 1-.11a5.36 5.36 0 001-.35 4.07 4.07 0 00.88-.64 4 4 0 00.5-.93c.11-.28.19-.88.27-1.17a5.7 5.7 0 01.23-.74 1.89 1.89 0 01.4-.6 3.48 3.48 0 011.24-.25 12.5 12.5 0 011.48 0c.29 0 .85.16 1.14.16s.59-.13.79-.12.66.18.88.21c.53.06 1.61 0 2.15 0h2.08a18.44 18.44 0 002.12-.19c.28-.06.93-.3 1.28-.4a8.55 8.55 0 011-.27 2.75 2.75 0 01.57 0 2.08 2.08 0 01.59.16c.16.09.37.42.52.53a4.38 4.38 0 001.12.59 5.35 5.35 0 00.74 0c.39 0 1.17.14 1.56.16h.84a1.78 1.78 0 00.17.58 1.58 1.58 0 00.43.38 1.67 1.67 0 00.41.13 4.11 4.11 0 00.83 0c.16 0 .51-.26.63-.15s0 .32 0 .42a1.28 1.28 0 01-.31.44c-.11.09-.42.12-.53.21a1.27 1.27 0 00-.32.41v.44c0 .1-.23.43-.28.59s-.14.35-.09.46.17.09.23.12a.92.92 0 01.23.11 1.22 1.22 0 01.17.45 2.59 2.59 0 010 .75 3.59 3.59 0 01-.32.69c-.07.14-.26.39-.33.53a4.24 4.24 0 00-.17.46c0 .1-.07.32-.11.41a1.89 1.89 0 01-.25.39 1.32 1.32 0 01-.38.3 1 1 0 01-.37 0c-.1 0-.27-.18-.37-.16a.23.23 0 00-.14.13c0 .12.16.32.21.42s.37.58.46.79a1.6 1.6 0 01.16.62 1.14 1.14 0 01-.2.32 1.19 1.19 0 00-.16.22 1.8 1.8 0 000 .54 1.36 1.36 0 00.09.47c.06.09.28.14.36.22a1.17 1.17 0 01.19.3 2.12 2.12 0 01.09.44 5.26 5.26 0 010 .75 2.17 2.17 0 00-.09.45c0 .14.24.34.31.46s.22.32.28.43.12.34.21.4a.54.54 0 00.31 0c.1 0 .25-.18.35-.2a.66.66 0 01.31 0c.09 0 .21.21.28.28s.16.22.24.2.13-.24.18-.31a1.68 1.68 0 01.38-.44.63.63 0 01.41 0 .38.38 0 01.12.2 2.76 2.76 0 010 .54 6.91 6.91 0 000 1 2.17 2.17 0 00.19.47 6.84 6.84 0 00.51.72c.13.16.43.44.54.61a2.69 2.69 0 01.26.62 5.38 5.38 0 010 .6 1.48 1.48 0 000 .41c.07.13.33.3.43.41a10.94 10.94 0 01.67.88 2.39 2.39 0 01.2.33 1.32 1.32 0 01.13.54c0 .1-.18.26-.25.34a3.43 3.43 0 01-.34.38 1.24 1.24 0 01-.43.26c-.09 0-.27-.1-.36-.11a1.15 1.15 0 00-.41 0 .47.47 0 00-.18.16 1.31 1.31 0 000 .44 1.39 1.39 0 000 .54 1.11 1.11 0 00.39.29 3 3 0 00.64.19h.49a1.3 1.3 0 01.55.29 1.53 1.53 0 01.07.68z"/></symbol><symbol viewBox="0 0 32 32" fill="none" id="man"><g clip-path="url(#man_clip0)"><path d="M29 29.522v12.024H3.034V29.522c0-3.05 2.698-5.59 6.272-6.153H22.73a8.956 8.956 0 012.18.63c2.434 1.06 4.09 3.136 4.09 5.523z" fill="#FEC95B"/><path d="M10.956 23.37H8.223a6.428 6.428 0 00-5.189 6.306V42h2.733V29.676a6.428 6.428 0 015.189-6.307z" fill="#E8B152"/><path d="M6.225 15.136a2.198 2.198 0 11.423-4.371m19.16 4.371a2.199 2.199 0 10-.422-4.371" fill="#E0B394"/><path d="M12.837 24.638l-3.868-2.81a7.132 7.132 0 01-2.907-6.455l.671-6.943a9.327 9.327 0 0118.568 0l.671 6.943a7.132 7.132 0 01-2.907 6.455l-3.867 2.81a5.411 5.411 0 01-6.36 0z" fill="#F7CBA4"/><path d="M13.095 14.605s.284 1.953-2.118 2.66c0 0 1.697-1.534.989-2.45" fill="#E0B394"/><path d="M8.47 16.74a4.305 4.305 0 001.001 3.025l4.043 4.968c.211.252.45.463.71.631a5.376 5.376 0 01-1.387-.726l-3.868-2.81a7.131 7.131 0 01-2.906-6.455l.67-6.943A9.326 9.326 0 0115.878.002c-2.92.07-6.229 2.824-6.401 5.757L8.47 16.74z" fill="#E0B394"/><path d="M12.388 15.312h-1.13a.707.707 0 110-1.414h1.13a.707.707 0 110 1.414z" fill="gray"/><path d="M18.94 14.605s-.284 1.953 2.119 2.66c0 0-1.698-1.534-.99-2.45" fill="#E0B394"/><path d="M21.827 12.39a.61.61 0 01-.433-.179 1.675 1.675 0 00-2.365 0 .612.612 0 11-.866-.866 2.9 2.9 0 014.097 0 .612.612 0 01-.433 1.046zm-8.389 0a.61.61 0 01-.433-.179 1.674 1.674 0 00-2.366 0 .612.612 0 11-.866-.866 2.9 2.9 0 014.098 0 .612.612 0 01-.433 1.046z" fill="#fff"/><path d="M16.583 26.452h-1.13v15.094h1.13V26.452z" fill="#E8B152"/><path d="M20.776 15.312h-1.13a.707.707 0 010-1.414h1.13a.707.707 0 110 1.414z" fill="gray"/><path d="M23.38 23.596s-.001.37-.108.927c-.247 1.293-1.066 3.584-3.769 4.507l-.47-1.508-3.016 3.58-3.015-3.58-.471 1.508c-2.703-.923-3.522-3.214-3.77-4.507-.107-.556-.108-.927-.108-.927 2.201.988 5.142 1.335 6.718-.68a4.46 4.46 0 00.646-1.164c.222.577.587.942 1.041 1.163 1.236.604 3.122.146 4.514 0a6.37 6.37 0 011.804.646.46.46 0 01.004.035z" fill="#E8B152"/><path d="M25.04 21.527c-.46.348-1.03.684-1.66.968-2.555 1.147-6.107 1.43-7.363-1.843-.867 2.258-2.827 2.823-4.799 2.58a9.102 9.102 0 01-2.565-.737c-.63-.284-1.2-.62-1.66-.968 1.956 0 2.742-2.093 4.745-3.349l.002-.002a5.8 5.8 0 01.882-.455c1.236-.509 2.138-.317 2.754.039.268.155.486.371.643.623.17-.269.407-.499.701-.658.614-.334 1.497-.496 2.692-.004 2.695 1.11 3.41 3.806 5.629 3.806z" fill="#fff"/><path d="M23.38 22.495s-.001.371-.108.927c-.247 1.293-1.066 3.585-3.769 4.507l-.47-1.508-3.016 3.581-3.015-3.58-.284.907-.187.6c-2.703-.922-3.522-3.214-3.77-4.507-.107-.556-.108-.927-.108-.927a9.222 9.222 0 002.27.694c2.069.34 4.183-.166 5.094-2.537 1.256 3.273 4.808 2.99 7.363 1.843z" fill="#fff"/><path d="M23.38 22.495s-.001.371-.108.927c-2.546 1.107-6.017 1.336-7.255-1.891-1.239 3.227-4.71 2.998-7.255 1.891-.108-.556-.109-.927-.109-.927 2.556 1.148 6.107 1.43 7.364-1.843 1.256 3.273 4.808 2.99 7.363 1.843z" fill="#CCC"/><path d="M25.227 6.905a.713.713 0 01-.122-.01l-2.703-.472a.707.707 0 01.243-1.392l2.703.47a.707.707 0 01-.12 1.404zm.591 2.587a.713.713 0 01-.132-.013l-2.509-.47a.706.706 0 11.26-1.39l2.51.471a.706.706 0 01-.13 1.402zM6.807 6.905a.707.707 0 01-.12-1.403l2.702-.471a.706.706 0 11.243 1.392l-2.703.471a.72.72 0 01-.122.01zm-.591 2.587a.707.707 0 01-.13-1.402l2.51-.471a.707.707 0 01.26 1.39l-2.509.47a.711.711 0 01-.131.013z" fill="#E6E6E6"/><path d="M10.269 41.546H8.855l.707-12.25.707 12.25zm12.909 0h-1.413l.706-12.25.707 12.25z" fill="#E8B152"/><path d="M16.019 18.384l1.226-.326a.708.708 0 00.502-.867l-.836-3.137" fill="#E0B394"/><path d="M12.718 27.328l-.187.6c-2.703-.922-3.522-3.214-3.77-4.506-.107-.556-.108-.928-.108-.928a9.222 9.222 0 002.27.695c.035.12.053.25.053.388 0 2.162 1.185 3.324 1.742 3.751z" fill="#CCC"/><path d="M9.704 21.74c.237.79.985 1.254 1.514 1.493a9.1 9.1 0 01-2.565-.738c-.63-.284-1.2-.62-1.66-.968 1.956 0 2.742-2.093 4.745-3.349-.067.064-2.408 2.313-2.034 3.562z" fill="#CCC"/></g></symbol><symbol viewBox="0 0 110 33" id="minfin_logo"><path d="M24.551 25.257h-4.138l-2.48-13.008-4.844 13.338h-1.51L6.7 12.249 4.106 25.257H0L4.844 1.09h2.25l5.223 16.293L17.39 1.09h2.25l4.91 24.167zm4.368 0V10.96h-2.25V7.577h6.389v17.68h-4.139zM30.874.71c.636 0 1.186.229 1.65.685.465.457.698 1.032.698 1.725 0 .672-.23 1.238-.69 1.7a2.256 2.256 0 01-1.659.694c-.668 0-1.234-.24-1.7-.718-.465-.48-.697-1.037-.697-1.676 0-.638.23-1.198.69-1.683A2.264 2.264 0 0130.874.71zm22.317 24.547h-4.106V17.68h-7.291v7.577h-4.106V7.577h4.106v6.686h7.291V7.577h4.106v17.68zM70.812 7.94c.908-.473 1.84-.71 2.792-.71 2.342 0 4.138.815 5.386 2.443 1.248 1.63 1.872 3.87 1.872 6.719 0 2.95-.654 5.219-1.962 6.809-1.308 1.59-2.975 2.385-5 2.385a7.954 7.954 0 01-3.088-.595v7.199H66.87v-7.263a8.11 8.11 0 01-3.186.66c-2.146 0-3.837-.795-5.075-2.386-1.237-1.59-1.855-3.81-1.855-6.66 0-2.905.662-5.182 1.988-6.834 1.324-1.65 3.081-2.476 5.27-2.476.974 0 1.928.225 2.858.676V.991L70.812 0v7.94zm-3.909 14V10.896c-.82-.32-1.615-.48-2.38-.48-2.53 0-3.794 1.937-3.794 5.811 0 4.083 1.319 6.124 3.957 6.124.7 0 1.44-.137 2.217-.412zm3.876.033c.778.253 1.494.38 2.15.38 2.65 0 3.975-2.042 3.975-6.125 0-1.893-.323-3.335-.969-4.325-.646-.99-1.582-1.486-2.807-1.486-.712 0-1.495.15-2.35.446v11.11zm14.993 3.285V10.96h-2.25V7.577h6.389v17.68h-4.139zM87.726.71c.635 0 1.185.229 1.65.685.465.457.699 1.032.699 1.725 0 .672-.231 1.238-.69 1.7a2.252 2.252 0 01-1.659.694c-.668 0-1.234-.24-1.7-.718-.465-.48-.698-1.037-.698-1.676 0-.638.23-1.198.69-1.683A2.264 2.264 0 0187.726.71zm22.319 24.547h-4.106V17.68h-7.291v7.577h-4.106V7.577h4.106v6.686h7.291V7.577h4.106v17.68z"/></symbol><symbol viewBox="0 0 132 33" id="minfin_logo_ru"><path d="M17.687 1.67L12.55 17.966 7.265 1.671H4.987L.083 25.84h4.156l2.626-13.01 4.937 13.34h1.53l4.903-13.34 2.51 13.01h4.19l-4.97-24.17h-2.278zm14.461 17.17V8.16h-4.155v18.095h1.13l10.688-11.096V25.84h4.156V7.746h-1.13L32.148 18.841zm27.843-3.994h-7.38V8.159h-4.156V25.84h4.156v-7.578h7.38v7.578h4.156V8.16H59.99v6.686zm24.817-7.034c-.963 0-1.906.237-2.825.71V.582l-3.99.99V8.49a6.636 6.636 0 00-2.892-.677c-2.216 0-3.995.825-5.336 2.476-1.34 1.652-2.01 3.93-2.01 6.835 0 2.85.624 5.072 1.877 6.662 1.252 1.591 2.964 2.386 5.136 2.386 1.096 0 2.174-.22 3.225-.661v7.264h3.99v-7.198a8.147 8.147 0 003.125.595c2.05 0 3.737-.795 5.062-2.386 1.323-1.59 1.986-3.86 1.986-6.81 0-2.85-.631-5.09-1.895-6.719-1.264-1.63-3.081-2.444-5.453-2.444zm-6.782 14.71c-.787.276-1.535.414-2.244.414-2.67 0-4.006-2.043-4.006-6.125 0-3.874 1.28-5.812 3.84-5.812.775 0 1.58.16 2.41.478v11.045zm6.1.414c-.664 0-1.391-.128-2.176-.381v-11.11c.864-.298 1.656-.446 2.377-.446 1.241 0 2.188.496 2.843 1.485.652.99.98 2.433.98 4.327 0 4.082-1.341 6.125-4.023 6.125zm15.793-4.096V8.16h-4.156v18.095h1.131l10.688-11.096V25.84h4.155V7.746h-1.13L99.919 18.841zm27.843-10.68v6.686h-7.381V8.159h-4.156V25.84h4.156v-7.578h7.381v7.578h4.155V8.16h-4.155z"/></symbol><symbol viewBox="0 0 32 32" fill="none" id="minute1"><circle cx="16" cy="16" r="16" fill="#fff"/><circle cx="16" cy="16" r="15" stroke="#324A5E" stroke-width="2"/><path d="M16 4c.762 0 1.523.073 2.271.217L16 16V4z" fill="#35A47C"/></symbol><symbol viewBox="0 0 32 32" fill="none" id="minute1ProductCard"><circle cx="16" cy="16" r="16" fill="transparent"/><circle cx="16" cy="16" r="15" stroke="#35A47C" stroke-width="2"/><path d="M16 4c.762 0 1.523.073 2.271.217L16 16V4z" fill="#35A47C"/></symbol><symbol viewBox="0 0 32 32" fill="none" id="minutes15"><circle cx="16" cy="16" r="16" fill="#fff"/><circle cx="16" cy="16" r="15" stroke="#324A5E" stroke-width="2"/><path d="M16 4a12 12 0 0112 12H16V4z" fill="#35A47C"/></symbol><symbol viewBox="0 0 32 32" fill="none" id="minutes15productCard"><circle cx="16" cy="16" r="16" fill="transparent"/><circle cx="16" cy="16" r="15" stroke="#35A47C" stroke-width="2"/><path d="M16 4a12 12 0 0112 12H16V4z" fill="#35A47C"/></symbol><symbol viewBox="0 0 32 32" fill="none" id="minutes5"><circle cx="16" cy="16" r="16" fill="#fff"/><circle cx="16" cy="16" r="15" stroke="#324A5E" stroke-width="2"/><path d="M16 4a12 12 0 015.781 1.484L16 16V4z" fill="#35A47C"/></symbol><symbol viewBox="0 0 32 32" fill="none" id="month1"><path d="M30 7H2v20.613C2 28.387 2.713 29 3.614 29h24.772c.9 0 1.614-.613 1.614-1.387V7z" fill="#fff"/><path d="M17.693 23.543H16v-6.527l-2.021.627v-1.377L17.512 15h.181v8.543z" fill="#324A5E"/><path d="M30 12V6.824C30 5.806 29.286 5 28.384 5H3.616C2.714 5 2 5.806 2 6.824V12h28z" fill="#35A47C"/><path d="M8 9c-.556 0-1-.503-1-1.132V3.132C7 2.503 7.444 2 8 2s1 .503 1 1.132v4.736C9 8.497 8.556 9 8 9zm16 0c-.556 0-1-.503-1-1.132V3.132C23 2.503 23.444 2 24 2s1 .503 1 1.132v4.736C25 8.497 24.518 9 24 9z" fill="#324A5E"/></symbol><symbol viewBox="0 0 32 32" fill="none" id="month2"><path d="M30 7H2v20.613C2 28.387 2.713 29 3.614 29h24.772c.9 0 1.614-.613 1.614-1.387V7z" fill="#fff"/><path d="M19.428 23.648H13.58v-1.16l2.76-2.941c.379-.414.658-.776.838-1.084.183-.309.275-.602.275-.879 0-.379-.096-.676-.287-.89-.191-.22-.465-.329-.82-.329-.383 0-.686.133-.909.399-.218.261-.328.607-.328 1.037H13.41c0-.52.123-.994.37-1.424.25-.43.6-.766 1.054-1.008A3.177 3.177 0 0116.375 15c.879 0 1.56.21 2.045.633.488.422.732 1.017.732 1.787 0 .422-.109.851-.328 1.289-.219.438-.594.947-1.125 1.53l-1.94 2.044h3.669v1.365z" fill="#324A5E"/><path d="M30 12V6.824C30 5.806 29.286 5 28.384 5H3.616C2.714 5 2 5.806 2 6.824V12h28z" fill="#35A47C"/><path d="M8 9c-.556 0-1-.503-1-1.132V3.132C7 2.503 7.444 2 8 2s1 .503 1 1.132v4.736C9 8.497 8.556 9 8 9zm16 0c-.556 0-1-.503-1-1.132V3.132C23 2.503 23.444 2 24 2s1 .503 1 1.132v4.736C25 8.497 24.518 9 24 9z" fill="#324A5E"/></symbol><symbol viewBox="0 0 32 32" fill="none" id="month3"><path d="M30 7H2v20.613C2 28.387 2.713 29 3.614 29h24.772c.9 0 1.614-.613 1.614-1.387V7z" fill="#fff"/><path d="M15.303 18.633h.902c.43 0 .748-.108.955-.322.207-.215.31-.5.31-.856 0-.344-.103-.611-.31-.803-.203-.191-.484-.287-.844-.287-.324 0-.595.09-.814.27a.844.844 0 00-.328.691H13.48c0-.445.12-.844.358-1.195a2.417 2.417 0 011.008-.832c.433-.2.91-.299 1.43-.299.902 0 1.609.217 2.12.65.512.43.768 1.024.768 1.782 0 .39-.12.75-.357 1.078a2.33 2.33 0 01-.938.756c.48.172.838.43 1.072.773.239.344.358.75.358 1.219 0 .758-.277 1.365-.832 1.822-.551.457-1.281.686-2.192.686-.851 0-1.548-.225-2.091-.674-.54-.45-.809-1.043-.809-1.781h1.693c0 .32.12.582.358.785.242.203.539.304.89.304.403 0 .717-.105.944-.316.23-.215.345-.498.345-.85 0-.851-.468-1.277-1.406-1.277h-.896v-1.324z" fill="#324A5E"/><path d="M30 12V6.824C30 5.806 29.286 5 28.384 5H3.616C2.714 5 2 5.806 2 6.824V12h28z" fill="#35A47C"/><path d="M8 9c-.556 0-1-.503-1-1.132V3.132C7 2.503 7.444 2 8 2s1 .503 1 1.132v4.736C9 8.497 8.556 9 8 9zm16 0c-.556 0-1-.503-1-1.132V3.132C23 2.503 23.444 2 24 2s1 .503 1 1.132v4.736C25 8.497 24.518 9 24 9z" fill="#324A5E"/></symbol><symbol viewBox="0 0 32 32" fill="none" id="month6"><path d="M30 7H2v20.613C2 28.387 2.713 29 3.614 29h24.772c.9 0 1.614-.613 1.614-1.387V7z" fill="#fff"/><path d="M17.588 15v1.395h-.164c-.766.011-1.383.21-1.852.597-.465.387-.744.924-.838 1.611.454-.46 1.026-.69 1.717-.69.742 0 1.332.265 1.77.796.437.531.656 1.23.656 2.098 0 .554-.121 1.056-.363 1.506a2.56 2.56 0 01-1.02 1.048c-.437.25-.933.375-1.488.375-.899 0-1.625-.312-2.18-.937-.55-.625-.826-1.46-.826-2.502v-.61c0-.925.174-1.742.521-2.449a3.847 3.847 0 011.506-1.646c.657-.39 1.416-.588 2.28-.592h.28zm-1.653 4.271c-.273 0-.52.073-.744.217a1.27 1.27 0 00-.492.563v.515c0 .567.111 1.01.334 1.33.223.317.535.475.938.475.363 0 .656-.142.879-.428.226-.289.34-.662.34-1.119 0-.465-.114-.84-.34-1.125-.227-.285-.532-.428-.915-.428z" fill="#324A5E"/><path d="M30 12V6.824C30 5.806 29.286 5 28.384 5H3.616C2.714 5 2 5.806 2 6.824V12h28z" fill="#35A47C"/><path d="M8 9c-.556 0-1-.503-1-1.132V3.132C7 2.503 7.444 2 8 2s1 .503 1 1.132v4.736C9 8.497 8.556 9 8 9zm16 0c-.556 0-1-.503-1-1.132V3.132C23 2.503 23.444 2 24 2s1 .503 1 1.132v4.736C25 8.497 24.518 9 24 9z" fill="#324A5E"/></symbol><symbol viewBox="0 0 32 32" fill="none" id="noLimit"><path d="M30 7H2v20.613C2 28.387 2.713 29 3.614 29h24.772c.9 0 1.614-.613 1.614-1.387V7z" fill="#fff"/><path d="M21.5 14.5L15 21l-2.93-3-1.57 1.5L15 24l8-8.07-1.5-1.43zM30 12V6.824C30 5.806 29.286 5 28.384 5H3.616C2.714 5 2 5.806 2 6.824V12h28z" fill="#35A47C"/><path d="M8 9c-.556 0-1-.503-1-1.132V3.132C7 2.503 7.444 2 8 2s1 .503 1 1.132v4.736C9 8.497 8.556 9 8 9zm16 0c-.556 0-1-.503-1-1.132V3.132C23 2.503 23.444 2 24 2s1 .503 1 1.132v4.736C25 8.497 24.518 9 24 9z" fill="#324A5E"/></symbol><symbol viewBox="0 0 24 24" fill="none" id="partnerBranch"><path fill-rule="evenodd" clip-rule="evenodd" d="M18 9c0 2.286-.932 5.375-2.26 7.911-.66 1.26-1.39 2.33-2.101 3.067C12.893 20.755 12.329 21 12 21c-.329 0-.893-.246-1.639-1.021-.71-.739-1.44-1.808-2.1-3.068C6.932 14.375 6 11.286 6 9a6 6 0 1112 0zm1 0c0 5-4 13-7 13S5 14 5 9a7 7 0 0114 0zm-4 0a3 3 0 11-6 0 3 3 0 016 0zm1 0a4 4 0 11-8 0 4 4 0 018 0z" fill="#35A47C"/></symbol><symbol viewBox="0 0 24 24" fill="none" id="personalAccount"><path fill-rule="evenodd" clip-rule="evenodd" d="M18 3H6a1 1 0 00-1 1v16a1 1 0 001 1h12a1 1 0 001-1V4a1 1 0 00-1-1zM6 2a2 2 0 00-2 2v16a2 2 0 002 2h12a2 2 0 002-2V4a2 2 0 00-2-2H6z" fill="#35A47C"/><path d="M7 5.5a.5.5 0 01.5-.5h9a.5.5 0 010 1h-9a.5.5 0 01-.5-.5zm0 6a.5.5 0 01.5-.5h9a.5.5 0 010 1h-9a.5.5 0 01-.5-.5zm0-3a.5.5 0 01.5-.5h7a.5.5 0 010 1h-7a.5.5 0 01-.5-.5zm0 6a.5.5 0 01.5-.5h5a.5.5 0 010 1h-5a.5.5 0 01-.5-.5z" fill="#35A47C"/></symbol><symbol viewBox="0 0 24 24" fill="none" id="privatTerminal"><path fill-rule="evenodd" clip-rule="evenodd" d="M7 3h10a1 1 0 011 1v8H6V4a1 1 0 011-1zM6 13h12v8H6v-8zm-1 8V4a2 2 0 012-2h10a2 2 0 012 2v17h.5a.5.5 0 010 1h-15a.5.5 0 010-1H5zM8 5h8v5H8V5zM7 4h10v7H7V4z" fill="#35A47C"/><path d="M9 18h2v2H9v-2zm0-4h6v1H9v-1zm3 5h3v1h-3v-1z" fill="#35A47C"/><path d="M14 14h1v6h-1v-6zm-5 1h1v2H9v-2z" fill="#35A47C"/><path fill-rule="evenodd" clip-rule="evenodd" d="M11 17H9.5v-1H11c.448 0 .827.098 1.134.292.308.194.508.462.634.74.233.513.232 1.105.232 1.44V19.5h-1v-1c0-.367-.007-.756-.143-1.054a.68.68 0 00-.257-.309c-.114-.072-.298-.137-.6-.137z" fill="#35A47C"/></symbol><symbol viewBox="0 0 24 24" fill="none" id="prolongation"><path fill-rule="evenodd" clip-rule="evenodd" d="M19 4H3a1 1 0 00-1 1v14a1 1 0 001 1h16a1 1 0 001-1V5a1 1 0 00-1-1zM3 3a2 2 0 00-2 2v14a2 2 0 002 2h16a2 2 0 002-2V5a2 2 0 00-2-2H3z" fill="#35A47C"/><path d="M5 1.5a.5.5 0 011 0v3a.5.5 0 01-1 0v-3zm11 0a.5.5 0 011 0v3a.5.5 0 01-1 0v-3zM1 7h20v1H1V7z" fill="#35A47C"/><path d="M23 16.5a6.5 6.5 0 11-13 0 6.5 6.5 0 0113 0z" fill="#fff"/><path fill-rule="evenodd" clip-rule="evenodd" d="M16.5 22a5.5 5.5 0 100-11 5.5 5.5 0 000 11zm0 1a6.5 6.5 0 100-13 6.5 6.5 0 000 13z" fill="#35A47C"/><path d="M16 12.5a.5.5 0 011 0v4a.5.5 0 01-1 0v-4z" fill="#35A47C"/><path d="M16.5 17a.5.5 0 010-1h3a.5.5 0 010 1h-3z" fill="#35A47C"/></symbol><symbol viewBox="0 0 32 32" fill="none" id="speedometer"><g clip-path="url(#speedometer_clip0)"><path d="M1.221 10.877l7.389 3.062c.403-.97.993-1.85 1.737-2.592L4.689 5.689a15.898 15.898 0 00-3.468 5.188z" fill="#F28230"/><path d="M0 17.002h8.001a7.898 7.898 0 01.61-3.063l-7.389-3.062A15.902 15.902 0 000 17.002z" fill="#E56353"/><path d="M0 17.002c0 2.102.415 4.183 1.222 6.124l7.388-3.062a7.954 7.954 0 01-.609-3.062h-8z" fill="#D15241"/><path d="M23.393 20.064l7.395 3.062A15.996 15.996 0 0032 17.002h-7.998a7.956 7.956 0 01-.609 3.062z" fill="#44C4A1"/><path d="M4.69 5.686l5.657 5.658a8.03 8.03 0 012.593-1.737L9.877 2.215a16.069 16.069 0 00-5.188 3.47z" fill="#F8964F"/><path d="M16.002 1v8a7.952 7.952 0 00-3.062.607L9.877 2.215A15.994 15.994 0 0116.002 1z" fill="#F7BE56"/><path d="M16.002 1v8a7.952 7.952 0 013.062.607l3.062-7.392A15.982 15.982 0 0016.001 1z" fill="#FCD462"/><path d="M19.064 9.607a7.92 7.92 0 012.593 1.74l5.657-5.658a16.042 16.042 0 00-5.184-3.474l-3.066 7.392z" fill="#83BB4C"/><path d="M23.393 13.94c.405.97.612 2.01.61 3.062H32a15.956 15.956 0 00-1.212-6.125l-7.395 3.062z" fill="#3EA69B"/><path d="M21.656 11.347a7.981 7.981 0 011.737 2.592l7.395-3.062a15.974 15.974 0 00-3.474-5.185l-5.658 5.655z" fill="#A7DC72"/><path d="M13.803 15.607a2.592 2.592 0 11.01 3.666l-.01-.01a2.592 2.592 0 010-3.656z" fill="#8F372B"/><path d="M16.36 21.381L8.057 9.936a.22.22 0 11.324-.295l11.054 8.691a.5.5 0 01.045.749l-2.362 2.359a.5.5 0 01-.758-.059z" fill="#E56353"/></g></symbol><symbol viewBox="0 0 16 15" id="star"><path d="M8 0l2.472 4.938L16 5.729l-4 3.844.944 5.427L8 12.438 3.056 15 4 9.573 0 5.729l5.528-.791L8 0z"/></symbol><symbol viewBox="0 0 32 26" fill="none" id="student"><path d="M6 11v6c0 2.356 4 5 10 5s10-2.975 10-5v-6H6z" fill="#35495E"/><path d="M31.204 8.312L16.567.856a1.222 1.222 0 00-1.134 0L.796 8.312c-.041.021-.068.075-.068.134 0 .06.027.113.068.134l14.637 7.456c.365.186.769.186 1.134 0L31.204 8.58c.041-.021.069-.074.069-.134 0-.06-.028-.113-.07-.134z" fill="#35495E"/><path d="M31.204 8.312L16.567.856a1.222 1.222 0 00-1.134 0L.796 8.312c-.041.021-.068.075-.068.134 0 .06.027.113.068.134l14.637 7.456c.365.186.769.186 1.134 0L31.204 8.58c.041-.021.069-.074.069-.134 0-.06-.028-.113-.07-.134z" fill="#5F768D"/><path d="M16 8l6.894 3.447A2 2 0 0124 13.237V17" stroke="#F7C000" stroke-linecap="round"/><path d="M23 18.857L24 18l1 .857V24h-2v-5.143z" fill="#F6C000" stroke="#F6C000"/><circle cx="24" cy="17" r="1" fill="#F6C000"/></symbol><symbol viewBox="0 0 64 64" fill="none" id="submit"><path d="M32 30c8.284 0 15-6.716 15-15 0-8.284-6.716-15-15-15-8.284 0-15 6.716-15 15 0 8.284 6.716 15 15 15z" fill="#FFD15C"/><path d="M32 27c6.627 0 12-5.373 12-12S38.627 3 32 3 20 8.373 20 15s5.373 12 12 12z" fill="#FDA518"/><path d="M27.762 18.134c0-.36.044-.704.133-1.034H27v-1.406h1.585c.414-.516 1.01-.975 1.79-1.379H27V12.91h6.067c.313-.317.47-.717.47-1.202 0-.416-.142-.736-.425-.96-.284-.229-.694-.344-1.232-.344-.442 0-.897.06-1.364.177-.46.118-1.039.326-1.736.624l-.815-2.245c1.34-.64 2.72-.959 4.137-.959 1.287 0 2.294.33 3.02.987.732.652 1.099 1.578 1.099 2.776 0 .41-.05.792-.151 1.146H37v1.406h-1.692a3.696 3.696 0 01-.947.792c-.355.211-.727.407-1.116.587H37V17.1h-6.2c-.23.28-.346.625-.346 1.034 0 .466.157.83.47 1.09.313.261.785.391 1.417.391 1.187 0 2.456-.291 3.809-.875v2.403c-1.11.571-2.436.857-3.977.857-1.418 0-2.507-.326-3.269-.978-.761-.658-1.142-1.62-1.142-2.888z" fill="#FFD15C"/><path d="M59.485 24H4.503C3.122 24 2 25.104 2 26.463v34.074C2 61.897 3.122 63 4.503 63h54.994C60.878 63 62 61.896 62 60.537V26.463C61.988 25.103 60.866 24 59.485 24z" fill="#3E4246"/><path d="M52.5 59a5.5 5.5 0 100-11 5.5 5.5 0 000 11z" fill="#EE0005"/><path d="M46.5 59a5.5 5.5 0 100-11 5.5 5.5 0 000 11z" fill="#F9A000"/><rect x="6" y="39" width="12" height="9" rx="2" fill="#C4C4C4"/></symbol><symbol viewBox="0 0 16 14" id="telegram"><path d="M.283 6.715L3.969 8.09l1.427 4.589a.435.435 0 00.69.208l2.055-1.676a.613.613 0 01.747-.02l3.707 2.69a.434.434 0 00.68-.262L15.991.559a.435.435 0 00-.582-.494L.279 5.902a.435.435 0 00.004.813zm4.883.643l7.206-4.437c.13-.08.262.095.151.198L6.577 8.647a1.233 1.233 0 00-.382.737l-.203 1.502c-.027.2-.308.22-.364.026L4.85 8.175a.725.725 0 01.317-.817z"/></symbol><symbol viewBox="0 0 16 13" id="twitter"><path d="M14.355 3.24c.01.142.01.284.01.426 0 4.337-3.299 9.334-9.33 9.334A9.264 9.264 0 010 11.527c.264.03.518.041.792.041a6.566 6.566 0 004.071-1.402 3.285 3.285 0 01-3.066-2.275c.203.03.406.051.62.051.294 0 .588-.04.862-.112A3.28 3.28 0 01.65 4.61v-.04c.437.244.945.396 1.483.417A3.278 3.278 0 01.67 2.255c0-.61.162-1.168.447-1.656a9.32 9.32 0 006.761 3.433 3.705 3.705 0 01-.081-.752A3.278 3.278 0 0111.077 0a3.27 3.27 0 012.395 1.036 6.455 6.455 0 002.081-.792 3.271 3.271 0 01-1.441 1.808c.66-.072 1.3-.254 1.888-.508a7.05 7.05 0 01-1.645 1.696z"/></symbol><symbol viewBox="0 0 21 18" fill="none" id="undo"><path d="M9 0a9 9 0 019 9h3l-4 4-4-4h3c0-3.87-3.13-7-7-7S2 5.13 2 9a6.995 6.995 0 0011.06 5.7l1.42 1.44A9 9 0 119 0z" fill="#5076C0"/></symbol><symbol viewBox="0 0 32 32" fill="none" id="unemployed"><g clip-path="url(#unemployed_clip0)"><path d="M18.37 23.897h-4.74v5.307h4.74v-5.307z" fill="#FDCC9B"/><path d="M13.63 24.522s1.994 1.27 4.74.975v-1.6h-4.74v.625zm-6.832-6.217c1.277 0 2.312-1.181 2.312-2.638 0-1.457-1.035-2.638-2.312-2.638s-2.313 1.18-2.313 2.638c0 1.457 1.036 2.638 2.313 2.638zm18.405 0c1.277 0 2.312-1.181 2.312-2.638 0-1.457-1.035-2.638-2.312-2.638s-2.312 1.18-2.312 2.638c0 1.457 1.035 2.638 2.312 2.638z" fill="#FCBC85"/><path d="M25.194 10.628c0-3.886-2.843-6.73-9.194-6.73-6.35 0-9.193 2.844-9.193 6.73 0 3.886-.663 14.122 9.193 14.122 9.857 0 9.194-10.236 9.194-14.122z" fill="#FDCC9B"/><path d="M11.523 16.125c.55 0 .995-.488.995-1.09 0-.602-.446-1.09-.995-1.09-.55 0-.996.488-.996 1.09 0 .602.446 1.09.996 1.09z" fill="#3B2519"/><path d="M11.089 14.852a.298.298 0 100-.595.298.298 0 000 .595z" fill="#fff"/><path d="M9.93 12.334c.47.236 1.226-.8 2.956.1.315.165.503-1.403-1.35-1.403-1.606 0-1.89 1.161-1.606 1.303z" fill="#51362A"/><path d="M20.6 16.125c.55 0 .996-.488.996-1.09 0-.602-.446-1.09-.995-1.09-.55 0-.995.488-.995 1.09 0 .602.445 1.09.995 1.09z" fill="#3B2519"/><path d="M20.167 14.852a.298.298 0 100-.595.298.298 0 000 .595z" fill="#fff"/><path d="M22.07 12.334c-.471.236-1.227-.8-2.957.1-.315.165-.503-1.403 1.351-1.403 1.605 0 1.89 1.161 1.605 1.303z" fill="#51362A"/><path d="M16 18.869c-.983 0-1.575-.735-1.575-.38 0 .356.284 1.031 1.575 1.031 1.292 0 1.576-.675 1.576-1.03 0-.356-.592.379-1.576.379zm0 3.268c-.34 0-.545-.254-.545-.131s.098.356.545.356c.447 0 .545-.233.545-.356 0-.123-.205.13-.545.13z" fill="#FCBC85"/><path d="M16 21.231c-1.558 0-2.497-.635-2.497-.474 0 .161.45.794 2.498.794 2.046 0 2.497-.633 2.497-.794 0-.16-.939.474-2.497.474z" fill="#F7945E"/><path d="M16 26.03V32H4.485c0-2.417 6.066-5.97 11.515-5.97zm0 0V32h11.515c0-2.417-6.065-5.97-11.515-5.97z" fill="#F7941E"/><path d="M16 26.03c-1.159 0-2.345.161-3.496.438.008.01 1.276 1.646 3.496 1.646 2.056 0 3.424-1.401 3.622-1.617-1.19-.295-2.42-.468-3.622-.468z" fill="#F36C21"/><path d="M13.63 26.236s.694.86 2.37.86c1.677 0 2.37-.86 2.37-.86s-2.459-.895-4.74 0z" fill="#FDCC9B"/><path d="M23.559 3.07S20.147-1.266 13.055.369c-7.09 1.634-7.622 5.9-7.409 10.049.213 4.15.782 6.584 1.455 6.283.672-.301.322-3.04.393-3.672.071-.632.711-3.49 5.024-3.064 4.313.426 7.947-1.138 7.947-1.138s1.463 1.85 2.426 2.204c1.924.708 1.293 5.428 2.047 5.428.754 0 4.45-10.901-1.38-13.39z" fill="#51362A"/></g></symbol><symbol viewBox="0 0 56 56" fill="none" id="warranty"><path d="M31 25v-9c0-3.3-1.35-6.3-3.525-8.475A11.963 11.963 0 0019 4C12.4 4 7 9.4 7 16v9h3v-9c0-4.95 4.05-9 9-9 2.475 0 4.725.975 6.375 2.625A8.955 8.955 0 0128 16v9h-3v3c0 1.65 1.35 3 3 3h6v-3c0-1.65-1.35-3-3-3z" fill="#35A47C"/><rect x="2" y="25" width="34" height="27" rx="4" fill="#47CB9B"/><path d="M25 25h7a4 4 0 014 4v7h-7a4 4 0 01-4-4v-7z" fill="#35A47C"/></symbol><symbol viewBox="0 0 24 24" fill="none" id="website"><path fill-rule="evenodd" clip-rule="evenodd" d="M7 3h10a1 1 0 011 1v16a1 1 0 01-1 1H7a1 1 0 01-1-1V4a1 1 0 011-1zM5 4a2 2 0 012-2h10a2 2 0 012 2v16a2 2 0 01-2 2H7a2 2 0 01-2-2V4zm7 15a1 1 0 100-2 1 1 0 000 2z" fill="#35A47C"/><rect x="10" y="4" width="4" height="1" rx=".5" fill="#35A47C"/></symbol><symbol viewBox="0 0 24 24" fill="none" id="work"><rect x="1.5" y="5.5" width="21" height="16" rx="1.5" stroke="#35A47C"/><rect x="1.5" y="5.5" width="21" height="7" rx="1.5" stroke="#35A47C"/><path d="M9 2.5h6a.5.5 0 01.5.5v2.5h-7V3a.5.5 0 01.5-.5zm.5 10h5v2h-5z" stroke="#35A47C"/></symbol><symbol viewBox="0 0 32 32" fill="none" id="year"><path d="M30 7H2v20.613C2 28.387 2.713 29 3.614 29h24.772c.9 0 1.614-.613 1.614-1.387V7z" fill="#fff"/><path d="M13.715 23.648H12.02v-6.527l-2.02.627v-1.377l3.533-1.265h.182v8.542zm8.625 0h-5.848v-1.16l2.76-2.941c.379-.414.658-.776.838-1.084.183-.309.275-.602.275-.879 0-.379-.095-.676-.287-.89-.191-.22-.465-.329-.82-.329-.383 0-.686.133-.908.399-.22.261-.329.607-.329 1.037h-1.699c0-.52.123-.994.37-1.424.25-.43.601-.766 1.054-1.008A3.177 3.177 0 0119.287 15c.879 0 1.56.21 2.045.633.488.422.732 1.017.732 1.787 0 .422-.109.851-.328 1.289-.218.438-.593.947-1.125 1.53l-1.94 2.044h3.669v1.365z" fill="#324A5E"/><path d="M30 12V6.824C30 5.806 29.286 5 28.384 5H3.616C2.714 5 2 5.806 2 6.824V12h28z" fill="#35A47C"/><path d="M8 9c-.556 0-1-.503-1-1.132V3.132C7 2.503 7.444 2 8 2s1 .503 1 1.132v4.736C9 8.497 8.556 9 8 9zm16 0c-.556 0-1-.503-1-1.132V3.132C23 2.503 23.444 2 24 2s1 .503 1 1.132v4.736C25 8.497 24.518 9 24 9z" fill="#324A5E"/></symbol><symbol viewBox="0 0 24 24" fill="none" id="youtube"><path fill="#3e526b" d="M21.582 6.186a2.506 2.506 0 00-1.768-1.768C18.254 4 12 4 12 4s-6.254 0-7.814.418c-.86.23-1.538.908-1.768 1.768C2 7.746 2 12 2 12s0 4.254.418 5.814c.23.86.908 1.538 1.768 1.768C5.746 20 12 20 12 20s6.254 0 7.814-.418a2.504 2.504 0 001.768-1.768C22 16.254 22 12 22 12s0-4.254-.418-5.814zM10 15.464V8.536L16 12l-6 3.464z"/></symbol><clipPath id="girl_clip0"><path fill="#fff" d="M0 0h32v32H0z"/></clipPath><clipPath id="man_clip0"><path fill="#fff" d="M0 0h32v32H0z"/></clipPath><clipPath id="speedometer_clip0"><path fill="#fff" transform="matrix(-1 0 0 1 32 0)" d="M0 0h32v32H0z"/></clipPath><clipPath id="unemployed_clip0"><path fill="#fff" d="M0 0h32v32H0z"/></clipPath><style>.sprite-symbol-usage{display:none}.sprite-symbol-usage:target{display:inline}</style></defs><use id="age-usage" xlink:href="#age" class="sprite-symbol-usage"/><use id="arrow-usage" xlink:href="#arrow" class="sprite-symbol-usage"/><use id="arrowLeft-usage" xlink:href="#arrowLeft" class="sprite-symbol-usage"/><use id="arrowLong-usage" xlink:href="#arrowLong" class="sprite-symbol-usage"/><use id="arrowRight-usage" xlink:href="#arrowRight" class="sprite-symbol-usage"/><use id="boy-usage" xlink:href="#boy" class="sprite-symbol-usage"/><use id="calendar-usage" xlink:href="#calendar" class="sprite-symbol-usage"/><use id="card-usage" xlink:href="#card" class="sprite-symbol-usage"/><use id="cashboxTerminal-usage" xlink:href="#cashboxTerminal" class="sprite-symbol-usage"/><use id="chat-usage" xlink:href="#chat" class="sprite-symbol-usage"/><use id="check-usage" xlink:href="#check" class="sprite-symbol-usage"/><use id="chooseData-usage" xlink:href="#chooseData" class="sprite-symbol-usage"/><use id="chooseItem-usage" xlink:href="#chooseItem" class="sprite-symbol-usage"/><use id="clock-usage" xlink:href="#clock" class="sprite-symbol-usage"/><use id="creditHistory-usage" xlink:href="#creditHistory" class="sprite-symbol-usage"/><use id="diagram-usage" xlink:href="#diagram" class="sprite-symbol-usage"/><use id="documents-usage" xlink:href="#documents" class="sprite-symbol-usage"/><use id="facebook-usage" xlink:href="#facebook" class="sprite-symbol-usage"/><use id="fire-usage" xlink:href="#fire" class="sprite-symbol-usage"/><use id="girl-usage" xlink:href="#girl" class="sprite-symbol-usage"/><use id="hour1-usage" xlink:href="#hour1" class="sprite-symbol-usage"/><use id="iboxTerminal-usage" xlink:href="#iboxTerminal" class="sprite-symbol-usage"/><use id="inTheSameDay-usage" xlink:href="#inTheSameDay" class="sprite-symbol-usage"/><use id="information-usage" xlink:href="#information" class="sprite-symbol-usage"/><use id="instagram-usage" xlink:href="#instagram" class="sprite-symbol-usage"/><use id="instantly-usage" xlink:href="#instantly" class="sprite-symbol-usage"/><use id="link-usage" xlink:href="#link" class="sprite-symbol-usage"/><use id="lutsk-usage" xlink:href="#lutsk" class="sprite-symbol-usage"/><use id="man-usage" xlink:href="#man" class="sprite-symbol-usage"/><use id="minfin_logo-usage" xlink:href="#minfin_logo" class="sprite-symbol-usage"/><use id="minfin_logo_ru-usage" xlink:href="#minfin_logo_ru" class="sprite-symbol-usage"/><use id="minute1-usage" xlink:href="#minute1" class="sprite-symbol-usage"/><use id="minute1ProductCard-usage" xlink:href="#minute1ProductCard" class="sprite-symbol-usage"/><use id="minutes15-usage" xlink:href="#minutes15" class="sprite-symbol-usage"/><use id="minutes15productCard-usage" xlink:href="#minutes15productCard" class="sprite-symbol-usage"/><use id="minutes5-usage" xlink:href="#minutes5" class="sprite-symbol-usage"/><use id="month1-usage" xlink:href="#month1" class="sprite-symbol-usage"/><use id="month2-usage" xlink:href="#month2" class="sprite-symbol-usage"/><use id="month3-usage" xlink:href="#month3" class="sprite-symbol-usage"/><use id="month6-usage" xlink:href="#month6" class="sprite-symbol-usage"/><use id="noLimit-usage" xlink:href="#noLimit" class="sprite-symbol-usage"/><use id="partnerBranch-usage" xlink:href="#partnerBranch" class="sprite-symbol-usage"/><use id="personalAccount-usage" xlink:href="#personalAccount" class="sprite-symbol-usage"/><use id="privatTerminal-usage" xlink:href="#privatTerminal" class="sprite-symbol-usage"/><use id="prolongation-usage" xlink:href="#prolongation" class="sprite-symbol-usage"/><use id="speedometer-usage" xlink:href="#speedometer" class="sprite-symbol-usage"/><use id="star-usage" xlink:href="#star" class="sprite-symbol-usage"/><use id="student-usage" xlink:href="#student" class="sprite-symbol-usage"/><use id="submit-usage" xlink:href="#submit" class="sprite-symbol-usage"/><use id="telegram-usage" xlink:href="#telegram" class="sprite-symbol-usage"/><use id="twitter-usage" xlink:href="#twitter" class="sprite-symbol-usage"/><use id="undo-usage" xlink:href="#undo" class="sprite-symbol-usage"/><use id="unemployed-usage" xlink:href="#unemployed" class="sprite-symbol-usage"/><use id="warranty-usage" xlink:href="#warranty" class="sprite-symbol-usage"/><use id="website-usage" xlink:href="#website" class="sprite-symbol-usage"/><use id="work-usage" xlink:href="#work" class="sprite-symbol-usage"/><use id="year-usage" xlink:href="#year" class="sprite-symbol-usage"/><use id="youtube-usage" xlink:href="#youtube" class="sprite-symbol-usage"/></svg>