<svg version="1.1" id="Слой_1" xmlns="http://www.w3.org/2000/svg" x="0" y="0" viewBox="0 0 300 130" xml:space="preserve"><style>.st0{fill:#053561}</style><path class="st0" d="M30.6 55.9c-2 .4-5.5 1.1-8.6-1-2.3-1.6-4.1-4.5-3.8-7.6.4-4.2 4.7-6.6 6.7-7.6 2.5-1.3 5.6-2.1 8.6-2.9.1 0 1.3-.3 2.9-1 1-.4 1.5-.6 1.9-1 1-.8 1.9-2.3 1.5-3.7-.1-.4-.3-.7-.6-1.1-1.6-1.9-3.4-1.4-5.7-2.9-.6-.4-2.7-1.7-2.9-3.8-.1-1.3.6-2.3 1-2.9 1.2-1.7 2.4-1.7 5.7-3.8 1.9-1.2 2.8-1.9 3.8-2.9 1.3-1.3 2-2.4 2.9-3.8 0 0 .9-1.5 1.1-2.8C45.1 6 44 5.2 44 5.2c0-.1 1.4.5 1.9 1.9.2.8.1 1.4 0 1.9-.7 2.9-2.7 5.4-3.8 6.7-1.4 1.6-2.9 2.9-2.9 2.9-1.4 1.3-2 1.7-2.9 2.9-.8 1.2-.9 1.7-1 1.9-.2 1.6.9 2.8 1.1 3.1.4.5 1.2.9 2.7 1.7 1.1.6 1.5.7 1.9 1 1.5.8 3.7 2.9 3.8 5.7.1 2.7-1.7 4.5-1.9 4.8-.8.8-1.8 1.2-3.8 1.9-3 1.1-3.8.9-5.7 1.9-1.1.6-2.9 1.6-2.9 2.9.1.8 1 1.6 1.9 1.9 2.2.7 3.3-1.8 7.6-2.9 2.4-.6 3.9-.3 4.8 0 .5.1 2.8.9 2.9 1.9 0 1.2-2.9 1.7-7.6 3.8-5.8 2.6-5.9 4-9.5 4.8"/><path class="st0" d="M49 110c-17.7 0-32.5-8-36.1-21.1-4.8-17.1 11.3-36.6 35.8-43.5 24.5-6.8 48.4 1.6 53.1 18.7 4.8 17.2-11.3 36.7-35.8 43.5-5.8 1.7-11.5 2.4-17 2.4M15.6 88.2c4.4 15.7 26.7 23.2 49.7 16.8 23.1-6.4 38.3-24.4 33.9-40.1-4.4-15.7-26.7-23.2-49.7-16.8-23.1 6.4-38.3 24.4-33.9 40.1"/><path class="st0" d="M78.5 55.9c-1.8-2-4.8-2.8-7.3-1.9-2.6.9-4.4 3.3-4.7 6-.1.7.7 1.4 1.4 1.4.8 0 1.3-.6 1.4-1.4v-.1c0-.1 0-.2.1-.3.1-.2.1-.4.2-.7l.1-.2c.1-.1.1-.2.2-.3.1-.1.1-.2.2-.3l.1-.1h-.1c.1-.2.3-.4.5-.5.1-.1.2-.2.3-.2l.1-.1c.2-.1.4-.3.7-.4.1 0 .2-.1.3-.1l.2-.1c.8-.3 1.6-.3 2.4-.1.2.1.5.1.7.2l.2.1c.1.1.2.1.3.2.1.1.2.1.3.2.2.1 0 0 .1.1.2.2.4.4.6.5.5.6 1.4.5 2 0 .2-.5.2-1.4-.3-1.9m-22.9 4.7c-1.8-2-4.8-2.8-7.3-1.9-2.6.9-4.4 3.3-4.7 6-.1.7.7 1.4 1.4 1.4.8 0 1.3-.6 1.4-1.4v-.1c0-.1 0-.2.1-.3.1-.2.1-.4.2-.7l.1-.2c.1-.1.1-.2.2-.3.1-.1.1-.2.2-.3l.1-.1c-.1.1-.1.1 0 0 .1-.2.3-.4.5-.5.1-.1.2-.2.3-.2l.1-.1c.2-.1.4-.3.7-.4.1 0 .2-.1.3-.1l.2-.1c.8-.3 1.6-.3 2.4-.1.2.1.5.1.7.2l.2.1c.1.1.2.1.3.2.1.1.2.1.3.2.2.1 0 0 .1.1.2.2.4.4.6.5.5.6 1.4.5 2 0 .2-.5.1-1.3-.4-1.9"/><path d="M101.2 59.9c-2-2.5-4.8-4.2-8-4.4-4-.3-8.1 1.2-11 4-2.7 2.6-4 6.4-6.6 9.2-6 6.3-18.1 6.1-20.9 5-3.5-1.3-6.4-4.1-10-5.2-3.9-1.2-8.1-.7-11.6 1.4-2.7 1.7-4.5 4.4-5.1 7.6-.6 3.2-.2 6.5.9 9.5 1.3 3.8 4 7 6.7 9.9 6 6.2 13.3 11.8 16.1 20.3.8 2.3 1.1 4.8.7 7.3 0 .2.3.2.3 0 .7-4.6 1.1-9.4 0-14-1-4.5-3.6-8.2-6.2-11.8-2.3-3.2-5.1-6.9-5.4-11-.1-1.6.1-3.5 1.3-4.7 1.3-1.4 3.7-1 5.4-.7 2.4.4 4.6 1.3 7 1.6 2.7.3 5.4-.1 7.9-1.1 1.8-.8 3.4-2.1 4.4-3.8 1.6 1.1 3.7 1.6 5.6 1.4 2.7-.2 5.3-1 7.6-2.6 2-1.4 3.6-3.1 5.5-4.6 1.4-1 3.3-2.4 5.1-1.8 1.6.6 2.7 2.1 3.3 3.6 1.5 3.8.7 8.3.1 12.2-.7 4.4-1.3 8.9-.2 13.4 1.2 4.6 3.6 8.6 6.3 12.5.1.2.4 0 .3-.1-1.4-2-2.3-4.4-2.6-6.8-1.3-8.9 2.7-17.2 5.2-25.4 1.2-3.8 2.1-7.9 1.5-11.9-.6-3.2-1.6-6.4-3.6-9" fill-rule="evenodd" clip-rule="evenodd" fill="#053561"/><path class="st0" d="M141.2 93.8v.4c0 .6-.5.9-1.4.9-.9 0-1.8-.4-2.4-1.2-.7-.8-1.4-2-2.1-3.7-.7-1.7-1.2-2.7-1.5-3-.7-.7-2.2-1-4.5-1-3.5 0-5.7.3-6.7.9-.6.4-1.3 1.5-2.1 3.4s-1.2 2.9-1.3 3.1c-.6 1-1.4 1.5-2.4 1.5h-.4c-.7 0-1.1-.4-1.1-1.1 0-.6.5-2.5 1.6-5.8 3.8-12 6.1-18.8 6.7-20.4.6-1.6 1.3-2.8 2-3.6.7-.9 1.6-1.3 2.7-1.3s2 .4 2.8 1.3c.7.9 1.7 2.7 2.9 5.6 2.3 5.5 4.1 11.4 5.6 17.7.2.7.5 1.7.9 3.3.5 1.5.7 2.5.7 3m-8.6-12v-.2c0-.1-.1-.6-.3-1.5-.2-.9-.3-1.5-.4-1.8-.1-.3-.4-1.5-.8-3.5-.5-2.1-1-3.7-1.5-4.9-.6-1.2-.9-1.8-1-1.8-.1 0-.4.6-1 1.8-2.7 6.1-4 10.1-4 11.9v.2c0 .4.7.7 2.2.7h5.5c.9-.1 1.3-.4 1.3-.9m53.1 11.1c0 1.1-.5 1.7-1.6 1.7-.3 0-.8-.3-1.3-.8-.5-.6-.9-1.4-1.1-2.6-.2-1.2-.5-4.4-.7-9.8-.3-5.3-.6-8-1-8s-1.7 2.5-3.9 7.4-3.4 7.6-3.8 8.2c-.7 1-1.5 1.5-2.3 1.5-.8 0-1.5-.4-2-1.3-.5-.8-1.2-2.4-2-4.6-2.8-7.4-4.6-11.2-5.2-11.2-.4 0-.9 2.9-1.7 8.8-.8 5.9-1.2 8.9-1.2 9-.5 1.9-1.1 2.8-1.9 2.8-1 0-1.5-.6-1.5-1.7 0-.4.1-1.6.2-3.7.2-2.1.3-3.8.3-5.2 0-1.4.1-3.2.2-5.5s.2-5.4.2-9.4c0-1.1.2-2 .6-2.7.5-1 1.3-1.4 2.4-1.4s2.1.7 3 2.1c1 1.4 2.6 4.3 4.9 8.8 2.3 4.5 3.5 6.7 3.7 6.7.2 0 1.4-2.1 3.6-6.2s3.6-6.8 4.3-7.9c1.5-2.3 2.8-3.5 4-3.5 1.5 0 2.4.6 2.9 1.9.4 1.2.7 4.6.7 10.2l-.2 9.3c0 1.7 0 3.3.1 4.6.2 1.2.3 2.1.3 2.5m15.1-.2c0-.4.2-1.5.6-3.3.4-2 .6-4.2.6-6.6v-5.2c0-2.9-.1-4.9-.2-6-.1-1.1-.3-2.1-.6-3.1s-.5-1.9-.5-2.8c0-1.8 1.2-2.6 3.6-2.6h.4c1 0 1.7.3 2.2.9.5.6.7 1.3.7 2v.4c0 .3-.1 1.1-.3 2.3-.2 1.2-.3 2.5-.3 3.8v.8l-.1 3.5v10.8c0 1 .1 2 .3 3 .2 1 .3 1.9.3 2.6 0 .7-.2 1.4-.7 1.9-.4.5-1.2.8-2.3.8h-.8c-.8 0-1.5-.2-2.1-.7-.6-.5-.8-1.2-.8-2.1v-.4zm42.1-5.9c0-1.4-.5-2.6-1.4-3.6-.9-1-1.4-1.6-1.4-1.8 0-.5.7-.8 2-.8 2.1 0 3.5.5 4.4 1.5.5.6.8 1.9.8 3.8v1.6c0 3.5-.6 5.8-1.9 7-.5.5-1.5.9-3 1.3s-3.1.6-4.9.6c-1.8 0-3.6-.4-5.5-1.2-3.8-1.6-6.4-4.5-7.8-8.9-.7-2.2-1-4.6-1-7.1 0-4.9 1.2-8.7 3.7-11.6 1.3-1.5 2.9-2.7 4.8-3.6 1.9-.8 3.9-1.3 6.2-1.3 2.2 0 4 .3 5.3.9 2.3 1.1 3.5 2.3 3.5 3.6 0 .9-.6 1.4-1.9 1.4-.2 0-1-.2-2.6-.6-1.6-.4-3.1-.6-4.5-.6s-2.7.4-4 1.1c-1.3.7-2.4 1.6-3.2 2.7-1.4 1.9-2.1 4.6-2.1 8.2 0 3.6.7 6.5 2.2 8.7 1.4 2.2 3.7 3.3 6.7 3.3 1.5 0 2.7-.3 3.6-1 1.4-1 2-2.2 2-3.6m45.1-8.6v1.6c0 2.4-.3 4.7-.9 6.9-.6 2.2-1.5 3.9-2.6 5.2-1.1 1.3-2.5 2.4-4.2 3.3-1.7.8-3.4 1.3-5.1 1.3h-1.6c-1.7 0-3.3-.4-4.9-1.1-3.2-1.5-5.5-4.3-6.6-8.6-.5-1.8-.7-4-.7-6.5v-.5c0-2.3.3-4.6.9-6.8 1.2-4.5 3.5-7.6 7-9.1 1.6-.7 3.3-1.1 5.1-1.1h1c1.6 0 3.3.4 4.9 1.1 3.2 1.4 5.4 4 6.7 8 .6 1.8 1 4 1 6.3m-22 1v1.5c0 1.8.2 3.4.6 4.9.8 2.8 2.1 4.8 4 5.9 1.1.6 2.3 1 3.6 1h.7c1.2 0 2.4-.3 3.4-1 3-2 4.5-5.8 4.5-11.7v-1.5c0-3.5-.7-6.3-2.1-8.5-.6-1-1.4-1.8-2.4-2.4-1-.6-2-.9-3-.9h-1.1c-1.2 0-2.4.3-3.4 1-1.1.7-1.9 1.5-2.5 2.4-.6.9-1.1 2.2-1.6 3.8-.5 1.7-.7 3.5-.7 5.5"/><path d="M114 79.2c0 1.8-1.4 3.2-3.2 3.2-1.8 0-3.2-1.4-3.2-3.2 0-1.8 1.4-3.2 3.2-3.2 1.8-.1 3.2 1.4 3.2 3.2" fill="#ff2e2a"/><path d="M149.1 79.2c0 1.8-1.4 3.2-3.2 3.2-1.8 0-3.2-1.4-3.2-3.2 0-1.8 1.4-3.2 3.2-3.2 1.7-.1 3.2 1.4 3.2 3.2" fill="#ffb859"/><path d="M196.1 79.2c0 1.8-1.4 3.2-3.2 3.2-1.8 0-3.2-1.4-3.2-3.2 0-1.8 1.4-3.2 3.2-3.2 1.8-.1 3.2 1.4 3.2 3.2" fill="#009290"/><path d="M218.2 79.2c0 1.8-1.4 3.2-3.2 3.2-1.8 0-3.2-1.4-3.2-3.2 0-1.8 1.4-3.2 3.2-3.2 1.8-.1 3.2 1.4 3.2 3.2" fill="#f82c29"/><path d="M257 79.2c0 1.8-1.4 3.2-3.2 3.2-1.8 0-3.2-1.4-3.2-3.2 0-1.8 1.4-3.2 3.2-3.2 1.7-.1 3.2 1.4 3.2 3.2" fill="#ffbf4f"/></svg>