<svg width="70" height="50" fill="none" xmlns="http://www.w3.org/2000/svg"><path fill-rule="evenodd" clip-rule="evenodd" d="M6.657 20c.52 0 .963.141 1.357.439.395.298.68.72.869 1.285l2.462 8.198H8.377l-.489-1.819h-2.43l-.49 1.819H2l2.463-8.198c.11-.376.284-.69.505-.956.22-.266.473-.454.757-.58.285-.125.584-.188.932-.188zm-.016 2.79l-.82 3.072h1.688l-.82-3.072H6.64z" fill="url(#paint0_linear_7144_1444)"/><path d="M14.518 27.774h.063l1.326-4.843h2.541l-1.83 5.486a3.222 3.222 0 01-.332.737c-.127.203-.253.36-.38.47a1.35 1.35 0 01-.441.25 1.92 1.92 0 01-.458.11c-.142.016-.3.016-.49.016-.189 0-.346 0-.489-.016a1.92 1.92 0 01-.457-.11 1.534 1.534 0 01-.442-.25 2.053 2.053 0 01-.38-.47 3.565 3.565 0 01-.33-.737l-1.832-5.486h2.605l1.326 4.843z" fill="url(#paint1_linear_7144_1444)"/><path fill-rule="evenodd" clip-rule="evenodd" d="M24.542 23.433c-.395-.345-.947-.518-1.673-.518h-3.805v1.975h3.678v.831h-2.115c-.41 0-.758.063-1.057.204-.3.14-.521.329-.68.58-.157.25-.236.548-.236.893v.564c0 .612.205 1.098.6 1.442.394.345.947.518 1.673.518h4.215V24.89c0-.627-.205-1.113-.6-1.457zm-3.489 4.811v-1.112h1.69v1.112h-1.69z" fill="url(#paint2_linear_7144_1444)"/><path d="M28.457 22.947l1.815.015c1.5 0 2.257.659 2.273 1.96v5.047h-2.4v-5.047h-1.688v5.031H26.04v-7.006h2.416z" fill="url(#paint3_linear_7144_1444)"/><path d="M38.401 26.035c-.347-.298-.836-.455-1.452-.455h-1.263v-.69h3.11v-1.975h-3.615c-.237 0-.442.016-.631.063-.19.031-.347.094-.474.172a3.008 3.008 0 00-.331.236.757.757 0 00-.221.313 2.16 2.16 0 00-.082.188c-.02.05-.038.098-.06.141a1.601 1.601 0 00-.08.345c-.015.141-.015.235-.015.314v.909c0 .517.174.924.52 1.222.348.298.837.455 1.453.455h1.263v.705h-3.236v1.944h3.378c.71 0 1.279-.173 1.673-.518.395-.344.6-.83.6-1.442v-.705c-.016-.517-.19-.925-.537-1.223z" fill="url(#paint4_linear_7144_1444)"/><path d="M39.98 21.74c0-.596.127-1.003.38-1.254.252-.25.678-.36 1.262-.376h3.347v.925h-3.347c-.237 0-.394.047-.473.14-.08.095-.11.283-.11.55v6.55c0 .283.03.471.11.565.063.11.236.157.473.157h3.347v.925h-3.347c-.584 0-1.01-.126-1.263-.377-.252-.235-.379-.658-.379-1.253V21.74z" fill="url(#paint5_linear_7144_1444)"/><path d="M46.326 23.276c-.237.235-.347.611-.347 1.128v5.518h.994v-5.518c0-.203.032-.36.11-.47.08-.094.206-.157.395-.157h1.469v-.862h-1.469c-.536 0-.915.126-1.152.36z" fill="url(#paint6_linear_7144_1444)"/><path fill-rule="evenodd" clip-rule="evenodd" d="M51.204 22.915h2.068c.52 0 .9.126 1.12.36.237.236.348.612.348 1.13v1.05c0 .517-.11.893-.348 1.128-.236.235-.615.36-1.136.36h-2.557v1.458c0 .22.031.376.11.47.08.11.205.157.395.157h3.346v.862h-3.346c-.521 0-.9-.11-1.137-.345-.236-.235-.347-.61-.347-1.128v-4.028c0-.517.11-.894.347-1.129s.616-.345 1.137-.345zm2.462 2.994c.08-.094.11-.25.11-.454h.017v-1.05c0-.22-.032-.361-.11-.47-.08-.11-.206-.157-.395-.157H51.22c-.19 0-.316.062-.395.156-.079.11-.11.267-.11.47v1.662h2.557c.19 0 .316-.063.394-.157z" fill="url(#paint7_linear_7144_1444)"/><path fill-rule="evenodd" clip-rule="evenodd" d="M60.123 22.915h-2.7c-.52 0-.899.11-1.136.345-.236.235-.347.612-.347 1.129v4.028c0 .517.11.893.347 1.128.237.236.616.345 1.137.345h2.21c.52 0 .9-.11 1.136-.345.237-.235.348-.61.348-1.128v-8.323h-.995v2.821zm.016 5.518c0 .203-.032.36-.11.47-.08.11-.206.157-.395.157h-2.21c-.19 0-.316-.047-.395-.157-.079-.094-.11-.251-.11-.47v-4.029c0-.203.031-.36.11-.47.08-.094.205-.157.395-.157h2.715v4.656z" fill="url(#paint8_linear_7144_1444)"/><path d="M62.632 20.126c.127 0 .237.03.332.078a.462.462 0 01.22.235c.048.11.08.204.08.33a.59.59 0 01-.174.454.661.661 0 01-.458.172c-.19 0-.331-.047-.457-.172a.651.651 0 01-.174-.455c0-.188.047-.329.174-.454a.635.635 0 01.457-.188z" fill="url(#paint9_linear_7144_1444)"/><path d="M63.138 22.915h-.994v7.007h.994v-7.007z" fill="url(#paint10_linear_7144_1444)"/><path d="M68 22.931v.846h-1.989v4.656c0 .22.032.376.11.47.08.11.206.157.395.157h1.468v.862h-1.468c-.52 0-.9-.11-1.136-.345-.237-.235-.348-.612-.348-1.129v-4.655h-.884v-.862h.884v-1.96h.995v1.96H68z" fill="url(#paint11_linear_7144_1444)"/><defs><linearGradient id="paint0_linear_7144_1444" x1="39.829" y1="16.2" x2="35.477" y2="38.224" gradientUnits="userSpaceOnUse"><stop stop-color="#4829A5"/><stop offset=".896" stop-color="#4E31FE"/></linearGradient><linearGradient id="paint1_linear_7144_1444" x1="39.829" y1="16.2" x2="35.477" y2="38.224" gradientUnits="userSpaceOnUse"><stop stop-color="#4829A5"/><stop offset=".896" stop-color="#4E31FE"/></linearGradient><linearGradient id="paint2_linear_7144_1444" x1="39.829" y1="16.2" x2="35.477" y2="38.224" gradientUnits="userSpaceOnUse"><stop stop-color="#4829A5"/><stop offset=".896" stop-color="#4E31FE"/></linearGradient><linearGradient id="paint3_linear_7144_1444" x1="39.829" y1="16.2" x2="35.477" y2="38.224" gradientUnits="userSpaceOnUse"><stop stop-color="#4829A5"/><stop offset=".896" stop-color="#4E31FE"/></linearGradient><linearGradient id="paint4_linear_7144_1444" x1="39.829" y1="16.2" x2="35.477" y2="38.224" gradientUnits="userSpaceOnUse"><stop stop-color="#4829A5"/><stop offset=".896" stop-color="#4E31FE"/></linearGradient><linearGradient id="paint5_linear_7144_1444" x1="39.829" y1="16.2" x2="35.477" y2="38.224" gradientUnits="userSpaceOnUse"><stop stop-color="#4829A5"/><stop offset=".896" stop-color="#4E31FE"/></linearGradient><linearGradient id="paint6_linear_7144_1444" x1="39.829" y1="16.2" x2="35.477" y2="38.224" gradientUnits="userSpaceOnUse"><stop stop-color="#4829A5"/><stop offset=".896" stop-color="#4E31FE"/></linearGradient><linearGradient id="paint7_linear_7144_1444" x1="39.829" y1="16.2" x2="35.477" y2="38.224" gradientUnits="userSpaceOnUse"><stop stop-color="#4829A5"/><stop offset=".896" stop-color="#4E31FE"/></linearGradient><linearGradient id="paint8_linear_7144_1444" x1="39.829" y1="16.2" x2="35.477" y2="38.224" gradientUnits="userSpaceOnUse"><stop stop-color="#4829A5"/><stop offset=".896" stop-color="#4E31FE"/></linearGradient><linearGradient id="paint9_linear_7144_1444" x1="39.829" y1="16.2" x2="35.477" y2="38.224" gradientUnits="userSpaceOnUse"><stop stop-color="#4829A5"/><stop offset=".896" stop-color="#4E31FE"/></linearGradient><linearGradient id="paint10_linear_7144_1444" x1="39.829" y1="16.2" x2="35.477" y2="38.224" gradientUnits="userSpaceOnUse"><stop stop-color="#4829A5"/><stop offset=".896" stop-color="#4E31FE"/></linearGradient><linearGradient id="paint11_linear_7144_1444" x1="39.829" y1="16.2" x2="35.477" y2="38.224" gradientUnits="userSpaceOnUse"><stop stop-color="#4829A5"/><stop offset=".896" stop-color="#4E31FE"/></linearGradient></defs></svg>