<svg width="700" height="125" fill="none" xmlns="http://www.w3.org/2000/svg"><g clip-path="url(#clip0_106_163)"><path d="M170.795 68.659c-.459 4.22-1.949 7.958-4.472 11.215-2.477 3.211-5.734 5.711-9.771 7.5-4.037 1.79-8.647 2.684-13.83 2.684-5.78 0-10.849-1.124-15.206-3.372-4.358-2.248-7.753-5.367-10.184-9.358-2.431-4.036-3.646-8.715-3.646-14.036s1.215-9.977 3.646-13.968c2.431-4.037 5.826-7.179 10.184-9.426 4.357-2.248 9.426-3.372 15.206-3.372 5.183 0 9.793.894 13.83 2.683 4.037 1.79 7.294 4.29 9.771 7.5 2.523 3.211 4.013 6.95 4.472 11.216h-9.151c-.505-2.752-1.606-5.115-3.303-7.087-1.651-1.973-3.807-3.486-6.468-4.541-2.66-1.101-5.734-1.652-9.22-1.652-4.037 0-7.546.757-10.527 2.27-2.936 1.515-5.207 3.67-6.812 6.469-1.606 2.798-2.408 6.1-2.408 9.908 0 3.807.802 7.11 2.408 9.908 1.605 2.798 3.876 4.954 6.812 6.468 2.981 1.513 6.49 2.27 10.527 2.27 3.486 0 6.56-.527 9.22-1.582 2.661-1.055 4.817-2.569 6.468-4.541 1.697-2.019 2.798-4.404 3.303-7.156h9.151zm40.672 20.435l.069-14.45 1.789-5.022-1.789-4.954-.069-14.518h8.739v38.944h-8.739zm4.335-19.472c-.871 4.082-2.316 7.66-4.335 10.734-2.018 3.073-4.518 5.459-7.5 7.156-2.935 1.697-6.215 2.546-9.839 2.546-3.807 0-7.179-.85-10.115-2.546-2.935-1.743-5.229-4.152-6.88-7.225-1.652-3.073-2.477-6.628-2.477-10.665 0-4.082.825-7.638 2.477-10.665 1.651-3.073 3.945-5.459 6.88-7.156 2.936-1.743 6.308-2.615 10.115-2.615 3.624 0 6.904.849 9.839 2.546 2.982 1.697 5.482 4.083 7.5 7.156 2.064 3.028 3.509 6.606 4.335 10.734zm-32.064 0c0 2.615.528 4.931 1.583 6.95 1.101 1.972 2.591 3.531 4.472 4.678 1.881 1.101 4.037 1.652 6.468 1.652 2.477 0 4.771-.55 6.881-1.652 2.11-1.147 3.968-2.706 5.573-4.678 1.651-2.019 2.959-4.335 3.922-6.95-.963-2.615-2.271-4.908-3.922-6.88-1.605-2.019-3.463-3.579-5.573-4.68-2.11-1.146-4.404-1.72-6.881-1.72-2.431 0-4.587.574-6.468 1.72-1.881 1.101-3.371 2.661-4.472 4.68-1.055 1.972-1.583 4.265-1.583 6.88zm86.085 7.638c0 2.614-.734 4.885-2.202 6.811-1.468 1.927-3.693 3.418-6.674 4.473-2.982 1.009-6.72 1.514-11.216 1.514-4.633 0-8.646-.574-12.041-1.72-3.394-1.193-6.032-2.845-7.913-4.955-1.834-2.156-2.821-4.633-2.958-7.43h9.082c.275 1.467 1.009 2.774 2.202 3.921 1.238 1.101 2.844 1.95 4.816 2.546 2.019.596 4.312.894 6.881.894 3.716 0 6.514-.435 8.395-1.307 1.88-.917 2.821-2.293 2.821-4.128 0-1.239-.643-2.18-1.927-2.821-1.239-.643-3.601-1.124-7.087-1.445l-7.638-.688c-4.128-.367-7.385-1.101-9.77-2.202-2.385-1.147-4.083-2.523-5.092-4.129-1.009-1.65-1.514-3.394-1.514-5.229 0-2.66.826-4.885 2.477-6.674 1.652-1.789 3.945-3.142 6.881-4.06 2.936-.963 6.353-1.445 10.252-1.445 4.037 0 7.638.574 10.803 1.72 3.165 1.102 5.688 2.661 7.569 4.68 1.88 1.972 2.935 4.266 3.165 6.88h-9.083c-.183-1.055-.734-2.064-1.651-3.027-.872-1.01-2.225-1.835-4.06-2.477-1.789-.689-4.197-1.033-7.224-1.033-3.211 0-5.734.413-7.569 1.239-1.789.826-2.684 2.041-2.684 3.647 0 1.009.551 1.88 1.652 2.614 1.101.689 3.142 1.17 6.124 1.445l9.839.895c3.945.367 7.018 1.078 9.22 2.133 2.248 1.009 3.83 2.316 4.748 3.922.917 1.605 1.376 3.417 1.376 5.436zm5.876-41.147h8.945v52.981h-8.945v-52.98zm24.427 13.073c3.669 0 6.789.734 9.357 2.202 2.569 1.468 4.519 3.578 5.849 6.33 1.376 2.707 2.064 5.987 2.064 9.84v21.536h-8.945V69.003c0-4.083-.963-7.156-2.89-9.22-1.88-2.11-4.656-3.166-8.325-3.166-2.523 0-4.748.574-6.674 1.72-1.881 1.102-3.349 2.661-4.404 4.68-1.009 2.018-1.514 4.38-1.514 7.087l-3.165-1.72c.413-4.037 1.468-7.477 3.165-10.322 1.697-2.843 3.876-5.022 6.537-6.536 2.66-1.56 5.642-2.34 8.945-2.34zm94.652 39.908l.069-14.45 1.789-5.022-1.789-4.954V50.63h8.669v38.463h-8.738zm4.335-19.472c-.872 4.082-2.317 7.66-4.335 10.734-2.019 3.073-4.519 5.459-7.5 7.156-2.936 1.697-6.216 2.546-9.839 2.546-3.808 0-7.179-.85-10.115-2.546-2.936-1.743-5.229-4.152-6.881-7.225-1.651-3.073-2.477-6.628-2.477-10.665 0-4.082.826-7.638 2.477-10.665 1.652-3.073 3.945-5.459 6.881-7.156 2.936-1.743 6.307-2.615 10.115-2.615 3.623 0 6.903.849 9.839 2.546 2.981 1.697 5.481 4.083 7.5 7.156 2.064 3.028 3.509 6.606 4.335 10.734zm-32.064 0c0 2.615.527 4.931 1.582 6.95 1.101 1.972 2.592 3.531 4.473 4.678 1.88 1.101 4.036 1.652 6.468 1.652 2.477 0 4.77-.55 6.88-1.652 2.11-1.147 3.968-2.706 5.574-4.678 1.651-2.019 2.958-4.335 3.921-6.95-.963-2.615-2.27-4.908-3.921-6.88-1.606-2.019-3.464-3.579-5.574-4.68-2.11-1.146-4.403-1.72-6.88-1.72-2.432 0-4.588.574-6.468 1.72-1.881 1.101-3.372 2.661-4.473 4.68-1.055 1.972-1.582 4.265-1.582 6.88zm46.245-19.472h8.945v38.944h-8.945V50.15zm24.427-.964c3.669 0 6.789.734 9.357 2.202 2.569 1.468 4.519 3.578 5.849 6.33 1.376 2.707 2.064 5.987 2.064 9.84v21.536h-8.945V69.003c0-4.083-.963-7.156-2.89-9.22-1.88-2.11-4.656-3.166-8.325-3.166-2.523 0-4.748.574-6.674 1.72-1.881 1.102-3.349 2.661-4.404 4.68-1.009 2.018-1.514 4.38-1.514 7.087l-3.165-1.72c.413-4.037 1.468-7.477 3.165-10.322 1.697-2.843 3.876-5.022 6.537-6.536 2.66-1.56 5.642-2.34 8.945-2.34zm79.972 19.473c-.458 4.22-1.949 7.958-4.472 11.215-2.477 3.211-5.734 5.711-9.771 7.5-4.036 1.79-8.646 2.684-13.83 2.684-5.78 0-10.848-1.124-15.206-3.372-4.358-2.248-7.752-5.367-10.183-9.358-2.432-4.036-3.647-8.715-3.647-14.036s1.215-9.977 3.647-13.968c2.431-4.037 5.825-7.179 10.183-9.426 4.358-2.248 9.426-3.372 15.206-3.372 5.184 0 9.794.894 13.83 2.683 4.037 1.79 7.294 4.29 9.771 7.5 2.523 3.211 4.014 6.95 4.472 11.216h-9.151c-.505-2.752-1.606-5.115-3.303-7.087-1.651-1.973-3.807-3.486-6.468-4.541-2.66-1.101-5.733-1.652-9.22-1.652-4.036 0-7.545.757-10.527 2.27-2.936 1.515-5.206 3.67-6.812 6.469-1.605 2.798-2.408 6.1-2.408 9.908 0 3.807.803 7.11 2.408 9.908 1.606 2.798 3.876 4.954 6.812 6.468 2.982 1.513 6.491 2.27 10.527 2.27 3.487 0 6.56-.527 9.22-1.582 2.661-1.055 4.817-2.569 6.468-4.541 1.697-2.019 2.798-4.404 3.303-7.156h9.151zm4.067-18.509h8.945l2.34 14.174v24.77H524.1v-26.49l-2.34-12.454zm31.032-.276v7.844a22.247 22.247 0 00-3.303-.619 29.474 29.474 0 00-3.371-.206c-2.523 0-4.771.55-6.743 1.651-1.973 1.101-3.532 2.752-4.679 4.954-1.101 2.156-1.651 4.817-1.651 7.982l-2.065-2.546c.184-2.752.643-5.321 1.377-7.706.779-2.432 1.834-4.542 3.165-6.33a14.739 14.739 0 015.023-4.198c1.972-1.009 4.266-1.514 6.88-1.514.918 0 1.858.07 2.821.207.964.092 1.812.252 2.546.481zm23.972 40.184c-4.541 0-8.578-.85-12.11-2.546-3.532-1.743-6.307-4.152-8.325-7.225-2.019-3.073-3.028-6.651-3.028-10.734 0-4.037.941-7.569 2.821-10.596 1.927-3.073 4.564-5.459 7.913-7.156 3.395-1.743 7.271-2.615 11.628-2.615 4.358 0 8.12.987 11.285 2.96 3.211 1.926 5.688 4.655 7.431 8.187 1.743 3.532 2.614 7.683 2.614 12.454H560.32v-6.812h32.201l-4.472 2.546c-.138-2.569-.757-4.77-1.858-6.605-1.055-1.835-2.5-3.234-4.335-4.197-1.789-1.01-3.922-1.514-6.399-1.514-2.615 0-4.908.527-6.881 1.582-1.926 1.055-3.44 2.546-4.541 4.473-1.101 1.88-1.651 4.128-1.651 6.743 0 2.89.642 5.39 1.926 7.5 1.331 2.11 3.188 3.738 5.574 4.885 2.431 1.1 5.298 1.651 8.6 1.651 2.982 0 6.033-.458 9.152-1.376 3.119-.963 5.871-2.293 8.257-3.99v6.467c-2.386 1.835-5.299 3.28-8.739 4.335a34.812 34.812 0 01-10.39 1.583zm60.96-.964l.207-14.793 1.995-4.61-1.927-5.298-.275-28.28 8.876.138v52.843h-8.876zm4.335-19.472c-.871 4.082-2.316 7.66-4.335 10.734-2.018 3.073-4.518 5.459-7.5 7.156-2.935 1.697-6.215 2.546-9.839 2.546-3.807 0-7.179-.85-10.115-2.546-2.935-1.743-5.229-4.152-6.88-7.225-1.652-3.073-2.477-6.628-2.477-10.665 0-4.082.825-7.638 2.477-10.665 1.651-3.073 3.945-5.459 6.88-7.156 2.936-1.743 6.308-2.615 10.115-2.615 3.624 0 6.904.849 9.839 2.546 2.982 1.697 5.482 4.083 7.5 7.156 2.064 3.028 3.509 6.606 4.335 10.734zm-32.064 0c0 2.615.528 4.931 1.583 6.95 1.101 1.972 2.591 3.531 4.472 4.678 1.881 1.101 4.037 1.652 6.468 1.652 2.477 0 4.771-.55 6.881-1.652 2.11-1.147 3.967-2.706 5.573-4.678 1.651-2.019 2.959-4.335 3.922-6.95-.963-2.615-2.271-4.908-3.922-6.88-1.606-2.019-3.463-3.579-5.573-4.68-2.11-1.146-4.404-1.72-6.881-1.72-2.431 0-4.587.574-6.468 1.72-1.881 1.101-3.371 2.661-4.472 4.68-1.055 1.972-1.583 4.265-1.583 6.88zm45.831-19.748l4.473.826 4.472-.826v39.22h-8.945v-39.22zm4.473-4.885c-1.698 0-3.097-.458-4.197-1.376-1.101-.963-1.652-2.202-1.652-3.715 0-1.514.551-2.73 1.652-3.647 1.1-.963 2.499-1.445 4.197-1.445 1.743 0 3.142.482 4.197 1.445 1.101.917 1.651 2.133 1.651 3.647 0 1.513-.55 2.752-1.651 3.715-1.055.918-2.454 1.376-4.197 1.376zm15.196-5.023l-3.716 10.872v24.426c0 2.89.528 5.459 1.583 7.706 1.101 2.202 2.821 3.945 5.16 5.23 2.34 1.238 5.413 1.858 9.22 1.858a26.88 26.88 0 006.675-.826c2.201-.55 3.899-1.124 5.091-1.72v-7.363a20.253 20.253 0 01-4.472 1.927c-1.56.413-3.349.62-5.367.62-3.165 0-5.459-.643-6.881-1.927-1.376-1.33-2.064-3.624-2.064-6.881V57.03h18.096v-6.88h-18.096V39.966h-5.229zm-346.535 0l-3.716 10.872v24.426c0 2.89.528 5.459 1.583 7.706 1.101 2.202 2.821 3.945 5.16 5.23 2.34 1.238 5.413 1.858 9.22 1.858a26.88 26.88 0 006.675-.826c2.201-.55 3.899-1.124 5.091-1.72v-7.363a20.274 20.274 0 01-4.472 1.927c-1.56.413-3.349.62-5.367.62-3.165 0-5.459-.643-6.881-1.927-1.376-1.33-2.064-3.624-2.064-6.881V57.03h18.096v-6.88h-18.096V39.966h-5.229z" fill="#1A2131"/><path d="M132.122 125.448c-1.569 0-2.893-.347-3.973-1.04-1.08-.701-1.898-1.668-2.452-2.901-.555-1.233-.832-2.656-.832-4.269s.277-3.036.832-4.269c.554-1.234 1.372-2.197 2.452-2.89 1.08-.701 2.404-1.051 3.973-1.051 1.577 0 2.901.35 3.974 1.051 1.08.693 1.897 1.656 2.452 2.89.562 1.233.843 2.656.843 4.269s-.281 3.036-.843 4.269c-.555 1.233-1.372 2.2-2.452 2.901-1.073.693-2.397 1.04-3.974 1.04zm0-1.544c1.234 0 2.263-.281 3.087-.843.825-.562 1.442-1.342 1.85-2.342.416-1.007.624-2.168.624-3.481 0-1.314-.208-2.47-.624-3.47-.408-1-1.025-1.781-1.85-2.343-.824-.562-1.853-.846-3.087-.854-1.233 0-2.258.281-3.076.843-.817.562-1.434 1.347-1.85 2.354-.408 1-.616 2.156-.624 3.47-.007 1.313.194 2.47.603 3.47.415.992 1.036 1.773 1.86 2.342.825.562 1.854.847 3.087.854zm20.408 1.215v-15.763h1.609v7.105h8.713v-7.105h1.598v15.763h-1.598v-7.115h-8.713v7.115h-1.609zm24.839 0v-1.434c.401.037.733.022.996-.043a1.09 1.09 0 00.635-.482c.168-.248.314-.617.438-1.106a22.72 22.72 0 00.372-1.937c.138-.861.255-1.719.35-2.573.102-.853.19-1.718.263-2.594.08-.883.146-1.788.197-2.715.051-.927.098-1.886.142-2.879h9.95v15.763h-1.609V110.9h-6.786a506.69 506.69 0 00-.154 2.31 74.675 74.675 0 01-.175 2.419 68.804 68.804 0 01-.252 2.55 57.43 57.43 0 01-.361 2.693 20.57 20.57 0 01-.416 1.949c-.153.598-.372 1.102-.657 1.51-.277.409-.653.69-1.127.843-.467.153-1.069.135-1.806-.055zm26.254 0l5.43-15.763h2.134l5.43 15.763h-1.675l-5.156-14.865h.635l-5.123 14.865h-1.675zm2.419-3.82v-1.511h8.145v1.511h-8.145zm23.498 3.82v-15.763h1.62v12.917l8.681-12.917h1.62v15.763h-1.62v-12.928l-8.681 12.928h-1.62zm6.086-17.164c-.518 0-.992-.128-1.423-.383a2.961 2.961 0 01-1.018-1.018 2.743 2.743 0 01-.383-1.423h1.335c0 .409.146.759.438 1.051.292.292.643.438 1.051.438a1.41 1.41 0 001.051-.438c.292-.292.438-.642.438-1.051h1.335c0 .518-.127.992-.383 1.423a2.83 2.83 0 01-1.018 1.018 2.74 2.74 0 01-1.423.383zm19.848 17.164v-15.763h1.609v7.105h8.713v-7.105h1.598v15.763h-1.598v-7.115h-8.713v7.115h-1.609zm41.263 0v-15.763h1.609v7.444l7.192-7.444h2.058l-7.345 7.608 7.947 8.155h-2.102l-7.75-7.881v7.881h-1.609zm23.945 0v-15.763h6.087c.153 0 .324.008.514.022.197.008.394.029.591.066.825.124 1.522.412 2.091.865a4.179 4.179 0 011.303 1.685c.299.679.449 1.431.449 2.255 0 .818-.15 1.566-.449 2.244a4.356 4.356 0 01-1.314 1.697c-.569.445-1.262.73-2.08.854a8.475 8.475 0 01-1.105.088h-4.477v5.987h-1.61zm1.61-7.52h4.433c.131 0 .285-.007.46-.022.175-.014.346-.04.514-.076.54-.117.982-.34 1.325-.668.35-.329.609-.719.777-1.171.175-.453.263-.924.263-1.413s-.088-.959-.263-1.412a3.026 3.026 0 00-.777-1.182c-.343-.328-.785-.551-1.325-.668a3.023 3.023 0 00-.514-.065 5.462 5.462 0 00-.46-.022h-4.433v6.699zm22.55 7.52v-15.763h9.852v1.544h-8.243v5.451h6.929v1.544h-6.929v5.681h8.243v1.543h-9.852zm22.699 2.627v-4.17c.613 0 1.105-.153 1.477-.46.373-.314.657-.73.854-1.248a8.762 8.762 0 00.449-1.74c.102-.65.19-1.307.263-1.971.102-.97.182-1.908.241-2.813.065-.905.12-1.843.164-2.813.051-.971.109-2.033.175-3.186l9.72.011v14.22h1.128v4.17h-1.598v-2.627H369.15v2.627h-1.609zm3.076-4.17h8.658V110.9l-6.611-.011c-.044.89-.088 1.751-.132 2.583-.044.832-.095 1.671-.153 2.518a77.339 77.339 0 01-.23 2.649c-.08.839-.175 1.573-.284 2.2-.11.628-.263 1.164-.46 1.609-.19.446-.453.821-.788 1.128zm36.666 1.543h-1.62v-12.928l-8.681 12.928h-1.62v-15.763h1.62v12.917l8.681-12.917h1.62v15.763zm18.206 0V110.9h-5.506v-1.544h12.621v1.544h-5.506v14.219h-1.609zm31.738 0h-1.62v-12.928l-8.681 12.928h-1.62v-15.763h1.62v12.917l8.681-12.917h1.62v15.763zm29.342 0v-15.763h1.609v7.105h8.714v-7.105h1.598v15.763h-1.598v-7.115h-8.714v7.115h-1.609zm24.839 0l5.43-15.763h2.134l5.43 15.763h-1.675l-5.156-14.865h.635l-5.123 14.865h-1.675zm2.419-3.82v-1.511h8.145v1.511h-8.145zm38.827 3.82v-15.763h1.609v7.444l7.192-7.444h2.058l-7.345 7.608 7.947 8.155h-2.101l-7.751-7.881v7.881h-1.609zm22.851 0l5.43-15.763h2.134l5.43 15.763h-1.675l-5.156-14.865h.635l-5.123 14.865h-1.675zm2.419-3.82v-1.511h8.145v1.511h-8.145zm23.498 3.82v-15.763h6.086c.153 0 .325.008.515.022.197.008.394.029.591.066.824.124 1.521.412 2.09.865a4.179 4.179 0 011.303 1.685c.299.679.449 1.431.449 2.255 0 .818-.15 1.566-.449 2.244a4.354 4.354 0 01-1.313 1.697c-.57.445-1.263.73-2.08.854a8.475 8.475 0 01-1.106.088h-4.477v5.987h-1.609zm1.609-7.52h4.433c.132 0 .285-.007.46-.022.175-.014.347-.04.515-.076.54-.117.981-.34 1.324-.668.35-.329.609-.719.777-1.171.175-.453.263-.924.263-1.413s-.088-.959-.263-1.412a3.026 3.026 0 00-.777-1.182c-.343-.328-.784-.551-1.324-.668a3.035 3.035 0 00-.515-.065 5.443 5.443 0 00-.46-.022h-4.433v6.699zm26.743 7.52V110.9h-5.506v-1.544h12.621v1.544h-5.506v14.219h-1.609zm19.817 0v-15.763h1.609v7.444l7.192-7.444h2.058l-7.345 7.608 7.947 8.155h-2.102l-7.75-7.881v7.881h-1.609zm26.605 0l1.774-3.732-5.605-12.031h1.784l4.663 10.301 4.751-10.301h1.719l-7.334 15.763h-1.752z" fill="#00BE71"/><path d="M87.313 40.217L34.7 71.802l17.218-58.89A15 15 0 0164.28 2.258L75.938.663c8.208-1.124 15.773 4.62 16.896 12.828l1.62 11.831a15 15 0 01-7.141 14.895z" fill="url(#paint0_linear_106_163)"/><path d="M80.275 81.026l-45.431-9.402L74.58 47.717a10 10 0 0110.873.364l8.739 6.091c4.53 3.158 5.644 9.392 2.486 13.922l-6.174 8.858a10 10 0 01-10.23 4.074z" fill="url(#paint1_linear_106_163)"/><path d="M14.185 30.357l20.874 41.432 12.77-44.581a10 10 0 00-3.174-10.406l-8.151-6.858c-4.226-3.556-10.535-3.012-14.09 1.214l-6.95 8.262a10 10 0 00-1.28 10.937z" fill="url(#paint2_linear_106_163)"/><path d="M5.874 61.14l29.664 10.648L20.97 43.84a8 8 0 00-7.573-4.288l-5.646.339a8 8 0 00-7.506 8.465l.345 5.733a8 8 0 005.283 7.05z" fill="url(#paint3_linear_106_163)"/><path d="M52.688 97.03L34.703 71.146l30.771 6.811a8 8 0 016.108 6.2l1.138 5.54a8 8 0 01-6.227 9.447l-5.625 1.156a8 8 0 01-8.18-3.272z" fill="url(#paint4_linear_106_163)"/><path fill-rule="evenodd" clip-rule="evenodd" d="M68.023 30.525a1.5 1.5 0 10-2.398-1.802L37.457 66.207c-.044.04-.087.081-.127.126-.4.45-.8.915-1.198 1.396l-3.566-32.767a1.5 1.5 0 00-2.983.324l3.906 35.887c-3.203 4.495-6.143 9.852-8.183 15.41-2.826 7.698-4.008 16.017-1.479 23.006 2.58 7.128 8.882 12.509 20.181 14.495 11.219 1.973 27.495.642 50.438-5.612a1.5 1.5 0 00-.789-2.894c-22.774 6.207-38.549 7.412-49.13 5.552-10.5-1.847-15.746-6.67-17.879-12.562-2.183-6.032-1.242-13.55 1.475-20.952 1.889-5.146 4.595-10.122 7.542-14.324l37.423-6.691a1.5 1.5 0 00-.528-2.954l-33.995 6.08 29.459-39.202z" fill="url(#paint5_linear_106_163)"/></g><defs><linearGradient id="paint0_linear_106_163" x1="90.995" y1="-1.223" x2="34.895" y2="71.95" gradientUnits="userSpaceOnUse"><stop offset=".461" stop-color="#00D67F"/><stop offset="1" stop-color="#00D67F" stop-opacity="0"/></linearGradient><linearGradient id="paint1_linear_106_163" x1="102.428" y1="60.069" x2="34.875" y2="71.803" gradientUnits="userSpaceOnUse"><stop stop-color="#00EE8E"/><stop offset="1" stop-color="#00EE8E" stop-opacity="0"/></linearGradient><linearGradient id="paint2_linear_106_163" x1="28.671" y1="3.522" x2="34.878" y2="71.806" gradientUnits="userSpaceOnUse"><stop stop-color="#00EE8E"/><stop offset="1" stop-color="#00EE8E" stop-opacity="0"/></linearGradient><linearGradient id="paint3_linear_106_163" x1="-.317" y1="40.465" x2="35.454" y2="71.882" gradientUnits="userSpaceOnUse"><stop stop-color="#00D67F"/><stop offset="1" stop-color="#00D67F" stop-opacity="0"/></linearGradient><linearGradient id="paint4_linear_106_163" x1="74.26" y1="97.64" x2="34.633" y2="71.252" gradientUnits="userSpaceOnUse"><stop stop-color="#00D67F"/><stop offset="1" stop-color="#00D67F" stop-opacity="0"/></linearGradient><linearGradient id="paint5_linear_106_163" x1="94.999" y1="117.375" x2="39.999" y2="26.375" gradientUnits="userSpaceOnUse"><stop offset=".594" stop-color="#00D67F"/><stop offset="1" stop-color="#00D67F" stop-opacity="0"/></linearGradient><clipPath id="clip0_106_163"><path fill="#fff" d="M0 0h700v125H0z"/></clipPath></defs></svg>