<svg width="140" height="55" viewBox="0 0 140 55" fill="none" xmlns="http://www.w3.org/2000/svg">
<rect width="140" height="55" fill="#FF5E00"/>
<path d="M33.2068 33.1406V35.2159C33.4164 34.9084 33.6749 34.6079 33.9824 34.3145C34.3038 34.007 34.8279 33.6926 35.5546 33.3712C36.2813 33.0497 37.0709 32.889 37.9234 32.889H38.1749C39.0693 32.889 39.838 33.0358 40.4808 33.3292C41.1237 33.6087 41.6128 34 41.9482 34.5031C42.2836 34.9923 42.5282 35.5163 42.6819 36.0753C42.8356 36.6204 42.9125 37.2213 42.9125 37.8781V39.0101H37.3783V38.6118C37.3783 37.927 37.2106 37.375 36.8752 36.9558C36.5538 36.5225 36.0437 36.3059 35.345 36.3059C34.6881 36.3059 34.1711 36.5295 33.7937 36.9767C33.4304 37.4239 33.2487 38.0109 33.2487 38.7376V44.4185H27.5469V33.1406H33.2068Z" fill="white"/>
<path d="M52.5771 35.5932C50.7184 35.5932 49.6353 36.1592 49.3279 37.2912H55.8263C55.5887 36.1592 54.5056 35.5932 52.5771 35.5932ZM61.4862 40.3098V40.3517C61.4862 40.729 61.4373 41.0854 61.3394 41.4208C61.2416 41.7562 61.018 42.1405 60.6686 42.5737C60.3193 42.993 59.8581 43.3563 59.2851 43.6638C58.7121 43.9573 57.8946 44.2088 56.8325 44.4185C55.7843 44.6281 54.5615 44.7329 53.164 44.7329H52.053C50.7254 44.7329 49.5515 44.6141 48.5313 44.3765C47.5111 44.139 46.7005 43.8315 46.0996 43.4542C45.4987 43.0768 45.0096 42.6296 44.6322 42.1126C44.2549 41.5815 43.9964 41.0644 43.8566 40.5613C43.7308 40.0443 43.6679 39.4992 43.6679 38.9262V38.507C43.6679 34.7197 46.442 32.8261 51.9901 32.8261H53.1431C54.1632 32.8261 55.0856 32.896 55.9101 33.0358C56.7486 33.1615 57.4544 33.3362 58.0273 33.5598C58.6003 33.7834 59.0964 34.0629 59.5157 34.3983C59.9489 34.7337 60.2913 35.0761 60.5429 35.4255C60.7944 35.7609 60.997 36.1452 61.1508 36.5784C61.3045 36.9977 61.4023 37.396 61.4443 37.7733C61.5002 38.1367 61.5281 38.5349 61.5281 38.9682V39.5971H49.265C49.4606 40.9806 50.5996 41.6724 52.6819 41.6724H52.7028C53.2059 41.6724 53.6531 41.6304 54.0444 41.5466C54.4497 41.4627 54.7572 41.3719 54.9668 41.2741C55.1904 41.1623 55.3721 41.0365 55.5118 40.8967C55.6516 40.757 55.7424 40.6452 55.7843 40.5613C55.8263 40.4635 55.8542 40.3797 55.8682 40.3098H61.4862Z" fill="white"/>
<path d="M74.8749 38.7795V38.6747C74.8749 37.9899 74.5605 37.389 73.9316 36.8719C73.3167 36.3409 72.4502 36.0753 71.3322 36.0753H71.2274C70.0954 36.0753 69.2849 36.3269 68.7957 36.83C68.3066 37.3191 68.062 37.934 68.062 38.6747V38.7795C68.062 39.4922 68.3206 40.1141 68.8377 40.6452C69.3687 41.1762 70.1723 41.4418 71.2484 41.4418H71.3322C72.4642 41.4418 73.3376 41.1762 73.9525 40.6452C74.5674 40.1002 74.8749 39.4783 74.8749 38.7795ZM74.8749 28.8223H80.5767V44.4185H74.8959V42.7834C74.7561 42.9371 74.5744 43.0978 74.3508 43.2655C74.1412 43.4192 73.8198 43.6149 73.3866 43.8525C72.9673 44.0761 72.4153 44.2647 71.7305 44.4185C71.0457 44.5582 70.2911 44.6281 69.4665 44.6281H69.1102C66.8043 44.6281 65.0854 44.09 63.9534 43.014C62.8354 41.9379 62.2764 40.5753 62.2764 38.9262V38.486C62.2764 37.7314 62.3952 37.0396 62.6327 36.4107C62.8843 35.7679 63.2616 35.1809 63.7647 34.6499C64.2678 34.1188 64.9596 33.6996 65.84 33.3921C66.7204 33.0847 67.7546 32.9309 68.9425 32.9309H69.3408C71.5908 32.9309 73.4355 33.476 74.8749 34.566V28.8223Z" fill="white"/>
<path d="M87.948 28.8223V32.1972H82.2462V28.8223H87.948ZM87.948 33.1406V44.4185H82.2462V33.1406H87.948Z" fill="white"/>
<path d="M99.0281 44.4185H94.2067C92.2083 44.4185 91.209 43.3494 91.209 41.2112V36.5994H89.0499V33.1406H91.209V29.8494H96.8689V33.1406H99.0281V36.5994H96.8689V39.9325C96.8689 40.2958 96.9248 40.5543 97.0366 40.7081C97.1624 40.8478 97.421 40.9177 97.8123 40.9177H99.0281V44.4185Z" fill="white"/>
<path d="M14.8439 44.7105H14.0263C12.1956 44.7105 10.5885 44.5288 9.20494 44.1655C7.83538 43.8021 6.76628 43.3549 5.99765 42.8239C5.22903 42.2788 4.60713 41.636 4.13198 40.8953C3.65683 40.1546 3.34938 39.4698 3.20963 38.841C3.06988 38.2121 3 37.5552 3 36.8705V36.2626C3 35.5638 3.06289 34.907 3.18866 34.2921C3.32841 33.6772 3.62888 33.0064 4.09006 32.2797C4.55123 31.539 5.15915 30.9101 5.9138 30.393C6.68243 29.862 7.75851 29.4217 9.14205 29.0724C10.5396 28.709 12.1677 28.5273 14.0263 28.5273H14.8439C16.1436 28.5273 17.3314 28.6112 18.4075 28.7789C19.4976 28.9466 20.406 29.1632 21.1327 29.4287C21.8733 29.6943 22.5232 30.0157 23.0822 30.393C23.6552 30.7564 24.1024 31.1267 24.4238 31.504C24.7452 31.8814 25.0038 32.2866 25.1994 32.7199C25.409 33.1391 25.5418 33.5164 25.5977 33.8519C25.6676 34.1873 25.7025 34.5157 25.7025 34.8371V35.1096H19.5185C19.0434 33.5164 17.3314 32.7199 14.3827 32.7199C10.9029 32.7199 9.16301 33.9357 9.16301 36.3674V36.6189C9.16301 37.0801 9.23987 37.5203 9.3936 37.9396C9.5613 38.3588 9.82683 38.7711 10.1902 39.1764C10.5675 39.5816 11.1125 39.9031 11.8253 40.1406C12.552 40.3782 13.4114 40.497 14.4037 40.497C15.2701 40.497 16.0318 40.4201 16.6886 40.2664C17.3454 40.0987 17.8415 39.917 18.1769 39.7214C18.5123 39.5257 18.7918 39.2812 19.0154 38.9877C19.239 38.6942 19.3718 38.4846 19.4137 38.3588C19.4557 38.233 19.4976 38.0933 19.5395 37.9396H25.7025V38.275C25.7025 38.7501 25.6326 39.2392 25.4929 39.7423C25.3531 40.2315 25.0457 40.7905 24.5705 41.4194C24.0954 42.0343 23.4805 42.5793 22.7258 43.0544C21.9851 43.5156 20.93 43.9069 19.5605 44.2284C18.2049 44.5498 16.6327 44.7105 14.8439 44.7105Z" fill="white"/>
<path d="M14.8439 26.3902H14.0263C12.1956 26.3902 10.5885 26.2085 9.20494 25.8451C7.83538 25.4818 6.76628 25.0346 5.99765 24.5035C5.22903 23.9585 4.60713 23.3157 4.13198 22.575C3.65683 21.8343 3.34938 21.1495 3.20963 20.5206C3.06988 19.8918 3 19.2349 3 18.5502V17.9422C3 17.2435 3.06289 16.5867 3.18866 15.9718C3.32841 15.3568 3.62888 14.686 4.09006 13.9593C4.55123 13.2187 5.15915 12.5898 5.9138 12.0727C6.68243 11.5417 7.75851 11.1014 9.14205 10.7521C10.5396 10.3887 12.1677 10.207 14.0263 10.207H14.8439C16.1436 10.207 17.3314 10.2909 18.4075 10.4586C19.4976 10.6263 20.406 10.8429 21.1327 11.1084C21.8733 11.374 22.5232 11.6954 23.0822 12.0727C23.6552 12.4361 24.1024 12.8064 24.4238 13.1837C24.7452 13.5611 25.0038 13.9663 25.1994 14.3996C25.409 14.8188 25.5418 15.1961 25.5977 15.5315C25.6676 15.8669 25.7025 16.1954 25.7025 16.5168V16.7893H19.5185C19.0434 15.1961 17.3314 14.3996 14.3827 14.3996C10.9029 14.3996 9.16301 15.6154 9.16301 18.0471V18.2986C9.16301 18.7598 9.23987 19.2 9.3936 19.6193C9.5613 20.0385 9.82683 20.4508 10.1902 20.856C10.5675 21.2613 11.1125 21.5827 11.8253 21.8203C12.552 22.0579 13.4114 22.1767 14.4037 22.1767C15.2701 22.1767 16.0318 22.0998 16.6886 21.9461C17.3454 21.7784 17.8415 21.5967 18.1769 21.4011C18.5123 21.2054 18.7918 20.9609 19.0154 20.6674C19.239 20.3739 19.3718 20.1643 19.4137 20.0385C19.4557 19.9127 19.4976 19.773 19.5395 19.6193H25.7025V19.9547C25.7025 20.4298 25.6326 20.9189 25.4929 21.422C25.3531 21.9112 25.0457 22.4702 24.5705 23.099C24.0954 23.7139 23.4805 24.259 22.7258 24.7341C21.9851 25.1953 20.93 25.5866 19.5605 25.908C18.2049 26.2295 16.6327 26.3902 14.8439 26.3902Z" fill="white"/>
<path d="M32.9284 10.5V26.0962H27.2266V10.5H32.9284Z" fill="white"/>
<path d="M40.2981 10.5V13.875H34.5962V10.5H40.2981ZM40.2981 14.8183V26.0962H34.5962V14.8183H40.2981Z" fill="white"/>
<path d="M51.0846 26.4106H49.8269C48.4434 26.4106 47.2275 26.2849 46.1794 26.0333C45.1452 25.7678 44.3417 25.4394 43.7687 25.0481C43.1957 24.6568 42.7275 24.1886 42.3642 23.6436C42.0148 23.0846 41.7842 22.5745 41.6724 22.1133C41.5746 21.6381 41.5257 21.128 41.5257 20.583V20.2057C41.5257 16.4045 44.2858 14.5039 49.8059 14.5039H51.1056C52.5311 14.5039 53.7748 14.6366 54.837 14.9021C55.913 15.1537 56.7306 15.4612 57.2896 15.8245C57.8486 16.1739 58.2958 16.6001 58.6312 17.1032C58.9806 17.6063 59.1972 18.0396 59.281 18.4029C59.3649 18.7663 59.4068 19.1436 59.4068 19.5349V19.5978H53.5792C53.5512 19.4301 53.4953 19.2624 53.4115 19.0947C53.3416 18.927 53.2089 18.7243 53.0132 18.4868C52.8176 18.2352 52.4961 18.0326 52.0489 17.8788C51.6157 17.7251 51.0846 17.6483 50.4558 17.6483H50.3719C49.2539 17.6483 48.4643 17.8998 48.0031 18.4029C47.542 18.892 47.3114 19.5139 47.3114 20.2686V20.3734C47.3114 21.17 47.549 21.8478 48.0241 22.4068C48.4993 22.9518 49.2819 23.2243 50.3719 23.2243H50.4558C51.0707 23.2243 51.5947 23.1474 52.028 22.9937C52.4752 22.826 52.7966 22.6164 52.9922 22.3648C53.2019 22.0993 53.3416 21.8827 53.4115 21.715C53.4953 21.5333 53.5512 21.3586 53.5792 21.1909H59.4068V21.2329C59.4068 21.4984 59.3858 21.7569 59.3439 22.0085C59.316 22.26 59.2321 22.5675 59.0924 22.9308C58.9666 23.2802 58.7919 23.6086 58.5683 23.9161C58.3447 24.2235 58.0163 24.538 57.5831 24.8594C57.1638 25.1668 56.6677 25.4324 56.0947 25.656C55.5357 25.8796 54.823 26.0612 53.9565 26.201C53.104 26.3408 52.1468 26.4106 51.0846 26.4106Z" fill="white"/>
<path d="M66.2557 26.0962H60.5539V10.5H66.2557V19.2204L70.1128 14.8183H76.2549L71.664 19.8074L76.9257 26.0962H70.4482L66.2557 21.0232V26.0962Z" fill="white"/>
<path d="M136.458 30.7515C136.458 39.1982 129.54 46.0456 121.006 46.0456C112.473 46.0456 105.555 39.1982 105.555 30.7515C105.555 22.3049 112.473 9 121.006 9C129.54 9 136.458 22.3049 136.458 30.7515Z" fill="white"/>
<ellipse cx="121.013" cy="33.261" rx="9.17689" ry="9.06765" fill="#FF5E00"/>
</svg>
