<svg id="Layer_1" data-name="Layer 1" xmlns="http://www.w3.org/2000/svg" viewBox="0 0 538 111.03"><defs><style>.cls-1{fill:#10716b}</style></defs><path class="cls-1" d="M316.93 286.53c-4.76-2.25-11.16-4.24-16.61-4.24-10.82 0-20 6-20 16.88 0 11.07 9.26 17.65 20 17.65a54.43 54.43 0 0018.17-3.46l3.8 14.19c-5.19 2.85-14.88 5-22 5-23.28 0-36.86-14.45-36.86-33 0-19 15.05-31.93 36.86-31.93a59.84 59.84 0 0121.2 4.06zM365.38 297c4.85 0 7.36-2.94 7.36-6.58 0-3.28-2.42-6.66-7.36-6.66h-17.91V297zm-33.91-27.17h33.91c14.8 0 24.23 8.83 24.23 20.51 0 8.31-5.71 15.23-14.36 18.26l6.31 6.66c1.91 2.07 3.9 3.11 6.24 3.11a16 16 0 005-.95l1.3 12.63a32.28 32.28 0 01-11.1 2.43c-5.45 0-9.69-2.69-13.85-8l-11.85-14.8h-9.78v20.72h-16z" transform="translate(-131 -244.49)"/><path class="cls-1" d="M270.29 25.34h52.7v14.02h-37.56v9.09h34.18v13.5h-34.18v10.03h38.94v13.93h-54.08V25.34z"/><path class="cls-1" d="M512.65 299.34c0-10.47-8.74-15.49-19.47-15.49h-11.77v32.62h11.77c10.82 0 19.47-6.75 19.47-17.13M465.4 330.4v-60.57h27.78c19.3 0 36.34 10.9 36.34 29.59 0 17.22-15.57 31-36.34 31zm126.25-31.06c0-11.17-9-17.22-20-17.22s-20 6.05-20 17.22 9 18.69 20 18.69 20-7.44 20-18.69m-56.85.08c0-19.72 17-31.75 36.86-31.75s36.86 12 36.86 31.75c0 18.35-15.32 33.14-36.86 33.14s-36.86-14.79-36.86-33.14m127.62-13.84a57.2 57.2 0 00-20.07-4.41c-5.71 0-10.9 1.47-10.9 5.53 0 5.46 9.6 5.63 17.3 7.53 10.56 2.6 20.25 6.84 20.25 18.87 0 11.68-13.5 19.64-28.47 19.64-7.78 0-21.11-2.08-26.3-4.93l3.77-13.42a77.06 77.06 0 0022.5 3.72c6.83 0 11.68-2.07 11.68-5.71 0-4-6.92-5.36-13.85-6.4-11.51-1.73-23.71-6.23-23.71-18.95 0-11.68 12.64-19.64 27.69-19.64 8.48 0 18.52 1.73 24.66 4.07zm-428.28-14.1a2.74 2.74 0 00-5.08 1.43v40.81a9.44 9.44 0 01-18.88 0v-17.54a2.69 2.69 0 00-4.6-1.9L179.9 320c-4 4-10.23 4.25-13.91.57s-3.44-9.92.57-13.92l25.68-25.68a2.7 2.7 0 00-1.91-4.6h-17.54a9.43 9.43 0 01-9.42-9.89 9.61 9.61 0 019.69-9h40.54a2.74 2.74 0 001.43-5.09 55.54 55.54 0 1019.11 19.11" transform="translate(-131 -244.49)"/><path d="M205.58 294.28L179.9 320a10.65 10.65 0 01-7.07 3.16 9.06 9.06 0 01-6.84-2.59 9.08 9.08 0 01-2.6-6.85 10.61 10.61 0 013.17-7.07l25.68-25.68a2.7 2.7 0 00-1.91-4.6h-17.54a9.44 9.44 0 01-9.43-9.89 9.55 9.55 0 017.73-8.78c-38.18 4.72-53.32 51.63-24.16 81.25l1.15 1.15c29.64 28.53 76.07 13.34 80.77-24.62a9.55 9.55 0 01-8.78 7.72 9.46 9.46 0 01-9.9-9.43v-17.58a2.7 2.7 0 00-4.61-1.91" transform="translate(-131 -244.49)" fill="#3f9496"/><path d="M155.38 346l-.23-.15h-.05c-.88-.61-1.75-1.24-2.6-1.91l-.84-.66c-.28-.23-.55-.44-.82-.68l-.82-.7-.85-.75-.73-.69c-.13-.12-.26-.23-.39-.36l-.72-.71-.19-.19c-.22-.22-.45-.44-.67-.67l-.36-.38c-.22-.24-.46-.49-.68-.74s-.51-.56-.76-.85-.47-.54-.69-.81-.46-.55-.68-.83-.45-.55-.66-.83c-.67-.85-1.3-1.72-1.91-2.61-.07-.09-.12-.18-.19-.28-16-24-3.55-52 32.24-54.8h17.54a2.7 2.7 0 011.91 4.61l-25.68 25.68a10.66 10.66 0 00-3.17 7.07 9.07 9.07 0 002.6 6.84c3.68 3.69 9.91 3.43 13.91-.57l25.68-25.68a2.7 2.7 0 014.61 1.91v17.53c-2.83 35.78-30.84 48.22-54.8 32.23" transform="translate(-131 -244.49)" fill="#55beca"/></svg>