<svg width="326" height="101" viewBox="0 0 326 101" fill="none" xmlns="http://www.w3.org/2000/svg"><path d="M139.099 88.943c-1.354 2.281-3.047 4.887-5.416 6.842-4.062 3.584-8.801 5.213-14.555 5.213-10.493 0-21.662-6.19-21.662-22.154 0-12.707 8.123-22.48 21.324-22.48 8.8 0 13.878 4.235 16.585 7.819 2.708 3.91 4.401 10.1 4.062 15.964h-34.525c0 8.796 6.431 14.335 13.878 14.335 3.385 0 6.431-.977 9.139-2.932 2.031-1.63 3.723-3.91 4.739-5.865l6.431 3.258zm-7.447-14.986c-1.354-6.516-6.431-11.078-12.862-11.078s-11.847 4.562-12.862 11.078h25.724zM71.058 57.34h7.785v4.562c1.016-1.303 4.062-5.538 9.816-5.538 2.37 0 4.739.977 6.77 1.629l-3.724 6.515c-1.692-1.303-3.385-1.629-4.4-1.629-3.046 0-5.077 1.304-6.093 2.607-1.353 1.629-2.369 4.561-2.369 11.403v22.48h-7.785V57.341zM235.899 63.857v35.838h-7.785V63.857h-4.401v-6.842h4.739V41.703h7.785v15.312h7.785v6.842h-8.123zM209.839 35.84c3.046 0 5.416 2.28 5.416 5.212s-2.37 5.213-5.416 5.213c-3.046 0-5.416-2.28-5.416-5.213 0-2.932 2.37-5.213 5.416-5.213zm3.723 21.502v42.68h-7.785v-42.68h7.785zM58.537 46.588c-2.031-1.955-5.416-4.887-9.14-6.19-3.722-1.629-8.123-2.606-12.184-2.606-16.586 0-28.433 12.706-28.433 28.344 0 18.57 15.57 28.019 28.771 28.019 4.739 0 9.478-1.303 13.2-3.258 4.063-1.955 6.77-4.561 8.124-5.865v9.449c-8.123 5.538-15.908 6.516-21.324 6.516C15.888 100.997.318 85.684.318 65.81c0-20.525 15.909-35.512 37.233-35.512 4.4 0 12.524.652 20.986 6.842v9.448zM184.796 25.089h7.785v74.608h-7.785v-5.865C182.427 97.09 177.35 101 169.565 101c-11.17 0-21.663-7.493-21.663-22.48 0-14.661 10.154-22.154 21.663-22.154 8.462 0 13.2 4.56 15.231 7.167V25.09zm-28.771 53.43c0 9.123 5.416 15.965 14.555 15.965 9.477 0 14.555-7.493 14.555-15.964 0-11.077-7.785-15.638-14.555-15.638-7.447-.326-14.555 5.212-14.555 15.638z" fill="#67579C"/><path d="M291.082 0c-24.371 0-36.217 20.525-32.833 42.354.339 2.932 3.047 10.425 5.416 15.964 4.062 8.47 9.139 16.942 13.201 23.783l30.124-50.173h-32.494v-5.864H316.129v2.28l-2.031 3.258-33.509 56.364c4.4 6.842 8.123 11.077 9.139 11.077 3.046 0 29.786-31.603 34.863-57.34C328.653 19.872 315.452 0 291.082 0z" fill="#59C2A4"/></svg>