<svg width="200" height="38" viewBox="0 0 200 38" fill="none" xmlns="http://www.w3.org/2000/svg">
<path d="M107.268 15.6973L103.634 19.4268V25.1765H99.3682V2.56641H103.634V14.1434L115.01 2.56641H119.829L110.112 12.6671L120.382 25.1765H115.405L107.268 15.6973Z" fill="#FFC629"/>
<path d="M133.812 9.56014C135.155 10.8033 135.866 12.5904 135.866 15.0767V25.1774H131.995V23.0796C131.521 23.8565 130.81 24.4004 129.862 24.7889C128.914 25.1774 127.808 25.4105 126.465 25.4105C125.122 25.4105 124.016 25.1774 122.989 24.7112C122.041 24.245 121.251 23.6234 120.698 22.8465C120.145 22.0695 119.908 21.1371 119.908 20.2047C119.908 18.6508 120.461 17.4076 121.646 16.4752C122.831 15.5429 124.648 15.0767 127.176 15.0767H131.679V14.8436C131.679 13.6004 131.284 12.7458 130.573 12.0465C129.862 11.4249 128.756 11.1141 127.334 11.1141C126.386 11.1141 125.359 11.2695 124.411 11.5803C123.463 11.8911 122.673 12.2796 121.962 12.8234L120.382 9.87093C121.33 9.17165 122.436 8.62777 123.7 8.31698C124.964 7.92849 126.386 7.77309 127.808 7.77309C130.494 7.69539 132.469 8.31698 133.812 9.56014ZM130.099 21.7587C130.889 21.2925 131.442 20.6709 131.758 19.7386V17.7184H127.571C125.201 17.7184 124.016 18.4954 124.016 20.0493C124.016 20.7486 124.332 21.3702 124.885 21.7587C125.438 22.2249 126.307 22.3803 127.334 22.3803C128.361 22.458 129.309 22.2249 130.099 21.7587Z" fill="#FFC629"/>
<path d="M168.019 9.56014C169.362 10.8033 170.073 12.5904 170.073 15.0767V25.1774H166.202V23.0796C165.728 23.8565 165.017 24.4004 164.069 24.7889C163.121 25.1774 162.015 25.4105 160.672 25.4105C159.329 25.4105 158.223 25.1774 157.196 24.7112C156.248 24.245 155.458 23.6234 154.905 22.8465C154.352 22.0695 154.115 21.1371 154.115 20.2047C154.115 18.6508 154.668 17.4076 155.853 16.4752C157.038 15.5429 158.855 15.0767 161.383 15.0767H165.886V14.8436C165.886 13.6004 165.491 12.7458 164.78 12.0465C164.069 11.4249 162.963 11.1141 161.541 11.1141C160.593 11.1141 159.566 11.2695 158.618 11.5803C157.67 11.8911 156.88 12.2796 156.169 12.8234L154.589 9.87093C155.537 9.17165 156.643 8.62777 157.907 8.31698C159.171 7.92849 160.593 7.77309 162.015 7.77309C164.622 7.69539 166.597 8.31698 168.019 9.56014ZM164.227 21.7587C165.017 21.2925 165.57 20.6709 165.886 19.7386V17.7184H161.62C159.25 17.7184 158.065 18.4954 158.065 20.0493C158.065 20.7486 158.381 21.3702 158.934 21.7587C159.487 22.2249 160.356 22.3803 161.383 22.3803C162.568 22.458 163.437 22.2249 164.227 21.7587Z" fill="#FFC629"/>
<path d="M151.587 17.2522C150.955 16.5529 150.165 16.0868 149.296 15.8537C148.427 15.5429 147.242 15.3098 145.82 15.0767C144.398 14.8436 143.371 14.6105 142.739 14.2997C142.107 14.0666 141.712 13.6004 141.712 12.9011C141.712 11.5026 143.45 11.1141 144.635 11.0364C145.741 10.9587 146.847 11.1918 147.953 11.5026C148.901 11.8134 149.612 12.2796 150.244 12.7457L151.903 9.79323C151.034 9.09395 149.928 8.62776 148.664 8.23927C147.084 7.77308 145.267 7.53999 143.608 7.77308C143.45 7.77308 143.213 7.85078 143.055 7.85078C141.633 8.08388 140.29 8.62776 139.263 9.63783C138.868 10.0263 138.473 10.4148 138.236 10.881C137.841 11.5803 137.683 12.3573 137.683 13.1342C137.683 14.3774 137.999 15.3875 138.71 16.0868C139.342 16.786 140.132 17.2522 141.08 17.563C142.028 17.8738 143.134 18.1069 144.635 18.34C145.978 18.5731 147.005 18.8062 147.637 19.0393C148.269 19.2724 148.585 19.6609 148.585 20.2824C148.585 21.5256 147.321 22.2249 144.872 22.2249C143.766 22.2249 142.739 22.0695 141.633 21.7587C140.527 21.4479 139.579 21.0594 138.789 20.5155L137.209 23.6234C137.999 24.1673 139.105 24.6335 140.448 25.022C141.791 25.4105 143.213 25.5659 144.635 25.5659C147.084 25.5659 149.059 25.0997 150.481 24.0896C151.903 23.1573 152.614 21.8364 152.614 20.2047C152.535 18.8062 152.219 17.8738 151.587 17.2522Z" fill="#FFC629"/>
<path d="M52.5205 31.7041V36.7545H51.5725V34.5789H48.8865V36.7545H47.9385V31.7041H48.8865V33.8019H51.5725V31.7041H52.5205Z" fill="#081F2D"/>
<path d="M58.0505 35.589H55.4435L54.9695 36.7545H54.0215L56.3125 31.7041H57.2605L59.5515 36.7545H58.5245L58.0505 35.589ZM57.7345 34.812L56.7865 32.5588L55.8385 34.812H57.7345Z" fill="#081F2D"/>
<path d="M60.9736 31.7042H61.9216V35.2783L64.6867 31.7042H65.5557V36.7546H64.6077V33.1805L61.8426 36.7546H60.9736V31.7042ZM62.3166 31.0826C62.0796 30.9272 62.0006 30.6165 62.0006 30.3057H62.6327C62.6327 30.4611 62.7116 30.6165 62.7906 30.6942C62.8697 30.7719 63.1067 30.8495 63.2647 30.8495C63.5017 30.8495 63.6597 30.7719 63.7387 30.6942C63.8967 30.6165 63.8967 30.4611 63.8967 30.3057H64.5287C64.5287 30.6165 64.3707 30.9272 64.2127 31.0826C63.9757 31.238 63.6597 31.3157 63.1857 31.3157C62.8697 31.3157 62.4746 31.238 62.3166 31.0826Z" fill="#081F2D"/>
<path d="M69.5845 34.5789H68.6365V36.7545H67.6885V31.7041H68.6365V33.8019H69.6635L71.0855 31.7041H72.1125L70.3745 34.1127L72.1915 36.7545H71.0855L69.5845 34.5789Z" fill="#081F2D"/>
<path d="M76.7731 31.9372C77.0891 32.0926 77.3261 32.3257 77.5631 32.5588C77.8001 32.7919 77.8001 33.1804 77.8001 33.4912C77.8001 33.8796 77.7211 34.1904 77.5631 34.4235C77.4051 34.7343 77.1681 34.8897 76.7731 35.0451C76.4571 35.2005 76.0621 35.2782 75.5881 35.2782H74.4031V36.7545H73.4551V31.7041H75.5881C76.0621 31.7041 76.4571 31.7818 76.7731 31.9372ZM76.5361 34.2681C76.7731 34.1127 76.8521 33.8796 76.8521 33.4912C76.8521 33.1804 76.7731 32.9473 76.5361 32.7142C76.2991 32.5588 75.9831 32.4811 75.5881 32.4811H74.4821V34.5012H75.5881C75.9831 34.5012 76.2991 34.4235 76.5361 34.2681Z" fill="#081F2D"/>
<path d="M82.5408 35.589H79.9337L79.4597 36.7545H78.5117L80.8027 31.7041H81.7508L84.0418 36.7545H83.0148L82.5408 35.589ZM82.2248 34.812L81.2767 32.5588L80.3287 34.812H82.2248Z" fill="#081F2D"/>
<path d="M92.0999 31.7041V36.7545H85.4639V31.7041H86.4119V35.9775H88.3079V31.7041H89.2559V35.9775H91.1519V31.7041H92.0999ZM92.8899 35.9775V37.8422H92.0209V36.7545H91.2309V35.9775H92.8899Z" fill="#081F2D"/>
<path d="M98.3408 35.9775V36.7545H94.4697V31.7041H98.1828V32.4811H95.4177V33.8019H97.8667V34.5789H95.4177V35.9775H98.3408Z" fill="#081F2D"/>
<path d="M107.268 31.7041V36.7545H106.32V32.4811H103.713V36.7545H102.765V31.7041H107.268Z" fill="#081F2D"/>
<path d="M110.349 36.5214C109.954 36.2883 109.559 35.9775 109.322 35.589C109.085 35.2005 108.927 34.7343 108.927 34.2681C108.927 33.8019 109.085 33.3358 109.322 32.9473C109.559 32.5588 109.875 32.248 110.349 32.0149C110.744 31.7818 111.218 31.7041 111.771 31.7041C112.324 31.7041 112.798 31.7818 113.193 32.0149C113.588 32.248 113.983 32.5588 114.22 32.9473C114.457 33.3358 114.615 33.8019 114.615 34.2681C114.615 34.7343 114.457 35.2005 114.22 35.589C113.983 35.9775 113.667 36.2883 113.193 36.5214C112.798 36.7545 112.324 36.8322 111.771 36.8322C111.297 36.8322 110.823 36.6768 110.349 36.5214ZM112.719 35.7444C112.956 35.589 113.193 35.3559 113.351 35.1228C113.509 34.812 113.588 34.5789 113.588 34.1904C113.588 33.8796 113.509 33.5689 113.351 33.2581C113.193 32.9473 112.956 32.7919 112.719 32.6365C112.482 32.4811 112.166 32.4034 111.771 32.4034C111.455 32.4034 111.139 32.4811 110.823 32.6365C110.586 32.7919 110.349 33.025 110.191 33.2581C110.033 33.5689 109.954 33.8019 109.954 34.1904C109.954 34.5012 110.033 34.812 110.191 35.1228C110.349 35.4336 110.586 35.589 110.823 35.7444C111.06 35.8998 111.376 35.9775 111.771 35.9775C112.166 35.9775 112.482 35.8998 112.719 35.7444Z" fill="#081F2D"/>
<path d="M120.855 31.7041V36.7545H119.907V32.4811H117.221V36.7545H116.273V31.7041H120.855Z" fill="#081F2D"/>
<path d="M126.859 35.9775V36.7545H122.988V31.7041H126.701V32.4811H123.936V33.8019H126.385V34.5789H123.936V35.9775H126.859Z" fill="#081F2D"/>
<path d="M131.837 31.9372C132.153 32.0926 132.39 32.3257 132.627 32.5588C132.864 32.7919 132.864 33.1804 132.864 33.4912C132.864 33.8796 132.785 34.1904 132.627 34.4235C132.469 34.7343 132.232 34.8897 131.837 35.0451C131.521 35.2005 131.126 35.2782 130.652 35.2782H129.467V36.7545H128.519V31.7041H130.652C131.126 31.7041 131.521 31.7818 131.837 31.9372ZM131.6 34.2681C131.837 34.1127 131.916 33.8796 131.916 33.4912C131.916 33.1804 131.837 32.9473 131.6 32.7142C131.363 32.5588 131.047 32.4811 130.652 32.4811H129.546V34.5012H130.652C131.047 34.5012 131.363 34.4235 131.6 34.2681Z" fill="#081F2D"/>
<path d="M138.314 35.9775V36.7545H134.443V31.7041H138.156V32.4811H135.391V33.8019H137.84V34.5789H135.391V35.9775H138.314Z" fill="#081F2D"/>
<path d="M145.109 35.9775V37.8422H144.24V36.7545H140.29V37.8422H139.421V35.9775H139.658C139.974 35.9775 140.211 35.7444 140.369 35.2782C140.527 34.812 140.606 34.1904 140.606 33.3358L140.685 31.7041H144.477V35.9775H145.109ZM141.238 35.0451C141.159 35.5113 141.001 35.8221 140.843 35.9775H143.45V32.4811H141.396V33.4135C141.396 34.035 141.317 34.5789 141.238 35.0451Z" fill="#081F2D"/>
<path d="M151.113 31.7042L148.901 35.8222C148.743 36.2107 148.506 36.4438 148.19 36.5992C147.953 36.7546 147.637 36.8323 147.321 36.8323C147.084 36.8323 146.847 36.7546 146.531 36.6769L146.768 35.8999C147.005 35.9776 147.163 35.9776 147.242 35.9776C147.558 35.9776 147.795 35.8222 148.032 35.5114L148.111 35.356L146.057 31.5488H147.084L148.585 34.5013L150.165 31.5488H151.113V31.7042Z" fill="#081F2D"/>
<path d="M185.794 25.0219V21.9917C183.345 21.4478 181.133 19.8939 179.948 17.4852C177.894 13.3672 179.632 8.39459 183.898 6.37444C188.085 4.3543 193.141 6.06365 195.195 10.2593C196.38 12.668 196.301 15.3874 195.195 17.5629L197.644 19.4277C199.461 16.3198 199.698 12.3572 197.96 8.93847C195.195 3.34423 188.322 0.935593 182.555 3.65502C176.867 6.37444 174.418 13.1342 177.183 18.8061C178.921 22.2248 182.239 24.478 185.794 25.0219Z" fill="#FFC629"/>
<path d="M185.794 19.1165V13.7553V10.3366L188.559 12.4345L192.825 15.7755C193.378 14.3769 193.299 12.823 192.588 11.4244C191.245 8.62727 187.848 7.5395 185.004 8.86037C182.16 10.1812 181.054 13.5222 182.397 16.3194C183.187 17.7179 184.451 18.6503 185.794 19.1165Z" fill="#FFC629"/>
<path d="M195.669 26.576L193.615 22.3803L197.96 21.8364L187.532 13.7559V26.8091L190.376 24.012L192.43 28.13L195.669 26.576Z" fill="#FFC629"/>
<path d="M7.01577 23.9341C5.11975 22.924 3.69774 21.5255 2.59173 19.7384C1.56472 17.9514 1.01172 16.0089 1.01172 13.7557C1.01172 11.5024 1.56472 9.56 2.59173 7.77295C3.69774 5.9859 5.11975 4.58734 7.01577 3.65497C8.91179 2.6449 10.9658 2.17871 13.3358 2.17871C15.2318 2.17871 16.9699 2.4895 18.4709 3.11108C20.0509 3.73267 21.3149 4.66504 22.4209 5.90821L19.6559 8.47223C17.9969 6.68518 15.9428 5.83051 13.4938 5.83051C11.9138 5.83051 10.4918 6.1413 9.22779 6.84058C7.96378 7.53986 7.01577 8.47223 6.30476 9.6377C5.59376 10.8809 5.27776 12.2017 5.27776 13.7557C5.27776 15.3096 5.59376 16.6305 6.30476 17.8737C7.01577 19.1168 7.96378 20.0492 9.22779 20.6708C10.4918 21.3701 11.9138 21.6809 13.4938 21.6809C15.9428 21.6809 17.9969 20.7485 19.6559 18.9614L22.4209 21.5255C21.3149 22.7686 20.0509 23.701 18.4709 24.3226C16.8909 24.9442 15.1528 25.255 13.2568 25.255C10.9658 25.4104 8.83279 24.9442 7.01577 23.9341Z" fill="#081F2D"/>
<path d="M37.6684 8.00572C36.9574 8.39421 36.2464 8.9381 35.6934 9.55968C35.3774 9.87047 35.1404 10.1813 34.9034 10.5698C34.8244 10.6474 34.3504 11.5798 34.3504 11.5798C33.9554 11.5021 33.5604 11.3467 33.1654 11.3467C31.9014 11.3467 30.5583 11.8129 29.6893 12.7453C28.8203 13.6777 28.3463 14.9985 28.3463 16.7079V25.0992H24.2383V7.85033H28.1883V10.3367C29.2943 8.54961 31.8223 6.91796 37.6684 8.00572Z" fill="#081F2D"/>
<path d="M52.7573 17.718H38.9322C39.1692 18.9612 39.8012 19.9713 40.8282 20.7482C41.8552 21.5252 43.1192 21.836 44.6202 21.836C46.5162 21.836 48.1752 21.2144 49.3602 19.9713L51.5723 22.4576C50.7823 23.39 49.7552 24.0893 48.5702 24.5554C47.3852 25.0216 46.0422 25.2547 44.4622 25.2547C42.5662 25.2547 40.8282 24.8662 39.3272 24.0893C37.8261 23.3123 36.7201 22.3022 35.9301 20.9036C35.1401 19.5828 34.7451 18.0288 34.7451 16.3195C34.7451 14.6101 35.1401 13.1339 35.9301 11.813C36.7201 10.4921 37.8261 9.40436 39.1692 8.62738C40.5122 7.8504 42.0922 7.46191 43.8302 7.46191C45.5682 7.46191 47.0692 7.8504 48.4122 8.54968C49.7552 9.32666 50.7823 10.3367 51.5723 11.6576C52.3623 12.9785 52.6783 14.5324 52.6783 16.3195C52.8363 16.8634 52.7573 17.2518 52.7573 17.718ZM40.5912 11.9684C39.6432 12.7454 39.0902 13.7554 38.9322 14.9986H48.8862C48.7282 13.7554 48.1752 12.7454 47.3062 11.9684C46.4372 11.1914 45.2522 10.8029 43.9882 10.8029C42.6452 10.8806 41.4602 11.2691 40.5912 11.9684Z" fill="#081F2D"/>
<path d="M72.8237 2.48981V25.0999H68.8737V22.8466C68.1627 23.7013 67.3727 24.2452 66.3457 24.7114C65.3187 25.0999 64.2127 25.333 63.0277 25.333C61.3686 25.333 59.7886 24.9445 58.4456 24.2452C57.1026 23.5459 56.0756 22.4582 55.2856 21.1373C54.4956 19.8164 54.1006 18.2625 54.1006 16.4754C54.1006 14.7661 54.4956 13.2121 55.2856 11.8135C56.0756 10.4927 57.1026 9.40492 58.4456 8.70563C59.7886 8.00635 61.2896 7.61787 63.0277 7.61787C64.2127 7.61787 65.2397 7.77326 66.1877 8.16175C67.1357 8.55024 68.0047 9.09412 68.6367 9.8711V2.41211H72.8237V2.48981ZM66.1877 21.215C66.9777 20.7488 67.6097 20.1272 68.0837 19.3502C68.5577 18.5733 68.7947 17.5632 68.7947 16.4754C68.7947 15.3876 68.5577 14.4553 68.0837 13.6006C67.6097 12.7459 66.9777 12.1243 66.1877 11.7359C65.3977 11.2697 64.5287 11.0366 63.5017 11.0366C62.5536 11.0366 61.6056 11.2697 60.8156 11.7359C60.0256 12.202 59.3936 12.8236 58.9196 13.6006C58.4456 14.4553 58.2086 15.3876 58.2086 16.4754C58.2086 17.5632 58.4456 18.4956 58.9196 19.3502C59.3936 20.2049 60.0256 20.8265 60.8156 21.215C61.6056 21.6812 62.4746 21.9143 63.5017 21.9143C64.5287 21.8366 65.3977 21.6035 66.1877 21.215Z" fill="#081F2D"/>
<path d="M81.1979 7.85059H77.0898V25.0995H81.1979V7.85059Z" fill="#081F2D"/>
<path d="M96.5235 24.167C96.0495 24.5554 95.4175 24.8662 94.7855 25.0216C94.0745 25.177 93.3635 25.3324 92.5735 25.3324C90.6774 25.3324 89.1764 24.8662 88.0704 23.8562C87.0434 22.8461 86.4904 21.4475 86.4904 19.5051V10.9583H83.5674V7.69501H86.4904V2.48926H90.5984V7.69501H95.3385V10.9583H90.5984V19.4274C90.5984 20.2821 90.8354 20.9036 91.2305 21.3698C91.6255 21.836 92.2575 22.0691 93.0475 22.0691C93.9955 22.0691 94.7065 21.836 95.3385 21.3698L96.5235 24.167Z" fill="#081F2D"/>
<path d="M81.1188 2.48926H77.0107V5.83026H81.1188V2.48926Z" fill="#081F2D"/>
</svg>
