<svg width="814" height="128" fill="none" xmlns="http://www.w3.org/2000/svg"><path d="M171.2 64.3C171.2 29 199.3.7 234.4.7c34.8 0 63.2 28.3 63.2 63.6 0 35.1-28.3 63.4-63.2 63.4-35.1 0-63.2-28.3-63.2-63.4zm93.9 0c0-17.7-13.6-31.5-30.7-31.5-17.4 0-31 13.8-31 31.5 0 17.4 13.6 31.2 31 31.2 17.2 0 30.7-13.8 30.7-31.2zm197.699 28.9v32.2h-154.9V93.2h21.5l18.2-91.2h95.6v91.2h19.6zm-51.8 0v-59h-37l-11.9 59h48.9zm-255.299 0v32.2H.8V93.2h21.5L40.5 2H136v91.2h19.7zm-51.8 0v-59h-37L55 93.2h48.9zM608.799 1.9v123.4h-32.2v-13.1c-11.4 9.7-25.7 15.5-40.9 15.5-33.9 0-59-28.3-59-63.4 0-35.3 25.2-63.6 59-63.6 15.2 0 29.5 5.8 40.9 15.5V1.9h32.2zm-32.5 62.4c0-20.3-14.8-36.3-33.9-36.3-19.6 0-33.9 16-33.9 36.3 0 20.1 14.3 36.1 33.9 36.1 19.2 0 33.9-16 33.9-36.1zm204.8 61l-10.9-70.2-30.5 70.2h-32.2l-30-69.7-10.9 69.7h-32.4l18.9-123.4h34.1l36.5 85.7 36.3-85.7h34.1l19.4 123.4h-32.4z" fill="#FB5A25"/></svg>