<svg version="1.2" baseProfile="tiny" xmlns="http://www.w3.org/2000/svg" viewBox="0 0 256 128"><linearGradient id="a" gradientUnits="userSpaceOnUse" x1="117.977" y1="64" x2="234.269" y2="64"><stop offset="0" stop-color="#f8ac1c"/><stop offset="1" stop-color="#e94e1e"/></linearGradient><circle fill="url(#a)" cx="176.123" cy="64" r="58.146"/><linearGradient id="b" gradientUnits="userSpaceOnUse" x1="30.804" y1="51.205" x2="30.804" y2="75.065"><stop offset="0" stop-color="#f8ac1c"/><stop offset="1" stop-color="#e94e1e"/></linearGradient><path fill="url(#b)" d="M21.731 75.065v-23.86h17.691v4.036H26.548v5.29h11.979v4.02H26.548v6.494h13.33v4.02H21.731z"/><linearGradient id="c" gradientUnits="userSpaceOnUse" x1="53.508" y1="51.205" x2="53.508" y2="75.065"><stop offset="0" stop-color="#f8ac1c"/><stop offset="1" stop-color="#e94e1e"/></linearGradient><path fill="url(#c)" d="M65.479 75.065h-5.241l-2.083-5.42h-9.537l-1.97 5.42h-5.11l9.293-23.859h5.094l9.554 23.859zm-8.87-9.44l-3.288-8.854-3.223 8.854h6.511z"/><linearGradient id="d" gradientUnits="userSpaceOnUse" x1="76.514" y1="50.798" x2="76.514" y2="75.489"><stop offset="0" stop-color="#f8ac1c"/><stop offset="1" stop-color="#e94e1e"/></linearGradient><path fill="url(#d)" d="M66.814 67.301l4.687-.455c.282 1.573.854 2.729 1.717 3.467.862.738 2.026 1.107 3.491 1.107 1.551 0 2.72-.328 3.507-.985.787-.656 1.18-1.425 1.18-2.304 0-.563-.166-1.043-.496-1.439-.331-.396-.909-.74-1.733-1.033-.564-.195-1.85-.543-3.857-1.042-2.583-.64-4.395-1.427-5.436-2.36-1.465-1.313-2.197-2.913-2.197-4.801 0-1.215.344-2.352 1.034-3.41.689-1.058 1.682-1.863 2.979-2.417 1.296-.553 2.861-.83 4.695-.83 2.995 0 5.249.657 6.763 1.97s2.308 3.065 2.384 5.257l-4.818.211c-.206-1.226-.648-2.107-1.326-2.645-.678-.537-1.695-.806-3.052-.806-1.4 0-2.496.288-3.288.863-.51.369-.765.862-.765 1.481 0 .564.239 1.047.716 1.448.607.51 2.083 1.042 4.427 1.595s4.077 1.126 5.2 1.717c1.123.592 2.002 1.4 2.637 2.425.635 1.025.952 2.293.952 3.801 0 1.367-.38 2.647-1.14 3.842-.759 1.193-1.833 2.08-3.222 2.66-1.389.58-3.12.871-5.192.871-3.017 0-5.333-.697-6.95-2.092s-2.582-3.426-2.897-6.096z"/><linearGradient id="e" gradientUnits="userSpaceOnUse" x1="98.95" y1="51.205" x2="98.95" y2="75.065"><stop offset="0" stop-color="#f8ac1c"/><stop offset="1" stop-color="#e94e1e"/></linearGradient><path fill="url(#e)" d="M96.532 75.065V65.024l-8.74-13.818h5.647l5.615 9.44 5.501-9.44h5.55l-8.772 13.851v10.009h-4.801z"/><path d="M146.815 66.293l4.672 1.48c-.717 2.604-1.908 4.539-3.573 5.803s-3.778 1.896-6.339 1.896c-3.169 0-5.773-1.082-7.813-3.246-2.04-2.165-3.06-5.124-3.06-8.879 0-3.971 1.025-7.056 3.076-9.253s4.748-3.296 8.09-3.296c2.918 0 5.289.863 7.111 2.588 1.086 1.021 1.899 2.485 2.441 4.395l-4.768 1.14c-.283-1.237-.871-2.214-1.767-2.93s-1.983-1.074-3.263-1.074c-1.77 0-3.204.635-4.305 1.904-1.102 1.27-1.652 3.326-1.652 6.168 0 3.017.543 5.165 1.627 6.445 1.086 1.28 2.496 1.921 4.232 1.921 1.279 0 2.381-.407 3.304-1.221.923-.813 1.585-2.094 1.987-3.841zm30.322 8.773h-5.241l-2.083-5.42h-9.537l-1.971 5.42h-5.109l9.293-23.86h5.094l9.554 23.86zm-8.871-9.441l-3.287-8.854-3.223 8.854h6.51zm10.205 1.677l4.688-.456c.281 1.573.854 2.729 1.717 3.467.862.738 2.026 1.107 3.491 1.107 1.552 0 2.72-.328 3.507-.985.787-.656 1.18-1.424 1.18-2.303 0-.564-.165-1.044-.496-1.44-.33-.396-.908-.74-1.732-1.033-.564-.195-1.851-.543-3.857-1.042-2.583-.64-4.395-1.427-5.437-2.36-1.465-1.313-2.197-2.913-2.197-4.801 0-1.215.345-2.352 1.034-3.41.688-1.058 1.682-1.863 2.979-2.417 1.296-.553 2.861-.83 4.695-.83 2.994 0 5.248.657 6.762 1.97 1.514 1.313 2.309 3.065 2.385 5.257l-4.818.212c-.205-1.227-.648-2.107-1.326-2.645s-1.695-.806-3.051-.806c-1.4 0-2.496.287-3.288.862-.511.369-.765.862-.765 1.481 0 .563.238 1.047.716 1.448.607.51 2.083 1.042 4.427 1.595 2.344.554 4.077 1.126 5.2 1.717 1.123.592 2.002 1.4 2.637 2.426.635 1.025.952 2.292.952 3.8 0 1.367-.38 2.647-1.14 3.842-.759 1.193-1.833 2.08-3.222 2.66-1.39.581-3.12.871-5.192.871-3.017 0-5.333-.697-6.95-2.092-1.62-1.394-2.585-3.426-2.899-6.095zm23.469 7.764v-23.86h4.818v9.392h9.439v-9.392h4.817v23.86h-4.817V64.633h-9.439v10.433h-4.818z" fill="#FFF"/></svg>