<svg width="154" height="24" fill="none" xmlns="http://www.w3.org/2000/svg"><path d="M28.022 1.923H4.037A4.037 4.037 0 000 5.96v12.111a4.037 4.037 0 004.037 4.037h23.985a4.037 4.037 0 004.037-4.037V5.961a4.037 4.037 0 00-4.037-4.038z" fill="url(#paint0_linear_56_2596)"/><path fill-rule="evenodd" clip-rule="evenodd" d="M120.417 12.027c0-3.962-3.933-7.124-9.529-7.124s-9.529 3.122-9.529 7.136 3.95 7.12 9.529 7.12 9.529-3.17 9.529-7.132zm-3.095 0c0-1.68-1.814-4.484-6.431-4.484-4.618 0-6.437 2.772-6.437 4.496 0 1.724 1.808 4.487 6.437 4.487 4.629 0 6.431-2.818 6.431-4.499zM90.579 4.91c-2.137 0-4.77.826-6.538 2.642V5.394h-3.09v17.993h3.09V16.68l-.02-.173c1.481 1.715 4.201 2.66 6.558 2.66 5.579 0 9.24-3.177 9.24-7.133S96.172 4.91 90.58 4.91zm-.289 11.597c-4.603 0-6.428-2.74-6.428-4.461 0-1.722 1.793-4.494 6.437-4.494 4.643 0 6.43 2.775 6.43 4.465 0 1.689-1.845 4.49-6.448 4.49h.009zm54.067-3.534c-.578 1.799-2.498 3.546-4.537 3.546-2.31 0-3.494-1.24-3.494-3.685v-7.44h-3.064l.026 7.482c-.835 1.95-2.547 3.65-4.589 3.65-2.31 0-3.497-1.239-3.497-3.684V5.394h-3.043v7.6c0 3.902 2.082 6.14 5.714 6.14 2.599 0 4.809-1.262 5.88-3.324.606 1.597 2.021 3.324 5.241 3.324 2.261 0 4.225-.95 5.363-2.573v2.1h3.081V5.393h-3.09l.009 7.578zm5.824-7.578h3.067v13.284h-3.067V5.394zM151.683 0c-1.303 0-2.247.829-2.247 1.97 0 1.14.988 1.972 2.247 1.972s2.22-.85 2.22-1.973c0-1.123-.927-1.969-2.22-1.969zM71.56 13.165c2.541-.17 7.19-1.04 7.19-4.282 0-2.787-2.812-4.439-6.93-4.439-4.302 0-8.085 1.54-12.547 6.292-4.245 4.525-6.428 5.813-9.818 5.813-4.179 0-5.83-1.804-6.425-3.266h9.292v-2.532h-9.24c.727-1.516 2.4-3.177 6.812-3.177 4.502 0 6.2 2.47 6.2 2.47V6.577a13.985 13.985 0 00-6.2-1.654c-5.848 0-9.986 2.887-9.986 7.161 0 4.274 4.346 7.078 9.561 7.078 4.704 0 7.612-2.31 11.707-6.642 3.933-4.144 6.856-5.593 10.633-5.593 2.31 0 4.002.53 4.002 1.767 0 1.236-2.189 1.71-4.756 1.883-4.944.335-7.387 1.732-7.387 4.155 0 2.712 2.845 4.433 7.147 4.433 3.203 0 6.186-.867 7.927-2.212v-3.067a11.459 11.459 0 01-7.707 2.755c-2.022 0-4.28-.384-4.28-1.672.02-1.219 1.62-1.583 4.805-1.805z" fill="#000"/><defs><linearGradient id="paint0_linear_56_2596" x1="4.15" y1="23.896" x2="27.91" y2=".136" gradientUnits="userSpaceOnUse"><stop stop-color="#97CA3E"/><stop offset="1" stop-color="#FF2"/></linearGradient></defs></svg>