<svg width="228" height="55" viewBox="0 0 228 55" fill="none" xmlns="http://www.w3.org/2000/svg">
<path d="M42.6944 15.7016C40.768 16.1934 38.9441 16.5623 37.1817 17.1156C30.4804 19.2059 24.4758 22.5873 19.0861 27.0549C16.1965 29.4526 13.6348 32.1577 11.606 35.3137C10.3559 37.2606 9.35172 39.3304 8.92136 41.6257C8.06064 46.1957 9.02382 50.1509 13.4709 51.6469C14.3521 51.9543 15.9301 52.1387 17.1802 52.3232C18.6967 52.5486 20.746 52.2822 20.664 52.4461C19.9058 54.1061 14.516 54.557 12.3642 54.4955C9.96652 54.434 7.58929 54.1676 5.35552 53.2044C2.28151 51.8928 0.293656 49.7 0.0272426 46.2571C-0.136704 44.1463 0.457604 42.179 1.31832 40.2936C2.52743 37.6499 4.18739 35.2932 6.19574 33.2029C14.8234 24.1858 25.357 18.6116 37.5711 16.1934C39.1491 15.886 40.768 15.804 42.3665 15.6196C42.428 15.5991 42.51 15.6401 42.6944 15.7016Z" fill="black"/>
<path d="M18.9629 54.2895C20.8893 53.7977 22.7132 53.4288 24.4756 52.8755C31.1769 50.7852 37.1815 47.4038 42.5712 42.9362C45.4608 40.5385 48.0225 37.8334 50.0513 34.6774C51.3014 32.7305 52.3056 30.6607 52.7359 28.3654C53.5967 23.7954 52.6335 19.8402 48.1864 18.3442C47.3052 18.0368 45.7272 17.8524 44.4771 17.6679C42.9606 17.4425 40.9113 17.7089 40.9932 17.545C41.7515 15.885 47.1413 15.4341 49.2931 15.4956C51.6908 15.5571 54.068 15.8235 56.3018 16.7867C59.3758 18.0983 61.3636 20.2911 61.6301 23.734C61.794 25.8448 61.1997 27.8121 60.339 29.6975C59.1299 32.3412 57.4699 34.6979 55.4616 36.7882C46.8339 45.8053 36.3003 51.3795 24.0862 53.7977C22.5082 54.1051 20.8893 54.1871 19.2908 54.3715C19.2293 54.392 19.1473 54.351 18.9629 54.2895Z" fill="black"/>
<path d="M18.4511 47.1376C20.7464 28.7551 11.3399 20.7012 11.3399 20.7012C5.23292 23.6932 2.13843 30.0052 2.13843 30.0052C13.0819 34.1038 14.6394 46.5228 14.6394 46.5228C14.6394 46.5228 17.4675 47.1581 18.4511 47.1376Z" fill="#63B84F" stroke="#14684E" stroke-width="1.00857" stroke-miterlimit="10"/>
<path d="M22.2621 9.30762C14.0443 10.1478 7.97827 16.1319 7.97827 16.1319C22.1802 33.7562 18.4504 47.1383 18.4504 47.1383C18.4504 47.1383 24.1885 47.7736 31.1972 44.9251C31.1972 44.9251 31.6276 15.9884 22.2621 9.30762Z" fill="#63B84F" stroke="#14684E" stroke-width="1.00857" stroke-miterlimit="10"/>
<path d="M39.2521 3.65069C29.1694 -2.12843 18.4104 3.34329 18.4104 3.34329C36.4855 30.538 21.7098 47.1786 21.7098 47.1786C21.7098 47.1786 35.7273 46.5228 42.6745 36.0302C42.6745 36.0302 53.5565 19.5125 39.2521 3.65069Z" fill="#63B84F" stroke="#14684E" stroke-width="1.00857" stroke-miterlimit="10"/>
<path d="M25.2141 46.6251C26.5257 44.6988 27.5299 42.2601 28.2471 39.9033" stroke="#14684E" stroke-width="1.00857" stroke-miterlimit="10"/>
<path d="M42.5717 8.0157C36.7516 4.06048 30.7471 3.58913 26.3 3.97851C26.6279 5.80241 25.7672 7.4009 24.1687 8.36409C30.2757 20.1478 30.3987 29.6567 29.2101 35.9071C28.9846 37.1367 28.6567 38.4893 28.2264 39.9033" stroke="#14684E" stroke-width="1.00857" stroke-miterlimit="10"/>
<path d="M43.8013 33.6123C41.2192 34.555 40.051 34.5345 39.1698 34.3296C35.5015 33.5098 32.7349 30.1284 33.1653 25.7223C33.5751 21.3163 36.936 18.0373 40.6863 18.3857C43.0841 18.6112 44.9489 19.2465 46.5884 23.3451" stroke="#14684E" stroke-width="1.00857" stroke-miterlimit="10"/>
<path d="M23.0621 11.541C21.6276 11.7664 18.6765 12.4632 17.242 13.0575C16.1148 13.5084 15.0902 14.0412 14.168 14.574C14.209 14.6355 14.2295 14.697 14.2704 14.779C14.8852 16.316 14.3934 18.0374 13.1433 19.0006C21.0332 30.6408 21.7915 39.5554 20.8693 47.1175" stroke="#14684E" stroke-width="1.00857" stroke-miterlimit="10"/>
<path d="M12.5689 22.5859C10.0688 23.9795 7.87597 26.1313 6.83081 27.3609C7.09722 27.5658 7.32265 27.8527 7.46611 28.2011C7.71203 28.8159 7.63005 29.4717 7.32265 30.0045C12.9378 33.8368 15.7659 39.7594 17.016 46.8296" stroke="#14684E" stroke-width="1.00857" stroke-miterlimit="10"/>
<path d="M35.2351 27.5459C35.2351 27.464 35.2351 27.382 35.2146 27.2795C35.1941 27.0746 35.1941 26.8697 35.1736 26.6647C35.1736 26.6442 35.1736 26.6237 35.1941 26.6237C35.4195 26.5623 35.6449 26.5008 35.8704 26.4188C35.8909 26.4188 35.8908 26.4188 35.9113 26.3983C35.9113 26.3573 35.9113 26.3368 35.9113 26.3163C35.8704 25.886 35.8908 25.4351 35.9523 25.0048C36.0753 24.2055 36.4237 23.5292 36.977 22.9349C37.3459 22.5456 37.7557 22.2177 38.2271 21.9717C38.6165 21.7668 39.0468 21.6029 39.4772 21.5004C39.7846 21.4184 40.1125 21.3774 40.4404 21.3774C40.7888 21.3774 41.1167 21.4184 41.4445 21.5004C41.465 21.5004 41.465 21.5004 41.465 21.5209C41.4855 21.9308 41.506 22.3406 41.547 22.7505V22.771C41.5265 22.7505 41.4855 22.7505 41.465 22.73C41.1371 22.607 40.8093 22.5251 40.4404 22.5046C40.1125 22.5046 39.7846 22.5456 39.4772 22.648C39.2108 22.73 38.9649 22.8325 38.7394 22.9554C38.432 23.1399 38.1451 23.3448 37.9197 23.6317C37.7557 23.8366 37.6328 24.0621 37.5303 24.2875C37.3459 24.6974 37.2434 25.1072 37.2229 25.5581C37.2229 25.7015 37.2229 25.8245 37.2434 25.9679C37.2434 25.9884 37.2434 25.9884 37.2434 26.0089C38.7189 25.5786 40.1944 25.1687 41.6495 24.7383C41.67 25.0457 41.711 25.3531 41.7315 25.6605C40.2764 26.0704 38.8214 26.5008 37.3869 26.9106C37.3869 26.9926 37.5918 27.6894 37.6328 27.7509C39.0263 27.3615 40.3994 26.9516 41.7929 26.5623C41.8134 26.8697 41.8544 27.1771 41.8749 27.4845C40.5838 27.8533 39.3132 28.2222 38.0222 28.5911C38.0427 28.6526 38.0836 28.6936 38.1041 28.7345C38.2681 29.0419 38.473 29.3289 38.7189 29.5953C39.0673 29.9642 39.4772 30.1896 39.969 30.3125C40.2969 30.3945 40.6248 30.4355 40.9527 30.415C41.2191 30.3945 41.506 30.3535 41.7724 30.2715C42.0389 30.1896 42.2848 30.0871 42.5307 29.9437C42.8791 29.7387 43.166 29.4723 43.3914 29.1239C43.3914 29.1239 43.3914 29.1239 43.3914 29.1034V29.1239C43.5144 29.5543 43.6373 29.9846 43.7603 30.415C43.7603 30.4355 43.7603 30.456 43.7398 30.456C43.4529 30.7019 43.166 30.8863 42.8176 31.0503C42.6332 31.1323 42.4692 31.2142 42.2643 31.2757C42.2438 31.2757 42.2438 31.2757 42.2233 31.2962C42.1003 31.3372 41.9774 31.3577 41.8544 31.3987C41.8339 31.3987 41.8134 31.3987 41.8134 31.3987C41.6085 31.4397 41.3831 31.4807 41.1781 31.5217C40.8707 31.5626 40.5838 31.5831 40.2764 31.5626C39.928 31.5421 39.6001 31.4807 39.2927 31.3782C38.7189 31.1938 38.2271 30.8659 37.7967 30.4355C37.4074 30.0461 37.1 29.6158 36.8335 29.1444C36.7926 29.0829 36.7721 29.0215 36.7311 28.9395C36.4032 29.0419 36.0753 29.1239 35.7269 29.2264C35.7269 29.2264 35.7269 29.2264 35.7269 29.2059V29.1854C35.7064 28.8985 35.6859 28.6116 35.6654 28.3452C35.6654 28.3042 35.6654 28.3042 35.7064 28.2837C35.9113 28.2222 36.0958 28.1812 36.3007 28.1197C36.3212 28.1197 36.3212 28.1197 36.3417 28.1197C36.2597 27.8328 36.1778 27.5459 36.0958 27.2795C36.0753 27.2795 36.0753 27.2795 36.0548 27.3C35.7884 27.4025 35.522 27.4845 35.2351 27.5459C35.2351 27.5664 35.2351 27.5459 35.2351 27.5459Z" fill="white"/>
<path d="M88.4769 18.8164V22.9356H74.9922V28.7352H84.6241V32.8134H74.9922V39.8426H88.4769V43.9412H70.2173V18.8164H88.4769Z" fill="#63B84F"/>
<path d="M100.855 43.9407H95.3427C93.5803 37.5467 91.5515 31.2143 89.4202 25.5786H94.1541C95.6706 29.6158 97.1871 34.6367 98.3348 39.3501C99.6054 35.6613 101.552 28.8575 102.31 25.5786H106.676C107.864 29.1445 109.524 35.4154 110.385 39.3501C112.045 34.7596 113.561 30.1486 114.647 25.5786H119.197C117.537 31.5217 115.303 38.1205 112.926 43.9407H107.372C106.655 40.2314 105.282 34.5342 104.421 31.6446C103.52 35.4769 102.003 40.6207 100.855 43.9407Z" fill="black"/>
<path d="M137.169 43.0186C134.853 43.9203 131.431 44.4531 128.869 44.4531C123.07 44.4531 121.123 43.121 121.123 38.3256C121.123 33.1408 124.053 32.3005 128.336 32.3005C129.894 32.3005 131.328 32.485 132.886 32.8129C132.886 29.5954 132.128 28.8167 128.295 28.8167C126.267 28.8167 124.258 29.1856 122.742 29.7184L121.922 26.0296C123.828 25.5172 126.615 25.0459 129.238 25.0459C134.689 25.0459 137.169 26.7059 137.169 32.1776V43.0186ZM132.866 35.8254C131.861 35.6 130.55 35.4975 129.218 35.4975C126.697 35.4975 125.795 35.7844 125.795 38.1207C125.795 40.6004 126.472 41.0102 129.177 41.0102C130.468 41.0102 131.8 40.7643 132.866 40.3954V35.8254Z" fill="black"/>
<path d="M162.847 18.2012C165.163 18.2012 168.114 18.5905 170.061 19.1439L169.016 23.3245C167.725 22.8532 165.368 22.5253 163.688 22.5253C158.195 22.5253 156.146 23.468 156.146 31.1735C156.146 38.8995 158.195 40.0881 163.688 40.0881C165.389 40.0881 167.725 39.7602 169.016 39.2888L170.061 43.5514C168.114 44.0843 165.163 44.4532 162.847 44.4532C154.876 44.4532 151.064 41.3791 151.064 31.153C151.043 20.8653 154.876 18.2012 162.847 18.2012Z" fill="#63B84F"/>
<path d="M188.321 43.0186C186.005 43.9203 182.583 44.4531 180.021 44.4531C174.221 44.4531 172.274 43.121 172.274 38.3256C172.274 33.1408 175.205 32.3005 179.488 32.3005C181.046 32.3005 182.48 32.485 184.038 32.8129C184.038 29.5954 183.279 28.8167 179.447 28.8167C177.418 28.8167 175.41 29.1856 173.893 29.7184L173.074 26.0296C174.98 25.5172 177.767 25.0459 180.39 25.0459C185.841 25.0459 188.321 26.7059 188.321 32.1776V43.0186ZM184.017 35.8254C183.013 35.6 181.701 35.4975 180.369 35.4975C177.849 35.4975 176.947 35.7844 176.947 38.1207C176.947 40.6004 177.623 41.0102 180.328 41.0102C181.619 41.0102 182.951 40.7643 184.017 40.3954V35.8254Z" fill="black"/>
<path d="M205.372 29.5544C203.937 29.0831 201.867 28.6937 200.043 28.6937C197.851 28.6937 196.723 28.9192 196.723 30.825C196.723 32.0956 197.523 32.526 200.515 32.8129C204.941 33.2842 206.909 34.6573 206.909 38.3256C206.909 43.0801 203.732 44.4531 199.039 44.4531C197.092 44.4531 194.203 44.0842 192.481 43.4694L193.424 39.9446C194.756 40.4159 197.031 40.8053 198.875 40.8053C201.334 40.8053 202.482 40.4774 202.482 38.5715C202.482 37.2804 201.765 36.6656 198.547 36.3787C194.51 36.0508 192.338 34.9442 192.338 31.1529C192.338 26.3985 195.555 25.0664 200.207 25.0664C202.113 25.0664 204.531 25.4558 206.376 26.0706L205.372 29.5544Z" fill="black"/>
<path d="M227.053 33.387V43.9411H222.586V33.7354C222.586 30.7024 221.787 29.0834 218.897 29.0834C217.053 29.0834 215.372 29.6163 215.372 30.7024V43.9411H210.905V17.9146H215.372V26.3168C216.561 25.702 218.549 25.0462 220.413 25.0462C224.697 25.0462 227.053 26.5218 227.053 33.387Z" fill="black"/>
</svg>
