<svg width="600" height="200" fill="none" xmlns="http://www.w3.org/2000/svg"><g clip-path="url(#clip0_923_31667)"><path fill="#fff" d="M0 0h600v200H0z"/><path d="M176.228 154.892c-3.864 0-6.893-1.061-9.089-3.183-2.107-2.211-3.161-5.351-3.161-9.419V72.78c0-8.401 4.215-12.602 12.646-12.602h43.864c6.323 0 9.484 3.095 9.484 9.286 0 6.367-3.161 9.55-9.484 9.55h-32.273v18.838h29.375c6.323 0 9.484 3.095 9.484 9.285 0 6.279-3.161 9.419-9.484 9.419h-29.375v25.734c0 8.402-3.995 12.602-11.987 12.602zm79.317-77.072c-4.127 0-7.333-.972-9.616-2.918-2.195-1.945-3.293-4.775-3.293-8.49 0-3.625 1.098-6.411 3.293-8.357 2.283-1.945 5.489-2.918 9.616-2.918 8.694 0 13.041 3.759 13.041 11.276 0 3.714-1.142 6.544-3.425 8.49-2.195 1.945-5.401 2.918-9.616 2.918zm0 77.072c-3.776 0-6.674-1.105-8.694-3.316-1.932-2.211-2.898-5.394-2.898-9.551v-41.918c0-4.157.966-7.34 2.898-9.552 2.02-2.21 4.918-3.316 8.694-3.316 3.776 0 6.674 1.106 8.694 3.316 2.108 2.211 3.161 5.395 3.161 9.552v41.918c0 4.157-1.01 7.34-3.029 9.551-2.02 2.211-4.962 3.316-8.826 3.316zm37.048 0c-3.776 0-6.674-1.017-8.694-3.051-1.932-2.034-2.898-4.996-2.898-8.887V99.045c0-7.87 3.82-11.806 11.46-11.806 6.937 0 10.714 3.405 11.328 10.215 2.196-3.361 5.094-5.926 8.694-7.694 3.688-1.858 7.772-2.786 12.25-2.786 7.728 0 13.436 2.3 17.125 6.898 3.776 4.599 5.664 11.673 5.664 21.224v27.858c0 3.891-1.01 6.853-3.03 8.887-2.02 2.034-4.918 3.051-8.694 3.051-3.776 0-6.674-1.017-8.694-3.051-2.019-2.034-3.029-4.996-3.029-8.887v-26.929c0-3.98-.703-6.81-2.108-8.49-1.317-1.68-3.293-2.52-5.927-2.52-3.513 0-6.323 1.149-8.431 3.449-2.107 2.211-3.161 5.217-3.161 9.02v25.47c0 7.959-3.952 11.938-11.855 11.938zm82.518-1.193c-8.431 0-12.646-4.201-12.646-12.603V72.78c0-8.401 4.215-12.602 12.646-12.602h32.141c10.011 0 17.739 2.21 23.183 6.633 5.533 4.333 8.299 10.17 8.299 17.51 0 4.864-1.23 9.109-3.688 12.734-2.371 3.626-5.709 6.324-10.012 8.092 5.182 1.592 9.177 4.29 11.987 8.092 2.811 3.715 4.216 8.357 4.216 13.929 0 8.224-2.942 14.724-8.826 19.5-5.796 4.687-13.743 7.031-23.842 7.031h-33.458zm10.538-56.378h17.256c4.391 0 7.596-.796 9.616-2.388 2.107-1.592 3.161-4.024 3.161-7.296 0-3.272-1.054-5.66-3.161-7.163-2.02-1.592-5.225-2.388-9.616-2.388h-17.256v19.235zm0 38.469h19.627c4.478 0 7.728-.84 9.747-2.52 2.108-1.769 3.162-4.378 3.162-7.827s-1.054-6.013-3.162-7.694c-2.019-1.68-5.269-2.52-9.747-2.52h-19.627v20.561zm90.251 19.368c-5.006 0-9.441-.929-13.304-2.786-3.777-1.857-6.762-4.378-8.958-7.561-2.107-3.272-3.161-6.987-3.161-11.143 0-4.687 1.229-8.401 3.688-11.143 2.459-2.83 6.411-4.82 11.855-5.969 5.445-1.238 12.69-1.858 21.735-1.858h5.005v-1.857c0-3.183-.834-5.438-2.502-6.765-1.581-1.327-4.347-1.99-8.299-1.99-2.195 0-4.61.265-7.245.796-2.546.442-5.444 1.282-8.694 2.521-2.898 1.061-5.313 1.017-7.244-.133-1.932-1.15-3.206-2.786-3.82-4.908-.527-2.211-.308-4.378.658-6.5 1.054-2.211 3.03-3.847 5.928-4.908 4.215-1.504 8.079-2.52 11.592-3.051 3.6-.62 6.893-.93 9.879-.93 10.801 0 18.793 2.344 23.974 7.031 5.269 4.688 7.903 12.072 7.903 22.154v26.796c0 7.959-3.6 11.938-10.801 11.938-6.85 0-10.494-3.537-10.933-10.612-1.23 3.361-3.337 6.014-6.323 7.959-2.986 1.946-6.63 2.919-10.933 2.919zm5.269-15.388c3.249 0 5.971-1.061 8.167-3.184 2.283-2.122 3.424-4.908 3.424-8.357v-2.388h-5.005c-5.181 0-9.001.575-11.46 1.725-2.371 1.061-3.557 2.786-3.557 5.173 0 2.034.703 3.715 2.108 5.041 1.493 1.327 3.6 1.99 6.323 1.99zm59.06 15.122c-7.992 0-11.987-3.979-11.987-11.938V99.045c0-7.87 3.82-11.806 11.46-11.806 3.6 0 6.366 1.017 8.298 3.051 2.02 2.034 3.03 4.953 3.03 8.755v.398c1.493-3.802 3.908-6.81 7.245-9.02 3.337-2.211 7.289-3.36 11.855-3.45 2.547-.088 4.435.576 5.664 1.99 1.318 1.327 2.02 3.848 2.108 7.562 0 3.184-.659 5.704-1.976 7.561-1.317 1.857-3.82 2.963-7.508 3.317l-3.03.265c-4.654.442-8.035 1.769-10.143 3.979-2.107 2.123-3.161 5.307-3.161 9.551v21.756c0 7.959-3.952 11.938-11.855 11.938z" fill="#292B2A"/><path d="M97.543 45.338V37.56a.36.36 0 00-.04-.171c-.141-.283-.636-.555-1.403-.797-.777-.242-1.827-.464-3.1-.646a52.72 52.72 0 00-4.239-.423 6.726 6.726 0 001.313-3.975c0-3.38-2.494-6.164-5.734-6.678V-53h-2.12v77.86c-3.24.514-5.723 3.298-5.723 6.678 0 1.493.495 2.855 1.312 3.974-5.138.333-8.741 1.12-8.741 2.038v7.778c-14.889 3.551-27.648 12.55-36.076 24.766C43.207 57.212 58.994 48.94 76.729 48.94c30.817 0 55.8 24.967 55.8 55.766s-24.983 55.767-55.8 55.767c-17.765 0-33.582-8.313-43.798-21.246 11.013 16.02 29.465 26.532 50.38 26.532 33.734 0 61.089-27.339 61.089-61.053 0-28.821-19.987-52.952-46.847-59.368h-.01zm-11.628-9.957c-.848-.02-1.716-.04-2.615-.04-.898 0-1.786.02-2.644.04a4.649 4.649 0 01-2.04-3.853 4.664 4.664 0 019.328 0 4.644 4.644 0 01-2.04 3.843l.01.01z" fill="#E41978"/><path d="M103.607 142.056c-.109 3.803-4.232 6.094-7.49 4.163l-46.68-27.665a5.006 5.006 0 01-2.447-4.308V83.398c0-3.846 4.136-6.252 7.449-4.334l47.57 27.549a5.007 5.007 0 012.488 4.478l-.89 30.965z" fill="url(#paint0_linear_923_31667)"/><path d="M60.886 79.616c-3.508-1.911-3.46-6.992.082-8.837l20.028-8.934c1.844-.96 4.23-.678 5.767.726l9.493 6.913c2.445 2.232 2.088 6.199-.717 7.951l-15.557 9.722a4.943 4.943 0 01-4.99.148l-14.107-7.689z" fill="url(#paint1_linear_923_31667)"/><path d="M84.655 92.761c-1.931-1.168-1.926-3.986.01-5.148l16.265-9.756a2.967 2.967 0 013.587.408l2.236 2.151c4.469 4.3 3.692 11.691-1.574 14.955l-6.46 4.005a2.966 2.966 0 01-3.1.016l-10.964-6.63z" fill="#292B2A"/><path d="M140.315 39.11l-.022.176c-7.839.885-9.699 4.323-10.684 8.31.321-4.103-.366-7.984-7.496-11.539l.022-.175c7.839-.885 9.699-4.323 10.684-8.31-.31 4.103.366 7.984 7.496 11.539zM40.202 161.066l-.022.175c-7.839.886-9.699 4.324-10.684 8.31.32-4.103-.366-7.984-7.496-11.538l.022-.175c7.84-.886 9.7-4.324 10.685-8.31-.31 4.103.365 7.984 7.495 11.538z" fill="#fff"/></g><defs><linearGradient id="paint0_linear_923_31667" x1="99.283" y1="146.014" x2="116.94" y2="102.278" gradientUnits="userSpaceOnUse"><stop stop-color="#F12084"/><stop offset="1" stop-color="#BB0051"/></linearGradient><linearGradient id="paint1_linear_923_31667" x1="58.332" y1="77.215" x2="99.32" y2="82.342" gradientUnits="userSpaceOnUse"><stop stop-color="#F12084"/><stop offset="1" stop-color="#BB0051"/></linearGradient><clipPath id="clip0_923_31667"><path fill="#fff" d="M0 0h600v200H0z"/></clipPath></defs></svg>