<svg xmlns="http://www.w3.org/2000/svg" width="1000" height="569" viewBox="0 0 999 569"><path d="M12.687 33.903l3.012-8.149L1.31 15.733h17.402l4.24-13.765 4.126 13.765H48.6" transform="scale(13.875 13.87805)" fill="none" stroke-width="2" stroke-linecap="round" stroke-linejoin="round" stroke="#ef7a0e"/><path d="M360.96 511.914h34.282c-1.793 13.05-7.597 23.516-17.41 31.39-9.691 7.88-22.316 11.817-37.871 11.817-19.504 0-34.82-5.625-45.95-16.879-11.007-11.363-16.511-26.554-16.511-45.57 0-19.02 5.504-34.152 16.512-45.406 11.129-11.364 26.445-17.047 45.949-17.047 14.84 0 26.984 3.656 36.437 10.972 9.57 7.204 15.493 16.711 17.77 28.524h-34.645c-2.152-7.875-8.671-11.813-19.562-11.813-9.094 0-16.094 3.207-21 9.618-4.906 6.304-7.36 14.687-7.36 25.152 0 10.465 2.454 18.902 7.36 25.316 4.906 6.301 11.906 9.453 21 9.453 5.863 0 10.59-1.351 14.18-4.05 3.71-2.703 5.98-6.528 6.82-11.477zm56.544-79.5h62.64c14.836 0 26.325 3.43 34.461 10.297 8.258 6.863 12.383 16.426 12.383 28.691 0 15.305-6.218 26.332-18.664 33.086l18.485 48.442h-33.383l-15.973-42.2h-26.566v42.2h-33.383zm33.383 52.156h24.77c11.488 0 17.23-4.164 17.23-12.492 0-8.215-5.742-12.32-17.23-12.32h-24.77zm181.875 20.422h-49.54v20.254h66.59v27.684H549.84V432.414h98.355v27.68h-64.972v17.894h49.539zm38.195-72.578h57.078c19.266 0 33.98 5.402 44.153 16.203 10.171 10.805 15.257 25.488 15.257 44.055 0 18.566-5.086 33.25-15.258 44.05-10.171 10.805-24.886 16.208-44.152 16.208h-57.078zm33.387 92.832h18.304c10.653 0 18.43-2.98 23.336-8.945 4.903-5.965 7.356-13.84 7.356-23.63 0-9.901-2.453-17.78-7.356-23.632-4.906-5.96-12.683-8.945-23.336-8.945h-18.304zm139.539-92.832V552.93H810.5V432.414zm127.367 0v27.68h-38.41v92.836h-33.383v-92.836h-38.23v-27.68zm0 0" fill="#333"/><path d="M366.188 294.848h-53.915v24h42.555v15.859h-42.555v38.57h-20.898v-94.289h74.813zm38.816-15.86v94.29h-20.899v-94.29zm70.051 0c11.308 0 20.195 2.575 26.656 7.715 6.46 5.145 9.691 12.05 9.691 20.715 0 9.242-3.23 16.336-9.691 21.289-6.461 4.856-15.297 7.285-26.504 7.285l-2.121 1.14h-21.504v36.145h-20.594v-94.289zm-2.422 43.145c5.855 0 10.199-1.094 13.023-3.285 2.93-2.286 4.39-5.762 4.39-10.43 0-4.664-1.46-8.094-4.39-10.285-2.824-2.285-7.168-3.43-13.023-3.43h-21.051v27.43zm12.265 4.144l32.41 47h-23.472l-26.805-41.285zm85.52-48.714c9.086 0 17.062 1.476 23.926 4.425 6.867 2.953 12.722 7.336 17.57 13.145l-11.664 12.715c-4.137-4.953-8.68-8.57-13.629-10.856-4.844-2.383-10.5-3.574-16.96-3.574-4.24 0-7.774.523-10.602 1.574-2.727 1.047-4.743 2.426-6.055 4.14a9.661 9.661 0 00-1.82 5.716c0 2.57 1.062 4.761 3.18 6.57 2.12 1.715 5.757 3.144 10.906 4.285l18.625 4.004c9.894 2.094 16.964 5.238 21.203 9.426 4.343 4.097 6.511 9.43 6.511 16 0 6.191-1.714 11.527-5.148 16.004-3.434 4.379-8.227 7.761-14.387 10.14-6.16 2.286-13.226 3.43-21.203 3.43-6.965 0-13.375-.762-19.23-2.285-5.758-1.621-10.907-3.809-15.45-6.57-4.543-2.766-8.328-5.954-11.359-9.575l11.813-13.285c2.324 3.047 5.199 5.762 8.632 8.145 3.434 2.379 7.32 4.285 11.664 5.71 4.442 1.337 9.086 2.005 13.93 2.005 4.14 0 7.625-.43 10.45-1.29 2.929-.949 5.1-2.238 6.511-3.855 1.516-1.715 2.273-3.762 2.273-6.144 0-2.477-.91-4.57-2.726-6.286-1.715-1.808-4.945-3.191-9.692-4.144l-20.292-4.285c-5.856-1.332-10.903-3.047-15.145-5.141-4.14-2.191-7.32-4.953-9.543-8.285-2.117-3.43-3.18-7.477-3.18-12.145 0-5.62 1.618-10.668 4.848-15.144 3.23-4.477 7.875-8 13.934-10.57 6.156-2.668 13.527-4 22.109-4zm137.207 1.425v15.86h-33.469v78.43h-20.898v-78.43h-33.621v-15.86zm0 0" fill="#ef7a0e"/></svg>