<svg width="1011" height="247" fill="none" xmlns="http://www.w3.org/2000/svg"><path d="M634.817 75.09h23.412v110.741h41.322l10.62 20.808h-75.354V75.091zm313.666 130.895a46.302 46.302 0 01-15.369-9.203 41.628 41.628 0 01-10.187-14.587 49.867 49.867 0 01-3.682-19.602 50.762 50.762 0 013.682-19.603 44.003 44.003 0 0125.28-24.71 51.72 51.72 0 0118.958-3.442 48.782 48.782 0 0117.486 3.065 38.18 38.18 0 0113.86 9.102 42.348 42.348 0 019.149 15.056 61.435 61.435 0 013.3 21.084v2.973c0 .993-.06 1.986-.18 2.972h-68.941a22.092 22.092 0 002.549 8.826 22.618 22.618 0 005.752 6.865 28.446 28.446 0 008.117 4.556 27.202 27.202 0 009.433 1.666 30.775 30.775 0 0014.338-3.065 26.831 26.831 0 009.617-8.448l15.095 11.89a45.83 45.83 0 01-17.221 13.728 45.805 45.805 0 01-21.636 4.107 56.434 56.434 0 01-19.4-3.23zm1.233-68.378a21.994 21.994 0 00-7.877 15.516h46.411a27.379 27.379 0 00-1.234-8.172 18.712 18.712 0 00-3.865-6.875 19.034 19.034 0 00-6.7-4.74 23.797 23.797 0 00-9.525-1.766 25.764 25.764 0 00-17.219 6.046l.009-.009zm-205.521 69.86a33.69 33.69 0 01-10.777-4.602 27.294 27.294 0 01-8.182-8.549 24.75 24.75 0 01-3.248-13.105 22.27 22.27 0 015.66-15.977 36.766 36.766 0 0114.596-9.102 82.79 82.79 0 0119.786-4.187 225.987 225.987 0 0121.277-1.022v-2.254a13.81 13.81 0 00-6.037-12.36 25.654 25.654 0 00-14.393-3.994 32.34 32.34 0 00-13.566 2.973 36.578 36.578 0 00-10.776 7.242l-11.513-13.519a50.623 50.623 0 0117.559-10.593 60.102 60.102 0 0120.164-3.524 49.757 49.757 0 0119.602 3.35 32.131 32.131 0 0112.167 8.724 31.284 31.284 0 016.221 12.084 52.294 52.294 0 011.767 13.381v54.298h-20.799v-11.458h-.552a25.067 25.067 0 01-10.777 9.755 36.675 36.675 0 01-16.906 3.81 48.604 48.604 0 01-11.273-1.371zm22.786-41.055a49.077 49.077 0 00-10.961 2.043 23.566 23.566 0 00-8.356 4.464 9.89 9.89 0 00-3.35 7.896 9.52 9.52 0 001.399 5.292 10.73 10.73 0 003.626 3.442 16.178 16.178 0 005.016 1.84c1.836.369 3.704.557 5.577.562a23.345 23.345 0 0017.486-6.13 23.147 23.147 0 005.945-16.722v-3.156h-5.016c-3.58 0-7.39.156-11.366.469zM397.94 204.936a47.58 47.58 0 1118.452 3.681 47.195 47.195 0 01-18.452-3.681zm7.933-68.691a27.322 27.322 0 00-3.344 48.671 27.327 27.327 0 0041.142-26.218 27.325 27.325 0 00-27.196-24.598 27.05 27.05 0 00-10.593 2.135l-.009.01zm471.25 70.403h-23.928l-36.066-89.196h24.342l2.917 8.09c5.954 18.553 16.887 49.116 19.013 55.052l.083.239c.414 1.197 1.151 1.915 1.97 1.915s1.546-.718 1.96-1.915c.12-.349 14.366-40.419 20.127-59.267l1.491-4.114h23.596l-35.487 89.177-.018.019zm-269.971 0h-22.28v-89.196h22.299v89.177l-.019.019zm-75.52 0H507.87l-36.048-89.196h24.342l.773 2.144c5.697 18.765 20.817 60.814 20.974 61.228.414 1.196 1.15 1.914 1.969 1.914.819 0 1.555-.718 1.96-1.914.129-.377 13.464-37.843 19.594-57.546l2.116-5.826h23.597l-35.487 89.177-.028.019zm-166.961 0h-75.327V75.091h23.413v110.74h41.322l10.611 20.798-.019.019zM585.682 96.552a13.01 13.01 0 01-4-9.383 13.01 13.01 0 014-9.382 13.798 13.798 0 0110.123-3.994 14.806 14.806 0 0110.307 3.8 12.464 12.464 0 014.179 9.572 12.468 12.468 0 01-4.179 9.562 14.806 14.806 0 01-10.307 3.81 13.808 13.808 0 01-10.123-3.985z" fill="#1D5A8E"/><path d="M144.951 4.117C158.472 5.27 209.97 37 214.349 97.923a107.503 107.503 0 00-86.859-63.729c4.151-16.115 10.039-30.696 17.461-30.077z" fill="url(#paint0_linear_601_16)"/><path d="M122.832 75.138c11.92-1.376 1.017-11.517 1.689-15.497 61.811 7.058 78.074 69.687 71.766 90.551-4.381 14.951-1.881 38.488-36.787 45.497-53.913 8.011-75.946-19.278-84.27-45.465-8.323-26.187 9.364-69.247 47.602-75.086z" fill="url(#paint1_radial_601_16)"/><g filter="url(#filter0_d_601_16)"><path d="M127.427 34.643a29.22 29.22 0 00-2.292 23.928 91.115 91.115 0 0151.114 26.9c18.258 21.572 18.194 37.392 20.909 33.407 2.715-3.984 15.387-23.228 15.387-23.228a102.852 102.852 0 00-85.118-61.007z" fill="url(#paint2_linear_601_16)"/></g><path d="M116.07 246.368c-3.766 0-7.529-.197-11.274-.589a106.502 106.502 0 01-79.905-50.272 106.505 106.505 0 01-8.573-94.013v-.092l-.239-.589A269.143 269.143 0 015.523 59.666a1133.174 1133.174 0 01-5.32-28.373 6.028 6.028 0 011.06-5.245 6.12 6.12 0 014.803-2.393c.531 0 1.06.068 1.574.202.129 0 13.73 2.19 29.45 5.21A262.12 262.12 0 0179.34 39.4l.452.184a107.031 107.031 0 01111.89 24.848 105.89 105.89 0 0129.348 54.979 106.535 106.535 0 01-5.871 60.446 107.111 107.111 0 01-58.899 58.66 107.464 107.464 0 01-40.245 7.804l.055.046zM30.491 50.188a3.065 3.065 0 00-2.402 1.195 3.019 3.019 0 00-.534 2.633c.387 1.592 9.636 39.13 14.504 53.892a80.528 80.528 0 0065.471 112.167c2.812.294 5.638.441 8.466.442a80.66 80.66 0 0078.274-60.505 80.667 80.667 0 00-12.821-67.525 80.656 80.656 0 00-95.004-27.603c-15.028-4.942-54.767-14.54-55.153-14.596a3.103 3.103 0 00-.8-.1z" fill="url(#paint3_linear_601_16)"/><path d="M124.381 59.475a71.873 71.873 0 013.193-25.446 107.677 107.677 0 0186.745 63.632 112.266 112.266 0 01-32.404 88.887 80.74 80.74 0 00-18.63-112.273 80.74 80.74 0 00-38.904-14.8z" fill="url(#paint4_linear_601_16)"/><defs><linearGradient id="paint0_linear_601_16" x1="146.032" y1="5.261" x2="145.88" y2="46.596" gradientUnits="userSpaceOnUse"><stop stop-color="#C1ECFF"/><stop offset="1" stop-color="#64CFFF"/></linearGradient><linearGradient id="paint2_linear_601_16" x1="124.642" y1="38.971" x2="205.802" y2="99.976" gradientUnits="userSpaceOnUse"><stop stop-color="#9FE9FF"/><stop offset=".68" stop-color="#00B1FF"/><stop offset="1" stop-color="#31597B"/></linearGradient><linearGradient id="paint3_linear_601_16" x1="2.676" y1="35.013" x2="212.779" y2="185.816" gradientUnits="userSpaceOnUse"><stop stop-color="#9FE9FF"/><stop offset=".68" stop-color="#00B1FF"/><stop offset="1" stop-color="#31597B"/></linearGradient><linearGradient id="paint4_linear_601_16" x1="124.592" y1="43.008" x2="196.912" y2="148.929" gradientUnits="userSpaceOnUse"><stop stop-color="#49CAFF"/><stop offset="1" stop-color="#00A4EA"/></linearGradient><radialGradient id="paint1_radial_601_16" cx="0" cy="0" r="1" gradientUnits="userSpaceOnUse" gradientTransform="rotate(-60 153.047 -88.943) scale(103.323 74.4935)"><stop stop-color="#74D5FF"/><stop offset="1" stop-color="#91DDFF" stop-opacity=".059"/></radialGradient><filter id="filter0_d_601_16" x="93.574" y="7.643" width="148.971" height="144.852" filterUnits="userSpaceOnUse" color-interpolation-filters="sRGB"><feFlood flood-opacity="0" result="BackgroundImageFix"/><feColorMatrix in="SourceAlpha" values="0 0 0 0 0 0 0 0 0 0 0 0 0 0 0 0 0 0 127 0" result="hardAlpha"/><feOffset dy="3"/><feGaussianBlur stdDeviation="15"/><feColorMatrix values="0 0 0 0 1 0 0 0 0 1 0 0 0 0 1 0 0 0 0.655 0"/><feBlend in2="BackgroundImageFix" result="effect1_dropShadow_601_16"/><feBlend in="SourceGraphic" in2="effect1_dropShadow_601_16" result="shape"/></filter></defs></svg>