<svg width="193" height="38" fill="none" xmlns="http://www.w3.org/2000/svg"><path d="M185.981 31.253a3.82 3.82 0 014.16-.83 3.82 3.82 0 012.356 3.526 3.82 3.82 0 01-2.356 3.526 3.818 3.818 0 01-4.16-.829 3.908 3.908 0 010-5.393z" fill="#0AAE60"/><path d="M64.655 6.998a3.79 3.79 0 110 5.361 3.826 3.826 0 010-5.361zm-17.562 9.438a3.774 3.774 0 013.79-3.773h8.628l1.028-5.186H47.1a5.66 5.66 0 00-5.623 5.623v24.612h5.617V25.603h9.817l1.04-5.18H47.092v-3.987zm22.917-.596h-5.356v21.862h5.356V15.84zm5.388 0h5.383v3.512c1.775-2.559 4.035-3.864 6.764-3.864 4.034 0 6.725 2.302 6.725 6.598V37.7h-5.377V23.69c0-2.388-1.066-3.603-3.123-3.603-2.777 0-4.989 3.384-4.989 8.895v8.72h-5.383V15.838zm29.606 19.56v2.248h-5.33V7.12h5.33v10.777a7.204 7.204 0 015.261-2.33c6.395 0 9.918 4.355 9.918 11.193 0 6.838-3.539 11.192-9.918 11.192-2.457.037-4.568-1.3-5.261-2.553zm9.594-8.619c0-2.073-.475-3.73-1.423-4.876a4.603 4.603 0 00-5.636-1.3 4.6 4.6 0 00-1.607 1.3c-.906 1.167-1.381 2.76-1.381 4.876 0 2.116.475 3.73 1.381 4.914a4.63 4.63 0 003.631 1.72 4.637 4.637 0 003.612-1.762c.927-1.168 1.401-2.804 1.401-4.872h.022zm29.435 1.807h-14.805a4.938 4.938 0 005.079 4.866c2.18 0 3.933-1.109 5.212-3.331l4.264 1.599c-1.834 4.183-5.079 6.278-9.78 6.278-7.387 0-10.334-5.98-10.334-11.107 0-5.127 2.942-11.096 10.355-11.096 3.417 0 6.193 1.407 7.734 3.587a11.992 11.992 0 012.302 7.045l-.027 2.159zm-14.688-4.19h9.268c-.6-2.728-2.139-4.094-4.615-4.098a4.706 4.706 0 00-4.653 4.104V24.4zm24.852 13.303h-5.378V15.85h5.378v3.555c1.561-2.473 3.906-3.907 6.465-3.907a8.606 8.606 0 012.664.437l-.996 4.989a4.393 4.393 0 00-2.255-.608c-3.426 0-5.862 2.99-5.862 9.63l-.016 7.755zm13.195-21.787v-5.447l5.33-3.363v8.794h5.751v4.568h-5.735v9.417c0 2.585.949 3.534 2.846 3.534a4.313 4.313 0 002.068-.533l1.252 4.311a8.318 8.318 0 01-3.539.779c-4.999 0-7.994-2.719-7.994-7.995V15.914h.021z" fill="#000"/><path d="M7.308 12.663h12.663c.756 0 1.506.137 2.212.405l2.26-2.26A6.332 6.332 0 0019.97 0H7.308A6.332 6.332 0 00.977 6.332v12.663a6.326 6.326 0 016.331-6.332z" fill="#0AB464"/><path d="M22.183 13.068l-10.206 10.19A6.337 6.337 0 01.955 18.995v12.657a6.332 6.332 0 0011.022 4.264l12.466-12.45a6.32 6.32 0 00-2.26-10.398z" fill="#95D46A"/><path d="M7.307 25.32a6.327 6.327 0 004.669-2.062l10.185-10.18a6.22 6.22 0 00-2.19-.415H7.306a6.331 6.331 0 100 12.658z" fill="#79C9A3"/></svg>