<svg width="300" height="100" fill="none" xmlns="http://www.w3.org/2000/svg"><path d="M67.018 77.75H33.486c-6.167 0-10.984-4.958-10.984-10.87V32.93c0-5.912 4.817-10.68 10.984-10.68h33.532c5.974 0 10.984 4.768 10.984 10.87v33.95c0 5.722-5.01 10.68-10.984 10.68z" fill="url(#paint0_linear_4768_14423)"/><path fill-rule="evenodd" clip-rule="evenodd" d="M32.905 56.936V46.53H43.31v10.406h10.406v10.407H32.904V56.936zm34.69-13.874V53.47H57.188V43.061H46.783V32.656h20.812v10.406z" fill="#FEFEF9"/><path fill-rule="evenodd" clip-rule="evenodd" d="M96.002 32l4.773 4.749h16.013V68h4.927V36.75h20.787L138.037 32H96.002z" fill="#282B38"/><path d="M182.758 36.663c6.605 0 11.981 5.102 11.981 11.369v3.935c0 6.267-5.376 11.368-11.981 11.368h-20.892L165.399 68h17.205c9.217 0 16.897-7.141 16.897-16.032v-3.935c0-8.745-7.527-16.032-16.897-16.032h-17.205c-9.217 0-16.897 7.141-16.897 16.032v5.1h4.915v-5.1c0-6.267 5.377-11.369 11.982-11.369h17.359z" fill="#282B38"/><path fill-rule="evenodd" clip-rule="evenodd" d="M213.01 56.567h26.933c8.259 0 13.558-4.826 13.558-12.284 0-7.458-5.299-12.284-13.558-12.284h-34.442l4.208 4.68h30.234c7.48 0 8.571 4.826 8.571 7.604 0 2.779-1.091 7.604-8.571 7.604h-31.792v.026h-.128v16.085h4.987V56.567zM277.502 32v36h-4.945V39.94l-4.582 5.884-3.974-2.798 8.551-10.982.005.003V32h4.945z" fill="#282B38"/><defs><linearGradient id="paint0_linear_4768_14423" x1="19.89" y1="112.438" x2="80.91" y2="112.238" gradientUnits="userSpaceOnUse"><stop stop-color="#408E9B"/><stop offset="1" stop-color="#4AB6DA"/></linearGradient></defs></svg>