<svg width="888" height="143" viewBox="0 0 888 143" fill="none" xmlns="http://www.w3.org/2000/svg">
<path d="M81.2678 8.04419V26.8972H50.1895V111.172H31.2473V26.8744H0V8.04419H81.2678Z" fill="#171E26"/>
<path d="M164.665 37.4899L123.378 140.618H103.241L114.769 109.238L86.4625 37.4899H106.599L125.564 88.6102L144.382 37.4899H164.665Z" fill="#171E26"/>
<path d="M176.486 37.4899H195.451V140.618H176.486V37.4899ZM198.369 102.673C191.946 95.1638 188.738 85.7127 188.746 74.3198C188.753 62.9268 191.961 53.4719 198.369 45.955C201.264 42.3824 204.919 39.5146 209.063 37.5645C213.207 35.6144 217.732 34.6322 222.303 34.691C226.989 34.6391 231.628 35.6318 235.89 37.5986C240.152 39.5653 243.931 42.4575 246.959 46.0687C253.675 53.6539 257.029 63.0823 257.021 74.3539C257.014 85.6255 253.66 95.0539 246.959 102.639C243.931 106.25 240.152 109.142 235.89 111.109C231.628 113.076 226.989 114.069 222.303 114.017C217.725 114.072 213.193 113.08 209.048 111.115C204.903 109.151 201.253 106.265 198.369 102.673ZM201.581 58.9256C197.648 63.067 195.453 68.5824 195.453 74.3198C195.453 80.0571 197.648 85.5726 201.581 89.7139C205.678 93.636 211.108 95.8222 216.754 95.8222C222.399 95.8222 227.83 93.636 231.927 89.7139C235.884 85.6327 238.091 80.1416 238.068 74.4298C238.045 68.7179 235.794 63.2451 231.804 59.1965C227.813 55.1479 222.404 52.8493 216.747 52.7986C211.091 52.7479 205.642 54.9491 201.581 58.9256Z" fill="#171E26"/>
<path d="M342.256 13.733C336.907 18.8454 326.841 22.3801 312.056 24.3371C305.044 25.1452 298.622 28.6894 294.162 34.213C289.73 39.7123 287.225 47.2254 286.646 56.7524C289.243 51.9461 293.155 47.9962 297.915 45.3746C302.848 42.5692 308.423 41.1177 314.085 41.1648C318.383 41.0883 322.646 41.9587 326.577 43.7154C330.508 45.4721 334.013 48.0728 336.847 51.3365C342.977 58.1101 346.042 66.5069 346.042 76.527C346.042 87.2372 342.417 96.1271 335.168 103.196C327.919 110.266 318.795 113.82 307.797 113.857C300.706 113.959 293.713 112.182 287.514 108.703C281.617 105.401 276.8 100.435 273.654 94.4128C269.665 86.8276 267.67 76.8569 267.67 64.5006C267.67 47.616 271.272 34.4064 278.477 24.8718C285.681 15.3373 295.894 9.64837 309.115 7.80517C320.985 6.23504 328.914 3.6333 332.903 0L342.256 13.733ZM288.167 76.197C288.147 78.6754 288.666 81.1279 289.688 83.3812C290.711 85.6344 292.211 87.6332 294.083 89.2359C297.966 92.8022 303.056 94.7284 308.304 94.6177C313.253 94.7693 318.067 92.9697 321.725 89.6C323.48 88.0105 324.872 86.0547 325.804 83.8681C326.736 81.6814 327.186 79.3162 327.122 76.9365C327.169 74.5766 326.696 72.2357 325.738 70.083C324.779 67.9303 323.358 66.0196 321.578 64.4892C317.688 61.1273 312.689 59.3647 307.572 59.5513C302.539 59.3748 297.614 61.0486 293.712 64.2617C291.928 65.6876 290.495 67.509 289.522 69.5848C288.548 71.6606 288.062 73.9348 288.1 76.2311L288.167 76.197Z" fill="#171E26"/>
<path d="M485.328 9.63525H558.291V27.4642H504.304V112.798H485.328V9.63525Z" fill="#66B387"/>
<path d="M558.291 39.0808H577.256V142.209H558.291V39.0808ZM580.174 104.264C573.751 96.7548 570.54 87.3036 570.54 75.9107C570.54 64.5177 573.751 55.0628 580.174 47.5459C583.064 43.9705 586.717 41.1004 590.859 39.1499C595.001 37.1995 599.527 36.2191 604.097 36.2819C608.784 36.2291 613.425 37.2214 617.689 39.1882C621.953 41.1549 625.734 44.0475 628.764 47.6597C635.472 55.2449 638.826 64.6733 638.826 75.9449C638.826 87.2164 635.472 96.6448 628.764 104.23C625.734 107.842 621.953 110.735 617.689 112.701C613.425 114.668 608.784 115.661 604.097 115.608C599.522 115.661 594.994 114.668 590.853 112.704C586.712 110.739 583.065 107.854 580.185 104.264H580.174ZM583.386 60.5165C580.335 63.5198 578.247 67.3779 577.391 71.5921C576.535 75.8063 576.95 80.1829 578.584 84.1562C580.217 88.1295 582.993 91.5168 586.553 93.8803C590.113 96.2439 594.293 97.4751 598.553 97.4147C601.361 97.4869 604.154 96.9825 606.763 95.9323C609.372 94.882 611.743 93.3078 613.731 91.3049C617.689 87.2236 619.896 81.7325 619.873 76.0207C619.85 70.3088 617.599 64.836 613.609 60.7874C609.618 56.7388 604.209 54.4402 598.552 54.3895C592.895 54.3388 587.447 56.5401 583.386 60.5165Z" fill="#66B387"/>
<path d="M660.135 104.196C652.36 96.732 648.472 87.2505 648.472 75.7514C648.472 64.2522 652.36 54.7708 660.135 47.3069C667.918 39.8431 677.451 36.1112 688.734 36.1112C700.018 36.1112 709.551 39.8431 717.333 47.3069C725.116 54.7708 729.007 64.2522 729.007 75.7514C729.007 87.2505 725.116 96.732 717.333 104.196C709.558 111.66 700.025 115.392 688.734 115.392C677.443 115.392 667.91 111.66 660.135 104.196ZM673.657 60.289C669.681 64.4375 667.458 69.9842 667.458 75.7571C667.458 81.5299 669.681 87.0767 673.657 91.2252C677.748 95.1051 683.15 97.2648 688.762 97.2648C694.375 97.2648 699.777 95.1051 703.868 91.2252C707.843 87.0767 710.066 81.5299 710.066 75.7571C710.066 69.9842 707.843 64.4375 703.868 60.289C699.777 56.4091 694.375 54.2494 688.762 54.2494C683.15 54.2494 677.748 56.4091 673.657 60.289Z" fill="#66B387"/>
<path d="M741.56 112.741V39.0808H760.525V94.9685H786.792V39.0808H805.757V94.9685H832.023V39.0808H850.988V112.741H741.56Z" fill="#66B387"/>
<path d="M867.406 26.1103C866.332 25.0185 865.487 23.7192 864.922 22.2902C864.356 20.8611 864.082 19.3316 864.116 17.7932C864.068 16.2438 864.328 14.7005 864.882 13.2549C865.436 11.8092 866.272 10.4907 867.341 9.37757C868.409 8.26444 869.688 7.3794 871.102 6.775C872.515 6.1706 874.035 5.85913 875.57 5.85913C877.105 5.85913 878.625 6.1706 880.039 6.775C881.452 7.3794 882.731 8.26444 883.8 9.37757C884.868 10.4907 885.704 11.8092 886.258 13.2549C886.812 14.7005 887.073 16.2438 887.024 17.7932C887.063 19.3313 886.793 20.8615 886.229 22.291C885.665 23.7206 884.82 25.0199 883.745 26.1103C881.57 28.2823 878.635 29.5005 875.576 29.5005C872.517 29.5005 869.581 28.2823 867.406 26.1103ZM866.167 112.741V39.081H884.985V112.741H866.167Z" fill="#66B387"/>
<path d="M379.87 56.7296C383.81 51.8685 389.262 48.4961 395.341 47.1609C388.839 46.4441 381.921 49.2658 377.098 54.1582C372.116 59.1325 369.189 65.8292 368.906 72.8974C368.782 76.3617 369.231 79.8225 370.235 83.1374C371.238 86.4559 372.869 89.5469 375.036 92.2397C377.178 94.9345 379.868 97.1343 382.924 98.6908C385.886 100.216 389.178 100.971 392.502 100.887C386.446 99.3529 381.203 95.5334 377.853 90.2144C374.693 85.0747 373.189 79.0724 373.548 73.034C373.912 67.0647 376.123 61.3616 379.87 56.7296Z" fill="#171E26"/>
<path d="M472.53 30.0943L456.067 29.423C455.346 21.7089 454.613 14.0516 453.813 5.90515L439.773 8.92026L420.921 12.9594L410.779 15.1325C418.318 38.7983 415.816 60.6436 399.511 79.9062C418.667 64.6827 424.188 44.3848 421.191 20.7418L425.789 19.7633L429.417 18.9896L447.886 15.0415C448.506 19.9453 449.08 24.542 449.7 29.4458L430.544 29.3661C429.654 30.5039 430.048 31.6417 430.138 32.7795C432.11 55.7626 423.603 74.0695 405.889 88.2917C403.917 89.8732 402.057 91.614 400.04 93.3889C401.607 94.174 402.79 93.0362 403.995 92.4787C419.298 85.2652 428.786 73.0113 434.015 57.0824C435.94 50.8125 437.157 44.343 437.643 37.7971C446.804 37.2851 455.909 37.7971 465.42 37.7288C466.299 55.0572 460.597 70.3944 452.393 85.1286C456.379 82.7819 459.703 79.4448 462.05 75.4347C467.594 66.8673 470.04 57.2303 471.493 47.2748C472.514 41.61 472.862 35.8424 472.53 30.0943Z" fill="#66B387"/>
<path d="M403.173 41.6997C397.316 40.2067 391.166 40.3641 385.391 42.1548C379.487 44.0361 374.207 47.5146 370.123 52.2128L368.68 54.0787C368.444 54.3859 368.184 54.6817 367.959 55.0117L367.328 56.0129C366.922 56.6842 366.46 57.3328 366.077 58.0268L365.018 60.1544C363.661 63.0393 362.717 66.1039 362.212 69.2567L361.998 70.4513L361.897 71.6574C361.897 72.4538 361.739 73.273 361.728 74.0808C361.694 75.7076 361.773 77.3349 361.964 78.9506C362.136 80.5792 362.415 82.1946 362.798 83.7861C363.001 84.5826 363.283 85.3563 363.519 86.1413L363.88 87.2791L364.364 88.4169C366.216 93.1057 369.054 97.3331 372.681 100.807C373.26 101.411 373.873 101.981 374.517 102.514L376.489 104.084C379.217 106.083 382.205 107.691 385.369 108.863L386.563 109.318L387.792 109.659C388.603 109.875 389.425 110.148 390.259 110.319C391.932 110.673 393.626 110.913 395.33 111.036C397.043 111.176 398.763 111.203 400.48 111.116C401.336 111.047 402.193 110.922 403.049 110.831C403.477 110.774 403.917 110.74 404.334 110.672L405.607 110.399C409.031 109.723 412.341 108.55 415.433 106.917L417.743 105.643C418.498 105.188 419.197 104.642 419.929 104.152L421.056 103.39C421.416 103.128 421.732 102.821 422.07 102.537L424.087 100.796C426.718 98.3466 428.994 95.5351 430.848 92.4446C429.232 95.7003 427.177 98.7138 424.741 101.399L422.814 103.333C422.487 103.652 422.183 104.004 421.833 104.289L420.785 105.165C420.064 105.734 419.388 106.303 418.644 106.883L416.391 108.408C413.259 110.374 409.867 111.883 406.317 112.89L404.987 113.289L403.635 113.562C402.722 113.732 401.809 113.937 400.897 114.085C399.046 114.32 397.184 114.442 395.319 114.449C393.435 114.456 391.554 114.342 389.685 114.108C388.749 113.983 387.837 113.767 386.901 113.596L385.515 113.323L384.163 112.925C380.499 111.906 376.994 110.374 373.751 108.373L371.362 106.769C370.581 106.213 369.829 105.616 369.108 104.983C364.591 101.287 360.914 96.6542 358.325 91.3979L357.648 90.078L357.096 88.7127C356.736 87.8025 356.341 86.8922 356.026 85.9592C355.403 84.0806 354.91 82.1608 354.55 80.2135C354.167 78.2606 353.915 76.284 353.795 74.297C353.795 73.3071 353.795 72.3059 353.795 71.3046V69.8028L353.93 68.3123C354.255 64.2896 355.139 60.3331 356.555 56.5591L357.682 53.7488C358.099 52.8272 358.606 51.9397 359.068 51.0409L359.778 49.6869C360.037 49.2545 360.33 48.8336 360.612 48.4126L362.291 45.8639C367.204 39.2153 373.83 34.0558 381.447 30.9477C389.24 27.8362 397.729 26.9429 405.99 28.3649L403.173 41.6997Z" fill="#171E26"/>
</svg>
