<?xml version="1.0" encoding="utf-8"?>
<!-- Generator: Adobe Illustrator 25.4.8, SVG Export Plug-In . SVG Version: 6.00 Build 0)  -->
<svg version="1.1" id="Слой_1" xmlns="http://www.w3.org/2000/svg" xmlns:xlink="http://www.w3.org/1999/xlink" x="0px" y="0px"
	 viewBox="0 0 1200 800" style="enable-background:new 0 0 1200 800;" xml:space="preserve">
<style type="text/css">
	.st0{fill:#303030;}
	.st1{fill:#223842;}
	.st2{fill:#FA4C4C;}
	.st3{fill:#231F20;}
	.st4{fill:#506675;}
	.st5{fill:#5D6B7F;}
	.st6{fill:#4C5C75;}
	.st7{fill:#E3E4E5;}
	.st8{fill:#423A3D;}
	.st9{fill:#F5F5F5;}
	.st10{fill:#516B72;}
	.st11{fill:#27363F;}
	.st12{fill:#CED0D1;}
	.st13{fill:#0C9177;}
	.st14{fill:#414042;}
	.st15{fill:#191F21;}
	.st16{fill:#7D8C9E;}
	.st17{fill:#9790A0;}
	.st18{fill-rule:evenodd;clip-rule:evenodd;fill:#005C70;stroke:#005C70;stroke-width:0.2865;stroke-miterlimit:22.9256;}
	.st19{fill-rule:evenodd;clip-rule:evenodd;fill:#F61152;stroke:#F61152;stroke-width:0.2707;stroke-miterlimit:22.9256;}
	.st20{fill-rule:evenodd;clip-rule:evenodd;fill:#1A1A1A;stroke:#1A1A1A;stroke-width:0.2865;stroke-miterlimit:22.9256;}
	.st21{fill-rule:evenodd;clip-rule:evenodd;fill:#FFFFFF;stroke:#FFFFFF;stroke-width:0.2865;stroke-miterlimit:22.9256;}
	.st22{fill-rule:evenodd;clip-rule:evenodd;fill:#FF1F4B;stroke:#FF1F4B;stroke-width:0.2865;stroke-miterlimit:22.9256;}
	.st23{fill-rule:evenodd;clip-rule:evenodd;fill:#FC7667;stroke:#FC7667;stroke-width:0.2865;stroke-miterlimit:22.9256;}
	.st24{fill-rule:evenodd;clip-rule:evenodd;fill:#FFA673;stroke:#FFA673;stroke-width:0.2865;stroke-miterlimit:22.9256;}
	.st25{fill-rule:evenodd;clip-rule:evenodd;fill:#FFFFFF;stroke:#FFFFFF;stroke-width:0.2707;stroke-miterlimit:22.9256;}
	.st26{fill-rule:evenodd;clip-rule:evenodd;fill:#1B7051;stroke:#1B724B;stroke-width:0.2707;stroke-miterlimit:22.9256;}
	.st27{fill-rule:evenodd;clip-rule:evenodd;fill:#D4073D;stroke:#D4073D;stroke-width:0.2707;stroke-miterlimit:22.9256;}
	.st28{fill-rule:evenodd;clip-rule:evenodd;fill:#FFFFFF;stroke:#FFFFFF;stroke-width:0.2752;stroke-miterlimit:22.9256;}
	.st29{fill-rule:evenodd;clip-rule:evenodd;fill:#1F5646;stroke:#1F5646;stroke-width:0.2805;stroke-miterlimit:22.9256;}
	.st30{fill-rule:evenodd;clip-rule:evenodd;fill:#FF5757;stroke:#FF5757;stroke-width:0.2865;stroke-miterlimit:22.9256;}
	.st31{fill-rule:evenodd;clip-rule:evenodd;fill:#0F0F0F;stroke:#0F0F0F;stroke-width:0.2865;stroke-miterlimit:22.9256;}
	.st32{fill-rule:evenodd;clip-rule:evenodd;fill:#AB0931;stroke:#AB0931;stroke-width:0.2865;stroke-miterlimit:22.9256;}
	.st33{fill-rule:evenodd;clip-rule:evenodd;fill:#06383C;stroke:#06383C;stroke-width:0.2865;stroke-miterlimit:22.9256;}
	
		.st34{opacity:0.5;fill-rule:evenodd;clip-rule:evenodd;fill:#98CFDC;stroke:#98CFDC;stroke-width:0.2865;stroke-miterlimit:22.9256;}
	.st35{fill:#4BEBBE;}
	.st36{opacity:0.1;}
</style>
<g>
	<g>
		<path class="st0" d="M500.69,433.28c0,0.69-0.18,1.3-0.53,1.82c-0.36,0.53-0.98,0.94-1.87,1.24c-0.89,0.3-2.03,0.56-3.41,0.78
			c-1.37,0.22-3.19,0.33-5.4,0.33c-2.05,0-3.81-0.11-5.28-0.33c-1.48-0.21-2.63-0.48-3.48-0.78c-0.85-0.3-1.44-0.71-1.8-1.24
			c-0.36-0.51-0.54-1.12-0.54-1.82V287.07h-0.26l-59.16,146.86c-0.26,0.61-0.62,1.12-1.1,1.55c-0.48,0.44-1.17,0.81-2.08,1.11
			c-0.89,0.3-1.99,0.51-3.24,0.65c-1.26,0.13-2.75,0.19-4.48,0.19c-1.81,0-3.38-0.08-4.67-0.25c-1.3-0.18-2.38-0.42-3.24-0.72
			c-0.86-0.3-1.53-0.67-2.01-1.1c-0.48-0.43-0.81-0.91-0.98-1.43l-56.56-146.86h-0.13v146.21c0,0.69-0.18,1.3-0.54,1.82
			c-0.35,0.53-0.97,0.94-1.87,1.24c-0.9,0.3-2.05,0.56-3.48,0.78c-1.42,0.22-3.25,0.33-5.48,0.33c-2.14,0-3.92-0.11-5.34-0.33
			c-1.43-0.21-2.56-0.48-3.41-0.78c-0.85-0.3-1.42-0.71-1.73-1.24c-0.31-0.51-0.47-1.12-0.47-1.82V278.9c0-3.64,0.96-6.23,2.89-7.78
			c1.93-1.56,4.09-2.35,6.46-2.35h13.7c2.81,0,5.27,0.27,7.37,0.79c2.11,0.52,3.95,1.34,5.53,2.46c1.58,1.13,2.9,2.56,3.95,4.29
			c1.05,1.73,1.98,3.76,2.77,6.1l48.01,121.56h0.64l49.95-121.17c0.97-2.59,2.02-4.8,3.17-6.62c1.14-1.82,2.39-3.26,3.75-4.35
			c1.37-1.07,2.87-1.85,4.54-2.33c1.67-0.48,3.61-0.72,5.81-0.72h14.37c1.32,0,2.56,0.2,3.75,0.59c1.19,0.39,2.2,1,3.04,1.81
			c0.83,0.83,1.51,1.87,2.04,3.12c0.52,1.26,0.78,2.79,0.78,4.61V433.28z"/>
		<path class="st0" d="M567.63,433.28c0,0.69-0.18,1.3-0.52,1.82c-0.35,0.53-0.95,0.94-1.82,1.24c-0.86,0.3-2.01,0.56-3.44,0.78
			c-1.42,0.22-3.22,0.33-5.38,0.33c-2.07,0-3.85-0.11-5.33-0.33c-1.47-0.21-2.63-0.48-3.5-0.78c-0.86-0.3-1.47-0.71-1.81-1.24
			c-0.35-0.51-0.52-1.12-0.52-1.82V272.15c0-0.69,0.19-1.3,0.59-1.82c0.39-0.52,1.04-0.93,1.94-1.23c0.91-0.31,2.07-0.56,3.51-0.79
			c1.42-0.21,3.14-0.32,5.12-0.32c2.16,0,3.96,0.12,5.38,0.32c1.43,0.22,2.58,0.48,3.44,0.79c0.87,0.3,1.48,0.7,1.82,1.23
			c0.35,0.52,0.52,1.12,0.52,1.82V433.28z"/>
		<path class="st0" d="M699.31,426.93c0,1.72-0.08,3.18-0.26,4.34c-0.17,1.18-0.46,2.17-0.84,3c-0.39,0.82-0.86,1.42-1.42,1.81
			c-0.56,0.39-1.23,0.59-2.01,0.59h-74.21c-1.99,0-3.88-0.67-5.65-2.01c-1.77-1.34-2.65-3.69-2.65-7.06V272.15
			c0-0.69,0.18-1.29,0.51-1.82c0.35-0.52,0.95-0.92,1.82-1.23c0.86-0.31,2.03-0.56,3.51-0.78c1.47-0.21,3.24-0.33,5.31-0.33
			c2.16,0,3.96,0.11,5.39,0.33c1.43,0.22,2.57,0.47,3.44,0.78c0.87,0.3,1.48,0.71,1.82,1.23c0.35,0.53,0.51,1.13,0.51,1.82v145.18
			h60.2c0.78,0,1.46,0.19,2.01,0.58c0.56,0.39,1.04,0.95,1.42,1.68c0.39,0.73,0.67,1.7,0.84,2.92
			C699.23,423.73,699.31,425.2,699.31,426.93"/>
		<path class="st0" d="M858.76,350.77c0,13.59-1.59,25.82-4.8,36.71c-3.2,10.9-7.97,20.18-14.34,27.84
			c-6.35,7.65-14.33,13.53-23.94,17.65c-9.59,4.11-20.8,6.15-33.6,6.15c-12.63,0-23.55-1.88-32.77-5.64
			c-9.2-3.76-16.81-9.22-22.82-16.41c-6.01-7.18-10.49-16.09-13.43-26.73c-2.94-10.64-4.42-22.88-4.42-36.71
			c0-13.23,1.6-25.26,4.8-36.07c3.2-10.81,8-20,14.4-27.56c6.41-7.57,14.4-13.41,24-17.52c9.6-4.11,20.8-6.17,33.61-6.17
			c12.36,0,23.13,1.86,32.31,5.58c9.16,3.72,16.8,9.14,22.9,16.28c6.09,7.13,10.63,15.95,13.62,26.47
			C857.27,325.16,858.76,337.2,858.76,350.77 M835.16,352.32c0-9.5-0.85-18.34-2.54-26.52c-1.69-8.17-4.49-15.27-8.42-21.28
			c-3.93-6-9.17-10.69-15.74-14.07c-6.57-3.38-14.68-5.07-24.36-5.07c-9.67,0-17.8,1.82-24.36,5.45
			c-6.57,3.64-11.9,8.48-16.01,14.53c-4.1,6.06-7.04,13.13-8.81,21.21c-1.77,8.09-2.65,16.59-2.65,25.5
			c0,9.85,0.83,18.93,2.46,27.24c1.64,8.31,4.4,15.46,8.29,21.47c3.89,6.01,9.09,10.69,15.61,14.01c6.53,3.33,14.72,5,24.56,5
			c9.76,0,17.97-1.82,24.62-5.45c6.64-3.62,12-8.54,16.07-14.72c4.05-6.18,6.95-13.33,8.68-21.47
			C834.28,370.02,835.16,361.41,835.16,352.32"/>
		<path class="st0" d="M1016.78,428.75c0.69,1.9,1.06,3.44,1.1,4.61c0.05,1.16-0.28,2.05-0.96,2.66c-0.7,0.6-1.85,0.99-3.45,1.17
			c-1.61,0.18-3.74,0.25-6.42,0.25c-2.68,0-4.82-0.06-6.42-0.19c-1.6-0.13-2.82-0.34-3.62-0.64c-0.83-0.3-1.44-0.71-1.82-1.23
			c-0.39-0.52-0.76-1.17-1.1-1.94l-14.4-40.88h-69.81l-13.76,40.35c-0.25,0.78-0.6,1.46-1.03,2.01c-0.43,0.56-1.06,1.04-1.89,1.43
			c-0.83,0.39-1.98,0.67-3.51,0.85c-1.51,0.18-3.47,0.25-5.9,0.25c-2.5,0-4.56-0.1-6.16-0.32c-1.6-0.21-2.72-0.61-3.37-1.23
			c-0.64-0.61-0.95-1.49-0.91-2.66c0.04-1.17,0.41-2.7,1.1-4.61l56.31-155.94c0.34-0.96,0.79-1.73,1.36-2.34
			c0.56-0.61,1.38-1.08,2.46-1.42c1.09-0.35,2.47-0.59,4.16-0.72c1.69-0.12,3.83-0.19,6.42-0.19c2.76,0,5.07,0.07,6.88,0.19
			c1.82,0.13,3.29,0.37,4.42,0.72c1.12,0.34,1.98,0.83,2.59,1.48s1.08,1.45,1.43,2.4L1016.78,428.75z M944.53,291.09h-0.13
			l-28.94,83.68h58.39L944.53,291.09z"/>
		<path class="st0" d="M1171.69,427.45c0,1.73-0.3,3.2-0.87,4.41c-0.58,1.21-1.35,2.21-2.28,2.99c-0.94,0.78-2,1.34-3.16,1.68
			c-1.15,0.35-2.32,0.52-3.48,0.52h-7.38c-2.32,0-4.36-0.24-6.1-0.72c-1.75-0.48-3.4-1.34-4.97-2.59c-1.56-1.26-3.13-2.97-4.69-5.13
			c-1.56-2.16-3.23-4.93-4.98-8.3l-51.22-95.49c-2.68-4.93-5.37-10.09-8.09-15.5c-2.72-5.41-5.25-10.66-7.59-15.76h-0.26
			c0.17,6.22,0.3,12.58,0.39,19.07c0.09,6.49,0.13,12.93,0.13,19.33v101.32c0,0.62-0.19,1.2-0.55,1.76
			c-0.37,0.56-0.99,0.99-1.85,1.29c-0.87,0.3-2.01,0.56-3.43,0.78c-1.41,0.22-3.22,0.33-5.4,0.33c-2.2,0-4-0.11-5.4-0.33
			c-1.42-0.21-2.54-0.48-3.35-0.78c-0.83-0.3-1.43-0.73-1.79-1.29c-0.37-0.56-0.54-1.14-0.54-1.76V278.38c0-3.46,0.97-5.91,2.94-7.4
			c1.95-1.46,4.1-2.2,6.42-2.2h10.98c2.6,0,4.75,0.22,6.49,0.65c1.75,0.44,3.31,1.15,4.7,2.15c1.38,0.99,2.71,2.37,4.01,4.15
			c1.3,1.77,2.65,4,4.07,6.68l39.38,73.69c2.43,4.5,4.76,8.88,7.02,13.17c2.26,4.29,4.42,8.5,6.52,12.65
			c2.09,4.16,4.16,8.24,6.2,12.26c2.05,4.03,4.08,8.07,6.08,12.14h0.13c-0.18-6.84-0.29-13.95-0.33-21.35
			c-0.04-7.39-0.06-14.51-0.06-21.35v-91.07c0-0.61,0.18-1.16,0.55-1.68c0.36-0.52,0.98-0.97,1.85-1.37
			c0.86-0.38,2.01-0.67,3.42-0.84c1.42-0.18,3.26-0.27,5.55-0.27c2.01,0,3.73,0.09,5.19,0.27c1.47,0.17,2.6,0.45,3.43,0.84
			c0.83,0.39,1.42,0.84,1.78,1.37c0.37,0.52,0.55,1.07,0.55,1.68V427.45z"/>
	</g>
</g>
<g>
	<polygon class="st1" points="92.28,599.61 215.33,599.61 217.95,594.33 89.66,594.33 	"/>
	<g>
		<path class="st2" d="M65.56,593.61c0,12.21-10.89,22.11-24.33,22.11c-13.44,0-24.33-9.9-24.33-22.11
			c0-12.21,10.89-22.11,24.33-22.11C54.66,571.51,65.56,581.4,65.56,593.61z"/>
		<path class="st3" d="M63.26,592.25c0.43-0.05,0.74-0.41,0.69-0.8c-0.49-3.64-2.05-7.11-4.49-10.03c-0.26-0.32-0.76-0.38-1.11-0.14
			c-0.35,0.24-0.42,0.69-0.15,1.01c2.27,2.73,3.72,5.96,4.18,9.34c0.05,0.36,0.39,0.63,0.78,0.63
			C63.2,592.26,63.23,592.26,63.26,592.25z M21.74,585.61c1.2-2.26,2.84-4.27,4.89-5.97c0.32-0.27,0.35-0.72,0.05-1.02
			c-0.29-0.29-0.79-0.31-1.12-0.05c-2.2,1.82-3.97,3.98-5.25,6.41c-0.19,0.36-0.02,0.79,0.37,0.96c0.11,0.05,0.23,0.07,0.34,0.07
			C21.32,586.02,21.6,585.87,21.74,585.61z M29.25,577.78c3.51-2.11,7.6-3.23,11.84-3.23c3.48,0,6.94,0.77,10,2.24
			c0.39,0.18,0.86,0.05,1.07-0.3c0.2-0.35,0.06-0.79-0.33-0.97c-3.28-1.57-7-2.41-10.73-2.41c-4.54,0-8.94,1.2-12.71,3.47
			c-0.36,0.22-0.46,0.67-0.22,1c0.15,0.21,0.4,0.32,0.66,0.32C28.97,577.9,29.12,577.86,29.25,577.78z"/>
		<path class="st1" d="M55.47,593.61c0,7.15-6.38,12.94-14.24,12.94c-7.87,0-14.24-5.79-14.24-12.94c0-7.15,6.38-12.94,14.24-12.94
			C49.09,580.67,55.47,586.47,55.47,593.61z"/>
		<path class="st4" d="M41.23,582.11c7.6,0,13.81,5.41,14.22,12.22c0.01-0.24,0.02-0.48,0.02-0.72c0-7.15-6.38-12.94-14.24-12.94
			c-7.87,0-14.24,5.79-14.24,12.94c0,0.24,0.01,0.48,0.02,0.72C27.41,587.52,33.62,582.11,41.23,582.11z"/>
	</g>
	<g>
		<path class="st2" d="M279.15,594.33c0,12.21-10.89,22.11-24.33,22.11c-13.44,0-24.33-9.9-24.33-22.11
			c0-12.21,10.89-22.11,24.33-22.11C268.25,572.23,279.15,582.12,279.15,594.33z"/>
		<path class="st3" d="M276.85,592.97c0.43-0.05,0.74-0.41,0.69-0.8c-0.5-3.64-2.05-7.11-4.49-10.03c-0.26-0.32-0.76-0.38-1.11-0.14
			c-0.35,0.24-0.42,0.69-0.15,1.01c2.27,2.73,3.72,5.96,4.18,9.34c0.05,0.36,0.39,0.63,0.78,0.63
			C276.79,592.98,276.82,592.97,276.85,592.97z M235.33,586.33c1.2-2.26,2.84-4.27,4.89-5.97c0.32-0.27,0.35-0.72,0.05-1.02
			c-0.29-0.29-0.79-0.31-1.12-0.05c-2.2,1.82-3.97,3.98-5.26,6.41c-0.19,0.36-0.02,0.79,0.37,0.96c0.11,0.05,0.23,0.07,0.34,0.07
			C234.91,586.74,235.19,586.59,235.33,586.33z M242.84,578.5c3.51-2.11,7.6-3.23,11.84-3.23c3.48,0,6.94,0.77,9.99,2.24
			c0.39,0.19,0.87,0.05,1.07-0.3c0.2-0.35,0.06-0.79-0.33-0.97c-3.28-1.57-7-2.4-10.73-2.4c-4.54,0-8.94,1.2-12.71,3.47
			c-0.36,0.22-0.46,0.67-0.22,1c0.15,0.21,0.4,0.32,0.66,0.32C242.55,578.62,242.71,578.58,242.84,578.5z"/>
		<path class="st1" d="M269.06,594.33c0,7.15-6.38,12.94-14.24,12.94c-7.87,0-14.24-5.79-14.24-12.94c0-7.15,6.38-12.94,14.24-12.94
			C262.68,581.39,269.06,587.19,269.06,594.33z"/>
		<path class="st4" d="M254.81,582.83c7.6,0,13.81,5.41,14.22,12.22c0.01-0.24,0.02-0.48,0.02-0.72c0-7.15-6.38-12.94-14.24-12.94
			c-7.87,0-14.24,5.79-14.24,12.94c0,0.24,0.01,0.48,0.02,0.72C241,588.24,247.21,582.83,254.81,582.83z"/>
	</g>
	<g>
		<ellipse class="st5" cx="101.36" cy="313.99" rx="7.88" ry="7.16"/>
		<path class="st6" d="M100.69,307.61H84.27c-3.88,0-7.02,2.86-7.02,6.38c0,3.52,3.14,6.38,7.02,6.38h16.42
			c3.88,0,7.02-2.86,7.02-6.38C107.71,310.47,104.57,307.61,100.69,307.61z"/>
		<path class="st7" d="M100.69,307.61H99.4c3.88,0,7.02,2.86,7.02,6.38c0,3.52-3.14,6.38-7.02,6.38h1.29c3.88,0,7.02-2.86,7.02-6.38
			C107.71,310.47,104.57,307.61,100.69,307.61z"/>
		<path class="st7" d="M78.17,317.15c1.21,1.92,3.49,3.22,6.1,3.22h16.42c2.61,0,4.89-1.3,6.1-3.22H78.17z"/>
		<path class="st5" d="M91.19,313.99c0,3.5-3.12,6.33-6.97,6.33c-3.85,0-6.97-2.84-6.97-6.33c0-3.5,3.12-6.33,6.97-6.33
			C88.07,307.66,91.19,310.49,91.19,313.99z"/>
	</g>
	<path class="st3" d="M225.28,594.05c-0.66,0-1.19-0.45-1.19-1.01c0-14.95,14.24-27.12,31.75-27.12c0.66,0,1.19,0.45,1.19,1.01v2.7
		c0,0.56-0.53,1.01-1.19,1.01c-14.46,0-26.22,10.04-26.22,22.39c0,0.56-0.53,1.01-1.19,1.01H225.28z"/>
	<path class="st8" d="M255.85,569.64c-14.46,0-26.22,10.04-26.22,22.39c0,0.56-0.53,1.01-1.19,1.01h-3.17
		c-0.59,0-1.08-0.37-1.17-0.85c-0.01,0.28-0.02,0.56-0.02,0.85c0,0.56,0.53,1.01,1.19,1.01h3.17c0.66,0,1.19-0.45,1.19-1.01
		c0-12.34,11.76-22.39,26.22-22.39c0.66,0,1.19-0.45,1.19-1.01v-1.01C257.04,569.19,256.51,569.64,255.85,569.64z"/>
	<path class="st9" d="M43.34,593.61c0,1.06-0.95,1.92-2.11,1.92c-1.17,0-2.11-0.86-2.11-1.92c0-1.06,0.95-1.92,2.11-1.92
		C42.39,591.69,43.34,592.55,43.34,593.61z"/>
	<path class="st1" d="M222.69,589.18c0-0.99-0.89-1.8-1.98-1.8H78.66c-1.09,0-1.98,0.8-1.98,1.8v5.03c0,0.99,0.89,1.8,1.98,1.8
		h174.29c1.09,0,1.98-0.8,1.98-1.8v-3h-32.24V589.18z"/>
	<path class="st10" d="M222.69,589.18c0-0.99-0.89-1.8-1.98-1.8H78.66c-1.09,0-1.98,0.8-1.98,1.8v2.04h146.01V589.18z"/>
	<path class="st11" d="M110.36,589.28c0,0.58-0.52,1.05-1.15,1.05H80.72c-0.64,0-1.15-0.47-1.15-1.05l0,0
		c0-0.58,0.52-1.05,1.15-1.05h28.48C109.85,588.23,110.36,588.7,110.36,589.28L110.36,589.28z"/>
	<path class="st12" d="M80.72,589.16h28.48c0.45,0,0.84,0.24,1.03,0.58c0.08-0.14,0.12-0.3,0.12-0.46c0-0.58-0.52-1.05-1.15-1.05
		H80.72c-0.64,0-1.15,0.47-1.15,1.05c0,0.17,0.04,0.32,0.12,0.46C79.88,589.4,80.27,589.16,80.72,589.16z"/>
	<path class="st13" d="M101.74,588.17l-48.59-58.74L70.59,355.7l1.87-38.35h11.72c2.18,0,3.96-1.61,3.96-3.59
		c0-1.98-1.77-3.59-3.96-3.59H48.15c-2.19,0-3.96,1.61-3.96,3.59c0,1.98,1.77,3.59,3.96,3.59h16.35l-5.74,37.4l-21.6,221.46
		L38,596.47c-0.1,0.99,0.71,1.86,1.8,1.95l1.81,0.14c1.09,0.09,2.05-0.64,2.14-1.63l5.06-19.48l2.35-27.52l30.81,38.3
		c1.17,1.32,2.23,1.32,3.33,1.32h15.75C102.13,589.54,102.44,588.92,101.74,588.17z"/>
	<polygon class="st7" points="42.93,517.13 54.29,518.06 54.11,519.91 42.74,519.05 	"/>
	<path class="st14" d="M85.31,311.9c0,0.3-0.27,0.54-0.59,0.54H59.39c-0.33,0-0.59-0.24-0.59-0.54l0,0c0-0.3,0.27-0.54,0.59-0.54
		h25.32C85.04,311.36,85.31,311.6,85.31,311.9L85.31,311.9z"/>
	<path class="st14" d="M62.96,349.85c-0.05,0-0.1,0-0.15-0.01c-0.65-0.07-1.11-0.61-1.03-1.2l3.52-25.91
		c0.08-0.59,0.68-1.01,1.32-0.94c0.65,0.07,1.11,0.61,1.03,1.2l-3.52,25.91C64.06,349.45,63.55,349.85,62.96,349.85z"/>
	<path class="st14" d="M41.09,575.63c-0.03,0-0.07,0-0.1,0c-0.65-0.05-1.14-0.57-1.08-1.17L60.5,357.64
		c0.06-0.59,0.63-1.03,1.28-0.98c0.65,0.05,1.14,0.57,1.08,1.17L42.27,574.64C42.22,575.21,41.7,575.63,41.09,575.63z"/>
	<path class="st6" d="M60.92,494.77l-1.37-0.11l0.37-3.75c0.03-0.3-0.21-0.56-0.54-0.59l-15.79-1.29c-0.33-0.03-0.61,0.19-0.64,0.49
		l-2.67,26.85c-0.03,0.3,0.21,0.56,0.54,0.59l15.79,1.29c0.33,0.03,0.62-0.19,0.64-0.49l0.39-3.95l1.47,0.11
		c0.65,0.05,1.23-0.39,1.28-0.98l1.59-17.01C62.06,495.34,61.58,494.82,60.92,494.77z"/>
	<path class="st15" d="M44.32,514.02c-0.04,0.37-0.4,0.64-0.81,0.61l0,0c-0.41-0.03-0.71-0.36-0.67-0.73l2.05-20.63
		c0.04-0.37,0.4-0.64,0.81-0.61l0,0c0.41,0.03,0.71,0.36,0.67,0.73L44.32,514.02z"/>
	<path class="st14" d="M40.4,595.23c-0.55,0-0.99-0.4-0.99-0.9v-14.86c0-0.5,0.44-0.9,0.99-0.9c0.55,0,0.99,0.4,0.99,0.9v14.86
		C41.39,594.83,40.95,595.23,40.4,595.23z"/>
	<g>
		<path class="st6" d="M51.09,307.61H34.67c-3.88,0-7.02,2.86-7.02,6.38c0,3.52,3.14,6.38,7.02,6.38h16.42
			c3.88,0,7.02-2.86,7.02-6.38C58.11,310.47,54.97,307.61,51.09,307.61z"/>
		<path class="st7" d="M28.57,317.15c1.21,1.92,3.49,3.22,6.1,3.22h16.42c2.61,0,4.89-1.3,6.1-3.22H28.57z"/>
		<path class="st5" d="M42.02,313.99c0,3.95-3.53,7.16-7.88,7.16s-7.88-3.2-7.88-7.16c0-3.95,3.53-7.16,7.88-7.16
			S42.02,310.04,42.02,313.99z"/>
		<path class="st16" d="M35.53,306.83c-0.23,0-0.46,0.01-0.69,0.03c4.03,0.32,7.19,3.39,7.19,7.13c0,3.74-3.16,6.81-7.19,7.13
			c0.23,0.02,0.46,0.03,0.69,0.03c4.35,0,7.88-3.2,7.88-7.16C43.41,310.04,39.88,306.83,35.53,306.83z"/>
	</g>
	<path class="st14" d="M89.96,581.07c-0.36,0-0.72-0.15-0.95-0.43l-33.63-40.77c-0.39-0.48-0.29-1.15,0.24-1.51
		c0.52-0.36,1.27-0.26,1.66,0.22l33.63,40.77c0.39,0.48,0.29,1.15-0.24,1.51C90.45,581,90.2,581.07,89.96,581.07z"/>
	<polygon class="st17" points="90.97,596.97 90.49,596.01 217.12,596.01 216.64,596.97 	"/>
</g>
<g>
	<path class="st18" d="M217.61,572.07c0,0.12,0.03,0.93,0.05,1.78c0.01,0.43,0.04,0.95,0.12,1.61c0,0,0,0,0,0
		c0.21,1.88,0.59,3.43,0.98,5.01c0.6,2.43,1.23,4.9-1.45,7.08c-2.69,2.18-8.69,4.08-14.54,5.17c-5.84,1.09-11.52,1.38-15.14,0.11
		c-3.62-1.27-5.17-4.1-5.17-7.67c0.01-3.57,1.58-7.89,5.41-10.8c3.83-2.91,9.93-4.4,14.43-4.19c4.49,0.21,7.38,2.12,8.65,2.73
		c0.31,0.15,0.54,0.25,0.79,0.18c2.26-0.67,0.02-13.79-2.39-26.96c-4.89-26.73-5.68-27.23-6.92-35.64
		c-4.99-33.61,3.63-52.58-0.21-78.51c0,0-1.54-10.42-0.56-10.58c0.53-0.09,1.41,5.75,3.2,5.79c1.89,0.04,2.92-6.24,4.01-6.16
		c2.95,0.23,1.38,42.11,1.38,42.11c-1.12,29.93-2,24.81-1.7,33.47C209.49,523.09,217.61,569.72,217.61,572.07z"/>
	<path class="st18" d="M165.85,412.9c5.68,7.28-10.81,23.59-19.76,44.94c-7.52,17.93-7.33,33.71-7.21,43.84
		c0.2,16.22,4.06,65.66,3.96,66.69c0,0.03-0.08,0.72-0.08,1.61c0,0,0,0,0,0c-0.03,1.89,0.15,3.48,0.33,5.09
		c0.29,2.48,0.6,5.01-2.35,6.85c-2.95,1.84-9.15,3-15.09,3.37c-5.94,0.38-11.61-0.03-15.03-1.73c-3.43-1.7-4.61-4.69-4.14-8.24
		c0.47-3.54,2.58-7.64,6.76-10.06c4.18-2.42,10.42-3.16,14.85-2.41c4.43,0.75,7.05,3,8.23,3.76c0.39,0.25,0.62,0.34,0.76,0.27
		c0.57-0.27,0.43-1.91,0.38-2.46c-1.14-12.82-0.93-25.76-2.78-38.5c-0.68-4.69-1.21-9.4-1.85-14.09
		c-5.27-38.66,20.05-102.03,30.82-100.54C164.71,411.44,165.37,412.28,165.85,412.9z"/>
	<path class="st18" d="M138.61,352.98c-0.21-3.53-0.77-8.76-2.44-14.11c-1.67-5.35-4.44-10.83-7.74-14.25
		c-3.3-3.42-7.13-4.77-10.86-5.99c-3.73-1.22-7.36-2.32-9.34-2.46c-1.98-0.14-2.31,0.67-3.44,1.57c-1.13,0.91-3.07,1.91-5.2,2.23
		c-2.14,0.32-4.47-0.05-5.76-0.93c-1.29-0.88-1.52-2.27-0.86-3.28c0.67-1.02,2.24-1.66,2.12-2.01c-0.12-0.35-1.92-0.41-3.98-1.27
		c-2.06-0.86-4.39-2.51-5.23-4.89c-0.84-2.38-0.21-5.49,1.38-7.59c1.59-2.09,4.13-3.17,6.96-3.21c2.84-0.04,5.97,0.96,8.82,2.61
		c2.85,1.65,5.43,3.96,6.7,5.81c1.27,1.85,1.24,3.24,1.04,4.29c-0.21,1.05-0.59,1.75-0.61,2.19c-0.02,0.44,0.34,0.61,2.28,1.22
		c1.94,0.61,5.47,1.66,9.11,3.06c3.64,1.4,7.38,3.15,10.35,6.27c2.97,3.13,5.17,7.63,6.88,12.21c1.71,4.58,2.93,9.25,3.85,13.48
		c0.92,4.24,1.55,8.05,1.38,10.34c-0.17,2.29-1.14,3.07-2.19,3.14c-1.05,0.07-2.19-0.58-2.68-1.82
		C138.67,358.35,138.82,356.51,138.61,352.98z"/>
	<path class="st19" d="M180.71,257.2c-21.94,25.62-59.56,78.53-78.13,105.05C84.01,388.78,84.5,388.9,91.6,397.08
		c7.1,8.17,20.81,24.39,40.61,35.08c19.8,10.69,45.68,15.84,68.84,17.27c23.15,1.43,43.58-0.87,59.36-9.54
		c15.78-8.68,26.91-23.73,30.45-33.04c3.54-9.3-0.52-12.86-14.39-40.56c-13.87-27.7-37.57-79.54-52.55-106.3
		C208.92,233.25,202.65,231.58,180.71,257.2z"/>
	<path class="st20" d="M157.58,337.34c3.39-0.79,9.35-1.38,16.23-0.39c6.88,0.99,14.7,3.55,19.48,5.71
		c4.78,2.17,6.53,3.94,6.64,6.76c0.11,2.82-1.41,6.69-5.49,11c-4.07,4.31-10.7,9.06-17.69,10.72c-7,1.66-14.36,0.22-18.64-4.54
		c-4.28-4.76-5.46-12.85-5.87-17.81c-0.42-4.96-0.06-6.8,0.53-8.23C153.35,339.14,154.19,338.14,157.58,337.34z"/>
	<path class="st21" d="M157.58,337.34c3.39-0.79,9.35-1.38,16.23-0.39c5.1,0.73,10.72,2.33,15.23,3.99
		c-0.27,0.41-0.65,0.8-1.11,1.22c-1.25,1.14-3.14,2.55-6.04,3.4c-2.9,0.86-6.83,1.17-10.76,0.64c-3.93-0.53-7.88-1.91-10.49-4.07
		c-1.67-1.37-2.8-3.05-3.52-4.68C157.26,337.42,157.42,337.38,157.58,337.34z"/>
	<path class="st22" d="M199.55,352.27c-0.67,2.37-2.27,5.15-5.11,8.15c-4.07,4.31-10.7,9.06-17.69,10.72
		c-7,1.66-14.36,0.22-18.64-4.54c-1.78-1.98-3.02-4.54-3.9-7.21c2.83-1.74,6.11-3.48,9.44-4.87c6.44-2.67,13.09-3.99,18.78-4.27
		c5.69-0.28,10.41,0.48,14.21,1.28C197.69,351.76,198.67,351.99,199.55,352.27z"/>
	<path class="st23" d="M199.55,352.27c-0.15,0.51-0.34,1.05-0.57,1.6c-0.42,0.49-0.86,0.99-1.34,1.49
		c-4.75,5.03-12.47,10.57-20.63,12.5c-7.93,1.88-16.27,0.35-21.31-4.84c-0.59-1.16-1.08-2.38-1.49-3.63
		c2.83-1.74,6.11-3.48,9.44-4.87c6.44-2.67,13.09-3.99,18.78-4.27c5.69-0.28,10.41,0.48,14.21,1.28
		C197.69,351.76,198.67,351.99,199.55,352.27z"/>
	<path class="st24" d="M223.01,349.98c3.97,0.51,6.99,2.31,6.76,4.01c-0.23,1.7-3.64,2.66-7.6,2.15c-3.97-0.51-6.99-2.31-6.76-4.01
		C215.64,350.43,219.05,349.47,223.01,349.98z"/>
	<path class="st25" d="M93.15,376c-8.63,13.2-7.14,14.66-1.56,21.08c7.1,8.17,20.81,24.39,40.61,35.08
		c19.8,10.69,45.68,15.84,68.84,17.27c23.15,1.43,43.58-0.87,59.36-9.54c15.78-8.68,26.91-23.73,30.45-33.04
		c1.79-4.71,1.64-7.94-0.75-13.58c-3.23,4.94-7.15,9.91-10.73,14.16c-3.65,4.33-6.94,7.92-14.55,12.08
		c-7.6,4.16-19.51,8.89-31.71,11.05c-12.2,2.17-24.68,1.77-38.22,0.23c-13.54-1.54-28.13-4.21-43.43-10.47
		c-15.3-6.26-31.3-16.12-45.27-29.89C101.6,385.91,97.22,380.95,93.15,376z"/>
	<path class="st26" d="M88.29,384.38c-2.67,5.95-0.78,7.99,3.31,12.69c7.1,8.17,20.81,24.39,40.61,35.08
		c19.8,10.69,45.68,15.84,68.84,17.27c23.15,1.43,43.58-0.87,59.36-9.54c15.78-8.68,26.91-23.73,30.45-33.04
		c1.11-2.93,1.47-5.29,1.01-8.01c-1.09,2.07-2.28,4.06-3.58,6.07c-3.27,5.03-7.27,10.11-10.92,14.45
		c-3.65,4.33-6.94,7.92-14.55,12.08c-7.6,4.16-19.51,8.89-31.71,11.05c-12.2,2.17-24.68,1.77-38.22,0.23
		c-13.54-1.54-28.13-4.21-43.43-10.47c-15.3-6.26-31.3-16.12-45.27-29.89C98.5,396.75,93.14,390.49,88.29,384.38z"/>
	<path class="st27" d="M272.23,431.6c9.47-8.18,16.05-17.98,18.62-24.75c3.54-9.3-0.52-12.86-14.39-40.56
		c-13.87-27.7-37.57-79.54-52.55-106.3c-4.87-8.69-8.81-14.73-12.68-18.05c3.3,7.21,6.75,16.44,11.2,29.31
		c11.47,33.21,29.53,90.62,39.76,125.21C266.89,412.39,269.93,423.47,272.23,431.6z"/>
	<path class="st28" d="M267.94,417.76c5.33-3.41,8.17-6.56,11.26-10.25c3.63-4.34,7.6-9.41,10.87-14.44
		c2.42,5.75,2.58,9.05,0.77,13.85c-2.6,6.9-9.27,16.89-18.86,25.23C270.84,428.13,269.53,423.41,267.94,417.76z"/>
	<path class="st29" d="M270.17,426.9c2.77-2.29,4.79-4.58,6.92-7.1c3.78-4.49,7.93-9.74,11.3-14.93c1.34-2.07,2.56-4.12,3.69-6.25
		c0.53,2.76,0.18,5.16-0.95,8.16c-2.61,6.93-9.41,17.04-19.27,25.57C271.33,430.67,270.77,428.85,270.17,426.9z"/>
	<g>
		<path class="st30" d="M227.98,402.02c2.59,0.99,7.12,7.5,8.03,11.92c0.91,4.42-1.79,6.75-4.41,7.6c-2.63,0.85-5.18,0.22-6.42-1.94
			c-1.24-2.15-1.18-5.83-0.81-9.94C224.73,405.56,225.39,401.03,227.98,402.02z"/>
		<path class="st31" d="M228.17,402.68c2.39,0.91,6.57,6.92,7.41,11c0.84,4.08-1.65,6.22-4.07,7.01c-2.42,0.78-4.78,0.2-5.92-1.79
			c-1.15-1.99-1.09-5.38-0.75-9.17C225.17,405.95,225.78,401.77,228.17,402.68z"/>
	</g>
	<path class="st31" d="M109.2,373.77c1.03,1.21,3.18,2.27,4.97,1.79c1.79-0.47,3.21-2.48,4.23-5.34c1.02-2.87,1.65-6.61,1.45-8.16
		c-0.2-1.56-1.21-0.93-3.26,0.73c-2.05,1.66-5.14,4.34-6.73,6.37C108.27,371.18,108.17,372.56,109.2,373.77z"/>
	<path class="st30" d="M160.29,397.23c1.97,0.79,3.31,6.19,3.3,9.86c-0.01,3.67-1.37,5.6-3.63,6.08c-2.25,0.48-5.39-0.5-6.68-2.26
		c-1.29-1.76-0.73-4.29,0.85-7.47C155.71,400.26,158.31,396.44,160.29,397.23z"/>
	<path class="st31" d="M159.47,398.28c1.67,0.67,2.81,5.25,2.8,8.36c-0.01,3.11-1.17,4.75-3.07,5.15c-1.91,0.4-4.57-0.42-5.66-1.91
		c-1.09-1.49-0.62-3.64,0.72-6.33C155.59,400.85,157.8,397.61,159.47,398.28z"/>
	<path class="st32" d="M185.03,373.71c-2.19,0.82-6.62,3-10.19,4.25c-3.57,1.25-6.28,1.55-8.62,1.42c-2.33-0.13-4.29-0.7-5.95-1.43
		c-1.67-0.73-3.05-1.61-3.89-2.31c-0.85-0.7-1.16-1.2-1.42-0.98c-0.25,0.23-0.44,1.19-0.02,2.4c0.43,1.21,1.47,2.68,3.36,3.8
		c1.89,1.12,4.63,1.9,6.87,2.31c2.24,0.41,3.98,0.46,6.43-0.31c2.45-0.77,5.62-2.37,8.33-3.99c2.71-1.62,4.96-3.26,6.1-4.35
		C187.19,373.44,187.22,372.89,185.03,373.71z"/>
	<path class="st18" d="M262.14,347.4c3.37-1.34,8.46-3.11,15.6-2.58c7.14,0.53,16.34,3.36,22.22,6.13c5.89,2.77,8.47,5.47,9.46,7.15
		c0.99,1.67,0.38,2.31,0.03,3.7c-0.35,1.39-0.45,3.52,0.18,5.53c0.63,2.01,1.98,3.9,3.35,4.65c1.37,0.75,2.76,0.35,3.42-0.67
		c0.65-1.02,0.57-2.68,0.95-2.73c0.38-0.05,1.21,1.5,2.9,2.94c1.69,1.44,4.23,2.76,6.8,2.47c2.58-0.29,5.19-2.2,6.44-4.49
		c1.26-2.3,1.16-4.99-0.03-7.49c-1.19-2.5-3.47-4.82-6.24-6.6c-2.77-1.79-6.02-3.04-8.28-3.36c-2.27-0.32-3.54,0.31-4.43,0.94
		c-0.88,0.63-1.37,1.28-1.77,1.48c-0.4,0.2-0.71-0.03-2.36-1.34c-1.65-1.3-4.63-3.67-9.78-6.13c-5.14-2.46-12.45-5.01-18.82-5.93
		c-6.37-0.91-11.81-0.19-16.43,0.73c-4.62,0.91-8.43,2.01-10.48,3.15c-2.05,1.14-2.36,2.33-1.96,3.27c0.39,0.95,1.48,1.66,2.85,1.56
		C257.13,349.68,258.77,348.75,262.14,347.4z"/>
	<path class="st24" d="M130.61,333.82c3.9,0.86,6.75,2.91,6.36,4.58s-3.87,2.33-7.77,1.48c-3.9-0.86-6.75-2.91-6.36-4.58
		C123.23,333.63,126.71,332.97,130.61,333.82z"/>
	<g>
		<path class="st20" d="M208.66,295.73c-2.19-2.28-7.3-4.91-11.35-6.59c-4.06-1.68-7.07-2.41-10.14-2.96
			c-3.06-0.54-6.17-0.89-8.34-0.74c-2.17,0.15-3.4,0.81-3.51,1.62c-0.11,0.81,0.89,1.78,2.07,2.08c1.18,0.29,2.54-0.09,4.62,0.03
			c2.08,0.12,4.87,0.73,7.34,1.35c2.47,0.62,4.6,1.24,6.69,2.14c2.09,0.89,4.12,2.06,6.34,3.64c2.22,1.58,4.62,3.59,6.18,3.62
			C210.13,299.96,210.86,298.01,208.66,295.73z"/>
		<path class="st33" d="M114.99,272.94c-1.32,5.5-1.34,16.37,0.29,25.29c1.63,8.92,4.93,15.91,9.5,20.67
			c4.57,4.77,10.43,7.32,17.43,7.78c7,0.46,15.15-1.18,22.05-6.54c6.9-5.36,12.56-14.45,16.05-21.74c3.49-7.29,4.8-12.79,4.95-15.82
			c0.15-3.03-0.86-3.58-6.75-5.5c-5.89-1.92-16.65-5.21-26.96-7.09c-10.31-1.88-20.17-2.34-26.41-2.51
			C118.91,267.31,116.31,267.44,114.99,272.94z"/>
		<path class="st18" d="M116.82,274.59c-0.56,2.33-0.86,5.7-0.88,9.46c8.29,6.19,19.64,11.64,32.7,15.17
			c8.97,2.43,17.73,3.67,25.7,3.84c0.98-1.72,1.87-3.42,2.63-5.03c3.21-6.72,4.42-11.78,4.56-14.57c0.14-2.79-0.79-3.3-6.21-5.07
			c-5.42-1.77-15.33-4.8-24.83-6.53c-9.5-1.73-18.58-2.16-24.32-2.31C120.43,269.41,118.03,269.53,116.82,274.59z"/>
		<path class="st34" d="M127.4,287.98c-1.43-2.29-3.78-2.4-5.38-1.36c-1.59,1.04-2.42,3.22-1.69,6.5c0.73,3.28,3.01,7.65,6.25,10.75
			c3.24,3.1,7.45,4.92,9.97,5.63c2.52,0.71,3.36,0.31,3.38-0.21c0.01-0.52-0.8-1.15-2.63-2.85c-1.82-1.7-4.66-4.48-6.32-8.1
			C129.32,294.73,128.82,290.26,127.4,287.98z"/>
		<path class="st33" d="M269.82,308.92c-1.37,5.49-6.39,15.2-11.98,22.46c-5.59,7.25-11.77,12.05-18.06,14.3
			c-6.29,2.26-12.7,1.97-19.17-0.68c-6.46-2.65-12.98-7.68-16.66-15.49c-3.68-7.81-4.52-18.39-4.26-26.43
			c0.26-8.04,1.64-13.52,2.9-16.29c1.27-2.77,2.43-2.82,8.57-1.96c6.15,0.86,17.28,2.63,27.36,5.46c10.08,2.83,19.1,6.73,24.74,9.31
			C268.92,302.17,271.19,303.43,269.82,308.92z"/>
		<path class="st18" d="M203.62,293.02c-0.78,2.27-1.42,5.59-1.81,9.34c7.64,6.93,18.41,13.4,31.06,18.13
			c8.69,3.24,17.29,5.3,25.21,6.21c1.15-1.62,2.19-3.23,3.11-4.76c3.86-6.39,5.56-11.32,5.97-14.08c0.41-2.76-0.47-3.36-5.69-5.62
			c-5.22-2.26-14.79-6.2-24.07-8.8c-9.28-2.6-18.28-3.87-23.98-4.56C207.73,288.2,205.32,288.09,203.62,293.02z"/>
		<path class="st34" d="M214.04,307.68c-1.13-2.44-3.46-2.83-5.17-1.98c-1.71,0.84-2.8,2.91-2.49,6.25
			c0.31,3.34,2.03,7.95,4.86,11.41c2.83,3.46,6.78,5.76,9.19,6.77c2.42,1,3.3,0.71,3.38,0.19c0.08-0.51-0.65-1.24-2.25-3.14
			c-1.6-1.91-4.06-4.99-5.26-8.78C215.11,314.61,215.17,310.12,214.04,307.68z"/>
	</g>
</g>
<g>
	<path class="st35" d="M318.15,536.04c59.35-12.6,107.24,39.4,166.59,26.8c-3.79-11.86-7.46-24.42-11.03-37.52
		c-46.57,0.49-87.11-32.97-133.98-30.74C332.6,508.01,325.41,521.8,318.15,536.04z"/>
	<g class="st36">
		<path d="M383.56,522.63c-1.79,7.22,6.63,16.33,18.72,20.85c12.09,4.51,22.13,1.46,22.34-6.32c0.21-7.72-8.18-16.97-18.69-20.9
			C395.41,512.33,385.36,515.35,383.56,522.63z"/>
		<path d="M438.34,540.34c0.08,1.8,2.66,3.92,5.81,4.6c3.14,0.68,5.57-0.33,5.38-2.11c-0.18-1.78-2.81-3.69-5.85-4.39
			C440.65,537.74,438.27,538.53,438.34,540.34z"/>
		<path d="M358.82,515.45c-0.64,1.65,1.42,3.39,4.57,4.04c3.15,0.65,6.12-0.04,6.66-1.68c0.54-1.64-1.48-3.61-4.53-4.27
			C362.47,512.88,359.46,513.8,358.82,515.45z"/>
	</g>
	<g class="st36">
		<path d="M469.49,525.28c3.21,13.34,6.49,26.22,9.89,38.53c1.78-0.27,3.56-0.59,5.36-0.97c-3.79-11.86-7.46-24.41-11.03-37.51
			C472.3,525.34,470.89,525.33,469.49,525.28z"/>
		<path d="M318.15,536.04c1.8-0.38,3.59-0.7,5.37-0.97c6.88-13.87,13.69-27.38,20.45-40.59c-1.41,0-2.83,0.04-4.25,0.11
			C332.6,508.01,325.41,521.8,318.15,536.04z"/>
		<path d="M319.52,533.36c-0.46,0.89-0.91,1.79-1.37,2.68c59.35-12.6,107.24,39.4,166.59,26.8c-0.24-0.75-0.48-1.5-0.72-2.25
			C425.51,572.22,378.06,521.57,319.52,533.36z"/>
		<path d="M339.72,494.58c-0.45,0.85-0.9,1.69-1.35,2.54c47.63-2.73,88.67,31.72,136,30.67c-0.22-0.82-0.45-1.64-0.67-2.47
			C427.14,525.81,386.6,492.36,339.72,494.58z"/>
		<path d="M467.25,562.33c3.79-0.05,7.62-0.32,11.49-0.85c-0.47-1.72-0.94-3.45-1.41-5.19
			C471.12,556.95,466.67,559.27,467.25,562.33z"/>
		<path d="M327.67,526.71c-0.95,1.91-1.91,3.83-2.86,5.75c3.88-0.54,7.71-0.82,11.5-0.88C337.7,528.56,333.91,525.98,327.67,526.71z
			"/>
		<path d="M352.12,497.31c-3.12-0.26-6.26-0.38-9.43-0.34c-0.94,1.84-1.88,3.69-2.83,5.54C345.3,502.33,350.73,500.28,352.12,497.31
			z"/>
		<path d="M471.44,533.31c-0.45-1.83-0.9-3.67-1.34-5.52c-3.14-0.07-6.26-0.29-9.35-0.63C461.31,530.32,466.04,533.34,471.44,533.31
			z"/>
	</g>
	<g>
		<path class="st35" d="M405.25,519.51c-0.51-0.19-0.97-0.09-1.02,0.22c-0.04,0.31-0.09,0.62-0.13,0.94c-2.85-0.9-5-1.09-7.3-0.94
			c-0.39,0.03-0.61,0.1-0.65,0.33c-0.06,0.32,0.37,0.75,0.93,0.95c0.24,0.09,0.44,0.13,0.75,0.1c2.1-0.2,4.08,0.03,6.2,0.66
			c-0.31,2.19-0.61,4.37-0.92,6.56c-6.35-1.55-9.24-1.16-9.67,1.09c-0.46,2.44,3.03,5.53,8.36,7.59c-0.09,0.61-0.17,1.22-0.26,1.83
			c-0.04,0.3,0.4,0.74,0.96,0.94c0.56,0.21,1.07,0.12,1.11-0.18c0.08-0.62,0.16-1.24,0.24-1.86c3.74,1.2,6.85,1.55,9.82,1.19
			c0.31-0.04,0.49-0.12,0.51-0.34c0.02-0.31-0.46-0.78-1.01-0.97c-0.38-0.14-0.64-0.13-0.77-0.11c-2.48,0.38-5.15,0.17-8.49-0.86
			c0.29-2.23,0.58-4.47,0.87-6.7c6.25,1.49,8.9,1.09,9.11-1.3c0.2-2.41-3.11-5.5-7.9-7.34c0.04-0.3,0.08-0.6,0.12-0.89
			C406.16,520.11,405.76,519.7,405.25,519.51z M404.95,528.76c0.28-2.14,0.56-4.28,0.84-6.42c3.83,1.46,6.23,3.76,6.07,5.48
			C411.7,529.43,410.3,529.96,404.95,528.76z M402.95,529.52c-0.3,2.15-0.6,4.31-0.91,6.46c-4.25-1.61-6.78-3.95-6.47-5.71
			C395.85,528.69,397.47,528.23,402.95,529.52z"/>
	</g>
</g>
<g>
	<path class="st35" d="M343.23,558.82c60.71,5.67,85.97,68.8,146.69,74.48c0.96-12.3,2.29-25.2,3.92-38.6
		c-44.05-13.3-69.47-56.8-114.47-68.55C367.54,536.69,355.51,547.56,343.23,558.82z"/>
	<g class="st36">
		<path d="M409.96,565.53c-4.44,6.27,0.01,17.34,9.67,25.17c9.66,7.82,20.28,7.92,23.46,0.65c3.15-7.21-1.23-18.41-9.63-25.21
			C425.05,559.33,414.44,559.2,409.96,565.53z"/>
		<path d="M454.8,598.39c-0.62,1.72,1.01,4.48,3.71,6.05c2.7,1.57,5.37,1.33,5.88-0.4c0.51-1.73-1.24-4.31-3.83-5.87
			C457.97,596.63,455.42,596.67,454.8,598.39z"/>
		<path d="M389.4,551.45c-1.23,1.36,0.04,3.61,2.76,5.16c2.72,1.55,5.78,1.78,6.91,0.38c1.13-1.39-0.02-3.84-2.64-5.36
			C393.81,550.11,390.63,550.08,389.4,551.45z"/>
	</g>
	<g class="st36">
		<path d="M489.89,593.42c-2.07,13.51-3.89,26.62-5.39,39.21c1.78,0.27,3.58,0.5,5.42,0.67c0.96-12.29,2.29-25.2,3.92-38.59
			C492.51,594.31,491.19,593.87,489.89,593.42z"/>
		<path d="M343.23,558.82c1.84,0.17,3.65,0.4,5.43,0.67c11.77-11.03,23.35-21.75,34.75-32.19c-1.33-0.41-2.68-0.8-4.04-1.16
			C367.54,536.69,355.51,547.56,343.23,558.82z"/>
		<path d="M345.55,556.7c-0.77,0.71-1.54,1.41-2.31,2.12c60.71,5.68,85.97,68.8,146.68,74.48c0.06-0.77,0.12-1.55,0.18-2.33
			C430.56,624.63,405.19,562.9,345.55,556.7z"/>
		<path d="M379.38,526.15c-0.75,0.66-1.49,1.33-2.24,1.99c45.91,11.51,71.41,56.08,116.4,69.08c0.1-0.84,0.2-1.68,0.31-2.52
			C449.8,581.4,424.38,537.91,379.38,526.15z"/>
		<path d="M473.64,627.65c3.59,1.08,7.29,1.95,11.15,2.59c0.21-1.76,0.43-3.53,0.66-5.31C479.33,623.73,474.26,624.6,473.64,627.65z
			"/>
		<path d="M355.76,552.85c-1.63,1.52-3.26,3.04-4.89,4.57c3.86,0.63,7.58,1.5,11.17,2.57C364.5,557.56,361.92,554,355.76,552.85z"/>
		<path d="M390.01,532.39c-2.84-1.16-5.75-2.21-8.75-3.11c-1.59,1.46-3.18,2.92-4.78,4.38
			C381.67,535.09,387.57,534.77,390.01,532.39z"/>
		<path d="M488.66,601.56c0.27-1.86,0.55-3.72,0.84-5.59c-2.93-0.99-5.78-2.12-8.56-3.36C480.26,595.75,483.57,599.99,488.66,601.56
			z"/>
	</g>
	<g>
		<path class="st35" d="M431.59,569c-0.41-0.32-0.88-0.37-1.04-0.1c-0.16,0.28-0.32,0.56-0.48,0.84c-2.34-1.69-4.29-2.5-6.52-3.04
			c-0.38-0.08-0.61-0.09-0.74,0.12c-0.18,0.29,0.07,0.82,0.52,1.17c0.19,0.15,0.37,0.26,0.67,0.31c2.06,0.44,3.83,1.24,5.59,2.46
			c-1.12,1.97-2.25,3.94-3.37,5.9c-5.39-3.34-8.26-3.83-9.52-1.83c-1.37,2.16,0.74,6.1,4.98,9.62c-0.31,0.55-0.63,1.1-0.94,1.64
			c-0.16,0.27,0.09,0.81,0.54,1.17c0.45,0.36,0.96,0.43,1.12,0.16c0.31-0.56,0.62-1.12,0.94-1.68c3.06,2.24,5.86,3.49,8.79,4.02
			c0.3,0.06,0.51,0.03,0.6-0.17c0.14-0.29-0.14-0.87-0.58-1.22c-0.3-0.24-0.55-0.31-0.69-0.33c-2.49-0.37-4.92-1.36-7.67-3.32
			c1.13-2.02,2.25-4.03,3.38-6.05c5.32,3.25,7.97,3.66,9.07,1.47c1.11-2.21-0.83-6.1-4.63-9.25c0.15-0.27,0.3-0.54,0.45-0.81
			C432.21,569.83,431.99,569.32,431.59,569z M427.77,577.62c1.08-1.93,2.16-3.86,3.24-5.79c3.05,2.51,4.43,5.39,3.63,6.95
			C433.87,580.25,432.35,580.33,427.77,577.62z M425.59,577.75c-1.11,1.94-2.21,3.88-3.32,5.82c-3.39-2.77-4.88-5.72-3.92-7.29
			C419.23,574.86,420.93,574.91,425.59,577.75z"/>
	</g>
</g>
<g>
	<path class="st35" d="M535.55,585.33c52.53-30.36,114.17,4.26,166.7-26.1c-7.28-10.11-14.65-20.91-22.11-32.26
		c-44.13,14.88-93.04-4.38-136.92,12.25C540.61,554.2,538.05,569.54,535.55,585.33z"/>
	<g class="st36">
		<path d="M593.59,552.33c0.53,7.42,11.36,13.47,24.25,14.03c12.89,0.55,21.49-5.46,19.29-12.93c-2.19-7.41-13.03-13.61-24.25-14.09
			C601.67,538.86,593.05,544.85,593.59,552.33z"/>
		<path d="M651.17,552.2c0.63,1.69,3.75,2.9,6.95,2.58c3.2-0.32,5.19-2.04,4.47-3.67c-0.72-1.64-3.81-2.64-6.92-2.37
			C652.56,549.02,650.54,550.51,651.17,552.2z"/>
		<path d="M567.84,553.16c-0.1,1.77,2.4,2.78,5.6,2.43c3.2-0.36,5.81-1.93,5.81-3.66c0-1.73-2.53-2.97-5.63-2.65
			C570.52,549.59,567.94,551.39,567.84,553.16z"/>
	</g>
	<g class="st36">
		<path d="M676.13,528.24c7.18,11.69,14.29,22.92,21.33,33.57c1.61-0.8,3.21-1.66,4.8-2.58c-7.28-10.11-14.65-20.9-22.1-32.25
			C678.81,527.43,677.47,527.85,676.13,528.24z"/>
		<path d="M535.55,585.33c1.59-0.92,3.19-1.78,4.8-2.59c2.24-15.32,4.54-30.28,6.88-44.93c-1.34,0.44-2.68,0.91-4.01,1.42
			C540.61,554.2,538.05,569.54,535.55,585.33z"/>
		<path d="M536.02,582.35c-0.16,0.99-0.31,1.98-0.47,2.97c52.53-30.35,114.17,4.26,166.7-26.1c-0.46-0.64-0.92-1.27-1.38-1.92
			C648.84,586.49,588.04,553.02,536.02,582.35z"/>
		<path d="M543.23,539.23c-0.17,0.94-0.33,1.89-0.49,2.83c44.45-17.34,94.13,2.71,138.82-12.95c-0.47-0.71-0.94-1.42-1.4-2.14
			C636.02,541.86,587.11,522.6,543.23,539.23z"/>
		<path d="M685.46,564.16c3.59-1.22,7.14-2.66,10.66-4.37c-0.98-1.49-1.96-2.99-2.95-4.5C687.47,557.85,683.96,561.43,685.46,564.16
			z"/>
		<path d="M541.71,573.51c-0.31,2.11-0.63,4.23-0.94,6.35c3.52-1.72,7.08-3.17,10.66-4.4C551.82,572.16,547.42,570.88,541.71,573.51
			z"/>
		<path d="M555.86,537.99c-3.04,0.72-6.07,1.58-9.07,2.59c-0.33,2.04-0.65,4.09-0.97,6.14
			C550.93,544.87,555.46,541.24,555.86,537.99z"/>
		<path d="M680.47,535.27c-0.99-1.6-1.99-3.21-2.99-4.83c-3.01,0.91-6.04,1.66-9.08,2.29C669.9,535.57,675.34,536.97,680.47,535.27z
			"/>
	</g>
	<g>
		<path class="st35" d="M613.26,542.64c-0.54-0.02-0.95,0.22-0.9,0.52c0.05,0.31,0.11,0.62,0.16,0.93
			c-2.99,0.03-5.09,0.51-7.23,1.37c-0.36,0.15-0.55,0.29-0.52,0.52c0.04,0.33,0.59,0.6,1.18,0.61c0.26,0.01,0.46-0.01,0.74-0.14
			c1.94-0.84,3.89-1.23,6.1-1.29c0.38,2.17,0.77,4.35,1.16,6.52c-6.52,0.5-9.15,1.76-8.85,4.03c0.32,2.46,4.59,4.32,10.3,4.63
			c0.11,0.61,0.21,1.21,0.32,1.82c0.05,0.3,0.6,0.58,1.21,0.6c0.6,0.02,1.06-0.22,1-0.52c-0.11-0.61-0.23-1.23-0.35-1.84
			c3.93-0.01,6.99-0.64,9.7-1.91c0.28-0.13,0.43-0.27,0.38-0.48c-0.07-0.3-0.68-0.6-1.26-0.62c-0.4-0.01-0.65,0.07-0.77,0.14
			c-2.24,1.13-4.85,1.76-8.34,1.81c-0.41-2.21-0.83-4.43-1.24-6.64c6.4-0.52,8.8-1.72,8.26-4.05c-0.55-2.35-4.66-4.27-9.78-4.54
			c-0.06-0.29-0.11-0.59-0.17-0.88C614.3,542.94,613.8,542.66,613.26,542.64z M615.83,551.53c-0.4-2.12-0.79-4.24-1.19-6.36
			c4.1,0.2,7.09,1.65,7.46,3.33C622.46,550.08,621.29,551.02,615.83,551.53z M614.16,552.88c0.38,2.14,0.76,4.28,1.14,6.43
			c-4.54-0.22-7.67-1.65-7.92-3.42C607.16,554.28,608.56,553.34,614.16,552.88z"/>
	</g>
</g>
<g>
	<path class="st35" d="M722.78,615.56c50.67-33.38,114.22-2.43,164.89-35.81c-7.86-9.66-15.85-20.01-23.96-30.91
		c-43.18,17.44-93.13,1.07-135.97,20.24C726.01,584.19,724.35,599.65,722.78,615.56z"/>
	<g class="st36">
		<path d="M778.79,579.22c0.97,7.38,12.13,12.79,25.03,12.59c12.9-0.21,21.14-6.71,18.5-14.03c-2.62-7.27-13.81-12.82-25.03-12.65
			C786.07,565.31,777.81,571.78,778.79,579.22z"/>
		<path d="M836.25,575.73c0.73,1.65,3.91,2.68,7.09,2.17c3.18-0.51,5.06-2.34,4.24-3.93c-0.82-1.6-3.96-2.41-7.04-1.96
			C837.46,572.46,835.53,574.07,836.25,575.73z"/>
		<path d="M753.13,581.56c0,1.77,2.56,2.64,5.73,2.1c3.17-0.54,5.69-2.27,5.59-3.99c-0.1-1.72-2.7-2.82-5.77-2.32
			C755.59,577.84,753.13,579.79,753.13,581.56z"/>
	</g>
	<g class="st36">
		<path d="M859.77,550.34c7.85,11.25,15.61,22.05,23.26,32.27c1.56-0.9,3.1-1.85,4.64-2.86c-7.86-9.66-15.85-20.01-23.95-30.9
			C862.4,549.38,861.09,549.88,859.77,550.34z"/>
		<path d="M722.78,615.56c1.54-1.01,3.08-1.97,4.64-2.86c1.34-15.43,2.76-30.49,4.24-45.25c-1.31,0.52-2.62,1.07-3.92,1.65
			C726.01,584.19,724.35,599.65,722.78,615.56z"/>
		<path d="M723.07,612.56c-0.1,1-0.2,2-0.3,3c50.67-33.38,114.22-2.42,164.89-35.8c-0.5-0.61-0.99-1.22-1.49-1.83
			C835.94,610.09,773.28,580.24,723.07,612.56z"/>
		<path d="M727.74,569.09c-0.11,0.95-0.22,1.9-0.33,2.86c43.36-19.91,94.13-2.8,137.82-21.05c-0.51-0.68-1.02-1.36-1.53-2.05
			C820.53,566.29,770.58,549.92,727.74,569.09z"/>
		<path d="M871.19,585.66c3.51-1.42,6.98-3.07,10.39-4.98c-1.07-1.43-2.13-2.87-3.2-4.32C872.83,579.24,869.54,583.02,871.19,585.66
			z"/>
		<path d="M728.24,603.4c-0.19,2.13-0.38,4.26-0.57,6.4c3.41-1.92,6.88-3.58,10.39-5.01C738.25,601.47,733.78,600.45,728.24,603.4z"
			/>
		<path d="M740.28,567.11c-3,0.9-5.96,1.93-8.9,3.12c-0.21,2.06-0.41,4.12-0.61,6.19C735.76,574.27,740.08,570.38,740.28,567.11z"/>
		<path d="M864.51,557.11c-1.09-1.54-2.17-3.09-3.26-4.65c-2.95,1.08-5.93,2.01-8.93,2.82C853.99,558.03,859.5,559.11,864.51,557.11
			z"/>
	</g>
	<g>
		<path class="st35" d="M797.85,568.4c-0.54,0.01-0.94,0.27-0.87,0.57c0.07,0.31,0.15,0.61,0.22,0.92c-2.99,0.2-5.05,0.81-7.14,1.79
			c-0.35,0.17-0.53,0.32-0.49,0.55c0.06,0.32,0.62,0.56,1.22,0.54c0.26-0.01,0.46-0.04,0.73-0.18c1.89-0.95,3.81-1.46,6.02-1.64
			c0.51,2.15,1.02,4.29,1.53,6.44c-6.48,0.88-9.03,2.29-8.6,4.54c0.46,2.44,4.83,4.04,10.55,4.02c0.14,0.6,0.28,1.2,0.43,1.79
			c0.07,0.3,0.64,0.54,1.24,0.53c0.6-0.01,1.04-0.28,0.97-0.57c-0.15-0.61-0.3-1.21-0.45-1.82c3.92-0.24,6.94-1.05,9.58-2.47
			c0.27-0.15,0.41-0.29,0.35-0.5c-0.09-0.3-0.71-0.56-1.29-0.54c-0.4,0.01-0.64,0.11-0.76,0.18c-2.17,1.26-4.73,2.04-8.22,2.29
			c-0.54-2.18-1.09-4.37-1.63-6.55c6.36-0.89,8.69-2.24,8.01-4.53c-0.69-2.32-4.9-3.99-10.03-3.96c-0.07-0.29-0.14-0.58-0.22-0.87
			C798.91,568.63,798.39,568.39,797.85,568.4z M800.94,577.12c-0.52-2.09-1.04-4.19-1.56-6.28c4.1-0.04,7.18,1.23,7.65,2.89
			C807.47,575.29,806.36,576.29,800.94,577.12z M799.35,578.57c0.5,2.12,1.01,4.23,1.51,6.35c-4.54,0.05-7.76-1.2-8.11-2.95
			C792.44,580.38,793.79,579.36,799.35,578.57z"/>
	</g>
</g>
</svg>
