<svg width="130" height="24" fill="none" xmlns="http://www.w3.org/2000/svg"><path d="M43.921 8.504h4.097l3.334 5.439 3.335-5.44h4.097v14.123h-3.907v-8.11l-3.525 5.533h-.095l-3.525-5.438v8.015h-3.81V8.504zM62 15.565c0-4.008 3.24-7.348 7.622-7.348s7.526 3.245 7.526 7.348c0 4.007-3.239 7.347-7.621 7.347-4.383 0-7.527-3.244-7.527-7.347zm11.147 0c0-2.004-1.43-3.817-3.62-3.817-2.097 0-3.526 1.718-3.526 3.817 0 2.004 1.43 3.816 3.62 3.816 2.097 0 3.526-1.717 3.526-3.816zM81 8.504h3.62l5.812 7.443V8.504h3.81v14.122h-3.429l-6.002-7.73v7.73H81V8.504zm21.192 3.435H98V8.504h12.29v3.435h-4.192v10.687h-3.906V11.939zM114 15.565c0-4.008 3.239-7.348 7.622-7.348 4.287 0 7.526 3.245 7.526 7.348 0 4.007-3.239 7.347-7.622 7.347-4.382 0-7.526-3.244-7.526-7.347zm11.147 0c0-2.004-1.429-3.817-3.621-3.817-2.096 0-3.525 1.718-3.525 3.817 0 2.004 1.429 3.816 3.621 3.816 2.096 0 3.525-1.717 3.525-3.816z" fill="#000"/><path fill-rule="evenodd" clip-rule="evenodd" d="M18.11 23.32h9.31c.41 0 .8-.16 1.09-.46.29-.29.46-.69.46-1.11l.03-1.81a1.574 1.574 0 011.55-1.57c2.19.01 6-.3 6.57-2.59.68-3.14-1.3-4.17-3.6-6.03-2.3-1.87-12.37-7.86-18.95-9.43-6.59-1.57-6.37 3.01-.72 5.9 5.66 2.89 11.78 1.95 13.17 2.82 1.4.87.12 1.31-.96 1.34H5.58c-.33 0-.65.14-.89.38s-.37.57-.37.92c0 .34.13.67.37.91.23.24.55.38.89.38h6.78c.33 0 .65.14.89.38.23.24.37.57.37.91 0 .34-.13.67-.37.91s-.55.38-.89.38H8.32c-.33 0-.65.14-.88.38-.23.24-.37.57-.37.91 0 .34.13.67.37.91.23.24.55.38.89.38h6.71c.33 0 .65.14.89.38.23.24.37.57.37.91 0 .17-.03.34-.09.5-.06.16-.16.3-.27.42-.12.12-.25.22-.41.28-.15.07-.32.1-.48.1H7.2c-.33 0-.65.14-.88.38-.23.24-.37.57-.37.91 0 .34.13.67.37.91.23.24.55.38.89.38H18.1M2.79 20.71h.98c.33 0 .65.14.89.38.23.24.37.57.37.91 0 .34-.13.67-.37.91s-.55.38-.89.38h-.98c-.33 0-.65-.14-.89-.38a1.33 1.33 0 01-.37-.91c0-.34.13-.67.37-.91.23-.24.55-.38.88-.38h.01zm-1.51-5.18h2.48c.33 0 .65.14.89.38.23.24.37.57.37.91 0 .17-.03.34-.1.49-.06.16-.16.3-.27.42-.12.12-.25.22-.41.28-.15.07-.32.1-.48.1h-2.5c-.33 0-.65-.14-.89-.38a1.33 1.33 0 01-.37-.91c0-.34.13-.67.37-.91.23-.24.55-.38.88-.38h.03zm30-4.05c.26 0 .51.08.73.23.22.15.38.36.48.61.1.25.13.52.07.78-.05.26-.18.5-.36.69a1.278 1.278 0 01-1.43.29 1.37 1.37 0 01-.59-.5 1.4 1.4 0 01-.12-1.27c.07-.16.16-.31.28-.44.12-.13.27-.23.43-.29.16-.07.33-.1.5-.1h.01z" fill="#D1330B"/></svg>