<svg width="275" height="109" viewBox="0 0 275 109" fill="none" xmlns="http://www.w3.org/2000/svg">
<g clip-path="url(#clip0_769_2021)">
<rect width="275" height="109" fill="#1F2840"/>
<g clip-path="url(#clip1_769_2021)">
<rect y="1" width="275" height="108.345" fill="#0A65D5"/>
<g clip-path="url(#clip2_769_2021)">
<path d="M64.146 40.2104C63.4057 39.1776 61.7682 38.3338 60.5079 38.3338H29.9355C28.6742 38.3338 27.6436 39.377 27.6436 40.6536V44.3293H67.1026L64.146 40.2104Z" fill="white"/>
<path d="M74.7729 55.0149L69.9491 48.2957H27.6436V73.1289C27.6436 74.4064 28.6742 75.4486 29.9355 75.4486H60.5089C61.7692 75.4486 63.4067 74.6029 64.147 73.572L74.7747 58.7672C75.5132 57.7353 75.5132 56.0468 74.7729 55.0149ZM35.6508 70.364H33.848C32.8501 70.364 32.0444 69.5429 32.0444 68.5366C32.0444 67.5293 32.8501 66.7091 33.848 66.7091H35.6508C36.6487 66.7091 37.4544 67.5284 37.4544 68.5366C37.4544 69.5429 36.6487 70.364 35.6508 70.364ZM49.7047 70.364H42.055C41.058 70.364 40.2523 69.5429 40.2523 68.5366C40.2523 67.5293 41.0571 66.7091 42.055 66.7091H49.7047C50.7017 66.7091 51.5074 67.5284 51.5074 68.5366C51.5074 69.5429 50.7027 70.364 49.7047 70.364ZM50.0791 61.2362H33.848C32.8501 61.2362 32.0444 60.417 32.0444 59.4097C32.0444 58.4024 32.8501 57.5822 33.848 57.5822H50.0791C51.077 57.5822 51.8827 58.4024 51.8827 59.4097C51.8818 60.417 51.077 61.2362 50.0791 61.2362Z" fill="white"/>
<path d="M88.769 67.8844V45.9805H93.0868L99.3454 55.1348L105.605 45.9805H109.922V67.8844H106.016V51.7L99.3258 61.3901L92.6349 51.7V67.9033H88.769V67.8844Z" fill="white"/>
<path d="M113.196 45.9686H117.905L123.635 54.864L129.343 45.9686H134.052L125.596 58.4773V67.8726H121.692V58.4773L113.196 45.9686Z" fill="white"/>
<path d="M137.074 61.636C136.662 60.2857 136.466 58.6992 136.466 56.9114C136.466 55.1227 136.661 53.5353 137.074 52.1859C137.486 50.8347 138.017 49.7443 138.664 48.9269C139.311 48.1124 140.096 47.4576 141.017 46.9615C141.939 46.4447 142.844 46.1083 143.705 45.9495C144.587 45.7709 145.529 45.6906 146.55 45.6906C148.767 45.6906 150.946 46.1272 153.103 46.9814V50.676C151.042 49.7235 148.983 49.2255 146.883 49.2255C145.903 49.2255 145.078 49.3049 144.391 49.4835C143.705 49.663 143.018 49.9994 142.371 50.4955C141.704 50.9935 141.214 51.7881 140.859 52.8587C140.507 53.9321 140.351 55.2834 140.351 56.8925C140.351 58.5197 140.526 59.8681 140.859 60.9226C141.194 61.9941 141.704 62.7689 142.371 63.2867C143.038 63.7838 143.705 64.1211 144.391 64.2987C145.078 64.4773 145.924 64.5567 146.883 64.5567C148.964 64.5567 151.042 64.0814 153.103 63.1063V66.781C150.945 67.6541 148.748 68.0916 146.55 68.0916C145.529 68.0916 144.587 68.0122 143.705 67.8318C142.823 67.6541 141.939 67.3168 141.017 66.8207C140.096 66.3057 139.311 65.6509 138.664 64.8553C138.016 64.0795 137.486 62.9882 137.074 61.636Z" fill="white"/>
<path d="M157.672 67.8725V45.9686H165.992C168.524 45.9686 170.505 46.5837 171.898 47.7941C173.311 49.0055 174.017 50.7545 174.017 53.0176C174.017 56.355 172.428 58.5179 169.27 59.4931L174.959 67.8735H170.25L165.09 60.1479H161.598V67.8735H157.672V67.8725ZM161.579 56.5327H165.895C167.209 56.5327 168.249 56.2964 168.994 55.8183C169.74 55.3449 170.113 54.4482 170.113 53.1197C170.113 51.7684 169.74 50.8547 168.994 50.3983C168.249 49.9221 167.21 49.7038 165.895 49.7038H161.579V56.5327Z" fill="white"/>
<path d="M178.865 67.8726V45.9686H193.267V49.5025H182.771V55.0416H191.873V58.7561H182.771V64.298H193.267V67.83H178.865V67.8726Z" fill="white"/>
<path d="M197.935 67.8725V45.9686H205.41C208.764 45.9686 211.297 46.9012 213.044 48.7693C214.77 50.6355 215.651 53.3559 215.651 56.9503C215.651 60.524 214.79 63.2453 213.063 65.0898C211.336 66.9579 208.786 67.8914 205.43 67.8914H197.936V67.8725H197.935ZM201.821 64.3386H205.391C207.647 64.3386 209.256 63.7603 210.237 62.6103C211.217 61.4575 211.728 59.5715 211.728 56.9513C211.728 54.3121 211.237 52.4034 210.237 51.2506C209.255 50.1016 207.626 49.5233 205.391 49.5233H201.821V64.3386Z" fill="white"/>
<path d="M220.417 67.8726V45.9686H224.324V67.8726H220.417Z" fill="white"/>
<path d="M227.502 49.9192V45.9686H245.239V49.9192H238.293V67.8726H234.388V49.9192H227.502Z" fill="white"/>
</g>
<path d="M81.8527 27.0033C81.5774 21.3849 85.9088 16.6072 91.5272 16.3319L251.37 8.50075C256.989 8.22549 261.766 12.5569 262.042 18.1753L262.334 24.152C262.61 29.7703 258.278 34.5481 252.66 34.8233L92.8168 42.6545C87.1985 42.9298 82.4207 38.5983 82.1455 32.9799L81.8527 27.0033Z" fill="#FFE229"/>
<path d="M94.8813 24.2086L98.1158 24.0501C99.5897 23.9779 100.669 24.1364 101.353 24.5257C102.042 24.91 102.408 25.5595 102.453 26.4742C102.483 27.095 102.362 27.6117 102.087 28.0242C101.818 28.4364 101.443 28.6947 100.964 28.7989L100.967 28.87C101.633 28.9847 102.12 29.2363 102.429 29.625C102.743 30.0134 102.916 30.5418 102.949 31.21C102.995 32.1578 102.688 32.914 102.027 33.4785C101.37 34.0427 100.454 34.3536 99.279 34.4112L95.3905 34.6017L94.8813 24.2086ZM97.2867 28.2166L98.5662 28.1539C99.1634 28.1247 99.5901 28.0111 99.8465 27.8133C100.108 27.6152 100.228 27.3029 100.207 26.8764C100.187 26.4783 100.026 26.2012 99.7242 26.0449C99.4265 25.8838 98.9625 25.8186 98.3322 25.8495L97.1735 25.9062L97.2867 28.2166ZM97.3723 29.9654L97.505 32.6739L98.941 32.6035C99.5476 32.5738 99.9898 32.4357 100.268 32.1893C100.545 31.943 100.672 31.5804 100.649 31.1018C100.607 30.2392 99.9694 29.8381 98.7372 29.8985L97.3723 29.9654ZM105.076 23.7091L107.06 23.6119L107.306 28.6307L107.343 29.9757L107.347 31.5076L107.39 31.5055L111.801 23.3796L114.439 23.2504L114.948 33.6435L112.986 33.7396L112.741 28.7492C112.709 28.081 112.703 27.0884 112.724 25.7715L112.667 25.7743L108.237 33.9723L105.586 34.1022L105.076 23.7091ZM116.658 31.7212L117.461 31.6819C118.081 30.2739 118.556 28.8753 118.887 27.4861C119.218 26.0922 119.442 24.5967 119.558 22.9996L125.615 22.7028L126.034 31.2619L127.421 31.1939L127.659 36.0564L125.533 36.1605L125.385 33.1322L118.873 33.4512L119.022 36.4795L116.896 36.5837L116.658 31.7212ZM121.397 24.748C121.298 25.8407 121.101 27.0024 120.805 28.233C120.514 29.4634 120.172 30.5752 119.779 31.5684L123.838 31.3695L123.508 24.6445L121.397 24.748ZM135.893 32.6173L135.018 30.1804L131.229 30.366L130.597 32.8768L128.222 32.9931L131.379 22.3777L134.074 22.2457L138.267 32.501L135.893 32.6173ZM134.402 28.3579C133.595 26.1504 133.14 24.9019 133.035 24.6125C132.935 24.3228 132.862 24.0936 132.816 23.9249C132.69 24.5391 132.315 26.061 131.693 28.4906L134.402 28.3579ZM144.247 23.4788C143.441 23.5183 142.796 23.778 142.311 24.2578C141.826 24.7328 141.575 25.3746 141.557 26.1831L146.057 25.9626L146.146 27.7682L141.632 27.9894C141.735 28.83 142.034 29.4685 142.531 29.905C143.032 30.3412 143.728 30.5375 144.619 30.4939C145.429 30.4542 146.402 30.2236 147.535 29.8023L147.626 31.6506C147.133 31.8648 146.644 32.0241 146.16 32.1286C145.681 32.2376 145.152 32.3062 144.574 32.3346C142.944 32.4144 141.675 32.0182 140.767 31.1458C139.86 30.2686 139.364 28.9722 139.28 27.2566C139.227 26.1808 139.392 25.2274 139.774 24.3963C140.156 23.5605 140.729 22.9053 141.495 22.4308C142.265 21.956 143.185 21.6924 144.256 21.6399C144.873 21.6097 145.445 21.6482 145.972 21.7554C146.505 21.8575 147.032 22.0098 147.555 22.2122L146.854 24.0423L146.223 23.8096C145.536 23.5582 144.877 23.448 144.247 23.4788ZM154.663 31.6978L151.761 23.6665L151.697 23.6697C151.868 25.324 151.967 26.4284 151.994 26.9829L152.231 31.8169L150.262 31.9134L149.753 21.5203L152.753 21.3733L155.602 29.2004L155.645 29.1983L157.864 21.1229L160.864 20.9759L161.373 31.369L159.319 31.4696L159.078 26.5503C159.066 26.3181 159.056 26.0502 159.046 25.7467C159.04 25.4429 159.034 24.6356 159.027 23.3248L158.963 23.3279L156.681 31.5989L154.663 31.6978ZM173.588 25.5473C173.672 27.2676 173.311 28.6108 172.503 29.5767C171.695 30.5426 170.495 31.0646 168.903 31.1426C167.31 31.2206 166.065 30.8185 165.166 29.9361C164.268 29.0538 163.777 27.7477 163.692 26.0179C163.607 24.2881 163.969 22.9473 164.777 21.9956C165.59 21.0389 166.795 20.5214 168.393 20.4431C169.99 20.3649 171.233 20.7648 172.121 21.6429C173.015 22.5207 173.503 23.8222 173.588 25.5473ZM166.003 25.9189C166.06 27.08 166.323 27.9436 166.793 28.5097C167.262 29.0757 167.935 29.3373 168.812 29.2943C170.57 29.2082 171.392 27.9969 171.278 25.6605C171.163 23.3193 170.231 22.1915 168.482 22.2772C167.606 22.3202 166.959 22.6488 166.543 23.263C166.126 23.8725 165.946 24.7578 166.003 25.9189ZM179.279 28.6532L180.083 28.6139C180.702 27.2058 181.178 25.8073 181.509 24.4181C181.84 23.0242 182.063 21.5287 182.18 19.9316L188.237 19.6348L188.656 28.1939L190.042 28.1259L190.28 32.9884L188.155 33.0925L188.006 30.0642L181.495 30.3832L181.643 33.4115L179.518 33.5157L179.279 28.6532ZM184.018 21.68C183.92 22.7727 183.723 23.9344 183.427 25.165C183.135 26.3954 182.793 27.5072 182.4 28.5003L186.459 28.3015L186.13 21.5765L184.018 21.68ZM201.33 24.1881C201.414 25.9084 201.053 27.2516 200.245 28.2175C199.437 29.1835 198.237 29.7054 196.645 29.7835C195.052 29.8615 193.807 29.4593 192.909 28.577C192.01 27.6946 191.519 26.3885 191.434 24.6587C191.349 22.9289 191.711 21.5881 192.52 20.6364C193.333 19.6797 194.538 19.1622 196.135 19.084C197.732 19.0057 198.975 19.4057 199.863 20.2837C200.757 21.1616 201.246 22.463 201.33 24.1881ZM193.745 24.5597C193.802 25.7208 194.065 26.5844 194.535 27.1505C195.004 27.7166 195.677 27.9781 196.554 27.9352C198.312 27.849 199.134 26.6377 199.02 24.3013C198.905 21.9601 197.973 20.8324 196.225 20.9181C195.348 20.961 194.701 21.2896 194.285 21.9038C193.868 22.5133 193.688 23.3986 193.745 24.5597ZM214.088 20.6985C214.12 21.3477 213.95 21.9095 213.579 22.3837C213.208 22.858 212.671 23.1978 211.969 23.4032L211.971 23.4459C212.815 23.5091 213.462 23.7339 213.913 24.1203C214.364 24.502 214.607 25.0365 214.64 25.7236C214.689 26.7236 214.365 27.521 213.667 28.1157C212.969 28.7058 211.948 29.0337 210.602 29.0997C209.474 29.1549 208.465 29.0167 207.574 28.685L207.483 26.8154C207.895 26.9995 208.347 27.1436 208.836 27.2479C209.326 27.3522 209.808 27.3927 210.282 27.3695C211.007 27.334 211.536 27.1845 211.87 26.9211C212.204 26.6577 212.358 26.2535 212.331 25.7085C212.307 25.2204 212.091 24.8842 211.683 24.6999C211.275 24.5156 210.635 24.4448 209.763 24.4876L208.974 24.5262L208.891 22.8414L209.694 22.8021C210.5 22.7626 211.083 22.6295 211.442 22.4029C211.806 22.1713 211.976 21.7996 211.95 21.2877C211.912 20.501 211.4 20.1318 210.414 20.1801C210.073 20.1968 209.727 20.2708 209.377 20.4019C209.032 20.5329 208.651 20.7487 208.233 21.0494L207.143 19.5851C208.057 18.8562 209.171 18.4596 210.483 18.3953C211.559 18.3425 212.418 18.519 213.06 18.9246C213.707 19.3299 214.05 19.9212 214.088 20.6985ZM219.811 21.8504C220.815 21.8012 221.628 22.044 222.248 22.579C222.872 23.1137 223.209 23.8716 223.257 24.8526C223.314 26.0137 223 26.9246 222.315 27.5852C221.63 28.2458 220.621 28.6088 219.29 28.674C218.133 28.7307 217.191 28.5892 216.461 28.2496L216.368 26.3516C216.753 26.5323 217.197 26.6744 217.7 26.778C218.204 26.8768 218.679 26.9154 219.124 26.8935C220.465 26.8278 221.109 26.2452 221.055 25.1457C221.004 24.0984 220.284 23.6087 218.895 23.6767C218.644 23.689 218.368 23.7287 218.067 23.7957C217.766 23.8579 217.522 23.9221 217.336 23.9883L216.438 23.5619L216.57 18.2467L222.207 17.9705L222.298 19.833L218.588 20.0148L218.496 22.0645L218.742 22.0025C219.028 21.922 219.384 21.8713 219.811 21.8504ZM236.234 22.4923C236.323 24.3074 236.09 25.6656 235.536 26.5669C234.986 27.468 234.093 27.9488 232.856 28.0094C231.657 28.0681 230.729 27.6622 230.074 26.7917C229.423 25.921 229.055 24.6065 228.969 22.8483C228.879 21.0142 229.109 19.649 229.659 18.7527C230.208 17.8517 231.099 17.371 232.332 17.3106C233.531 17.2519 234.458 17.6625 235.114 18.5424C235.775 19.4222 236.148 20.7388 236.234 22.4923ZM231.151 22.7414C231.213 24.0162 231.367 24.9255 231.612 25.4693C231.862 26.0082 232.248 26.2648 232.769 26.2393C233.281 26.2142 233.637 25.9165 233.837 25.3461C234.037 24.7757 234.106 23.8602 234.044 22.5996C233.982 21.3248 233.821 20.4158 233.562 19.8727C233.307 19.3246 232.926 19.063 232.419 19.0878C231.902 19.1131 231.546 19.4108 231.351 19.981C231.155 20.5464 231.089 21.4665 231.151 22.7414ZM244.965 22.0646C245.054 23.8797 244.821 25.2379 244.266 26.1392C243.717 27.0402 242.823 27.521 241.586 27.5816C240.387 27.6404 239.46 27.2345 238.805 26.364C238.154 25.4933 237.786 24.1788 237.699 22.4205C237.61 20.5864 237.84 19.2213 238.39 18.325C238.939 17.4239 239.83 16.9432 241.062 16.8828C242.261 16.8241 243.189 17.2347 243.845 18.1147C244.505 18.9944 244.879 20.3111 244.965 22.0646ZM239.882 22.3136C239.944 23.5885 240.098 24.4978 240.343 25.0416C240.593 25.5804 240.978 25.8371 241.5 25.8115C242.012 25.7865 242.368 25.4887 242.568 24.9184C242.768 24.348 242.837 23.4325 242.775 22.1719C242.713 20.897 242.552 19.988 242.292 19.4449C242.037 18.8968 241.656 18.6352 241.149 18.6601C240.633 18.6854 240.277 18.9831 240.082 19.5532C239.886 20.1186 239.819 21.0388 239.882 22.3136ZM253.695 21.6368C253.784 23.452 253.552 24.8102 252.997 25.7114C252.448 26.6125 251.554 27.0933 250.317 27.1539C249.118 27.2126 248.191 26.8067 247.536 25.9362C246.885 25.0655 246.516 23.751 246.43 21.9928C246.34 20.1587 246.57 18.7935 247.12 17.8972C247.67 16.9962 248.561 16.5155 249.793 16.4551C250.992 16.3964 251.92 16.807 252.576 17.687C253.236 18.5667 253.61 19.8833 253.695 21.6368ZM248.613 21.8859C248.675 23.1607 248.829 24.07 249.074 24.6138C249.324 25.1527 249.709 25.4093 250.231 25.3838C250.742 25.3587 251.098 25.061 251.298 24.4906C251.499 23.9202 251.568 23.0047 251.506 21.7441C251.443 20.4693 251.283 19.5603 251.023 19.0172C250.768 18.4691 250.387 18.2075 249.88 18.2323C249.364 18.2576 249.008 18.5553 248.812 19.1255C248.617 19.6909 248.55 20.611 248.613 21.8859Z" fill="#252525"/>
</g>
</g>
<defs>
<clipPath id="clip0_769_2021">
<rect width="275" height="109" fill="white"/>
</clipPath>
<clipPath id="clip1_769_2021">
<rect width="275" height="108.345" fill="white" transform="translate(0 1)"/>
</clipPath>
<clipPath id="clip2_769_2021">
<rect width="217.595" height="37.1149" fill="white" transform="translate(27.6436 38.3338)"/>
</clipPath>
</defs>
</svg>
