<svg width="300" height="80" fill="none" xmlns="http://www.w3.org/2000/svg"><path d="M64.997 14.507H53.645V1.541H41.331v36.467h12.314V24.555h11.352v13.453h12.315V1.54H64.997v12.966zM96.6 1.541L80.716 38.008h12.48l2.432-6.323h13.939l2.431 6.323h12.646L108.76 1.54H96.6zm2.422 21.224l3.57-9.075 3.57 9.24h-7.13v-.165h-.01zm72.613-3.88a9.402 9.402 0 003.404-3.24 8.73 8.73 0 001.294-4.542c0-3.084-1.294-5.35-3.725-6.965-2.432-1.614-5.992-2.431-10.535-2.431h-18.482v36.3h19.445c4.698 0 8.433-.972 11.02-2.917 2.587-1.946 3.891-4.543 3.891-7.782 0-2.1-.486-3.891-1.624-5.35-1.118-1.294-2.577-2.266-4.688-3.073zm-15.874-8.755h5.184c1.946 0 3.084.973 3.084 2.753 0 1.78-.973 2.587-3.084 2.587h-5.184v-5.34zm6.799 19.289h-6.81v-5.67h6.81c1.945 0 3.083.972 3.083 2.752 0 1.945-1.138 2.918-3.083 2.918zm38.743-18.803c3.084 0 5.671 1.46 7.947 4.212l7.782-6.964c-1.78-2.432-4.046-4.212-6.809-5.35-2.753-1.294-5.992-1.946-9.562-1.946-3.891 0-7.295.807-10.368 2.432-3.084 1.625-5.506 3.891-7.296 6.81-1.78 3.083-2.587 6.322-2.587 10.047 0 3.726.807 6.965 2.587 9.893 1.78 2.918 4.212 5.184 7.296 6.81 3.083 1.624 6.643 2.43 10.368 2.43 3.57 0 6.644-.64 9.562-1.945 2.753-1.293 5.029-3.083 6.809-5.35l-7.782-6.964c-2.266 2.918-4.863 4.212-7.947 4.212-2.587 0-4.698-.807-6.157-2.432-1.625-1.625-2.266-3.89-2.266-6.643 0-2.753.807-5.03 2.266-6.644 1.459-1.8 3.56-2.608 6.157-2.608zm31.603 18.151v-4.864h15.398V15.15h-15.398v-4.377h17.509V1.53h-29.658v36.466h30.31v-9.24h-18.161v.01z" fill="#0054A6"/><path d="M117.349 44.486l-10.214 10.213h1.78l10.213-10.213h-1.779zm-5.671 0l-10.214 10.213h1.78l10.214-10.213h-1.78zm-11.031 0L90.433 54.699h1.78l10.214-10.213h-1.78zm5.515 0L95.949 54.699h1.78l10.213-10.213h-1.78zm27.713 0l-10.214 10.369h1.78l10.213-10.214h-1.779v-.155zm5.515 0l-10.213 10.213h1.779l10.214-10.213h-1.78zm-16.536 0L112.64 54.699h1.78l10.214-10.213h-1.78zm-27.713 0L84.928 54.699h1.78L96.92 44.486h-1.78zm33.218 0l-10.214 10.213h1.78l10.214-10.213h-1.78zm-72.116 0L46.029 54.699h1.78l10.214-10.213h-1.78zm88.818 0l-10.214 10.213h1.78l10.214-10.213h-1.78zm-83.147 0L51.7 54.699h1.78l10.214-10.213h-1.78zm-16.702 0L41 48.698v1.78l5.992-5.992h-1.78zm5.515 0L41 54.213v.486h1.294l10.213-10.213h-1.78zm16.692 0L57.205 54.855h1.625L69.043 44.64H67.42v-.155zm11.02 0L68.227 54.699h1.78L80.22 44.486h-1.78zm11.187 0L79.412 54.699h1.78L91.24 44.486h-1.614zm-5.67 0L73.74 54.699h1.78l10.214-10.213h-1.78zm-11.022 0L62.721 54.699h1.78l10.213-10.213h-1.78zm94.168 0l-10.213 10.213h1.78l10.213-10.213h-1.78zm61.106 0l-10.213 10.213h1.779l10.214-10.213h-1.78zm5.505 0L223.5 54.699h1.78l10.213-10.213h-1.78zm-83.147 0l-10.214 10.213h1.78l10.214-10.213h-1.78zm66.456 0l-10.214 10.213h1.78l10.214-10.213h-1.78zm33.228 0l-10.214 10.213h1.78l9.241-9.24v-.973h-.807zm-11.021 0l-10.214 10.213h1.78l10.214-10.213h-1.78zm-27.723 0l-10.213 10.213h1.78l10.213-10.213h-1.78zm35.826 10.379l3.725-3.725v-1.78l-5.35 5.35h1.625v.155zm-2.598-10.38L234.521 54.7h1.779l10.214-10.213h-1.78zm-22.197 0L212.324 54.7h1.78l10.213-10.213h-1.78zm-44.248 0L168.075 54.7h1.78l10.214-10.213h-1.78zm-16.702 0L151.373 54.7h1.78l10.214-10.213h-1.78zm44.414 0L195.787 54.7h1.78l10.214-10.213h-1.78zm-49.919 0L145.868 54.7h1.78l10.214-10.213h-1.78zm16.691 0l-10.213 10.37h1.624l10.214-10.214h-1.625v-.155zm27.723 0l-10.369 10.37h1.78l10.214-10.214h-1.625v-.155zm-5.671 0L184.612 54.7h1.779l10.214-10.213h-1.78zm-11.031 0L173.58 54.7h1.78l10.214-10.213h-1.78zm5.516 0L179.096 54.7h1.78l10.213-10.213h-1.779z" fill="#000"/><path d="M259.811 63.454l-8.754-8.755-8.589 8.59v16.039h17.343V63.454z" fill="#A6A8AB"/></svg>