<svg width="501" height="501" viewBox="0 0 501 501" fill="none" xmlns="http://www.w3.org/2000/svg">
<g clip-path="url(#clip0_366_22)">
<path d="M405.973 384.009C408.174 385.902 408.429 389.227 406.481 391.38C378.442 422.38 341.798 444.324 301.232 454.406C298.414 455.107 295.603 453.313 294.974 450.478C294.344 447.643 296.134 444.842 298.951 444.137C337.301 434.552 371.951 413.803 398.505 384.521C400.456 382.37 403.771 382.114 405.973 384.009Z" fill="#00CCF0"/>
<path d="M424.23 78.1631C426.671 75.7231 430.633 75.7177 433.011 78.218C457.962 104.449 476.934 135.806 488.587 170.133C500.91 206.435 504.716 245.084 499.712 283.091C494.709 321.099 481.028 357.447 459.73 389.321C438.432 421.196 410.087 447.744 376.887 466.912C343.687 486.08 306.523 497.353 268.27 499.861C230.016 502.368 191.698 496.042 156.281 481.371C120.864 466.702 89.2959 444.08 64.0194 415.258C40.1172 388.002 22.4469 355.893 12.2061 321.17C11.2299 317.861 13.2157 314.432 16.5489 313.539C19.882 312.645 23.3 314.626 24.2805 317.935C34.0225 350.806 50.7763 381.204 73.4146 407.018C97.4274 434.4 127.417 455.89 161.064 469.826C194.71 483.763 231.112 489.773 267.452 487.392C303.793 485.009 339.1 474.3 370.639 456.09C402.179 437.881 429.107 412.66 449.34 382.379C469.573 352.097 482.569 317.568 487.323 281.461C492.076 245.353 488.46 208.636 476.753 174.15C465.717 141.638 447.769 111.93 424.172 87.0573C421.797 84.5539 421.791 80.6031 424.23 78.1631Z" fill="#008DEF"/>
<path d="M9.01009 282.875C5.59027 283.337 2.43576 280.938 2.06004 277.508C-3.08575 230.528 5.19196 183.004 25.9968 140.475C47.7179 96.0719 82.118 59.107 124.847 34.255C167.577 9.4031 216.715 -2.22005 266.051 0.855408C313.305 3.80114 358.705 20.105 396.996 47.8073C399.792 49.8299 400.317 53.7577 398.225 56.5021C396.133 59.2465 392.217 59.7678 389.418 57.7488C353.095 31.5428 310.061 16.1195 265.273 13.3275C218.405 10.4058 171.723 21.4479 131.13 45.0572C90.5369 68.6666 57.857 103.783 37.2221 145.965C17.5033 186.275 9.63011 231.307 14.4483 275.837C14.8195 279.268 12.4299 282.413 9.01009 282.875Z" fill="#FF9F00"/>
<path d="M105.497 105.296C103.444 103.242 103.439 99.9075 105.543 97.9064C116.822 87.1773 129.258 77.7342 142.621 69.7497C145.113 68.2602 148.324 69.1598 149.751 71.6891C151.177 74.2184 150.28 77.4193 147.788 78.912C135.255 86.4233 123.583 95.2877 112.981 105.344C110.875 107.343 107.55 107.349 105.497 105.296Z" fill="#FF365D"/>
<path d="M75.2852 237.896V180.535H98.8847C103.965 180.535 108.308 181.355 111.914 182.993C115.574 184.633 118.387 186.981 120.354 190.041C122.321 193.1 123.303 196.733 123.303 200.939C123.303 205.145 122.321 208.778 120.354 211.838C118.387 214.897 115.574 217.246 111.914 218.884C108.308 220.524 103.965 221.343 98.8847 221.343H81.185L85.9373 216.345V237.896H75.2852ZM85.9373 217.492L81.185 212.329H98.3933C103.091 212.329 106.615 211.346 108.963 209.38C111.368 207.358 112.569 204.544 112.569 200.939C112.569 197.279 111.368 194.466 108.963 192.499C106.615 190.533 103.091 189.549 98.3933 189.549H81.185L85.9373 184.305V217.492ZM133.942 237.896V180.535H157.542C162.622 180.535 166.965 181.355 170.57 182.993C174.23 184.633 177.044 186.981 179.01 190.041C180.977 193.1 181.96 196.733 181.96 200.939C181.96 205.145 180.977 208.778 179.01 211.838C177.044 214.842 174.23 217.164 170.57 218.803C166.965 220.387 162.622 221.179 157.542 221.179H139.842L144.594 216.345V237.896H133.942ZM171.472 237.896L156.968 217.082H168.358L182.943 237.896H171.472ZM144.594 217.492L139.842 212.411H157.049C161.748 212.411 165.271 211.4 167.62 209.38C170.024 207.358 171.225 204.544 171.225 200.939C171.225 197.279 170.024 194.466 167.62 192.499C165.271 190.533 161.748 189.549 157.049 189.549H139.842L144.594 184.305V217.492ZM220.756 238.714C216.276 238.714 212.152 237.977 208.383 236.502C204.613 235.028 201.335 232.979 198.549 230.357C195.764 227.68 193.605 224.566 192.076 221.015C190.546 217.409 189.781 213.476 189.781 209.216C189.781 204.954 190.546 201.049 192.076 197.498C193.605 193.892 195.764 190.778 198.549 188.156C201.335 185.479 204.613 183.403 208.383 181.928C212.152 180.453 216.249 179.716 220.674 179.716C225.153 179.716 229.25 180.453 232.966 181.928C236.735 183.403 240.012 185.479 242.799 188.156C245.585 190.778 247.742 193.892 249.272 197.498C250.801 201.049 251.566 204.954 251.566 209.216C251.566 213.476 250.801 217.409 249.272 221.015C247.742 224.621 245.585 227.735 242.799 230.357C240.012 232.979 236.735 235.028 232.966 236.502C229.25 237.977 225.181 238.714 220.756 238.714ZM220.674 229.374C223.569 229.374 226.246 228.881 228.704 227.899C231.162 226.915 233.293 225.522 235.096 223.719C236.899 221.862 238.291 219.731 239.275 217.328C240.313 214.87 240.832 212.165 240.832 209.216C240.832 206.265 240.313 203.588 239.275 201.185C238.291 198.726 236.899 196.596 235.096 194.793C233.293 192.936 231.162 191.515 228.704 190.533C226.246 189.549 223.569 189.057 220.674 189.057C217.779 189.057 215.102 189.549 212.643 190.533C210.24 191.515 208.109 192.936 206.252 194.793C204.45 196.596 203.029 198.726 201.991 201.185C201.008 203.588 200.516 206.265 200.516 209.216C200.516 212.11 201.008 214.787 201.991 217.246C203.029 219.704 204.45 221.862 206.252 223.719C208.055 225.522 210.185 226.915 212.643 227.899C215.102 228.881 217.779 229.374 220.674 229.374ZM280.639 238.714C276.16 238.714 271.872 238.087 267.774 236.83C263.677 235.519 260.427 233.853 258.023 231.832L261.711 223.556C264.005 225.358 266.846 226.86 270.233 228.062C273.619 229.264 277.089 229.865 280.639 229.865C283.644 229.865 286.075 229.537 287.933 228.881C289.79 228.226 291.156 227.352 292.03 226.259C292.903 225.112 293.341 223.828 293.341 222.408C293.341 220.66 292.712 219.267 291.456 218.229C290.2 217.137 288.56 216.29 286.54 215.689C284.572 215.034 282.36 214.432 279.902 213.886C277.499 213.34 275.068 212.712 272.609 212.002C270.206 211.237 267.993 210.281 265.972 209.133C264.005 207.931 262.394 206.348 261.137 204.381C259.881 202.414 259.252 199.901 259.252 196.842C259.252 193.729 260.072 190.888 261.711 188.32C263.404 185.698 265.944 183.622 269.331 182.092C272.773 180.508 277.116 179.716 282.36 179.716C285.802 179.716 289.217 180.153 292.603 181.027C295.99 181.901 298.94 183.158 301.453 184.796L298.094 193.072C295.526 191.543 292.876 190.423 290.145 189.713C287.413 188.948 284.791 188.566 282.279 188.566C279.328 188.566 276.925 188.921 275.068 189.631C273.264 190.341 271.926 191.27 271.052 192.417C270.233 193.564 269.823 194.876 269.823 196.351C269.823 198.098 270.424 199.519 271.626 200.611C272.882 201.65 274.494 202.468 276.46 203.069C278.482 203.671 280.722 204.272 283.18 204.873C285.638 205.419 288.069 206.047 290.473 206.757C292.931 207.467 295.143 208.396 297.11 209.543C299.131 210.691 300.743 212.247 301.945 214.214C303.202 216.181 303.829 218.666 303.829 221.671C303.829 224.73 302.983 227.57 301.289 230.193C299.651 232.76 297.11 234.836 293.668 236.421C290.227 237.95 285.884 238.714 280.639 238.714ZM325.228 237.896V189.549H306.218V180.535H354.892V189.549H335.881V237.896H325.228ZM388.963 238.714C384.483 238.714 380.359 237.977 376.59 236.502C372.82 235.028 369.542 232.979 366.757 230.357C363.971 227.68 361.812 224.566 360.283 221.015C358.754 217.409 357.989 213.476 357.989 209.216C357.989 204.954 358.754 201.049 360.283 197.498C361.812 193.892 363.971 190.778 366.757 188.156C369.542 185.479 372.82 183.403 376.59 181.928C380.359 180.453 384.456 179.716 388.881 179.716C393.361 179.716 397.458 180.453 401.173 181.928C404.942 183.403 408.22 185.479 411.006 188.156C413.792 190.778 415.95 193.892 417.48 197.498C419.009 201.049 419.773 204.954 419.773 209.216C419.773 213.476 419.009 217.409 417.48 221.015C415.95 224.621 413.792 227.735 411.006 230.357C408.22 232.979 404.942 235.028 401.173 236.502C397.458 237.977 393.388 238.714 388.963 238.714ZM388.881 229.374C391.777 229.374 394.453 228.881 396.911 227.899C399.37 226.915 401.5 225.522 403.304 223.719C405.106 221.862 406.499 219.731 407.482 217.328C408.52 214.87 409.039 212.165 409.039 209.216C409.039 206.265 408.52 203.588 407.482 201.185C406.499 198.726 405.106 196.596 403.304 194.793C401.5 192.936 399.37 191.515 396.911 190.533C394.453 189.549 391.777 189.057 388.881 189.057C385.986 189.057 383.309 189.549 380.851 190.533C378.447 191.515 376.317 192.936 374.459 194.793C372.657 196.596 371.236 198.726 370.198 201.185C369.215 203.588 368.724 206.265 368.724 209.216C368.724 212.11 369.215 214.787 370.198 217.246C371.236 219.704 372.657 221.862 374.459 223.719C376.262 225.522 378.393 226.915 380.851 227.899C383.309 228.881 385.986 229.374 388.881 229.374ZM120.96 338.853C116.59 338.853 112.52 338.144 108.75 336.724C105.036 335.248 101.785 333.199 98.9991 330.577C96.2676 327.9 94.1378 324.76 92.6079 321.154C91.0781 317.548 90.3131 313.615 90.3131 309.354C90.3131 305.093 91.0781 301.16 92.6079 297.554C94.1378 293.949 96.2954 290.835 99.0816 288.213C101.867 285.537 105.118 283.487 108.832 282.067C112.547 280.592 116.617 279.855 121.042 279.855C125.74 279.855 130.029 280.674 133.907 282.313C137.786 283.897 141.063 286.274 143.74 289.442L136.857 295.916C134.782 293.676 132.46 292.009 129.892 290.917C127.324 289.77 124.538 289.196 121.534 289.196C118.529 289.196 115.77 289.688 113.258 290.671C110.8 291.654 108.641 293.048 106.784 294.85C104.981 296.653 103.561 298.783 102.523 301.242C101.54 303.7 101.048 306.404 101.048 309.354C101.048 312.304 101.54 315.009 102.523 317.467C103.561 319.925 104.981 322.055 106.784 323.858C108.641 325.661 110.8 327.054 113.258 328.037C115.77 329.02 118.529 329.513 121.534 329.513C124.538 329.513 127.324 328.966 129.892 327.873C132.46 326.726 134.782 325.006 136.857 322.711L143.74 329.266C141.063 332.381 137.786 334.757 133.907 336.395C130.029 338.035 125.713 338.853 120.96 338.853ZM153.948 338.035V280.674H177.547C182.628 280.674 186.971 281.494 190.576 283.132C194.236 284.772 197.049 287.12 199.016 290.18C200.983 293.239 201.966 296.872 201.966 301.078C201.966 305.284 200.983 308.917 199.016 311.977C197.049 314.981 194.236 317.302 190.576 318.942C186.971 320.525 182.628 321.318 177.547 321.318H159.847L164.6 316.484V338.035H153.948ZM191.477 338.035L176.974 317.221H188.363L202.949 338.035H191.477ZM164.6 317.631L159.847 312.55H177.055C181.753 312.55 185.277 311.539 187.626 309.519C190.03 307.497 191.231 304.683 191.231 301.078C191.231 297.418 190.03 294.605 187.626 292.638C185.277 290.671 181.753 289.688 177.055 289.688H159.847L164.6 284.443V317.631ZM223.717 304.52H252.234V313.288H223.717V304.52ZM224.537 329.103H256.905V338.035H213.885V280.674H255.757V289.606H224.537V329.103ZM268.78 338.035V280.674H293.854C300.082 280.674 305.544 281.876 310.243 284.279C314.941 286.684 318.601 290.016 321.223 294.276C323.845 298.538 325.157 303.563 325.157 309.354C325.157 315.09 323.845 320.116 321.223 324.432C318.601 328.693 314.941 332.025 310.243 334.429C305.544 336.833 300.082 338.035 293.854 338.035H268.78ZM279.433 329.02H293.363C297.678 329.02 301.393 328.201 304.507 326.562C307.675 324.923 310.106 322.629 311.8 319.679C313.548 316.729 314.422 313.288 314.422 309.354C314.422 305.367 313.548 301.925 311.8 299.029C310.106 296.08 307.675 293.785 304.507 292.147C301.393 290.507 297.678 289.688 293.363 289.688H279.433V329.02ZM336.479 338.035V280.674H347.132V338.035H336.479ZM374.282 338.035V289.688H355.271V280.674H403.946V289.688H384.934V338.035H374.282Z" fill="#02010D"/>
</g>
<defs>
<clipPath id="clip0_366_22">
<rect x="0.5" y="0.296875" width="500" height="500" rx="250" fill="white"/>
</clipPath>
</defs>
</svg>
