<svg width="156" height="35" viewBox="0 0 156 35" fill="none" xmlns="http://www.w3.org/2000/svg">
<g clip-path="url(#clip0_11_5)">
<path d="M156 0H0V35H156V0Z" fill="#004B9B"/>
<path d="M13.3546 21.2949H16.5772L16.5655 8.78931H21.149L21.1574 21.2949H24.3801L24.3674 8.81431H28.9518L28.9644 24.6781L8.77861 24.6905L8.7417 8.79016H13.3261L13.3546 21.2949Z" fill="white"/>
<path d="M30.191 14.1163H36.6364C39.2843 14.1163 41.0705 14.8722 41.0705 16.8061C41.0705 18.1689 40.0217 18.9131 39.0099 19.0613C40.0838 19.3218 41.4581 19.8671 41.4707 21.652C41.4707 23.8081 39.4848 24.6489 37.0609 24.6489H30.2187L30.191 14.1163ZM34.2628 18.2554H35.8493C36.7865 18.2554 37.1238 18.0323 37.1238 17.4504C37.1238 16.7436 36.7613 16.5205 35.8493 16.5205H34.2628V18.2554ZM34.2628 22.2338H35.8493C36.8612 22.2338 37.4233 22.1348 37.4233 21.3423C37.4233 20.5497 36.8738 20.3749 35.8493 20.3749H34.2628V22.2338Z" fill="white"/>
<path d="M46.4544 19.8796L50.0521 14.1039H54.2865L54.2983 24.6389H50.2517V19.0738L46.6289 24.6389H42.4196L42.407 14.1039H46.4544V19.8796Z" fill="white"/>
<path d="M73.3725 17.299L76.0707 14.0765H80.9924L77.07 18.1665L81.5168 24.6115H76.4483L74.1754 20.8653L73.3884 21.6462V24.5957H69.1665L69.1539 14.0607H73.3758L73.3725 17.299Z" fill="white"/>
<path d="M86.0256 13.7817C89.7735 13.7817 92.0841 15.9628 92.0841 19.247C92.0841 23.1022 89.4488 24.9237 86.0508 24.9237C82.6528 24.9237 80.0049 23.0772 80.0049 19.4826C80.0175 15.8147 82.4288 13.7817 86.0256 13.7817ZM84.2394 19.247C84.2394 21.2308 84.9894 22.0982 86.0634 22.0982C87.2002 22.0982 87.8874 21.2308 87.8874 19.247C87.8874 17.6986 87.1751 16.5947 86.1011 16.5947C84.6396 16.5947 84.2276 18.0574 84.2394 19.247Z" fill="white"/>
<path d="M103.039 8.76184V12.4181H97.6048L97.6173 24.5889H92.835L92.8224 8.7718L103.039 8.76184Z" fill="#5BC4F1"/>
<path d="M117.616 13.7567C121.363 13.7567 123.674 15.9378 123.674 19.2228C123.674 23.0771 121.038 24.8986 117.64 24.8986C114.242 24.8986 111.608 23.0522 111.595 19.4584C111.595 15.7896 114.031 13.7567 117.616 13.7567ZM115.83 19.2228C115.83 21.2057 116.579 22.0732 117.653 22.0732C118.79 22.0732 119.477 21.2057 119.477 19.2228C119.477 17.6735 118.765 16.5705 117.691 16.5705C116.242 16.5705 115.83 18.0481 115.83 19.2228Z" fill="#5BC4F1"/>
<path d="M128.483 21.5279H131.143V14.0522H135.191V21.5254H137.839V14.0522H141.898L141.91 24.5865L124.448 24.5989L124.436 14.0639H128.483V21.5279Z" fill="#5BC4F1"/>
<path d="M103.476 26.2898V23.5626C104.188 24.4425 105.038 24.9137 106.199 24.9137C108.572 24.9137 111.158 23.4019 111.158 19.262C111.158 16.3624 109.621 13.7717 106.411 13.7717C105.2 13.7717 103.676 14.3545 103.089 15.6431H103.051V14.069H99.2694L99.282 26.2773L103.476 26.2898ZM105.087 16.8203C106.199 16.8203 106.933 17.6386 106.933 19.3119C106.933 20.7621 106.221 21.7036 105.109 21.7036C103.997 21.7036 103.385 20.6996 103.385 19.2378C103.381 17.8342 104.075 16.8178 105.087 16.8178V16.8203Z" fill="#5BC4F1"/>
<path d="M58.808 26.3123V24.6248H64.5787V26.2981H68.4265V22.2106H67.2519V14.0923L57.0469 14.1048V17.1658C57.0469 19.3103 56.7843 20.8845 55.9604 22.2348H54.9603V26.3248L58.808 26.3123ZM60.8938 17.4755V16.5081H63.0425V22.2223H59.9071C60.6941 21.0943 60.8938 19.1854 60.8938 17.4755Z" fill="white"/>
<path d="M147.132 24.5765H142.922L142.91 14.0422H147.119L147.132 24.5765Z" fill="#5BC4F1"/>
<path d="M147.207 10.8197C147.207 11.2463 147.08 11.6633 146.841 12.018C146.602 12.3728 146.262 12.6492 145.865 12.8125C145.468 12.9757 145.031 13.0184 144.609 12.9352C144.187 12.852 143.8 12.6466 143.496 12.3449C143.192 12.0432 142.985 11.6589 142.901 11.2405C142.817 10.8221 142.86 10.3884 143.025 9.99428C143.189 9.60015 143.468 9.26325 143.826 9.02624C144.183 8.78923 144.603 8.66272 145.033 8.66272C145.61 8.66316 146.162 8.89055 146.57 9.29497C146.977 9.69938 147.207 10.2478 147.207 10.8197Z" fill="#5BC4F1"/>
</g>
<defs>
<clipPath id="clip0_11_5">
<rect width="156" height="35" fill="white"/>
</clipPath>
</defs>
</svg>
