<svg width="432" height="180" fill="none" xmlns="http://www.w3.org/2000/svg"><rect width="432" height="180" rx="5" fill="#fff"/><g clip-path="url(#clip0_113_1507)"><path fill-rule="evenodd" clip-rule="evenodd" d="M324.557 104.121c-7.873 0-14.296-6.248-14.564-14.02h-2.42c.267 9.101 7.775 16.427 16.984 16.427 6.2 0 11.617-3.326 14.592-8.268v4.529c0 8.006-6.547 14.519-14.592 14.519a14.63 14.63 0 01-9.628-3.61 1.208 1.208 0 00-1.705.109 1.198 1.198 0 00.109 1.699 17.038 17.038 0 0011.224 4.21c9.381 0 17.01-7.593 17.01-16.927V90.101h-2.445c-.267 7.772-6.688 14.02-14.565 14.02zm-186.964 1.283c0 .668.541 1.205 1.21 1.205.668 0 1.211-.537 1.211-1.205V90.101h-2.421v15.303zm-14.591 1.223h7.443c.666 0 1.209-.537 1.209-1.202 0-.666-.543-1.205-1.209-1.205h-7.443c-7.909 0-14.354-6.3-14.569-14.12h-2.421c.216 9.15 7.746 16.527 16.99 16.527zm172.167-1.223c0 .668.54 1.205 1.211 1.205.668 0 1.21-.537 1.21-1.205V90.101h-2.421v15.303zm-14.589 1.223h7.442c.667 0 1.21-.538 1.21-1.202 0-.666-.543-1.205-1.21-1.205h-7.442c-7.911 0-14.355-6.3-14.571-14.12h-2.418c.213 9.149 7.745 16.527 16.989 16.527zm-130.556-1.202c0 .665.543 1.202 1.21 1.202.669 0 1.211-.537 1.211-1.202V90.101h-2.421v15.324zm-54.596-.021c0 .668.543 1.205 1.211 1.205.669 0 1.211-.537 1.211-1.205V90.101h-2.422v15.303zm-41.276 0c0 .668.541 1.205 1.21 1.205.67 0 1.212-.537 1.212-1.205V90.101h-2.422v15.303zm20.636 0c0 .668.543 1.205 1.211 1.205.67 0 1.212-.537 1.212-1.205V90.101h-2.423v15.303zm178.356-10.268c0 4.997-4.087 9.064-9.11 9.064-5.022 0-9.108-4.067-9.108-9.064V90.1h-2.421v5.035c0 4.997-4.086 9.064-9.107 9.064-5.026 0-9.111-4.067-9.111-9.064V90.1h-2.422v5.035c0 6.327 5.173 11.473 11.533 11.473 4.519 0 8.428-2.608 10.317-6.386 1.888 3.778 5.8 6.386 10.319 6.386 6.358 0 11.531-5.146 11.531-11.473V90.1h-2.421v5.035zM42.543 96.57a14.598 14.598 0 01-12.85 7.65 14.629 14.629 0 01-12.706-7.402 1.216 1.216 0 00-1.65-.458 1.202 1.202 0 00-.459 1.64 17.051 17.051 0 0014.816 8.627c6.77 0 12.892-3.995 15.596-10.18a1.19 1.19 0 00.018-.922 1.205 1.205 0 00-.644-.664l-11.001-4.76h-6.069l14.949 6.47zm147.779 10.057c.668 0 1.209-.537 1.209-1.202 0-.666-.541-1.205-1.209-1.205-7.909 0-14.355-6.3-14.571-14.12h-2.419c.216 9.15 7.745 16.527 16.99 16.527zm8.2-1.223c0 .666.543 1.205 1.211 1.205.667 0 1.21-.539 1.21-1.205V90.101h-2.421v15.303z" fill="#FFB500"/><path fill-rule="evenodd" clip-rule="evenodd" d="M309.965 89.604V73.98c0-.665-.54-1.205-1.21-1.205-.668 0-1.211.54-1.211 1.205v15.624c0 .168.022.331.026.497h2.421c-.005-.166-.026-.33-.026-.497zm31.602-15.624c0-.664-.54-1.204-1.208-1.204-.67 0-1.21.54-1.21 1.205v15.624c0 .168-.022.331-.026.497h2.444V73.981zM105.996 89.704c0 .135.018.266.02.398h2.421c-.004-.132-.02-.264-.02-.398 0-8.005 6.545-14.52 14.59-14.52 8.044 0 14.589 6.515 14.589 14.52v.398h2.421v-.398c0-9.333-7.632-16.928-17.01-16.928-9.379 0-17.011 7.595-17.011 16.928zm174.581-16.929c-9.379 0-17.01 7.594-17.01 16.928 0 .135.019.266.022.398h2.42c-.002-.132-.021-.263-.021-.398 0-8.005 6.546-14.52 14.589-14.52 8.046 0 14.59 6.515 14.59 14.52v.398h2.42v-.398c0-9.334-7.628-16.928-17.01-16.928zm-113.542 2.409c.667 0 1.21-.537 1.21-1.203 0-.665-.543-1.205-1.21-1.205-9.379 0-17.011 7.595-17.011 16.928v.398h2.421v-.398c0-8.005 6.545-14.52 14.59-14.52zm-91.034 3.979c-1.888-3.778-5.797-6.387-10.318-6.387-6.358 0-11.531 5.148-11.531 11.473v5.853h2.422V84.25c0-4.998 4.085-9.065 9.109-9.065 5.023 0 9.107 4.067 9.107 9.065v5.853h2.422V84.25c0-4.998 4.087-9.065 9.11-9.065 5.022 0 9.108 4.067 9.108 9.065v5.853h2.422V84.25c0-6.325-5.173-11.473-11.53-11.473-4.522 0-8.431 2.609-10.32 6.387zm137.077-6.387c-.67 0-1.213.54-1.213 1.205v16.121h2.422V73.981c0-.665-.541-1.205-1.209-1.205zm21.848 1.204c0-.664-.541-1.204-1.211-1.204-.668 0-1.21.54-1.21 1.205v16.121h2.421V73.981zm19.428-1.204c-.668 0-1.208.54-1.208 1.205v16.121h2.421V73.981c0-.665-.542-1.205-1.213-1.205zM41.828 81.644c.37.552 1.122.701 1.678.332a1.2 1.2 0 00.333-1.671 17.005 17.005 0 00-14.144-7.529A17.015 17.015 0 0014.1 82.95a1.197 1.197 0 00-.018.92c.119.3.35.537.644.665l12.868 5.567h6.069L16.85 82.827a14.6 14.6 0 0112.845-7.643 14.6 14.6 0 0112.133 6.46zm133.908-5.523h6.116c.667 0 1.21-.538 1.21-1.203 0-.666-.543-1.206-1.21-1.206h-6.116v-11.49c0-.665-.542-1.204-1.211-1.204-.667 0-1.21.54-1.21 1.204v27.482c0 .134.018.266.021.398h2.419c-.003-.133-.019-.264-.019-.398V76.121zm23.997-3.345c-.668 0-1.211.54-1.211 1.205v16.121h2.421V73.981c0-.665-.543-1.205-1.21-1.205zm-.004-8.961a2.728 2.728 0 00-2.736 2.722 2.729 2.729 0 002.736 2.722 2.73 2.73 0 002.736-2.722 2.729 2.729 0 00-2.736-2.723z" fill="#31BCFF"/><path d="M371.767 64.45a5.268 5.268 0 00-1.367 5.088 5.284 5.284 0 001.355 2.367 5.337 5.337 0 002.359 1.382 5.347 5.347 0 015.653-1.846 5.298 5.298 0 001.13-3.775 5.299 5.299 0 00-1.793-3.511 5.334 5.334 0 00-3.728-1.314 5.327 5.327 0 00-3.609 1.61zm30.611.084a1.119 1.119 0 00.905.255c.275-.043.521-.19.692-.409a1.204 1.204 0 00-.164-1.65c-5.405-4.618-10.475-1.25-12.396 1.183a1.212 1.212 0 00.161 1.65 1.101 1.101 0 001.553-.094l.043-.05c.171-.214 4.192-5.172 9.206-.851" fill="#31BCFF"/><path d="M408.21 94.394l-.581 8.42a16.52 16.52 0 01-.281 4.116l-.249 3.632h-8.332l-20.442-8.871a10.54 10.54 0 013.718-3.763 10.602 10.602 0 0110.258-.33 10.557 10.557 0 013.955 3.515 1.2 1.2 0 00.784.525 1.217 1.217 0 00.924-.193 1.19 1.19 0 00.324-1.65 12.947 12.947 0 00-5.006-4.402 13.007 13.007 0 00-12.882.75 12.925 12.925 0 00-4.458 4.953h-8.99c-.164-2.211-.318-4.422-.479-6.634a2.435 2.435 0 01.692-1.846 4.927 4.927 0 013.612-1.335h25.915v.094a.668.668 0 01.341-.085h2.023l4.867-.051a4.846 4.846 0 011.909.298 4.8 4.8 0 011.634 1.02c.242.241.429.53.549.849.121.317.173.657.152.997l.043-.009zm-1.76 25.668c-.135 1.862-2.117 3.47-4.346 3.495-9.767.145-19.639.162-29.432.051-2.22 0-4.219-1.624-4.356-3.487l-.921-12.816-.102-1.378a31.132 31.132 0 01-.145-2.237v-.213h9.263l20.238 8.752a10.563 10.563 0 01-3.898 3.867 10.611 10.611 0 01-10.625-.059 10.557 10.557 0 01-3.853-3.91 1.223 1.223 0 00-1.63-.451 1.183 1.183 0 00-.57.712 1.167 1.167 0 00.109.904 12.948 12.948 0 004.852 4.87 13.024 13.024 0 0013.285-.222 12.958 12.958 0 004.687-5.031h7.941l-.497 7.153zm-21.347-45.501a28.86 28.86 0 00.941-8.598 28.972 28.972 0 003.415 7.739v13.965h-4.27V75.054c0-.16-.031-.32-.093-.468l.007-.025zm-12.526 9.457a12.3 12.3 0 01-7.001-.902 12.243 12.243 0 01-5.343-4.596 12.18 12.18 0 01.229-13.467l21.134-6.855c1.134 2.135 3.893 8.887.196 19-1.29 3.52-4.817 6.132-9.215 6.803v.017zm15.25-26.662h22.202a12.212 12.212 0 014.109 5.705c.781 2.262.879 4.701.279 7.017a12.209 12.209 0 01-3.642 6.011 12.296 12.296 0 01-6.364 3.022c-.713.112-1.431.169-2.153.17a10.91 10.91 0 01-4.808-.913 10.863 10.863 0 01-3.917-2.922c-6.67-8.505-6.149-15.76-5.739-18.133l.033.043zm16.138 31.51h-.075c-3.297.051-6.601.076-9.915.102h-.17v-.127a1.178 1.178 0 00-1.177-1.174h-.803V77.112a13.261 13.261 0 004.718 3.487 13.306 13.306 0 005.767 1.114 17.198 17.198 0 002.56-.195 14.64 14.64 0 007.712-3.664 14.519 14.519 0 003.82-15.826 14.549 14.549 0 00-5.194-6.756 1.198 1.198 0 00-.691-.221L386.939 55a1.177 1.177 0 00-1.125.85 16.173 16.173 0 00-.514 5.197 16.285 16.285 0 00-2.143-4.916 1.18 1.18 0 00-.595-.429 1.196 1.196 0 00-.737.004l-22.414 7.271a1.158 1.158 0 00-.59.426 14.542 14.542 0 00-2.759 7.435 14.546 14.546 0 001.556 7.774 14.59 14.59 0 005.409 5.814 14.677 14.677 0 007.665 2.135 15.063 15.063 0 002.313-.187 14.396 14.396 0 009.863-5.953v7.288h-.931a1.188 1.188 0 00-.836.338 1.126 1.126 0 00-.258.38 1.119 1.119 0 00-.093.448.39.39 0 000 .144c-3.306 0-6.61 0-9.897-.06h-.112a7.144 7.144 0 00-5.277 2.042 4.815 4.815 0 00-1.035 1.68 4.766 4.766 0 00-.27 1.951c.197 2.654.384 5.307.581 7.969v.851h.059c.095 1.327.187 2.653.291 3.989l.922 12.816c.222 3.087 3.218 5.639 6.686 5.673 4.893.059 9.852.076 14.745.068 4.894-.009 9.855 0 14.746-.111 3.468-.051 6.456-2.611 6.67-5.706l1.707-25.634a4.809 4.809 0 00-.289-1.945 4.81 4.81 0 00-1.042-1.67 7.196 7.196 0 00-5.277-2.075l.007.01z" fill="#31BCFF"/><path d="M402.734 94.121a2.682 2.682 0 00-2.482 1.64 2.668 2.668 0 00.573 2.912 2.688 2.688 0 004.126-.392c.296-.437.454-.953.457-1.481a2.696 2.696 0 00-.779-1.89 2.702 2.702 0 00-1.895-.789zm-30.387 11.905h-1.76a.859.859 0 00-.604.249.848.848 0 00-.251.602v1.786a.854.854 0 00.855.85h1.793a.854.854 0 00.855-.85v-1.786a.848.848 0 00-.251-.602.859.859 0 00-.604-.249m-.033 4.835h-1.76a.855.855 0 00-.855.851v1.786a.854.854 0 00.855.85h1.793a.854.854 0 00.855-.85v-1.786a.855.855 0 00-.855-.851m-.033 4.797h-1.76a.859.859 0 00-.604.249.848.848 0 00-.251.602v1.786a.854.854 0 00.855.85h1.793a.854.854 0 00.855-.85v-1.786a.848.848 0 00-.251-.602.859.859 0 00-.604-.249" fill="#31BCFF"/></g><defs><clipPath id="clip0_113_1507"><path fill="#fff" transform="translate(14 55)" d="M0 0h405v71H0z"/></clipPath></defs></svg>