<svg width="331" height="172" viewBox="0 0 331 172" fill="none" xmlns="http://www.w3.org/2000/svg">
<g clip-path="url(#clip0_3967_34796)">
<path d="M86.351 0.219238L59.5635 69.4428L0 66.1803L53.0432 57.4652L86.351 0.219238Z" fill="#42D8CB"/>
<path d="M175.5 63.8509L111.32 65.1857L87.0889 0.681641L118.075 54.8432L175.5 63.8509Z" fill="#81D8D0"/>
<path d="M3.99097 67.7407L53.0432 90.9322L51.281 96.5687L3.99097 67.7407Z" fill="#81D8D0"/>
<path d="M85.6446 5.32715L69.7845 69.4426H64.4978L85.6446 5.32715Z" fill="#81D8D0"/>
<path d="M35.0686 163.15L59.5636 107.137L53.7482 103.614L35.0686 163.15Z" fill="#81D8D0"/>
<path d="M37.5517 165.146L69.0797 132.983L75.7459 133.173L37.5515 165.142L37.5517 165.146Z" fill="#81D8D0"/>
<path d="M125.471 51.8288L119.656 50.5506L91.2588 3.84912L125.471 51.8288Z" fill="#42D8CB"/>
<path d="M49.8712 101.148L30.6394 170.858L38.8512 107.479L0.546387 66.4756L49.8712 101.148Z" fill="#42D8CB"/>
<path d="M298.522 132.983L92.9153 141.517L30.1677 171.835L82.8514 132.983H298.522Z" fill="#42D8CB"/>
<path d="M78.0467 123.453L78.0467 123.453L78.0535 123.455C80.7401 124.605 83.7514 125.174 87.0787 125.174C90.5984 125.174 93.6701 124.509 96.2774 123.16L96.2803 123.158C98.9183 121.771 100.929 119.94 102.29 117.662C103.691 115.397 104.395 112.976 104.395 110.411C104.395 107.261 103.654 104.695 102.119 102.764C100.669 100.836 98.8736 99.407 96.7377 98.4864C94.6986 97.5875 92.0577 96.6947 88.8228 95.8058L88.82 95.8051C86.3992 95.1548 84.5053 94.5548 83.1301 94.0058L83.13 94.0058C81.7871 93.4698 80.6819 92.7619 79.8033 91.8879C79.0155 91.0144 78.6099 89.9071 78.6099 88.5274C78.6099 86.458 79.2871 84.936 80.5955 83.883C81.9357 82.8046 83.6856 82.2457 85.8876 82.2457C88.3263 82.2457 90.2367 82.8528 91.6674 84.0207L91.9836 83.6334L91.6674 84.0207C93.1172 85.2042 93.8796 86.599 94.0076 88.2173L94.044 88.6779H94.506H103.335H103.876L103.833 88.1381C103.496 83.9088 101.753 80.559 98.5976 78.1355C95.5008 75.6745 91.5304 74.4639 86.7284 74.4639C83.3558 74.4639 80.365 75.0327 77.7671 76.1847L77.7671 76.1847C75.1665 77.338 73.1272 79.0046 71.6683 81.1882C70.206 83.3767 69.4819 85.9227 69.4819 88.8071C69.4819 91.9119 70.2004 94.4539 71.688 96.3835C73.1361 98.2619 74.8815 99.6675 76.9233 100.589L76.9297 100.592L76.9363 100.595C78.9738 101.446 81.5902 102.292 84.7789 103.134L84.7815 103.135C87.2958 103.785 89.2344 104.385 90.6071 104.932L90.6071 104.932L90.6121 104.934C91.9967 105.47 93.1204 106.22 93.9964 107.182L93.9963 107.182L94.0045 107.19C94.8832 108.109 95.3373 109.307 95.3373 110.831C95.3373 112.786 94.6269 114.372 93.1989 115.625C91.776 116.828 89.7576 117.462 87.0787 117.462C84.5011 117.462 82.5573 116.809 81.1808 115.565C79.8307 114.305 79.0648 112.698 78.8882 110.716L78.8476 110.261H78.3902H69.8418H69.3418V110.761C69.3418 113.651 70.1164 116.202 71.6768 118.392L71.6769 118.392C73.2291 120.57 75.3585 122.255 78.0467 123.453Z" fill="#002215" stroke="#002215"/>
<path d="M123.14 85.1609V76.0825V75.5825H122.64H114.582H114.082V76.0825V85.1609H110.027H109.527V85.6609V92.163V92.663H110.027H114.082V113.487C114.082 117.336 115.058 120.233 117.126 122.044L117.455 121.668L117.126 122.044C119.163 123.828 122.055 124.684 125.723 124.684H132.029H132.529V124.184V117.542V117.042H132.029H127.124C125.538 117.042 124.526 116.747 123.962 116.267C123.451 115.748 123.14 114.861 123.14 113.487V92.663H127.124H127.373L127.523 92.4641L132.428 85.962L133.033 85.1609H132.029H123.14Z" fill="#002215" stroke="#002215"/>
<path d="M138.673 94.2299L138.673 94.2299L138.67 94.2353C137.038 97.3006 136.229 100.809 136.229 104.748C136.229 108.687 137.038 112.239 138.667 115.394L138.667 115.394L138.671 115.402C140.345 118.504 142.598 120.947 145.432 122.721L145.432 122.721L145.437 122.724C148.274 124.451 151.401 125.314 154.806 125.314C157.865 125.314 160.609 124.693 163.024 123.44C164.94 122.446 166.544 121.247 167.83 119.84V124.184V124.684H168.33H176.388H176.888V124.184V85.6609V85.1609H176.388H168.33H167.83V85.6609V89.8904C166.553 88.5227 164.972 87.3624 163.096 86.4068C160.77 85.1504 158.048 84.5317 154.946 84.5317C151.496 84.5317 148.324 85.3937 145.441 87.119C142.604 88.7989 140.348 91.1738 138.673 94.2299ZM166.21 98.2065L166.21 98.2066L166.214 98.2145C167.285 100.084 167.83 102.302 167.83 104.888C167.83 107.473 167.285 109.716 166.212 111.635L166.21 111.638C165.176 113.524 163.813 114.946 162.124 115.921C160.425 116.902 158.595 117.392 156.628 117.392C154.711 117.392 152.882 116.904 151.134 115.922C149.445 114.9 148.058 113.432 146.977 111.5C145.949 109.58 145.427 107.335 145.427 104.748C145.427 102.159 145.95 99.9644 146.973 98.1429C148.053 96.2565 149.438 94.8586 151.123 93.9293L151.123 93.9294L151.132 93.9244C152.832 92.943 154.661 92.4533 156.628 92.4533C158.595 92.4533 160.425 92.9431 162.124 93.9244C163.813 94.9001 165.176 96.3218 166.21 98.2065Z" fill="#002215" stroke="#002215"/>
<path d="M192.9 89.6283V85.661V85.161H192.4H184.412H183.912V85.661V124.184V124.684H184.412H192.4H192.9V124.184V103.909C192.9 100.037 193.69 97.4575 195.133 96.0154C196.753 94.4456 199.01 92.6631 201.929 92.6631H203.961H204.461V92.1631V85.661V85.161H203.961C203.799 85.161 203.638 85.1607 203.477 85.1604C201.045 85.1555 198.75 85.1509 196.779 86.2744C195.258 87.1256 193.965 88.2451 192.9 89.6283Z" fill="#002215" stroke="#002215"/>
<path d="M229.604 92.6634H230.104V92.1634V85.6613V85.1613H229.604H222.957V82.9346C222.957 80.7454 223.442 79.3638 224.264 78.6214L224.264 78.6215L224.273 78.6127C225.111 77.8167 226.651 77.352 229.044 77.352H229.544V76.852V70.21V69.71H229.044C223.948 69.71 220.091 70.7431 217.577 72.9071C215.089 75.0421 213.899 78.4269 213.899 82.9346V85.1613H209.845H209.345V85.6613V92.1634V92.6634H209.845H213.899V124.184V124.684H214.399H222.457H222.957V124.184V92.6634H229.604Z" fill="#002215" stroke="#002215"/>
<path d="M245.524 85.661V85.161H245.024H237.036H236.536V85.661V124.184V124.684H237.036H245.024H245.524V124.184V85.661ZM237.103 79.443C238.182 80.5199 239.526 81.0572 241.1 81.0572C242.632 81.0572 243.951 80.5166 245.026 79.443C246.106 78.3661 246.645 77.0249 246.645 75.4534C246.645 73.8819 246.106 72.5407 245.026 71.4639C243.951 70.3902 242.632 69.8496 241.1 69.8496C239.526 69.8496 238.182 70.3869 237.103 71.4639C236.023 72.5409 235.485 73.8822 235.485 75.4534C235.485 77.0247 236.023 78.3659 237.103 79.443Z" fill="#002215" stroke="#002215"/>
<path d="M290.315 124.684H290.815V124.184V101.462C290.815 97.902 290.125 94.832 288.721 92.2722C287.321 89.7182 285.358 87.782 282.839 86.4764C280.377 85.1759 277.586 84.5317 274.479 84.5317C272.124 84.5317 269.884 84.9878 267.765 85.901L267.765 85.9009L267.761 85.9026C266.113 86.6293 264.687 87.5869 263.488 88.7766V85.6609V85.1609H262.988H255H254.5V85.6609V124.184V124.684H255H262.988H263.488V124.184V102.651C263.488 99.2808 264.331 96.7893 265.943 95.0947C267.608 93.3456 269.851 92.4533 272.728 92.4533C275.605 92.4533 277.821 93.3456 279.438 95.0899L279.438 95.09L279.443 95.0944C281.054 96.7891 281.897 99.2807 281.897 102.651V124.184V124.684H282.397H290.315Z" fill="#002215" stroke="#002215"/>
<g clip-path="url(#clip1_3967_34796)">
<path d="M254 80.8251C279.491 66.3848 304.981 95.2654 330.471 80.8251V32.7062C304.981 47.1465 279.491 18.2658 254 32.7062V80.8251Z" fill="#FFF915"/>
<path d="M330.471 56.7195C304.981 71.1367 279.491 42.2792 254.023 56.7195V32.7062C279.514 18.2658 305.004 47.1234 330.471 32.7062V56.7195Z" fill="#25BBEF"/>
<path style="mix-blend-mode:multiply" d="M254.598 47.9767V64.1701V80.2713C280.065 65.9002 305.533 94.7116 330.977 80.2713V32.1523C305.533 46.5926 280.065 17.7582 254.598 32.1523V47.9767Z" fill="url(#paint0_linear_3967_34796)"/>
<path style="mix-blend-mode:overlay" opacity="0.25" d="M254.598 47.9767V64.1701V80.2713C280.065 65.9002 305.533 94.7116 330.977 80.2713V32.1523C305.533 46.5926 280.065 17.7582 254.598 32.1523V47.9767Z" fill="url(#paint1_linear_3967_34796)"/>
</g>
</g>
<defs>
<linearGradient id="paint0_linear_3967_34796" x1="331" y1="56.2118" x2="254.598" y2="56.2118" gradientUnits="userSpaceOnUse">
<stop stop-color="white"/>
<stop offset="0.13" stop-color="#F6F6F6"/>
<stop offset="0.34" stop-color="#DFE0E0"/>
<stop offset="0.54" stop-color="#C4C5C6"/>
<stop offset="0.57" stop-color="#C1C2C3"/>
<stop offset="0.69" stop-color="#BEBFC0"/>
<stop offset="0.91" stop-color="white"/>
</linearGradient>
<linearGradient id="paint1_linear_3967_34796" x1="331" y1="56.2118" x2="254.598" y2="56.2118" gradientUnits="userSpaceOnUse">
<stop stop-color="white"/>
<stop offset="0.13" stop-color="#F6F6F6"/>
<stop offset="0.34" stop-color="#DFE0E0"/>
<stop offset="0.54" stop-color="#C4C5C6"/>
<stop offset="0.57" stop-color="#C1C2C3"/>
<stop offset="0.69" stop-color="#BEBFC0"/>
<stop offset="0.91" stop-color="white"/>
</linearGradient>
<clipPath id="clip0_3967_34796">
<rect width="331" height="172" fill="white"/>
</clipPath>
<clipPath id="clip1_3967_34796">
<rect width="77" height="57" fill="white" transform="matrix(-1 0 0 1 331 28)"/>
</clipPath>
</defs>
</svg>
