<svg width="320" height="98" viewBox="0 0 320 98" fill="none" xmlns="http://www.w3.org/2000/svg">
<rect width="320" height="98" fill="white"/>
<path d="M85.0464 58.1328L89.8563 54.5125C92.2698 57.8225 95.0626 59.4775 98.2347 59.4775C99.7518 59.4775 100.941 59.1499 101.803 58.4948C102.665 57.8053 103.096 56.8743 103.096 55.702C103.096 54.7366 102.803 53.9953 102.217 53.4781C101.631 52.9265 100.476 52.2541 98.7519 51.4611L95.0799 49.8061C89.5632 47.3581 86.8049 44.0825 86.8049 39.9795C86.8049 37.0833 87.8737 34.7559 90.0114 32.9975C92.1491 31.2046 94.8557 30.3081 98.1313 30.3081C100.683 30.3081 102.924 30.8943 104.855 32.0666C106.786 33.2044 108.303 34.7732 109.406 36.773L104.648 40.445C102.889 37.8246 100.717 36.5144 98.1313 36.5144C96.89 36.5144 95.8729 36.8074 95.0799 37.3936C94.2868 37.9797 93.8903 38.79 93.8903 39.8244C93.8903 40.6864 94.1662 41.3932 94.7178 41.9448C95.304 42.462 96.3556 43.0654 97.8727 43.755L101.752 45.4617C104.682 46.7719 106.82 48.2028 108.165 49.7544C109.509 51.2715 110.182 53.1678 110.182 55.4434C110.182 58.5121 109.061 60.9946 106.82 62.8909C104.579 64.7528 101.717 65.6837 98.2347 65.6837C95.3729 65.6837 92.787 65.0114 90.4769 63.6667C88.2013 62.322 86.3911 60.4774 85.0464 58.1328Z" fill="#293056"/>
<path d="M115.591 53.7884V39.4623H122.573V54.3573C122.573 55.8399 123.021 57.0295 123.918 57.9259C124.849 58.8224 126.021 59.2706 127.435 59.2706C128.814 59.2706 129.952 58.8224 130.848 57.9259C131.745 56.995 132.193 55.8055 132.193 54.3573V39.4623H139.175V53.7884C139.175 57.3053 138.054 60.1671 135.813 62.3737C133.607 64.5804 130.814 65.6837 127.435 65.6837C123.987 65.6837 121.142 64.5976 118.901 62.4255C116.695 60.2188 115.591 57.3398 115.591 53.7884Z" fill="#293056"/>
<path d="M169.383 49.1855V65.0631H162.452V50.1164C162.452 48.6338 162.004 47.4443 161.108 46.5478C160.246 45.6169 159.108 45.1514 157.694 45.1514C156.281 45.1514 155.108 45.6169 154.177 46.5478C153.281 47.4443 152.833 48.6338 152.833 50.1164V65.0631H145.851V39.4623H152.264V41.7897C154.195 39.8589 156.694 38.8934 159.763 38.8934C162.728 38.8934 165.073 39.8244 166.797 41.6862C168.521 43.5481 169.383 46.0479 169.383 49.1855Z" fill="#293056"/>
<path d="M174.656 52.2369C174.656 48.5131 175.983 45.3583 178.638 42.7723C181.293 40.1864 184.534 38.8934 188.361 38.8934C193.395 38.8934 197.102 40.9967 199.481 45.2031L194.619 48.9786C192.895 46.4961 190.844 45.2548 188.465 45.2548C186.5 45.2548 184.879 45.9272 183.603 47.2719C182.362 48.5821 181.741 50.2371 181.741 52.2369C181.741 54.2711 182.362 55.9606 183.603 57.3053C184.879 58.6155 186.5 59.2706 188.465 59.2706C190.844 59.2706 192.895 58.0466 194.619 55.5986L199.481 59.3223C198.343 61.3221 196.809 62.8909 194.878 64.0287C192.982 65.1321 190.809 65.6837 188.361 65.6837C184.603 65.7527 181.362 64.4597 178.638 61.8048C175.914 59.1155 174.587 55.9261 174.656 52.2369Z" fill="#293056"/>
<path d="M220.363 39.4623V45.6169H218.501C216.363 45.6169 214.674 46.1858 213.433 47.3236C212.226 48.4614 211.622 50.1164 211.622 52.2886V65.0631H204.64V39.4623H211.053V42.5137C212.846 40.2726 215.191 39.152 218.087 39.152C218.949 39.152 219.708 39.2555 220.363 39.4623Z" fill="#293056"/>
<path d="M247.718 54.6159H229.772C230.186 56.2365 231.013 57.4949 232.255 58.3914C233.53 59.2534 235.099 59.6844 236.961 59.6844C239.478 59.6844 241.857 58.8224 244.098 57.0984L246.994 61.8566C243.926 64.408 240.512 65.6837 236.754 65.6837C232.823 65.7527 229.479 64.477 226.721 61.8566C223.997 59.2017 222.669 56.0123 222.738 52.2886C222.669 48.5993 223.962 45.4272 226.617 42.7723C229.272 40.1174 232.444 38.8245 236.133 38.8934C239.65 38.8934 242.529 40.0312 244.77 42.3069C247.046 44.5825 248.184 47.4098 248.184 50.7887C248.184 52.03 248.029 53.3057 247.718 54.6159ZM229.772 49.7027H241.409C241.374 48.1511 240.823 46.9098 239.754 45.9789C238.719 45.0135 237.426 44.5308 235.875 44.5308C234.392 44.5308 233.099 44.9962 231.996 45.9272C230.893 46.8581 230.151 48.1166 229.772 49.7027Z" fill="#293056"/>
<path d="M272.25 26.2741H279.233V65.0631H272.819V61.9083C271.061 64.4253 268.32 65.6837 264.596 65.6837C261.01 65.6837 258.045 64.4253 255.7 61.9083C253.356 59.3568 252.184 56.1503 252.184 52.2886C252.184 48.4269 253.356 45.2376 255.7 42.7206C258.045 40.1692 261.01 38.8934 264.596 38.8934C267.837 38.8934 270.389 39.9106 272.25 41.9448V26.2741ZM270.492 57.4605C271.733 56.2192 272.354 54.4953 272.354 52.2886C272.354 50.0819 271.733 48.358 270.492 47.1167C269.251 45.841 267.716 45.2031 265.889 45.2031C263.993 45.2031 262.407 45.8582 261.131 47.1684C259.89 48.4786 259.269 50.1681 259.269 52.2369C259.269 54.3401 259.89 56.0468 261.131 57.357C262.372 58.6672 263.958 59.3223 265.889 59.3223C267.751 59.3223 269.285 58.7017 270.492 57.4605Z" fill="#293056"/>
<path d="M286.158 65.0631V39.4623H293.14V65.0631H286.158ZM285.175 30.153C285.175 28.9117 285.606 27.8773 286.468 27.0498C287.33 26.2223 288.382 25.8086 289.623 25.8086C290.864 25.8086 291.916 26.2223 292.778 27.0498C293.674 27.8773 294.123 28.9117 294.123 30.153C294.123 31.3597 293.674 32.3769 292.778 33.2044C291.916 34.0319 290.864 34.4456 289.623 34.4456C288.382 34.4456 287.33 34.0319 286.468 33.2044C285.606 32.3769 285.175 31.3597 285.175 30.153Z" fill="#293056"/>
<path d="M316.494 59.2189V65.0631C314.839 65.4769 313.236 65.6837 311.684 65.6837C308.408 65.6837 305.874 64.8735 304.081 63.253C302.323 61.6324 301.444 59.2361 301.444 56.0641V45.3583H297.41V39.4623H301.444V32.9975H308.426V39.4623H315.666V45.3583H308.426V55.4434C308.426 56.8916 308.788 57.9259 309.512 58.5466C310.27 59.1327 311.494 59.4258 313.184 59.4258C313.77 59.4258 314.873 59.3568 316.494 59.2189Z" fill="#293056"/>
<circle cx="45.2913" cy="49.5986" r="25.7089" fill="url(#paint0_linear_3248_1102)"/>
<path d="M50.9384 78.4239L47.2159 79.2453L50.2778 84.2828L53.3384 89.3229L53.999 83.464L54.6622 77.6063L50.9384 78.4239Z" fill="#FFDD1C"/>
<path d="M25.3741 72.3851L22.4112 69.9852L20.3816 75.5228L18.3506 81.0566L23.3444 77.9226L28.3369 74.7849L25.3741 72.3851Z" fill="#FFDD1C"/>
<path d="M14.1555 48.6338L14.1875 44.8214L8.5944 46.6843L3.00002 48.5497L8.56494 50.498L14.1273 52.445L14.1555 48.6338Z" fill="#FFDD1C"/>
<path d="M25.7331 25.0529L28.7313 22.6999L23.7892 19.4895L18.8446 16.2779L20.7898 21.845L22.7362 27.4096L25.7331 25.0529Z" fill="#FFDD1C"/>
<path d="M51.3877 19.4013L55.0984 20.278L54.5267 14.4115L53.9524 8.54385L50.816 13.5349L47.677 18.5247L51.3877 19.4013Z" fill="#FFDD1C"/>
<path d="M71.7989 35.9354L73.428 39.3843L77.6571 35.2774L81.8888 31.1719L76.0306 31.8298L70.1711 32.4903L71.7989 35.9354Z" fill="#FFDD1C"/>
<path d="M71.6006 62.2053L69.921 65.6261L75.7679 66.3756L81.616 67.1226L77.4487 62.9523L73.2814 58.7819L71.6006 62.2053Z" fill="#FFDD1C"/>
<path d="M61.743 52.7893C58.2644 63.218 52.0162 52.0859 52.0162 52.0859L61.743 52.7893Z" fill="#293056"/>
<path d="M53.3136 52.8662L60.1477 53.4609C60.1477 53.4609 55.9274 56.807 53.3136 52.8662Z" fill="#F7F7FC"/>
<path d="M71.7952 42.5211C71.0944 40.143 69.5571 35.1375 68.532 32.9557C68.2297 32.3213 67.6625 31.8518 66.9818 31.7009C66.0503 31.4962 65.1185 31.3258 64.1914 31.1899C63.6233 31.1039 63.0576 31.0301 62.4942 30.9687C62.0465 30.9206 61.6011 30.8798 61.1582 30.8415C49.9645 29.9453 39.7122 33.1941 35.2256 34.9027C35.1219 34.9411 35.023 34.9795 34.9242 35.018C33.6073 35.5326 32.4209 36.3236 31.4369 37.3449L25.0981 43.914L25.0558 43.9579L23.8681 45.1913L22.5909 46.5149C22.2504 46.8708 22.0835 47.3732 22.1433 47.8629C22.1407 47.8776 22.148 47.8924 22.1479 47.9047C22.3066 49.1916 23.8108 49.7947 24.8054 48.9725L24.8277 48.9555L26.0505 47.9436L26.0876 47.9144L34.0741 41.3154C34.0741 41.3154 34.3136 41.7968 35.1529 46.0884C35.5256 47.972 36.6495 48.9871 37.7971 49.5427C38.3488 49.8056 38.9359 49.9705 39.5337 50.0396C40.2741 50.1272 41.0355 50.0699 41.7659 49.887C45.0802 49.0531 48.3963 48.2953 51.564 47.615C52.6594 47.3787 53.6669 46.7681 54.2906 45.8296C54.6749 45.2529 54.9046 44.6084 54.8886 43.8955C54.8059 40.3774 53.7721 36.089 53.7721 36.089L58.1448 35.3085C58.1448 35.3085 59.1411 40.506 60.534 42.8655C61.4755 44.4641 63.3076 45.3059 65.1203 44.9825C66.0427 44.8209 66.8886 44.6734 67.6555 44.5449C68.1388 44.4655 68.5901 44.3883 69.0044 44.3206C69.4779 44.2436 69.9045 44.1736 70.2793 44.1154C70.4889 44.0804 70.6837 44.0501 70.8612 44.0197L70.8613 44.0148C71.5567 43.9029 71.9961 43.2012 71.7927 42.5235L71.7952 42.5211ZM60.2295 37.1112L60.2246 37.1087L60.2295 37.1087L60.2295 37.1112ZM69.6627 42.2494L68.3876 42.4742L67.0707 42.7061L64.1137 43.2285C63.0113 43.4229 61.9311 42.7671 61.5957 41.6876C61.0184 39.8391 60.233 37.2759 60.227 37.1185L63.2182 41.1486L66.7318 41.7446L68.212 41.9959L69.6578 42.2419L69.6775 42.2421L69.6602 42.2469L69.6627 42.2494Z" fill="#293056"/>
<path d="M49.198 45.5144L41.4763 47.2075C40.4914 47.4239 39.5009 47.1512 38.7788 46.5362C38.3738 46.1904 38.0534 45.7402 37.8614 45.208C36.94 42.6377 35.6686 39.0596 35.6871 38.9131L35.6945 38.9132L37.2093 40.782L40.1101 44.362L49.2004 45.5144L49.198 45.5144Z" fill="#8D94BA"/>
<path d="M69.6775 42.2995L68.3999 42.5259L67.0802 42.7593L64.1172 43.2851C63.0125 43.4807 61.9301 42.8208 61.5941 41.7345C61.0157 39.8743 60.2288 37.2951 60.2228 37.1367L63.22 41.1921L66.7407 41.7916L68.2239 42.0445L69.6726 42.2921C69.6726 42.2921 69.6775 42.2946 69.6751 42.297L69.6775 42.2995Z" fill="#8D94BA"/>
<defs>
<linearGradient id="paint0_linear_3248_1102" x1="21.1957" y1="24.4251" x2="70.5997" y2="24.5944" gradientUnits="userSpaceOnUse">
<stop stop-color="#FFED54"/>
<stop offset="0.473958" stop-color="#FAEC2B"/>
<stop offset="0.901042" stop-color="#FFD900"/>
<stop offset="1" stop-color="#FFDE20"/>
</linearGradient>
</defs>
</svg>
