<svg width="888" height="143" fill="none" xmlns="http://www.w3.org/2000/svg"><path d="M81.268 8.044v18.853H50.19v84.275H31.247V26.874H0V8.044h81.268zm83.397 29.446l-41.287 103.128h-20.137l11.528-31.38L86.463 37.49h20.136l18.965 51.12 18.818-51.12h20.283zm11.821 0h18.965v103.128h-18.965V37.49zm21.883 65.183c-6.423-7.51-9.631-16.96-9.623-28.353.007-11.393 3.215-20.848 9.623-28.365a30.464 30.464 0 0110.694-8.39 30.177 30.177 0 0113.24-2.874c4.686-.052 9.325.94 13.587 2.908a31.883 31.883 0 0111.069 8.47c6.716 7.585 10.07 17.013 10.062 28.285-.007 11.272-3.361 20.7-10.062 28.285a31.888 31.888 0 01-11.069 8.47 31.581 31.581 0 01-13.587 2.908 30.095 30.095 0 01-13.255-2.902 30.384 30.384 0 01-10.679-8.442zm3.212-43.747a22.356 22.356 0 00-6.128 15.394 22.356 22.356 0 006.128 15.394 21.939 21.939 0 0015.173 6.108 21.94 21.94 0 0015.173-6.108 21.834 21.834 0 006.141-15.284 21.83 21.83 0 00-6.264-15.234 21.411 21.411 0 00-15.057-6.397 21.402 21.402 0 00-15.166 6.127zm140.675-45.193c-5.349 5.112-15.415 8.647-30.2 10.604a26.976 26.976 0 00-17.894 9.876c-4.432 5.5-6.937 13.012-7.516 22.54a28.383 28.383 0 0111.269-11.378 32.162 32.162 0 0116.17-4.21 29.333 29.333 0 0112.492 2.55 29.599 29.599 0 0110.27 7.621c6.13 6.774 9.195 15.17 9.195 25.191 0 10.71-3.625 19.6-10.874 26.669-7.249 7.07-16.373 10.624-27.371 10.661a40.251 40.251 0 01-20.283-5.154 34.873 34.873 0 01-13.86-14.29c-3.989-7.585-5.984-17.556-5.984-29.912 0-16.885 3.602-30.095 10.807-39.63 7.204-9.534 17.417-15.223 30.638-17.066 11.87-1.57 19.799-4.172 23.788-7.805l9.353 13.733zm-54.089 62.464c-.02 2.478.499 4.93 1.521 7.184a16.904 16.904 0 004.395 5.855 20.385 20.385 0 0014.221 5.382 18.95 18.95 0 0013.421-5.018 16.417 16.417 0 004.079-5.732 16.547 16.547 0 001.318-6.931 16.076 16.076 0 00-1.384-6.854 15.918 15.918 0 00-4.16-5.594 20.285 20.285 0 00-14.006-4.938 20.66 20.66 0 00-13.86 4.71 14.914 14.914 0 00-4.19 5.324 15.061 15.061 0 00-1.422 6.646l.067-.034z" fill="#171E26"/><path d="M485.328 9.635h72.963v17.83h-53.987v85.333h-18.976V9.635zm72.963 29.445h18.965v103.13h-18.965V39.081zm21.883 65.184c-6.423-7.51-9.634-16.96-9.634-28.353s3.211-20.848 9.634-28.365a30.393 30.393 0 0110.685-8.396 30.1 30.1 0 0113.238-2.868c4.687-.053 9.328.94 13.592 2.906a31.896 31.896 0 0111.075 8.472c6.708 7.585 10.062 17.013 10.062 28.285 0 11.271-3.354 20.7-10.062 28.285a31.888 31.888 0 01-11.075 8.471 31.59 31.59 0 01-13.592 2.907 30.088 30.088 0 01-13.244-2.904 30.374 30.374 0 01-10.668-8.44h-.011zm3.212-43.747a21.56 21.56 0 00-5.995 11.075 21.693 21.693 0 001.193 12.564 21.455 21.455 0 007.969 9.724 21.148 21.148 0 0012 3.535 20.567 20.567 0 008.21-1.483 20.723 20.723 0 006.968-4.627 21.83 21.83 0 006.142-15.284 21.83 21.83 0 00-6.264-15.234 21.411 21.411 0 00-15.057-6.398 21.4 21.4 0 00-15.166 6.127zm76.749 43.679c-7.775-7.464-11.663-16.945-11.663-28.445 0-11.499 3.888-20.98 11.663-28.444 7.783-7.464 17.316-11.196 28.599-11.196 11.284 0 20.817 3.732 28.599 11.196 7.783 7.464 11.674 16.945 11.674 28.444 0 11.5-3.891 20.981-11.674 28.445-7.775 7.464-17.308 11.196-28.599 11.196s-20.824-3.732-28.599-11.196zm13.522-43.907a22.357 22.357 0 00-6.199 15.468c0 5.773 2.223 11.32 6.199 15.468a21.95 21.95 0 0015.105 6.04 21.95 21.95 0 0015.106-6.04 22.36 22.36 0 006.198-15.468 22.36 22.36 0 00-6.198-15.468 21.95 21.95 0 00-15.106-6.04 21.95 21.95 0 00-15.105 6.04zm67.903 52.452v-73.66h18.965v55.888h26.267V39.08h18.965v55.888h26.266V39.08h18.965v73.66H741.56zM867.406 26.11a11.45 11.45 0 01-2.484-3.82 11.523 11.523 0 01-.806-4.497c-.048-1.55.212-3.092.766-4.538a11.577 11.577 0 012.459-3.877 11.45 11.45 0 013.761-2.603 11.361 11.361 0 018.937 0 11.47 11.47 0 013.761 2.603 11.59 11.59 0 012.458 3.877c.554 1.445.815 2.989.766 4.538a11.465 11.465 0 01-.795 4.498 11.397 11.397 0 01-2.484 3.82 11.56 11.56 0 01-8.169 3.39 11.562 11.562 0 01-8.17-3.39zm-1.239 86.631v-73.66h18.818v73.66h-18.818z" fill="#66B387"/><path d="M379.87 56.73a27.521 27.521 0 0115.471-9.57c-6.502-.716-13.42 2.106-18.243 6.998a28.067 28.067 0 00-8.192 18.74 31.449 31.449 0 001.329 10.24 26.96 26.96 0 004.801 9.102 23.984 23.984 0 007.888 6.45 19.824 19.824 0 009.578 2.197 24.408 24.408 0 01-14.649-10.673 29.472 29.472 0 01-4.305-17.18 28.704 28.704 0 016.322-16.304z" fill="#171E26"/><path d="M472.53 30.094l-16.463-.671a4974.974 4974.974 0 00-2.254-23.518l-14.04 3.015-18.852 4.04-10.142 2.172c7.539 23.666 5.037 45.512-11.268 64.774 19.156-15.223 24.677-35.521 21.68-59.164l4.598-.979 3.628-.773 18.469-3.948c.62 4.903 1.194 9.5 1.814 14.404l-19.156-.08c-.89 1.138-.496 2.276-.406 3.413 1.972 22.984-6.535 41.29-24.249 55.513-1.972 1.581-3.832 3.322-5.849 5.097 1.567.785 2.75-.353 3.955-.91 15.303-7.214 24.791-19.468 30.02-35.397a87.88 87.88 0 003.628-19.285c9.161-.512 18.266 0 27.777-.068.879 17.328-4.823 32.665-13.027 47.4a27.164 27.164 0 009.657-9.694c5.544-8.568 7.99-18.205 9.443-28.16a73.101 73.101 0 001.037-17.18z" fill="#66B387"/><path d="M403.173 41.7a32.725 32.725 0 00-17.782.455 33.855 33.855 0 00-15.268 10.058l-1.443 1.866c-.236.307-.496.603-.721.933l-.631 1c-.406.672-.868 1.32-1.251 2.015l-1.059 2.127a34.029 34.029 0 00-2.806 9.103l-.214 1.194-.101 1.206c0 .797-.158 1.616-.169 2.424a35.215 35.215 0 00.236 4.87c.172 1.628.451 3.244.834 4.835.203.797.485 1.57.721 2.355l.361 1.138.484 1.138a34.914 34.914 0 008.317 12.39 21.782 21.782 0 001.836 1.707l1.972 1.57a36.435 36.435 0 008.88 4.779l1.194.455 1.229.341c.811.216 1.633.489 2.467.66 1.673.354 3.367.594 5.071.717 1.713.14 3.433.167 5.15.08.856-.069 1.713-.194 2.569-.285.428-.057.868-.091 1.285-.159l1.273-.273a35.952 35.952 0 009.826-3.482l2.31-1.274c.755-.455 1.454-1.001 2.186-1.491l1.127-.762c.36-.262.676-.569 1.014-.853l2.017-1.741a38.396 38.396 0 006.761-8.351 39.39 39.39 0 01-6.107 8.954l-1.927 1.934c-.327.319-.631.671-.981.956l-1.048.876c-.721.569-1.397 1.138-2.141 1.718l-2.253 1.525a38.935 38.935 0 01-10.074 4.482l-1.33.399-1.352.273c-.913.17-1.826.375-2.738.523a45.64 45.64 0 01-5.578.364 44.024 44.024 0 01-5.634-.341c-.936-.125-1.848-.341-2.784-.512l-1.386-.273-1.352-.398a40.488 40.488 0 01-10.412-4.552l-2.389-1.604a28.26 28.26 0 01-2.254-1.786 40.896 40.896 0 01-10.783-13.585l-.677-1.32-.552-1.365c-.36-.91-.755-1.82-1.07-2.754a43.206 43.206 0 01-1.476-5.746 44.764 44.764 0 01-.755-5.916v-4.494l.135-1.49a43.412 43.412 0 012.625-11.754l1.127-2.81c.417-.922.924-1.81 1.386-2.708l.71-1.354c.259-.432.552-.853.834-1.274l1.679-2.55a44.941 44.941 0 0119.156-14.915 45.398 45.398 0 0124.543-2.583L403.173 41.7z" fill="#171E26"/></svg>