<svg width="300" height="100" viewBox="0 0 300 100" fill="none" xmlns="http://www.w3.org/2000/svg">
<path d="M67.0179 77.7504H33.4861C27.3193 77.7504 22.5016 72.7916 22.5016 66.8791V32.9301C22.5016 27.0176 27.3193 22.2495 33.4861 22.2495H67.0179C72.992 22.2495 78.0025 27.0176 78.0025 33.1208V67.0698C78.0025 72.7916 72.992 77.7504 67.0179 77.7504Z" fill="url(#paint0_linear_4768_14423)"/>
<path fill-rule="evenodd" clip-rule="evenodd" d="M32.9048 56.9364V46.53H43.3112V56.9364H53.7171V67.3428H32.9043V56.9364H32.9048Z" fill="#FEFEF9"/>
<path fill-rule="evenodd" clip-rule="evenodd" d="M67.5949 43.0622L67.5949 53.4685L57.1885 53.4685L57.1885 43.0622L46.7826 43.0622L46.7826 32.6557L67.5954 32.6557L67.5954 43.0622L67.5949 43.0622Z" fill="#FEFEF9"/>
<path fill-rule="evenodd" clip-rule="evenodd" d="M96.0023 31.9995L100.775 36.7486H116.788V68.0004H121.715V36.7486H142.502L138.037 31.9995H96.0023Z" fill="#282B38"/>
<path d="M182.758 36.6634C189.363 36.6634 194.739 41.7646 194.739 48.0318V51.9669C194.739 58.2341 189.363 63.3353 182.758 63.3353H165.399H161.866L165.399 67.9992H182.604C191.821 67.9992 199.501 60.8575 199.501 51.9669V48.0318C199.501 39.2869 191.974 31.9995 182.604 31.9995H165.399C156.182 31.9995 148.502 39.1411 148.502 48.0318V53.1329H153.417V48.0318C153.417 41.7646 158.794 36.6634 165.399 36.6634H182.758Z" fill="#282B38"/>
<path fill-rule="evenodd" clip-rule="evenodd" d="M213.01 56.5667H239.943C248.202 56.5667 253.501 51.741 253.501 44.2831C253.501 36.8252 248.202 31.9995 239.943 31.9995H205.501L209.709 36.679H239.943C247.423 36.679 248.514 41.5047 248.514 44.2831C248.514 47.0615 247.423 51.8872 239.943 51.8872H208.151V51.9125H208.023V67.9981H213.01V56.5667Z" fill="#282B38"/>
<path fill-rule="evenodd" clip-rule="evenodd" d="M277.502 31.9995V67.9992H272.557V39.9395L267.975 45.824L264.001 43.0263L272.552 32.0436L272.557 32.047V31.9995H277.502Z" fill="#282B38"/>
<defs>
<linearGradient id="paint0_linear_4768_14423" x1="19.8897" y1="112.438" x2="80.9102" y2="112.238" gradientUnits="userSpaceOnUse">
<stop stop-color="#408E9B"/>
<stop offset="1" stop-color="#4AB6DA"/>
</linearGradient>
</defs>
</svg>
