<svg width="500" height="297" fill="none" xmlns="http://www.w3.org/2000/svg"><g clip-path="url(#clip0_3320_55884)"><path d="M103.462 80c0 11.644-7.29 18.748-15.579 18.748H76.451v80.661H57.174V98.748H35V80h68.462zm28.871 25.563v9.39c3.144-6.554 8.429-10.792 14.576-11.076 15.865-.996 20.152 16.332 11.873 22.435-3.43-9.372-22.153-5.68-23.582 10.368-.286 4.544-.286 9.232-.286 12.924v29.823h-18.59V105.59l16.009-.027zm66.172 27.692c5.861 4.972 14.435 4.543 21.58 3.836 18.151-1.565 9.005-18.888-6.287-18.036-10.861.568-20.583 9.656-20.869 22.435-.286 10.652 6.006 21.304 16.15 23.008 3.853.642 7.804.344 11.514-.869a24.119 24.119 0 009.786-6.091l14.989 7.244c-7.721 11.503-18.441 16.192-32.16 16.192-38.285 0-48.306-44.176-27.424-65.895 7.576-8.096 18.437-11.22 29.02-11.22 35.3 0 43.017 39.759 12.862 47.147-20.587 5.112-34.878-3.692-29.161-17.751zm60.169 46.154v-84.76c0-7.659 6.864-14.343 18.028-14.627v57.213c0 12.923 4.287 27.551 19.153 27.551 26.295 0 25.723-42.319-.145-42.319-5.144 0-11.872 1.276-15.007 5.82-3.289-5.964-1.429-21.727 17.439-22.435 18.292-.568 35.299 15.335 35.299 37.631 0 34.651-35.585 48.854-56.722 28.119v7.812l-18.045-.005zm142.79-8.096c-21.581 21.304-58.041 6.816-58.041-28.835 0-22.864 17.438-39.195 36.161-38.487 18.296.712 21.295 16.899 17.865 23.007-3.144-4.688-10.003-5.964-15.433-5.964-26.444 0-27.016 43.315 0 43.315 15.148 0 19.435-15.056 19.435-28.263v-30.239h18.582v73.562h-18.569v-8.096z" fill="#263336"/><path d="M461.631 162.132a10.322 10.322 0 013.363 7.97 10.556 10.556 0 01-3.363 7.97 10.282 10.282 0 01-7.95 3.372 10.75 10.75 0 01-7.95-3.372 10.998 10.998 0 01-3.213-7.97 11.295 11.295 0 013.23-7.988 11.251 11.251 0 013.626-2.468 11.198 11.198 0 014.293-.89 10.255 10.255 0 014.353.808 10.292 10.292 0 013.611 2.568z" fill="#14A800"/><path d="M352.093 214.997a11.923 11.923 0 01-4.271-.748 9.965 9.965 0 01-3.392-2.103 9.859 9.859 0 01-2.284-3.257 10.737 10.737 0 010-8.164 9.739 9.739 0 012.272-3.238 10.107 10.107 0 013.434-2.128 12.749 12.749 0 018.955.14 9.093 9.093 0 013.516 2.606l-2.981 2.702a6.853 6.853 0 00-2.252-1.747 6.373 6.373 0 00-2.739-.589 6.825 6.825 0 00-2.554.483 5.902 5.902 0 00-2.016 1.309 5.832 5.832 0 00-1.32 2.001 7.244 7.244 0 000 5.119 5.852 5.852 0 003.336 3.31 6.786 6.786 0 002.554.483 6.248 6.248 0 002.739-.603 6.897 6.897 0 002.252-1.761l2.981 2.702a9.238 9.238 0 01-3.516 2.62c-1.496.603-3.1.897-4.714.863zm17.793-.337v-15.146h4.227v4.304l-.593-1.265a4.883 4.883 0 012.184-2.436 7.463 7.463 0 013.663-.83v4.082a5.263 5.263 0 00-.487-.082 4.156 4.156 0 00-.486-.029 4.154 4.154 0 00-2.977 1.042c-.74.695-1.109 1.761-1.109 3.209v7.151h-4.422zm26.364.222a9.848 9.848 0 01-4.567-1.014 7.449 7.449 0 01-3.036-2.769 7.523 7.523 0 01-1.079-4.015 7.827 7.827 0 011.036-4.024 7.26 7.26 0 012.894-2.774 8.682 8.682 0 014.183-.999 8.477 8.477 0 014.047.965 7.174 7.174 0 012.85 2.702 7.962 7.962 0 011.051 4.193c.004.192-.006.384-.029.574-.029.212-.039.42-.059.608h-12.398v-2.562h10.073l-1.731.757a3.962 3.962 0 00-.453-2.05 3.471 3.471 0 00-1.332-1.366 3.922 3.922 0 00-1.99-.482 3.965 3.965 0 00-1.999.482 3.427 3.427 0 00-1.347 1.38 4.313 4.313 0 00-.487 2.094v.676c-.02.769.175 1.529.564 2.195a3.756 3.756 0 001.562 1.448 5.33 5.33 0 002.383.482 5.657 5.657 0 002.116-.366 5.174 5.174 0 001.688-1.096l2.354 2.534a6.914 6.914 0 01-2.636 1.814 9.851 9.851 0 01-3.658.613zm23.693 0a7.882 7.882 0 01-3.891-.965 7.063 7.063 0 01-2.724-2.717 9.006 9.006 0 010-8.203 7.06 7.06 0 012.724-2.716 7.861 7.861 0 013.891-.965 6.555 6.555 0 013.405.844 5.6 5.6 0 012.243 2.562c.574 1.392.845 2.888.792 4.391.049 1.5-.213 2.995-.768 4.391a5.326 5.326 0 01-2.199 2.577 6.745 6.745 0 01-3.473.801zm.74-3.605a4.02 4.02 0 001.989-.482 3.634 3.634 0 001.401-1.448c.364-.695.545-1.47.525-2.253a4.487 4.487 0 00-.525-2.253 3.646 3.646 0 00-1.401-1.419 4.02 4.02 0 00-1.989-.483 3.92 3.92 0 00-1.946.483 3.633 3.633 0 00-1.406 1.419 4.508 4.508 0 00-.525 2.253c-.02.783.161 1.558.525 2.253a3.582 3.582 0 001.406 1.448 3.92 3.92 0 001.946.482zm4.032 3.378v-3.098l.083-4.507-.282-4.472v-8.806h4.426v20.888l-4.227-.005zm17.336-17.255a2.848 2.848 0 01-2.014-.704 2.404 2.404 0 01-.752-1.666 2.407 2.407 0 01.64-1.712c.034-.038.073-.072.112-.111a2.868 2.868 0 012.014-.704 3.01 3.01 0 012.004.661 2.153 2.153 0 01.778 1.703 2.392 2.392 0 01-.768 1.814 2.81 2.81 0 01-2.014.719zm-2.228 17.26v-15.146h4.426v15.146h-4.426zm13.552-11.431v-3.378h10.584v3.378h-10.584zm8.06 11.653c-1.8 0-3.196-.454-4.203-1.366-1.007-.912-1.503-2.263-1.503-4.068v-13.283h4.455v13.201a2.102 2.102 0 00.487 1.491 1.76 1.76 0 001.347.536 2.933 2.933 0 001.819-.565l1.163 3.098a4.534 4.534 0 01-1.605.719c-.641.158-1.3.238-1.96.237zm-142.579-13.944H35v2.812h283.856v-2.812z" fill="#263336"/></g><defs><clipPath id="clip0_3320_55884"><path fill="#fff" transform="translate(35 80)" d="M0 0h430v135H0z"/></clipPath></defs></svg>